<?xml version="1.0" encoding="utf-8"?>
<!-- Generator: Adobe Illustrator 28.0.0, SVG Export Plug-In . SVG Version: 6.00 Build 0)  -->
<svg version="1.1" id="Балкон" xmlns="http://www.w3.org/2000/svg" xmlns:xlink="http://www.w3.org/1999/xlink" x="0px"
	 y="0px" width="1000px" height="1000px" viewBox="0 0 1000 1000" style="enable-background:new 0 0 1000 1000;"
	 xml:space="preserve">
<style type="text/css">
	.st0{fill:#FFFFFF;}
	.st1{fill:#4B5056;}
	.st2{fill:#4B5157;}
	.st3{fill:#CDA69E;}
	.st4{fill:none;stroke:#4B5056;stroke-width:1.2041;stroke-linecap:round;stroke-linejoin:round;stroke-miterlimit:10;}
	.st5{fill:none;stroke:#4B5056;stroke-width:1.3767;stroke-linecap:round;stroke-linejoin:round;stroke-miterlimit:10;}
</style>
<g>
	<path class="st0" d="M990,818.5l-63.74,2.76c0.01,0.01,0.01,0.02,0.01,0.03c0.01,0.27-0.2,0.49-0.47,0.5l-210.43,5.68
		c-0.01,0-0.01,0-0.02,0c-0.26,0-0.47-0.2-0.48-0.47v-0.01l-111.04,1.2v0.04c-0.01,0.26-0.22,0.48-0.49,0.48l-210.44-0.96
		c-0.27,0-0.48-0.22-0.48-0.49l-79.12-1.5l0.32-14.58l-31.36-0.76c-0.02,0.25-0.23,0.44-0.48,0.44c0,0-0.01,0-0.02-0.01
		l-210.88-7.61c-0.27-0.01-0.48-0.23-0.46-0.5l-54.51-2.65l-0.58-0.03L10,799.77l0.58-10.95l4.37-83.88l-0.77-0.07l-1.96-0.13
		l1.92-36.97l9.51-182.83l9.93-188.29l0.71-16.29l1.83-35.5l16.38,0.87l80.77,3.85l78.61,3.06l90.11,2.66l145.4,2.54h0.01
		c0.07-0.05,0.16-0.08,0.26-0.08h4.08c0.19-21.68,8.36-42.41,23.01-58.4c14.75-16.09,34.84-26.06,56.57-28.05
		c0.04-0.01,0.08-0.02,0.12-0.02l2.73,0.01c0.27,0,0.48,0.21,0.48,0.48v86.05h4.08c0.13,0,0.25,0.05,0.34,0.14
		c0.09,0.09,0.14,0.22,0.14,0.34v0.01l44.72,0.16l203.52-3.24l38.32-1.06l51.56-1.64l69.3-2.67l10.7-0.48l8.25-0.32l0.71,16.42
		l4.15,96.28l5.04,118l7.23,168.56l1.06,24l2.28,54.36v0.03l0.67,15.03l1.67,39.49v0.12L990,818.5z"/>
	<g id="LWPOLYLINE_00000159455819471394197450000000101289834957956513_">
		<path class="st1" d="M904.61,292.26c-0.26,0-0.47-0.2-0.48-0.46l-0.98-22.75c-0.01-0.13,0.04-0.25,0.13-0.35
			c0.08-0.09,0.21-0.15,0.33-0.15l36.39-1.57c0.01,0,0.02,0,0.02,0c0.26,0,0.47,0.2,0.48,0.46l0.98,22.75
			c0.01,0.13-0.04,0.25-0.13,0.35c-0.08,0.09-0.21,0.15-0.33,0.15l-36.39,1.57C904.63,292.26,904.62,292.26,904.61,292.26z
			 M904.14,269.5l0.94,21.78l35.43-1.52l-0.94-21.78L904.14,269.5z"/>
	</g>
	<g id="SOLID_00000161623010528760502170000016189028306824941476_">
		<path class="st1" d="M941.01,290.7c-0.21,0-0.41-0.14-0.46-0.36l-4.89-18.06l-32.05-2.77c-0.25-0.02-0.45-0.24-0.44-0.49
			c0.01-0.25,0.21-0.46,0.46-0.47l36.39-1.57c0.01,0,0.02,0,0.02,0c0.26,0,0.47,0.2,0.48,0.46l0.98,22.75
			c0.01,0.25-0.16,0.46-0.4,0.5C941.06,290.69,941.03,290.7,941.01,290.7z M911.1,269.19l24.96,2.16c0.2,0.02,0.37,0.16,0.42,0.35
			l3.85,14.2l-0.77-17.94L911.1,269.19z"/>
	</g>
	<g id="LWPOLYLINE_00000130627621256426219940000017038334220345511300_">
		<path class="st1" d="M283.62,308.88c0,0-0.01,0-0.01,0l-22.76-0.64c-0.13-0.01-0.25-0.06-0.34-0.15
			c-0.09-0.09-0.13-0.22-0.13-0.34l1.03-36.41c0.01-0.26,0.22-0.47,0.48-0.47c0,0,0.01,0,0.01,0l22.76,0.64
			c0.13,0.01,0.25,0.06,0.34,0.15c0.09,0.09,0.13,0.22,0.13,0.34l-1.03,36.41C284.09,308.67,283.88,308.88,283.62,308.88z
			 M261.36,307.28l21.79,0.61l1-35.45l-21.79-0.61L261.36,307.28z"/>
	</g>
	<g id="SOLID_00000066495203265225738270000000583483413758803072_">
		<path class="st1" d="M260.86,308.23c-0.02,0-0.03,0-0.04,0c-0.25-0.03-0.45-0.24-0.44-0.49l1.03-36.41
			c0.01-0.26,0.22-0.47,0.48-0.47c0,0,0.01,0,0.01,0l22.76,0.64c0.25,0.01,0.45,0.2,0.47,0.44c0.02,0.24-0.15,0.47-0.39,0.51
			l-18.36,3.6l-5.04,31.77C261.3,308.06,261.1,308.23,260.86,308.23z M262.36,271.84l-0.8,28.48l3.92-24.74
			c0.03-0.2,0.19-0.36,0.38-0.4l14.44-2.83L262.36,271.84z"/>
	</g>
	<g id="LWPOLYLINE_00000002346365177603772690000006066625797933999013_">
		<path class="st1" d="M897.62,299.89c-0.26,0-0.47-0.2-0.48-0.46l-1.34-31.11c-0.01-0.27,0.19-0.49,0.46-0.5c0.01,0,0.02,0,0.02,0
			c0.26,0,0.47,0.2,0.48,0.46l1.32,30.63l53.11-2.28c0.01,0,0.02,0,0.02,0c0.26,0,0.47,0.2,0.48,0.46c0.01,0.27-0.19,0.49-0.46,0.5
			l-53.59,2.3C897.64,299.89,897.63,299.89,897.62,299.89z"/>
	</g>
	<g id="LINE_00000029726587619446596210000014186613205610729917_">
		<path class="st1" d="M281.84,809.49c-0.01,0-0.01,0-0.02,0c-0.27-0.01-0.47-0.23-0.46-0.5l0.32-8.19
			c0.01-0.26,0.22-0.46,0.48-0.46c0.01,0,0.01,0,0.02,0c0.27,0.01,0.47,0.23,0.46,0.5l-0.32,8.19
			C282.31,809.29,282.09,809.49,281.84,809.49z"/>
	</g>
	<g id="LINE_00000155114132903634709350000010176768655484256437_">
		<path class="st1" d="M282.15,801.3c-0.01,0-0.01,0-0.02,0l-210.88-7.61c-0.26-0.01-0.47-0.23-0.46-0.5
			c0.01-0.26,0.22-0.46,0.48-0.46c0.01,0,0.01,0,0.02,0l210.88,7.61c0.26,0.01,0.47,0.23,0.46,0.5
			C282.63,801.1,282.41,801.3,282.15,801.3z"/>
	</g>
	<g id="LINE_00000096019867230566048010000008108068988272711590_">
		<path class="st1" d="M276.9,805.2c-0.01,0-0.01,0-0.02,0l-200.69-7.22c-0.26-0.01-0.47-0.24-0.46-0.5
			c0.01-0.26,0.23-0.45,0.5-0.46l200.69,7.22c0.26,0.01,0.47,0.24,0.46,0.5C277.37,804.99,277.16,805.2,276.9,805.2z"/>
	</g>
	<g id="LINE_00000016772535737011196270000005610360398001098906_">
		<path class="st1" d="M281.84,809.49c-0.01,0-0.01,0-0.02,0c-0.27-0.01-0.47-0.23-0.46-0.5l0.32-8.19
			c0.01-0.26,0.22-0.46,0.48-0.46c0.01,0,0.01,0,0.02,0c0.27,0.01,0.47,0.23,0.46,0.5l-0.32,8.19
			C282.31,809.29,282.09,809.49,281.84,809.49z"/>
	</g>
	<g id="LINE_00000179631006384702594950000000428416931534023584_">
		<path class="st1" d="M276.74,809.29c-0.01,0-0.01,0-0.02,0c-0.27-0.01-0.47-0.23-0.46-0.5l0.32-8.19
			c0.01-0.26,0.22-0.46,0.48-0.46c0.01,0,0.01,0,0.02,0c0.27,0.01,0.47,0.23,0.46,0.5l-0.32,8.19
			C277.21,809.09,277,809.29,276.74,809.29z"/>
	</g>
	<g id="LINE_00000173882449413561020660000000470380415990542001_">
		<path class="st1" d="M70.95,801.88c-0.01,0-0.01,0-0.02,0c-0.27-0.01-0.47-0.23-0.46-0.5l0.32-8.19c0.01-0.26,0.22-0.46,0.48-0.46
			c0.01,0,0.01,0,0.02,0c0.27,0.01,0.47,0.23,0.46,0.5l-0.32,8.19C71.42,801.68,71.21,801.88,70.95,801.88z"/>
	</g>
	<g id="LINE_00000127739312300085075760000000814754928107117470_">
		<path class="st1" d="M76.05,802.08c-0.01,0-0.01,0-0.02,0c-0.27-0.01-0.47-0.23-0.46-0.5l0.32-8.19c0.01-0.26,0.22-0.46,0.48-0.46
			c0.01,0,0.01,0,0.02,0c0.27,0.01,0.47,0.23,0.46,0.5l-0.32,8.19C76.52,801.88,76.3,802.08,76.05,802.08z"/>
	</g>
	<g id="LINE_00000140011579298732067190000011627333713725705621_">
		<path class="st1" d="M281.84,809.49c-0.01,0-0.01,0-0.02,0l-210.89-7.61c-0.26-0.01-0.47-0.23-0.46-0.5
			c0.01-0.26,0.23-0.46,0.48-0.46c0.01,0,0.01,0,0.02,0l210.89,7.61c0.26,0.01,0.47,0.23,0.46,0.5
			C282.31,809.29,282.09,809.49,281.84,809.49z"/>
	</g>
	<g id="LINE_00000026155082332282015260000001558820718220016028_">
		<path class="st1" d="M282.27,810.39c0,0.01,0,0.02-0.01,0.03c-0.02,0.25-0.23,0.44-0.48,0.44c0,0-0.01,0-0.02-0.01l-210.88-7.61
			c-0.27-0.01-0.48-0.23-0.46-0.5c0-0.25,0.22-0.46,0.48-0.46c0,0,0.01,0,0.02,0h0.04l210.84,7.61c0.03,0,0.05,0,0.07,0.01
			C282.11,809.94,282.28,810.15,282.27,810.39z"/>
	</g>
	<g id="LINE_00000067201456815273258260000004358846237329916849_">
		<path class="st1" d="M282.21,799.92c-0.01,0-0.01,0-0.02,0l-210.89-7.59c-0.26-0.01-0.47-0.23-0.46-0.5
			c0.01-0.26,0.22-0.46,0.48-0.46c0.01,0,0.01,0,0.02,0l210.89,7.59c0.26,0.01,0.47,0.23,0.46,0.5
			C282.68,799.71,282.47,799.92,282.21,799.92z"/>
	</g>
	<g id="LINE_00000096774115570095309700000005081253359374013582_">
		<path class="st1" d="M603.51,791.37C603.51,791.37,603.51,791.37,603.51,791.37l-210.44-0.96c-0.27,0-0.48-0.22-0.48-0.49
			c0-0.26,0.22-0.48,0.48-0.48c0,0,0,0,0,0l210.44,0.96c0.27,0,0.48,0.22,0.48,0.49C603.99,791.15,603.78,791.37,603.51,791.37z"/>
	</g>
	<g id="LINE_00000075130909807902066690000008626972221068913819_">
		<path class="st1" d="M603.41,814.14C603.41,814.14,603.41,814.14,603.41,814.14l-210.44-0.96c-0.27,0-0.48-0.22-0.48-0.49
			c0-0.26,0.22-0.48,0.48-0.48c0,0,0,0,0,0l210.44,0.96c0.27,0,0.48,0.22,0.48,0.49C603.89,813.92,603.68,814.14,603.41,814.14z"/>
	</g>
	<g id="LINE_00000021815898141402315010000009131451335522888366_">
		<path class="st1" d="M397.36,813.2C397.36,813.2,397.36,813.2,397.36,813.2c-0.27,0-0.48-0.22-0.48-0.49l0.04-8.19
			c0-0.26,0.22-0.48,0.48-0.48c0,0,0,0,0,0c0.27,0,0.48,0.22,0.48,0.49l-0.04,8.19C397.84,812.98,397.62,813.2,397.36,813.2z"/>
	</g>
	<g id="LINE_00000027571393930209797850000009780885266547201938_">
		<path class="st1" d="M598.86,814.11C598.86,814.11,598.86,814.11,598.86,814.11c-0.27,0-0.48-0.22-0.48-0.49l0.04-8.19
			c0-0.26,0.22-0.48,0.48-0.48c0,0,0,0,0,0c0.27,0,0.48,0.22,0.48,0.49l-0.04,8.19C599.34,813.9,599.12,814.11,598.86,814.11z"/>
	</g>
	<g id="LINE_00000177476078072060250310000003102127965640716940_">
		<path class="st1" d="M603.45,805.94C603.45,805.94,603.45,805.94,603.45,805.94L393,804.98c-0.27,0-0.48-0.22-0.48-0.49
			c0-0.26,0.22-0.48,0.48-0.48c0,0,0,0,0,0l210.44,0.96c0.27,0,0.48,0.22,0.48,0.49C603.93,805.72,603.71,805.94,603.45,805.94z"/>
	</g>
	<g id="LINE_00000057124626336303044640000006183173870087467650_">
		<path class="st1" d="M593.77,810.5C593.77,810.5,593.77,810.5,593.77,810.5l-191.3-0.87c-0.27,0-0.48-0.22-0.48-0.49
			c0-0.26,0.22-0.48,0.48-0.48c0,0,0,0,0,0l191.3,0.87c0.27,0,0.48,0.22,0.48,0.49C594.25,810.28,594.04,810.5,593.77,810.5z"/>
	</g>
	<g id="LINE_00000035514578822745058680000007981706381927778714_">
		<path class="st1" d="M593.76,814.09C593.76,814.09,593.76,814.09,593.76,814.09c-0.27,0-0.48-0.22-0.48-0.49l0.04-8.2
			c0-0.26,0.22-0.48,0.48-0.48c0,0,0,0,0,0c0.27,0,0.48,0.22,0.48,0.49l-0.04,8.2C594.24,813.88,594.02,814.09,593.76,814.09z"/>
	</g>
	<g id="LINE_00000077292985596454733620000015027544404336507779_">
		<path class="st1" d="M397.36,813.2C397.36,813.2,397.36,813.2,397.36,813.2c-0.27,0-0.48-0.22-0.48-0.49l0.04-8.19
			c0-0.26,0.22-0.48,0.48-0.48c0,0,0,0,0,0c0.27,0,0.48,0.22,0.48,0.49l-0.04,8.19C397.84,812.98,397.62,813.2,397.36,813.2z"/>
	</g>
	<g id="LINE_00000039850227101292367220000015841219180314091439_">
		<path class="st1" d="M402.46,813.22C402.46,813.22,402.46,813.22,402.46,813.22c-0.27,0-0.48-0.22-0.48-0.49l0.03-8.2
			c0-0.26,0.22-0.48,0.48-0.48c0,0,0,0,0,0c0.26,0,0.48,0.22,0.48,0.49l-0.03,8.2C402.94,813.01,402.73,813.22,402.46,813.22z"/>
	</g>
	<g id="LINE_00000088121904064754775900000015613946816738806188_">
		<path class="st1" d="M603.83,828.19v0.04c-0.01,0.26-0.22,0.48-0.49,0.48l-210.44-0.96c-0.27,0-0.48-0.22-0.48-0.49
			c0-0.26,0.22-0.48,0.48-0.48c0,0,0,0,0.01,0l4.66,0.02l201.33,0.92l4.45,0.02C603.6,827.74,603.81,827.94,603.83,828.19z"/>
	</g>
	<g id="LINE_00000069398900580846236580000002788630299273016238_">
		<path class="st1" d="M593.78,809.49C593.78,809.49,593.78,809.49,593.78,809.49l-191.3-0.87c-0.27,0-0.48-0.22-0.48-0.49
			c0-0.26,0.22-0.48,0.48-0.48c0,0,0,0,0,0l191.3,0.87c0.27,0,0.48,0.22,0.48,0.49C594.26,809.28,594.04,809.49,593.78,809.49z"/>
	</g>
	<g id="LINE_00000134962188807708856830000014685931695022360715_">
		<path class="st1" d="M245.72,692.82c-0.01,0-0.01,0-0.02,0l-109.46-3.6c-0.27-0.01-0.47-0.23-0.47-0.5
			c0.01-0.27,0.23-0.49,0.5-0.47l109.46,3.6c0.27,0.01,0.47,0.23,0.47,0.5C246.19,692.62,245.98,692.82,245.72,692.82z"/>
	</g>
	<g id="LINE_00000057866870000923205580000005773197430495152260_">
		<path class="st1" d="M245.55,701.02c-0.01,0-0.01,0-0.02,0l-109.46-3.6c-0.27-0.01-0.47-0.23-0.47-0.5
			c0.01-0.26,0.22-0.47,0.48-0.47c0.01,0,0.01,0,0.02,0l109.46,3.6c0.27,0.01,0.47,0.23,0.47,0.5
			C246.02,700.81,245.81,701.02,245.55,701.02z"/>
	</g>
	<g id="LINE_00000149368199935024031040000012865360410556494733_">
		<path class="st1" d="M240.52,697.27c-0.01,0-0.01,0-0.02,0l-94.65-3.3c-0.27-0.01-0.47-0.24-0.47-0.5
			c0.01-0.26,0.23-0.47,0.48-0.47c0.01,0,0.01,0,0.02,0l94.65,3.3c0.27,0.01,0.47,0.24,0.47,0.5
			C241,697.07,240.78,697.27,240.52,697.27z"/>
	</g>
	<g id="LINE_00000011734095807075477720000003661541204229374378_">
		<path class="st1" d="M140.71,697.51C140.71,697.51,140.7,697.51,140.71,697.51c-0.28-0.01-0.49-0.23-0.48-0.49l0.16-8.19
			c0.01-0.26,0.22-0.47,0.48-0.47c0,0,0.01,0,0.01,0c0.27,0.01,0.48,0.23,0.47,0.49l-0.16,8.19
			C141.19,697.3,140.97,697.51,140.71,697.51z"/>
	</g>
	<g id="LINE_00000106141523735809887470000008457677290533085065_">
		<path class="st1" d="M240.45,700.91C240.45,700.91,240.45,700.91,240.45,700.91c-0.28-0.01-0.49-0.23-0.48-0.49l0.16-8.19
			c0.01-0.27,0.24-0.5,0.49-0.47c0.27,0.01,0.48,0.23,0.47,0.49l-0.16,8.19C240.93,700.7,240.71,700.91,240.45,700.91z"/>
	</g>
	<g id="LINE_00000062879792986429579030000007203190191238933922_">
		<path class="st1" d="M246.02,677.7c-0.01,0-0.01,0-0.02,0l-109.46-3.6c-0.27-0.01-0.47-0.23-0.47-0.5
			c0.01-0.26,0.22-0.47,0.48-0.47c0.01,0,0.01,0,0.02,0l109.46,3.6c0.27,0.01,0.47,0.23,0.47,0.5
			C246.5,677.49,246.28,677.7,246.02,677.7z"/>
	</g>
	<g id="LINE_00000139292476995651105640000013572497699104720810_">
		<path class="st1" d="M244.82,715.04c-0.01,0-0.01,0-0.02,0l-109.46-3.6c-0.27-0.01-0.47-0.23-0.47-0.5
			c0.01-0.27,0.19-0.44,0.5-0.47l109.46,3.6c0.27,0.01,0.47,0.23,0.47,0.5C245.29,714.84,245.08,715.04,244.82,715.04z"/>
	</g>
	<g id="LINE_00000125569174200001203240000007480916233393301670_">
		<path class="st1" d="M145.81,697.61C145.8,697.61,145.8,697.61,145.81,697.61c-0.28-0.01-0.49-0.23-0.48-0.49l0.16-8.19
			c0.01-0.26,0.22-0.47,0.48-0.47c0,0,0.01,0,0.01,0c0.27,0.01,0.48,0.23,0.47,0.49l-0.16,8.19
			C146.28,697.4,146.07,697.61,145.81,697.61z"/>
	</g>
	<g id="LINE_00000039823673618724050560000014279183871087065529_">
		<path class="st1" d="M244.82,715.04c-0.01,0-0.01,0-0.02,0c-0.27-0.01-0.47-0.23-0.47-0.5l1.2-37.35
			c0.01-0.26,0.22-0.47,0.48-0.47c0.01,0,0.01,0,0.02,0c0.27,0.01,0.47,0.23,0.47,0.5l-1.2,37.35
			C245.29,714.84,245.08,715.04,244.82,715.04z"/>
	</g>
	<g id="LINE_00000164480989026601786110000003163368540361015959_">
		<path class="st1" d="M240.54,696.36c-0.01,0-0.01,0-0.02,0l-94.65-3.3c-0.27-0.01-0.47-0.24-0.47-0.5
			c0.01-0.26,0.23-0.47,0.48-0.47c0.01,0,0.01,0,0.02,0l94.65,3.3c0.27,0.01,0.47,0.24,0.47,0.5
			C241.02,696.15,240.8,696.36,240.54,696.36z"/>
	</g>
	<g id="LINE_00000167396910200571701870000002290457669705926302_">
		<path class="st1" d="M714.35,790.15c-0.26,0-0.47-0.21-0.48-0.47c-0.01-0.27,0.2-0.49,0.47-0.5l210.43-5.68
			c0.28-0.04,0.49,0.2,0.5,0.47c0.01,0.27-0.2,0.49-0.47,0.5l-210.43,5.68C714.36,790.15,714.35,790.15,714.35,790.15z"/>
	</g>
	<g id="LINE_00000140700067653180176410000018227178470308018337_">
		<path class="st1" d="M714.96,812.91c-0.26,0-0.47-0.21-0.48-0.47c-0.01-0.27,0.2-0.49,0.47-0.5l210.43-5.68c0,0,0.01,0,0.01,0
			c0.26,0,0.47,0.21,0.48,0.47c0.01,0.27-0.2,0.49-0.47,0.5l-210.43,5.68C714.97,812.91,714.96,812.91,714.96,812.91z"/>
	</g>
	<g id="LINE_00000094587645526825080710000006780369217912946109_">
		<path class="st1" d="M719.35,812.79c-0.26,0-0.47-0.21-0.48-0.47l-0.22-8.19c-0.01-0.27,0.2-0.49,0.47-0.5c0,0,0.01,0,0.01,0
			c0.26,0,0.47,0.21,0.48,0.47l0.22,8.19c0.01,0.27-0.2,0.49-0.47,0.5C719.36,812.79,719.35,812.79,719.35,812.79z"/>
	</g>
	<g id="LINE_00000022552063027743969720000007459402508086398391_">
		<path class="st1" d="M920.84,807.35c-0.26,0-0.47-0.21-0.48-0.47l-0.22-8.19c-0.01-0.27,0.2-0.49,0.47-0.5
			c0.22,0.03,0.49,0.2,0.5,0.47l0.22,8.19c0.01,0.27-0.2,0.49-0.47,0.5C920.85,807.35,920.85,807.35,920.84,807.35z"/>
	</g>
	<g id="LINE_00000046334269258539010420000001813112018809349288_">
		<path class="st1" d="M714.74,804.71c-0.26,0-0.47-0.21-0.48-0.47c-0.01-0.27,0.2-0.49,0.47-0.5l210.44-5.68c0,0,0.01,0,0.01,0
			c0.26,0,0.47,0.21,0.48,0.47c0.01,0.27-0.2,0.49-0.47,0.5l-210.44,5.68C714.75,804.71,714.74,804.71,714.74,804.71z"/>
	</g>
	<g id="LINE_00000083772755895466108150000004240725283617588881_">
		<path class="st1" d="M724.35,809.06c-0.26,0-0.47-0.21-0.48-0.47c-0.01-0.27,0.2-0.49,0.47-0.5l191.3-5.17c0,0,0.01,0,0.01,0
			c0.26,0,0.47,0.21,0.48,0.47c0.01,0.27-0.2,0.49-0.47,0.5l-191.3,5.17C724.36,809.06,724.35,809.06,724.35,809.06z"/>
	</g>
	<g id="LINE_00000127724922151882485570000011864068598042686360_">
		<path class="st1" d="M915.74,807.48c-0.26,0-0.47-0.21-0.48-0.47l-0.22-8.19c-0.01-0.27,0.2-0.49,0.47-0.5c0,0,0.01,0,0.01,0
			c0.26,0,0.47,0.21,0.48,0.47l0.22,8.19c0.01,0.27-0.2,0.49-0.47,0.5C915.75,807.48,915.75,807.48,915.74,807.48z"/>
	</g>
	<g id="LINE_00000062160843054998402710000002564683498834299284_">
		<path class="st1" d="M719.35,812.79c-0.26,0-0.47-0.21-0.48-0.47l-0.22-8.19c-0.01-0.27,0.2-0.49,0.47-0.5c0,0,0.01,0,0.01,0
			c0.26,0,0.47,0.21,0.48,0.47l0.22,8.19c0.01,0.27-0.2,0.49-0.47,0.5C719.36,812.79,719.35,812.79,719.35,812.79z"/>
	</g>
	<g id="LINE_00000172425644722380575080000006505773785739507625_">
		<path class="st1" d="M724.45,812.65c-0.26,0-0.47-0.21-0.48-0.47l-0.22-8.19c-0.01-0.27,0.2-0.49,0.47-0.5
			c0.29,0,0.49,0.2,0.5,0.47l0.22,8.19c0.01,0.27-0.2,0.49-0.47,0.5C724.46,812.65,724.45,812.65,724.45,812.65z"/>
	</g>
	<g id="LINE_00000094576656497647652990000012791462481011153556_">
		<path class="st1" d="M926.27,821.29c0.01,0.27-0.2,0.49-0.47,0.5l-210.43,5.68c-0.01,0-0.01,0-0.02,0c-0.26,0-0.47-0.2-0.48-0.47
			v-0.01c-0.01-0.26,0.2-0.47,0.47-0.48l4.71-0.13l201.18-5.44l4.55-0.12h0.01c0.25,0,0.45,0.19,0.47,0.44
			C926.27,821.27,926.27,821.28,926.27,821.29z"/>
	</g>
	<g id="LINE_00000120558585943149027170000016780267920640415107_">
		<path class="st1" d="M724.32,808.05c-0.26,0-0.47-0.21-0.48-0.47c-0.01-0.27,0.2-0.49,0.47-0.5l191.3-5.17
			c0.21-0.01,0.49,0.2,0.5,0.47c0.01,0.27-0.2,0.49-0.47,0.5l-191.3,5.17C724.33,808.05,724.33,808.05,724.32,808.05z"/>
	</g>
	<g id="LWPOLYLINE_00000143583395427083854300000002390261574278484355_">
		<path class="st1" d="M770.46,322.2c-0.01-0.26-0.23-0.47-0.49-0.47h-0.01l-6.36,0.16h-0.01c-0.13,0.01-0.25,0.06-0.34,0.15
			c-0.08,0.1-0.13,0.22-0.13,0.35l0.11,4.07l0.01,0.48c0.01,0.26,0.22,0.47,0.48,0.47h0.01l0.48-0.01l5.9-0.15
			c0.12-0.01,0.24-0.06,0.33-0.15c0.09-0.1,0.14-0.22,0.14-0.35L770.46,322.2z M764.19,326.43l-0.09-3.58l5.4-0.14l0.1,3.58
			L764.19,326.43z"/>
	</g>
	<g id="LWPOLYLINE_00000134228651866194944970000013023396117314445208_">
		<path class="st1" d="M772.01,381.37c-0.01-0.26-0.23-0.47-0.49-0.47h-0.01l-6.34,0.17h-0.04c-0.13,0-0.24,0.06-0.33,0.15
			c-0.08,0.09-0.13,0.21-0.13,0.34l0.01,0.48l0.11,4.07c0.01,0.21,0.13,0.38,0.31,0.44c0.05,0.03,0.11,0.04,0.17,0.04h0.01
			l6.38-0.17c0.12-0.01,0.24-0.06,0.33-0.15c0.09-0.09,0.13-0.21,0.14-0.33c0-0.01,0-0.01,0-0.02L772.01,381.37z M771.05,381.88
			l0.1,3.59l-5.41,0.14l-0.09-3.59L771.05,381.88z"/>
	</g>
	<g id="ARC_00000124879813379440866620000014484377170275121558_">
		<path class="st1" d="M763.74,382.05c-28.74,0-52.78-22.11-55.04-50.92c-0.02-0.27,0.18-0.5,0.44-0.52
			c0.27-0.03,0.5,0.18,0.52,0.44c2.26,28.78,26.67,50.76,55.47,50.01c0.21-0.02,0.49,0.21,0.5,0.47c0.01,0.27-0.2,0.49-0.47,0.5
			C764.68,382.04,764.21,382.05,763.74,382.05z"/>
	</g>
	<g id="LWPOLYLINE_00000059308682654565167630000000928769746129001366_">
		<path class="st1" d="M764.21,327.4l-0.01-0.48c-0.01-0.26-0.22-0.47-0.48-0.47h-0.01l-0.48,0.01l-54.13,1.42
			c-0.27,0.01-0.48,0.23-0.47,0.49l0.07,2.72v0.02c0,0.03,0,0.06,0.01,0.09c0.02,0.09,0.07,0.17,0.14,0.24
			c0.09,0.09,0.21,0.14,0.33,0.14h0.01l0.52-0.01l54.1-1.42c0.12-0.01,0.24-0.06,0.33-0.16c0.09-0.09,0.14-0.21,0.14-0.34
			L764.21,327.4z M709.65,330.6l-0.05-1.77l53.65-1.4l0.05,1.76L709.65,330.6z"/>
	</g>
	<g id="LWPOLYLINE_00000087390273575702213820000011704327875271771050_">
		<path class="st1" d="M593.05,401.99c-0.09-0.09-0.2-0.14-0.32-0.15c-0.01,0-0.01,0-0.02,0h-4.55c-0.27,0-0.48,0.21-0.48,0.48
			l-0.01,5.89v0.48c0,0.13,0.05,0.25,0.14,0.34c0.09,0.09,0.21,0.15,0.34,0.15h4.55c0.27,0,0.48-0.21,0.48-0.48l0.01-6.37
			C593.19,402.2,593.14,402.07,593.05,401.99z M592.22,408.22l-3.59-0.01l0.01-5.41l3.59,0.01L592.22,408.22z"/>
	</g>
	<g id="LWPOLYLINE_00000152261141890782774140000005598442359016266431_">
		<path class="st1" d="M515.65,401.88c-0.09-0.09-0.22-0.14-0.35-0.14l-4.52-0.01h-0.03c-0.26,0-0.48,0.22-0.48,0.49l-0.01,6.1v0.27
			c0,0.13,0.05,0.25,0.14,0.34c0.09,0.09,0.21,0.14,0.34,0.14l4.07,0.01h0.49c0.13,0,0.25-0.06,0.34-0.14
			c0.09-0.1,0.14-0.21,0.14-0.34v-0.01l0.01-6.37C515.79,402.09,515.73,401.97,515.65,401.88z M511.23,408.11v-5.41h3.59v5.41
			H511.23z"/>
	</g>
	<g id="ARC_00000106148831153779742640000016127361763222408075_">
		<path class="st1" d="M585.32,482.02c-0.01,0-0.01,0-0.02,0c-39.56-1.58-70.52-33.83-70.49-73.41c0-0.27,0.22-0.48,0.48-0.48l0,0
			c0.27,0,0.48,0.22,0.48,0.48c-0.03,39.07,30.52,70.89,69.56,72.45c0.27,0.01,0.47,0.23,0.46,0.5
			C585.79,481.81,585.58,482.02,585.32,482.02z"/>
	</g>
	<g id="LWPOLYLINE_00000052783118092800166920000017216116505147676818_">
		<path class="st1" d="M588.49,408.35c-0.09-0.09-0.21-0.14-0.34-0.14h-2.73c-0.27,0-0.48,0.21-0.49,0.48l-0.09,72.33v0.51
			c0,0.13,0.05,0.25,0.14,0.34c0.06,0.06,0.14,0.11,0.23,0.13c0.01,0.01,0.01,0.01,0.01,0.01c0.04,0.01,0.07,0.01,0.1,0.01h2.73
			c0.27,0,0.48-0.22,0.48-0.48l0.1-72.36v-0.49C588.63,408.57,588.58,408.44,588.49,408.35z M587.57,481.05h-1.77l0.1-71.88h1.77
			L587.57,481.05z"/>
	</g>
	<g id="LWPOLYLINE_00000088102057055629096130000005476707467102955167_">
		<path class="st1" d="M539.07,257.97c-0.09-0.09-0.21-0.14-0.34-0.14h-4.56c-0.13,0-0.25,0.05-0.34,0.14
			c-0.09,0.09-0.14,0.21-0.14,0.34v6.37c0,0.27,0.21,0.48,0.48,0.49h4.56c0.13,0,0.24-0.05,0.33-0.14c0.09-0.09,0.14-0.21,0.14-0.34
			l0.01-6.37v-0.01C539.21,258.19,539.16,258.06,539.07,257.97z M538.24,264.21l-3.59-0.01v-5.41h3.59V264.21z"/>
	</g>
	<g id="LWPOLYLINE_00000007397616794418124260000003578702294971126434_">
		<path class="st1" d="M452.21,257.76h-4.55c-0.1,0-0.19,0.03-0.26,0.08h-0.01c-0.13,0.09-0.21,0.24-0.21,0.4l-0.01,6.38
			c0,0.13,0.05,0.25,0.14,0.34c0.08,0.08,0.2,0.13,0.31,0.13c0.01,0.01,0.02,0.01,0.03,0.01h4.56c0.13,0,0.25-0.05,0.34-0.14
			c0.09-0.09,0.14-0.21,0.14-0.34l0.01-6.38C452.7,257.98,452.48,257.76,452.21,257.76z M451.73,264.14h-3.59v-5.42h3.59V264.14z"/>
	</g>
	<g id="ARC_00000144318193976895306660000008644270705610155934_">
		<path class="st1" d="M531.92,171.73c0.03,0.27-0.17,0.5-0.43,0.53c-0.18,0.02-0.35,0.03-0.53,0.06
			c-44.5,4.31-78.1,41.16-78.26,85.92c-0.01,0.26-0.22,0.48-0.49,0.48c-0.26,0-0.48-0.22-0.48-0.49c0-0.16,0-0.31,0.01-0.47
			c0.19-21.68,8.36-42.41,23.01-58.4c14.75-16.09,34.84-26.06,56.57-28.05c0.03-0.01,0.05-0.01,0.08-0.01
			c0.01,0,0.03-0.01,0.04-0.01C531.69,171.29,531.9,171.48,531.92,171.73z"/>
	</g>
	<g id="LWPOLYLINE_00000068661482390338596690000017038519653284800643_">
		<path class="st1" d="M534.17,171.3l-2.73-0.01c-0.04,0-0.08,0.01-0.12,0.02c-0.08,0.02-0.16,0.07-0.22,0.13
			c-0.09,0.09-0.14,0.21-0.14,0.34v86.53c0,0.26,0.22,0.48,0.48,0.48h2.73c0.13,0,0.25-0.05,0.34-0.14
			c0.09-0.09,0.14-0.21,0.14-0.34v-86.53C534.65,171.51,534.44,171.3,534.17,171.3z M531.93,257.83v-85.57h1.76v85.57H531.93z"/>
	</g>
	<g id="ARC_00000183949175939945526560000007084800318168284815_">
		<path class="st1" d="M252.09,692.95L252.09,692.95c-0.27,0-0.48-0.22-0.48-0.49c0.19-32.93,26.13-59.43,59.05-60.33
			c0,0,0.01,0,0.01,0c0.26,0,0.47,0.21,0.48,0.47c0.01,0.27-0.2,0.49-0.47,0.5c-32.4,0.88-57.92,26.97-58.11,59.37
			C252.57,692.73,252.35,692.95,252.09,692.95z"/>
	</g>
	<g id="LINE_00000074420593957277472680000003815142829448240542_">
		<path class="st1" d="M252.09,692.95C252.09,692.95,252.08,692.95,252.09,692.95l-6.38-0.13c-0.27-0.01-0.48-0.23-0.47-0.49
			c0.01-0.26,0.22-0.47,0.48-0.47c0,0,0.01,0,0.01,0l6.37,0.13c0.27,0.01,0.48,0.23,0.47,0.49
			C252.57,692.74,252.35,692.95,252.09,692.95z"/>
	</g>
	<g id="LINE_00000183935410960616448470000001197907013331564699_">
		<path class="st1" d="M251.93,701.15C251.92,701.15,251.92,701.15,251.93,701.15c-0.28-0.01-0.49-0.23-0.48-0.49l0.16-8.19
			c0.01-0.26,0.22-0.47,0.48-0.47c0,0,0.01,0,0.01,0c0.27,0.01,0.48,0.23,0.47,0.49l-0.16,8.19
			C252.4,700.94,252.19,701.15,251.93,701.15z"/>
	</g>
	<g id="LINE_00000162332242886139731650000017469379844679894461_">
		<path class="st1" d="M251.93,701.15C251.92,701.15,251.92,701.15,251.93,701.15l-6.38-0.13c-0.27-0.01-0.48-0.23-0.47-0.49
			c0.01-0.26,0.22-0.47,0.48-0.47c0,0,0.01,0,0.01,0l6.37,0.13c0.27,0.01,0.48,0.23,0.47,0.49
			C252.4,700.94,252.19,701.15,251.93,701.15z"/>
	</g>
	<g id="LINE_00000109017047580844093920000016397911858988125829_">
		<path class="st1" d="M318.39,702.48C318.39,702.48,318.38,702.48,318.39,702.48l-6.38-0.13c-0.27-0.01-0.48-0.23-0.47-0.49
			c0.01-0.26,0.22-0.47,0.48-0.47c0,0,0.01,0,0.01,0l6.37,0.13c0.27,0.01,0.48,0.23,0.47,0.49
			C318.87,702.27,318.65,702.48,318.39,702.48z"/>
	</g>
	<g id="LINE_00000119829607632111747930000004033742551868465586_">
		<path class="st1" d="M312.02,702.35C312.01,702.35,312.01,702.35,312.02,702.35c-0.28-0.01-0.49-0.23-0.48-0.49l0.16-8.19
			c0.01-0.26,0.22-0.47,0.48-0.47c0,0,0.01,0,0.01,0c0.27,0.01,0.48,0.23,0.47,0.49l-0.16,8.19
			C312.49,702.14,312.28,702.35,312.02,702.35z"/>
	</g>
	<g id="LINE_00000070099095229781025760000006929888684815087014_">
		<path class="st1" d="M318.55,694.28C318.55,694.28,318.55,694.28,318.55,694.28l-6.38-0.13c-0.27-0.01-0.48-0.23-0.47-0.49
			c0.01-0.26,0.22-0.47,0.48-0.47c0,0,0.01,0,0.01,0l6.37,0.13c0.27,0.01,0.48,0.23,0.47,0.49
			C319.03,694.07,318.81,694.28,318.55,694.28z"/>
	</g>
	<g id="LINE_00000110436853811369981690000007429489590609093005_">
		<path class="st1" d="M318.39,702.48C318.39,702.48,318.38,702.48,318.39,702.48c-0.28-0.01-0.49-0.23-0.48-0.49l0.16-8.19
			c0.01-0.26,0.22-0.47,0.48-0.47c0,0,0.01,0,0.01,0c0.27,0.01,0.48,0.23,0.47,0.49l-0.16,8.19
			C318.87,702.27,318.65,702.48,318.39,702.48z"/>
	</g>
	<g id="LWPOLYLINE_00000070812756163775603030000016832938680517228422_">
		<path class="st1" d="M313.41,632.2l-2.64-0.05h-0.1c-0.12,0-0.24,0.05-0.33,0.13c-0.1,0.09-0.15,0.21-0.15,0.34l-0.01,0.5
			l-1.22,60.49c0,0.26,0.21,0.48,0.48,0.49l2.25,0.05l0.48,0.01h0.01c0.13,0,0.24-0.05,0.33-0.14c0.1-0.09,0.15-0.21,0.15-0.34
			v-0.02l0.01-0.46l1.22-60.5C313.89,632.43,313.68,632.21,313.41,632.2z M311.71,693.18l-1.77-0.03l1.2-60.03l1.77,0.04
			L311.71,693.18z"/>
	</g>
	<g id="LWPOLYLINE_00000083800391294510294340000002645372274255302832_">
		<path class="st1" d="M674.64,408.03l-0.1-5.88c0-0.27-0.22-0.48-0.48-0.48h-0.01l-4.55,0.08h-0.01c-0.13,0-0.24,0.06-0.33,0.15
			c-0.09,0.09-0.13,0.21-0.13,0.34l0.1,6.38c0.01,0.26,0.22,0.47,0.49,0.47c0,0,0,0,0.01,0l4.07-0.07l0.48-0.01
			c0.13,0,0.25-0.06,0.34-0.15c0.09-0.09,0.13-0.21,0.13-0.34L674.64,408.03z M670.09,408.12l-0.09-5.41l3.59-0.06l0.09,5.4
			L670.09,408.12z"/>
	</g>
	<g id="LWPOLYLINE_00000024691879510062104160000000259439408413660297_">
		<path class="st1" d="M751.94,400.82c0-0.12-0.06-0.25-0.15-0.33c-0.09-0.09-0.26-0.15-0.34-0.14h-0.01l-4.55,0.08
			c-0.12,0-0.25,0.05-0.33,0.14c-0.09,0.1-0.14,0.22-0.14,0.35l0.11,6.37v0.01c0.02,0.26,0.22,0.47,0.48,0.47c0.01,0,0.01,0,0.01,0
			l0.48-0.01l4.07-0.07c0.13,0,0.25-0.06,0.34-0.15c0.09-0.09,0.14-0.21,0.14-0.34v-0.02L751.94,400.82z M747.49,406.79l-0.1-5.41
			l3.59-0.06l0.09,5.41L747.49,406.79z"/>
	</g>
	<g id="ARC_00000176040862884599606780000008300013348017361317_">
		<path class="st1" d="M678.15,481.8c-0.25,0-0.47-0.2-0.48-0.45c-0.02-0.27,0.19-0.5,0.45-0.51c39.01-2.17,69.06-34.48,68.41-73.54
			c0-0.27,0.21-0.49,0.47-0.49c0.22-0.02,0.49,0.21,0.49,0.47c0.66,39.59-29.79,72.32-69.32,74.52
			C678.17,481.8,678.16,481.8,678.15,481.8z"/>
	</g>
	<g id="LWPOLYLINE_00000152955191022221404350000013974911720619783864_">
		<path class="st1" d="M678.62,480.81l-1.23-72.34c-0.01-0.26-0.22-0.47-0.49-0.47l-2.26,0.03l-0.48,0.01
			c-0.12,0.01-0.25,0.06-0.33,0.15c-0.1,0.1-0.14,0.22-0.14,0.35l0.01,0.48l1.23,72.35c0.01,0.13,0.06,0.25,0.15,0.34
			c0.09,0.09,0.21,0.14,0.34,0.14c0,0,0,0,0.01,0l2.72-0.05h0.01c0.01,0,0.01,0,0.02,0c0.25-0.02,0.45-0.24,0.45-0.49L678.62,480.81
			z M675.89,480.87L674.66,409l1.77-0.03l1.23,71.87L675.89,480.87z"/>
	</g>
	<g id="LWPOLYLINE_00000023249158881081710550000012572905438242002846_">
		<path class="st1" d="M355.54,317.9l-6.37-0.13h-0.01c-0.11,0-0.25,0.05-0.34,0.13c-0.09,0.09-0.14,0.21-0.15,0.34l-0.08,4.07
			l-0.01,0.48c0,0.27,0.21,0.49,0.47,0.5l0.49,0.01l5.88,0.12c0.01,0,0.01,0,0.01,0c0.13,0,0.25-0.05,0.34-0.14
			c0.09-0.08,0.14-0.21,0.15-0.33l0.09-4.56C356.01,318.13,355.8,317.91,355.54,317.9z M354.96,322.44l-5.41-0.11l0.08-3.59
			l5.41,0.11L354.96,322.44z"/>
	</g>
	<g id="LWPOLYLINE_00000047748096650559199030000014425942776302075522_">
		<path class="st1" d="M354.27,395.44c-0.08-0.1-0.21-0.15-0.34-0.15l-6.37-0.13h-0.01c-0.26,0-0.48,0.21-0.48,0.47l-0.01,0.47
			l-0.09,4.08c0,0.13,0.05,0.25,0.14,0.34c0.09,0.1,0.21,0.15,0.34,0.15h0.02l6.35,0.14h0.01c0.26,0,0.47-0.2,0.48-0.47v-0.01
			l0.1-4.55C354.41,395.65,354.36,395.53,354.27,395.44z M348.02,396.13l5.41,0.11l-0.07,3.59l-5.41-0.11L348.02,396.13z"/>
	</g>
	<g id="ARC_00000131340850876763034850000000119696807175085454_">
		<path class="st1" d="M347.54,396.12C347.54,396.12,347.54,396.12,347.54,396.12c-39.59-0.84-71.14-32.51-71.85-72.09
			c0-0.27,0.21-0.49,0.47-0.49c0,0,0.01,0,0.01,0c0.26,0,0.48,0.21,0.48,0.47c0.69,39.07,31.83,70.31,70.89,71.14
			c0.27,0.01,0.48,0.23,0.47,0.49C348.02,395.91,347.8,396.12,347.54,396.12z"/>
	</g>
	<g id="LWPOLYLINE_00000088833178065938047560000006571772004037266876_">
		<path class="st1" d="M349.07,322.32l-0.48-0.01l-72.35-1.5c-0.11,0.04-0.25,0.05-0.34,0.13c-0.09,0.09-0.15,0.21-0.15,0.34
			l-0.06,2.74v0.01c0.01,0.26,0.21,0.47,0.48,0.48l0.5,0.01l72.33,1.5c0,0,0,0,0.01,0c0.12,0,0.24-0.05,0.33-0.14
			c0.09-0.09,0.15-0.21,0.15-0.34l0.05-2.24l0.01-0.49C349.55,322.55,349.34,322.33,349.07,322.32z M348.54,325.04l-71.87-1.49
			l0.03-1.77l71.87,1.49L348.54,325.04z"/>
	</g>
	<g id="POLYLINE_00000152957368504150894980000014107644867366452157_">
		<path class="st1" d="M97.85,428.49c-0.01,0-0.02,0-0.03,0l-54.56-2.84c-0.27-0.01-0.47-0.24-0.45-0.51l2.84-54.56
			c0.01-0.26,0.23-0.46,0.48-0.46c0.01,0,0.02,0,0.03,0l54.56,2.84c0.27,0.01,0.47,0.24,0.45,0.51l-2.84,54.57
			c-0.01,0.13-0.06,0.25-0.16,0.33C98.08,428.45,97.97,428.49,97.85,428.49z M43.79,424.71l53.6,2.79l2.79-53.61l-53.6-2.79
			L43.79,424.71z"/>
	</g>
	<g id="SPLINE_00000022562757389255468690000002038806614654887299_">
		<path class="st1" d="M83.1,421.32c-0.17,0-0.35-0.01-0.52-0.02c-5.34-0.28-9.46-4.85-9.18-10.19c0.28-5.34,4.88-9.51,10.19-9.18
			c5.34,0.28,9.46,4.85,9.18,10.19c-0.13,2.59-1.27,4.97-3.19,6.7C87.79,420.45,85.5,421.32,83.1,421.32z M83.09,402.89
			c-4.61,0-8.48,3.62-8.72,8.28c-0.25,4.81,3.46,8.93,8.27,9.18c2.37,0.1,4.57-0.68,6.3-2.23c1.73-1.56,2.75-3.71,2.88-6.04
			l0.48,0.03l-0.48-0.03c0.25-4.81-3.46-8.93-8.27-9.18C83.39,402.89,83.24,402.89,83.09,402.89z"/>
	</g>
	<g id="SPLINE_00000072966499053845993040000000392497181191367309_">
		<path class="st1" d="M83.09,418.59c-0.12,0-0.24,0-0.36-0.01c-1.86-0.1-3.57-0.91-4.82-2.29c-1.25-1.38-1.88-3.17-1.78-5.03
			c0.09-1.86,0.91-3.57,2.29-4.82c1.38-1.24,3.13-1.85,5.03-1.78c3.83,0.2,6.8,3.48,6.59,7.32l0,0
			C89.85,415.7,86.77,418.59,83.09,418.59z M83.08,405.62c-1.48,0-2.9,0.54-4.01,1.54c-1.19,1.07-1.89,2.55-1.98,4.15
			c-0.08,1.6,0.46,3.14,1.53,4.33c1.07,1.19,2.55,1.89,4.15,1.98c0.1,0,0.21,0.01,0.31,0.01c3.17,0,5.83-2.49,6-5.69l0,0
			c0.17-3.31-2.38-6.14-5.68-6.31C83.3,405.63,83.19,405.62,83.08,405.62z M89.57,411.96h0.01H89.57z"/>
	</g>
	<g id="SPLINE_00000084490302395652070370000005887581175766331563_">
		<path class="st1" d="M60.89,396.68c-0.17,0-0.34-0.01-0.51-0.02c-2.59-0.13-4.97-1.27-6.7-3.19c-1.73-1.93-2.62-4.41-2.48-7
			c0.13-2.59,1.27-4.97,3.19-6.7c1.93-1.74,4.41-2.64,7-2.48c5.34,0.28,9.46,4.85,9.18,10.19l0,0
			C70.3,392.66,66.01,396.68,60.89,396.68z M60.87,378.25c-2.16,0-4.22,0.79-5.84,2.25c-1.73,1.56-2.75,3.71-2.88,6.04
			c-0.12,2.33,0.67,4.57,2.23,6.3c1.56,1.73,3.71,2.76,6.04,2.88c4.86,0.21,8.93-3.46,9.18-8.27l0,0c0.25-4.81-3.46-8.93-8.27-9.18
			C61.18,378.25,61.03,378.25,60.87,378.25z M70.09,387.46h0.01H70.09z"/>
	</g>
	<g id="SPLINE_00000021835550651402775830000012148902933322861733_">
		<path class="st1" d="M60.89,393.95c-0.13,0-0.25,0-0.37-0.01c-1.86-0.09-3.57-0.91-4.81-2.29s-1.88-3.17-1.78-5.03
			c0.2-3.83,3.44-6.79,7.32-6.59c1.86,0.09,3.57,0.91,4.82,2.29c1.25,1.38,1.88,3.17,1.78,5.03l0,0c-0.09,1.86-0.91,3.57-2.29,4.81
			C64.26,393.32,62.61,393.95,60.89,393.95z M60.88,380.98c-3.17,0-5.83,2.49-6,5.69c-0.17,3.31,2.38,6.14,5.68,6.31
			c1.61,0.04,3.14-0.47,4.33-1.54c1.19-1.07,1.89-2.55,1.98-4.15l0,0c0.08-1.6-0.46-3.14-1.54-4.33c-1.07-1.19-2.55-1.89-4.15-1.98
			C61.09,380.98,60.99,380.98,60.88,380.98z"/>
	</g>
	<g id="SPLINE_00000036244055933295752300000001992449021002076557_">
		<path class="st1" d="M59.67,416.39c-0.1,0-0.21,0-0.31-0.01c-1.6-0.08-3.07-0.78-4.14-1.97c-1.07-1.19-1.61-2.72-1.53-4.32
			c0.08-1.6,0.78-3.07,1.97-4.13c1.19-1.08,2.72-1.62,4.32-1.53c1.6,0.08,3.07,0.78,4.14,1.97c1.07,1.19,1.62,2.72,1.53,4.32l0,0
			C65.48,413.91,62.83,416.39,59.67,416.39z M59.66,405.38c-1.24,0-2.43,0.45-3.36,1.29c-0.99,0.9-1.58,2.13-1.65,3.47
			c-0.07,1.34,0.39,2.63,1.29,3.63c0.9,0.99,2.13,1.58,3.47,1.65c2.8,0.15,5.14-2,5.28-4.76l0,0c0.07-1.34-0.39-2.63-1.29-3.62
			c-0.9-1-2.13-1.59-3.47-1.66C59.84,405.38,59.75,405.38,59.66,405.38z M65.17,410.69h0.01H65.17z"/>
	</g>
	<g id="SPLINE_00000157279268481236839030000015108850834963629993_">
		<path class="st1" d="M59.67,413.66c-0.06,0-0.12,0-0.18-0.01c-1.79-0.09-3.17-1.63-3.08-3.42c0.04-0.87,0.43-1.67,1.07-2.25
			c0.65-0.58,1.49-0.88,2.35-0.83c0.87,0.04,1.67,0.42,2.25,1.07c0.58,0.65,0.88,1.48,0.83,2.35c-0.04,0.87-0.42,1.67-1.07,2.25
			C61.24,413.37,60.48,413.66,59.67,413.66z M59.66,408.11c-0.56,0-1.1,0.21-1.53,0.59c-0.45,0.41-0.72,0.97-0.76,1.58
			c-0.06,1.26,0.91,2.34,2.17,2.41c0.63,0.01,1.2-0.18,1.65-0.59c0.45-0.41,0.72-0.97,0.76-1.58l0,0c0.03-0.61-0.18-1.2-0.59-1.65
			c-0.41-0.45-0.97-0.72-1.58-0.76C59.74,408.12,59.7,408.11,59.66,408.11z"/>
	</g>
	<g id="SPLINE_00000173878195518081320720000007291345330801508030_">
		<path class="st1" d="M84.31,394.19c-0.11,0-0.21,0-0.32-0.01c-3.29-0.17-5.84-3-5.67-6.29c0.08-1.6,0.78-3.07,1.97-4.14
			c1.19-1.07,2.75-1.64,4.32-1.53c1.6,0.08,3.07,0.78,4.14,1.97c1.07,1.19,1.61,2.72,1.53,4.32l0,0c-0.08,1.6-0.78,3.07-1.97,4.14
			C87.2,393.65,85.79,394.19,84.31,394.19z M84.3,383.18c-1.24,0-2.43,0.45-3.36,1.29c-0.99,0.9-1.58,2.13-1.65,3.47
			c-0.14,2.76,1.99,5.13,4.76,5.28c1.33,0.06,2.63-0.39,3.62-1.29c1-0.9,1.59-2.13,1.66-3.47l0,0c0.07-1.34-0.39-2.63-1.28-3.62
			c-0.9-0.99-2.13-1.58-3.47-1.65C84.48,383.18,84.39,383.18,84.3,383.18z"/>
	</g>
	<g id="SPLINE_00000093139696784888699960000011295567271740925330_">
		<path class="st1" d="M84.31,391.46c-0.06,0-0.11,0-0.17-0.01c-0.87-0.04-1.67-0.42-2.25-1.07c-0.58-0.65-0.88-1.48-0.83-2.35
			c0.09-1.79,1.68-3.14,3.42-3.08c1.79,0.09,3.17,1.63,3.08,3.42l0,0C87.47,390.11,86.03,391.46,84.31,391.46z M84.31,385.91
			c-1.21,0-2.23,0.95-2.29,2.17c-0.03,0.61,0.18,1.2,0.59,1.65c0.41,0.45,0.97,0.72,1.58,0.76c1.26,0.01,2.34-0.91,2.41-2.17l0,0
			c0.06-1.26-0.91-2.34-2.17-2.41C84.39,385.91,84.35,385.91,84.31,385.91z M87.08,388.35h0.01H87.08z"/>
	</g>
	<g id="SPLINE_00000105409289410001748270000003769306073391758745_">
		<path class="st1" d="M865.44,312.38c-0.45-0.01-0.85-0.07-1.23-0.16c-2.67-0.72-4.26-3.46-3.55-6.13c0.19-0.71,0.71-1.29,1.4-1.55
			c1.95-0.73,4.12-0.82,6.11-0.22c0.71,0.21,1.27,0.75,1.51,1.45l0,0c0.13,0.38,0.22,0.77,0.25,1.15c0.13,1.33-0.27,2.63-1.12,3.66
			C867.98,311.62,866.77,312.25,865.44,312.38z M865.46,304.88c-1.04,0-2.07,0.19-3.04,0.56c-0.4,0.15-0.7,0.49-0.81,0.9
			c-0.57,2.15,0.71,4.37,2.86,4.95c0.3,0.08,0.62,0.13,0.94,0.13c1.02-0.1,1.99-0.61,2.67-1.45c0.69-0.83,1.01-1.88,0.9-2.96
			c-0.03-0.31-0.09-0.62-0.2-0.93l0,0c-0.14-0.4-0.46-0.72-0.87-0.84C867.11,305,866.29,304.88,865.46,304.88z"/>
	</g>
	<g id="SPLINE_00000080167051951407153180000000860745017710441866_">
		<path class="st1" d="M865.52,327.14c-0.27,0-0.53-0.01-0.8-0.03c-3.26-0.21-6.25-1.68-8.41-4.13c-1.16-1.32-1.94-2.93-2.26-4.66
			l0,0c-0.19-1.05-0.3-2.12-0.34-3.17l-0.34-9.58c-0.13-3.69,2.24-7.02,5.78-8.11c3.71-1.13,7.67-1.27,11.45-0.41
			c3.6,0.83,6.21,3.98,6.34,7.67l0.34,9.58c0.04,1.05,0,2.12-0.11,3.18c-0.19,1.75-0.86,3.42-1.92,4.81
			c-0.49,0.65-1.05,1.25-1.66,1.78C871.34,326.07,868.5,327.14,865.52,327.14z M855,318.15c0.28,1.56,0.99,3.01,2.03,4.2
			c1.99,2.26,4.74,3.61,7.75,3.81c3,0.19,5.91-0.8,8.17-2.79c0.56-0.49,1.07-1.04,1.53-1.64c0.96-1.26,1.55-2.75,1.73-4.33
			c0.11-1.01,0.14-2.04,0.11-3.04l-0.34-9.58c-0.12-3.26-2.42-6.04-5.59-6.77c-3.62-0.83-7.4-0.7-10.95,0.39
			c-3.12,0.95-5.21,3.89-5.1,7.15l0.35,9.58C854.71,316.12,854.82,317.14,855,318.15L855,318.15z"/>
	</g>
	<g id="SPLINE_00000077296686451577239840000003541545037461055366_">
		<path class="st1" d="M865.5,331.66c-8.97,0-16.43-7.13-16.75-16.17l-0.9-25.32c0-0.05,0-0.11,0.02-0.16
			c0.6-1.94,1.22-3.87,1.87-5.79c0.07-0.19,0.25-0.33,0.46-0.33h0l3.9,0.03l10.3-0.18l8.2-0.41l5.97-0.46
			c0.23-0.02,0.41,0.1,0.49,0.29c0.78,1.87,1.54,3.75,2.28,5.64c0.02,0.05,0.03,0.1,0.03,0.16l0.9,25.31
			c0.16,4.47-1.43,8.74-4.49,12.02c-3.05,3.28-7.2,5.17-11.67,5.33C865.9,331.66,865.7,331.66,865.5,331.66z M848.81,290.22
			l0.9,25.24c0.3,8.51,7.33,15.24,15.79,15.24c0.19,0,0.38,0,0.57-0.01c4.22-0.15,8.13-1.93,11-5.02c2.87-3.09,4.38-7.12,4.23-11.33
			l-0.9-25.23c-0.68-1.75-1.39-3.49-2.11-5.22l-5.63,0.43l-4.77,0.29l-10.95,0.3l-2.85,0.01l-3.55-0.03
			C849.94,286.64,849.37,288.43,848.81,290.22z"/>
	</g>
	<g id="SPLINE_00000151502716168883973030000012738409592515781557_">
		<path class="st1" d="M864.15,278.71c-0.43,0-0.84-0.16-1.15-0.45c-0.33-0.31-0.52-0.73-0.54-1.19c-0.02-0.45,0.14-0.89,0.45-1.22
			c0.31-0.33,0.73-0.52,1.19-0.54c0.45-0.02,0.89,0.14,1.23,0.45c0.33,0.31,0.52,0.73,0.54,1.19c0.02,0.45-0.15,0.89-0.46,1.22
			c-0.31,0.33-0.73,0.52-1.19,0.54C864.19,278.71,864.17,278.71,864.15,278.71z M864.16,276.27c-0.01,0-0.02,0-0.03,0
			c-0.41,0.02-0.73,0.36-0.72,0.77c0.02,0.4,0.35,0.72,0.74,0.72c0.01,0,0.02,0,0.03,0c0.2-0.01,0.38-0.09,0.51-0.24
			c0.13-0.14,0.21-0.33,0.2-0.53c-0.01-0.2-0.09-0.38-0.24-0.51C864.52,276.34,864.34,276.27,864.16,276.27z"/>
	</g>
	<g id="SPLINE_00000072978621001800363970000005615340843285490567_">
		<path class="st1" d="M864.15,279.01c-0.51,0-0.99-0.19-1.36-0.54c-0.39-0.37-0.62-0.86-0.64-1.4c-0.04-1.1,0.83-2.03,1.93-2.07
			l0,0c0.02,0,0.04,0,0.07,0c1.07,0,1.97,0.85,2,1.94c0.02,0.53-0.17,1.04-0.54,1.44c-0.37,0.39-0.86,0.62-1.4,0.64
			C864.2,279.01,864.17,279.01,864.15,279.01z M864.11,275.97c-0.57,0.02-1.02,0.5-1,1.08c0.01,0.28,0.13,0.53,0.33,0.72
			c0.2,0.19,0.47,0.3,0.74,0.28c0.28-0.01,0.54-0.13,0.73-0.33c0.19-0.2,0.29-0.47,0.28-0.74c-0.02-0.56-0.48-1.01-1.04-1.01
			C864.14,275.97,864.13,275.97,864.11,275.97z"/>
	</g>
	<g id="SPLINE_00000173873538017408182920000008418298809258133381_">
		<path class="st1" d="M854.69,284.9c-1.81,0-3.63-0.02-5.44-0.05c-0.03,0-0.1-0.01-0.13-0.01c-0.56-0.03-1.12-0.29-1.53-0.75
			c-0.41-0.45-0.62-1.04-0.59-1.65l0.61-11.83c0.04-0.72,0.61-1.29,1.33-1.31l29.81-1.06c0.01,0,0.03,0,0.04,0
			c0.69,0,1.3,0.53,1.38,1.22l1.45,11.76c0.01,0.03,0.01,0.09,0.01,0.12c0.05,0.56-0.13,1.16-0.52,1.63
			c-0.39,0.47-0.94,0.76-1.55,0.82C871.33,284.52,862.99,284.9,854.69,284.9z M878.81,269.18c-0.01,0-0.01,0-0.02,0l-29.8,1.06
			c-0.22,0.01-0.4,0.18-0.41,0.4l-0.61,11.83c-0.02,0.35,0.1,0.69,0.34,0.96c0.24,0.26,0.56,0.42,0.92,0.44
			c10.08,0.19,20.24-0.16,30.25-1.08c0.35-0.03,0.67-0.2,0.9-0.47c0.23-0.27,0.33-0.61,0.3-0.97l0.47-0.1l-0.48,0.06l-1.45-11.76
			C879.2,269.34,879.02,269.18,878.81,269.18z"/>
	</g>
	<g id="SPLINE_00000043428791363200009820000006897275722636313987_">
		<path class="st1" d="M119.7,283.79c-0.04,0-0.08,0-0.11,0c-0.26-0.01-0.47-0.24-0.46-0.5c0.01-0.26,0.22-0.46,0.48-0.46
			c0.03,0,0.06,0.01,0.09,0c0.87,0,1.6-0.69,1.64-1.57c0.01-0.26,0.22-0.46,0.48-0.46c0.01,0,0.01,0,0.02,0
			c0.26,0.01,0.47,0.24,0.46,0.5C122.24,282.7,121.08,283.79,119.7,283.79z"/>
	</g>
	<g id="SPLINE_00000095333762697414413910000009811947591540078008_">
		<path class="st1" d="M119.61,283.79c-0.01,0-0.01,0-0.02,0c-0.69-0.03-1.33-0.32-1.8-0.83c-0.47-0.51-0.72-1.18-0.68-1.87
			c0.06-1.39,1.21-2.49,2.6-2.49c0.04,0,0.07,0,0.11,0c0.27,0.01,0.47,0.23,0.46,0.5c-0.01,0.26-0.22,0.46-0.48,0.46
			c-0.03,0-0.05-0.01-0.08,0c-0.87,0-1.6,0.69-1.64,1.57c-0.02,0.44,0.13,0.85,0.43,1.18c0.29,0.32,0.7,0.51,1.13,0.53
			c0.27,0.01,0.47,0.23,0.46,0.5C120.08,283.59,119.87,283.79,119.61,283.79z"/>
	</g>
	<g id="SPLINE_00000155105753523198075760000005552246274328335250_">
		<path class="st1" d="M121.82,281.77c-0.01,0-0.01,0-0.02,0c-0.26-0.01-0.47-0.24-0.46-0.5c0.02-0.44-0.13-0.85-0.43-1.18
			c-0.29-0.32-0.7-0.51-1.14-0.53c-0.26-0.01-0.47-0.24-0.46-0.5c0.01-0.26,0.22-0.46,0.48-0.46c0.01,0,0.01,0,0.02,0
			c1.43,0.06,2.55,1.28,2.49,2.71C122.29,281.56,122.08,281.77,121.82,281.77z"/>
	</g>
	<g id="POLYLINE_00000005260470489465470670000011411489322645251969_">
		<path class="st1" d="M111.97,285.27c-0.01,0-0.01,0-0.02,0c-0.27-0.01-0.47-0.24-0.46-0.5l0.08-1.81
			c0.01-0.26,0.22-0.46,0.48-0.46c0.01,0,0.01,0,0.02,0c0.27,0.01,0.47,0.24,0.46,0.5l-0.08,1.81
			C112.44,285.07,112.22,285.27,111.97,285.27z"/>
	</g>
	<g id="SPLINE_00000135678438430001005600000003457657748355961509_">
		<path class="st1" d="M142.46,316.14c-0.13,0-0.27,0-0.41-0.01l-22.39-0.94h0c-5.2-0.22-9.26-4.63-9.04-9.84l0.94-22.39
			c0.22-5.2,4.61-9.3,9.84-9.04l22.39,0.94c2.52,0.1,4.85,1.19,6.56,3.04c1.71,1.86,2.59,4.27,2.48,6.79l-0.94,22.39
			c-0.1,2.52-1.19,4.85-3.04,6.56C147.09,315.26,144.83,316.14,142.46,316.14z M119.7,314.23l22.39,0.94c0.13,0,0.25,0.01,0.37,0.01
			c2.13,0,4.15-0.79,5.73-2.24c1.67-1.53,2.64-3.62,2.74-5.89l0.94-22.39c0.09-2.27-0.7-4.43-2.23-6.1
			c-1.53-1.67-3.63-2.64-5.89-2.74l-22.39-0.94c-0.12,0-0.24-0.01-0.36-0.01c-4.51,0-8.28,3.57-8.48,8.13l-0.94,22.39
			C111.38,310.06,115.03,314.03,119.7,314.23L119.7,314.23z"/>
	</g>
	<g id="POLYLINE_00000047027131993940803480000012927258075228624786_">
		<path class="st1" d="M139.48,271.16c-0.01,0-0.01,0-0.02,0l-13.44-0.56c-0.27-0.01-0.47-0.24-0.46-0.5
			c0.01-0.26,0.22-0.46,0.48-0.46c0.01,0,0.01,0,0.02,0l13.44,0.56c0.27,0.01,0.47,0.24,0.46,0.5
			C139.95,270.95,139.74,271.16,139.48,271.16z"/>
	</g>
	<g id="POLYLINE_00000148645140325331496430000012533874627441275526_">
		<path class="st1" d="M137.15,273.3c-0.01,0-0.01,0-0.02,0c-0.27-0.01-0.47-0.24-0.46-0.5l0.19-4.48c0.01-0.26,0.22-0.46,0.48-0.46
			c0.01,0,0.01,0,0.02,0c0.27,0.01,0.47,0.24,0.46,0.5l-0.19,4.48C137.62,273.1,137.4,273.3,137.15,273.3z"/>
	</g>
	<g id="POLYLINE_00000112590111017718627840000017223960219170809526_">
		<path class="st1" d="M128.19,272.93c-0.01,0-0.01,0-0.02,0c-0.27-0.01-0.47-0.24-0.46-0.5l0.19-4.48
			c0.01-0.26,0.22-0.46,0.48-0.46c0.01,0,0.01,0,0.02,0c0.27,0.01,0.47,0.24,0.46,0.5l-0.19,4.48
			C128.66,272.72,128.45,272.93,128.19,272.93z"/>
	</g>
	<g id="POLYLINE_00000083790995422707668940000013879545704962868644_">
		<path class="st1" d="M145.18,288.12c-0.15,0-0.3-0.07-0.39-0.2l-12.42-17.25c-0.15-0.22-0.11-0.52,0.11-0.67
			c0.21-0.15,0.52-0.1,0.67,0.11l12.42,17.25c0.15,0.22,0.11,0.52-0.11,0.67C145.38,288.09,145.28,288.12,145.18,288.12z"/>
	</g>
	<g id="LWPOLYLINE_00000152255866932483111790000005882706515594241207_">
		<path class="st1" d="M157.95,322.14c-0.01,0-0.01,0-0.02,0l-54.59-2.3c-0.27-0.01-0.47-0.24-0.46-0.5l2.3-54.59
			c0.01-0.26,0.22-0.46,0.48-0.46c0.01,0,0.01,0,0.02,0l54.59,2.3c0.27,0.01,0.47,0.24,0.46,0.5l-2.3,54.59
			C158.42,321.94,158.2,322.14,157.95,322.14z M103.86,318.9l53.63,2.26l2.26-53.63l-53.63-2.26L103.86,318.9z"/>
	</g>
	<g id="SPLINE_00000163789460490549669400000005722396313200965566_">
		<path class="st1" d="M940.81,351.39c-0.1,0-0.21-0.03-0.3-0.1c-0.29-0.22-0.52-0.52-0.71-0.88c-0.62-1.25-0.4-2.9,0.5-3.75
			c0.19-0.18,0.5-0.17,0.68,0.02c0.18,0.19,0.17,0.5-0.02,0.68c-0.59,0.55-0.73,1.75-0.3,2.61c0.12,0.24,0.27,0.42,0.44,0.56
			c0.21,0.16,0.24,0.47,0.08,0.68C941.09,351.33,940.95,351.39,940.81,351.39z"/>
	</g>
	<g id="SPLINE_00000054987202681311745590000004236530827696622779_">
		<path class="st1" d="M936.99,352.13c-1.24,0-2.28-1.28-2.36-2.9l0,0c-0.04-0.95,0.24-1.83,0.79-2.43
			c0.39-0.42,0.86-0.66,1.38-0.68c0.03,0,0.06,0,0.08,0c1.25,0,2.28,1.25,2.35,2.9c0.07,1.68-0.88,3.05-2.17,3.1
			C937.04,352.13,937.01,352.13,936.99,352.13z M935.59,349.19c0.05,1.08,0.68,1.98,1.39,1.98c0.01,0,0.03,0,0.04,0
			c0.72-0.03,1.3-0.99,1.25-2.1c-0.05-1.09-0.68-1.98-1.4-1.98c-0.01,0-0.03,0-0.04,0c-0.32,0.02-0.56,0.21-0.71,0.37
			C935.76,347.86,935.56,348.51,935.59,349.19L935.59,349.19z"/>
	</g>
	<g id="SPLINE_00000050632203834127572540000011503021555962294190_">
		<path class="st1" d="M936.19,374.05c-8.8,0-16.37-10.67-16.97-24.13l0,0c-0.61-13.7,6.21-25.18,15.23-25.58
			c0.17-0.01,0.34-0.01,0.5-0.01c4.22,0,8.27,2.41,11.45,6.85c3.26,4.54,5.21,10.68,5.51,17.28c0.3,6.6-1.1,12.89-3.93,17.71
			c-2.87,4.88-6.88,7.68-11.29,7.88C936.52,374.05,936.36,374.05,936.19,374.05z M920.18,349.88c0.58,12.94,7.72,23.21,16.01,23.21
			c0.15,0,0.3,0,0.45-0.01c4.07-0.18,7.8-2.81,10.5-7.41c2.74-4.66,4.09-10.76,3.81-17.17c-0.29-6.42-2.18-12.37-5.33-16.77
			c-3.1-4.33-7.07-6.6-11.12-6.43C926.01,325.68,919.6,336.71,920.18,349.88L920.18,349.88z"/>
	</g>
	<g id="SPLINE_00000143580832676034530920000009976030569357249926_">
		<path class="st1" d="M933.93,368.3c-0.69,0-1.38-0.09-2.07-0.27c-3.83-1-7.13-4.59-9.06-9.85c-3.37-9.19-1.43-20.67,4.33-25.6
			c2.37-2.02,5.17-2.74,7.9-2.03c3.83,1,7.13,4.59,9.06,9.85c0.02,0.05,0.03,0.09,0.03,0.14l0.28,6.3c0.01,0.27-0.19,0.49-0.46,0.5
			c-0.01,0-0.02,0-0.02,0c-0.26,0-0.47-0.2-0.48-0.46l-0.28-6.22c-1.83-4.92-4.88-8.27-8.38-9.18c-2.45-0.63-4.88-0.01-7.03,1.83
			c-5.48,4.69-7.3,15.69-4.06,24.53c1.82,4.96,4.88,8.33,8.4,9.26c2.45,0.63,4.88,0.01,7.02-1.83c2.13-1.82,3.83-4.78,4.78-8.33
			c0.07-0.25,0.32-0.41,0.59-0.34c0.26,0.07,0.41,0.33,0.34,0.59c-1,3.74-2.81,6.86-5.09,8.81
			C937.99,367.51,935.97,368.3,933.93,368.3z"/>
	</g>
	<g id="POLYLINE_00000135671301215035108100000000686638326315959732_">
		<path class="st1" d="M944.38,357.55c-0.26,0-0.47-0.2-0.48-0.46l-0.28-6.3c-0.01-0.27,0.19-0.49,0.46-0.5c0.01,0,0.02,0,0.02,0
			c0.26,0,0.47,0.2,0.48,0.46l0.28,6.3c0.01,0.27-0.19,0.49-0.46,0.5C944.39,357.55,944.38,357.55,944.38,357.55z"/>
	</g>
	<g id="LWPOLYLINE_00000087384671117242706070000010771794167270360973_">
		<path class="st1" d="M946.85,355.16c-0.12,0-0.24-0.05-0.33-0.13c-0.09-0.08-0.15-0.2-0.15-0.33l-0.18-4.03
			c-0.01-0.27,0.19-0.49,0.46-0.5c0.01,0,0.02,0,0.02,0c0.26,0,0.47,0.2,0.48,0.46l0.16,3.55l1.5-0.07l-0.5-10.98l-1.5,0.07
			l0.16,3.54c0.01,0.27-0.19,0.49-0.46,0.5c-0.01,0-0.02,0-0.02,0c-0.26,0-0.47-0.2-0.48-0.46l-0.18-4.02
			c-0.01-0.13,0.04-0.25,0.13-0.35c0.08-0.09,0.2-0.15,0.33-0.15l2.46-0.11c0.01,0,0.02,0,0.02,0c0.26,0,0.47,0.2,0.48,0.46
			l0.54,11.94c0.01,0.27-0.19,0.49-0.46,0.5l-2.46,0.11C946.86,355.16,946.85,355.16,946.85,355.16z"/>
	</g>
	<g id="LWPOLYLINE_00000134942110122794684570000012544094871625075869_">
		<path class="st1" d="M940.81,351.39c-0.26,0-0.47-0.2-0.48-0.46c-0.01-0.27,0.19-0.49,0.46-0.5l7.2-0.33l-0.13-2.94l-7.2,0.32
			c-0.01,0-0.02,0-0.02,0c-0.26,0-0.47-0.2-0.48-0.46c-0.01-0.27,0.19-0.49,0.46-0.5l7.68-0.35c0.01,0,0.02,0,0.02,0
			c0.26,0,0.47,0.2,0.48,0.46l0.18,3.9c0.01,0.13-0.04,0.25-0.13,0.35c-0.08,0.09-0.2,0.15-0.33,0.15l-7.68,0.35
			C940.82,351.39,940.82,351.39,940.81,351.39z"/>
	</g>
	<g id="LWPOLYLINE_00000008122900341166294370000013806708135489191062_">
		<path class="st1" d="M918.31,377.56c-0.26,0-0.47-0.2-0.48-0.46l-2.45-54.59c-0.01-0.13,0.04-0.25,0.13-0.35
			c0.08-0.09,0.2-0.15,0.33-0.15l36.39-1.63c0.01,0,0.02,0,0.02,0c0.26,0,0.47,0.2,0.48,0.46l2.45,54.59
			c0.01,0.13-0.04,0.25-0.13,0.35c-0.08,0.09-0.2,0.15-0.33,0.15l-36.39,1.63C918.33,377.56,918.32,377.56,918.31,377.56z
			 M916.36,322.95l2.41,53.62l35.43-1.59l-2.41-53.62L916.36,322.95z"/>
	</g>
	<g id="POLYLINE_00000093135336994485638500000018166999839519469203_">
		<path class="st1" d="M259.98,325.55c-0.01,0-0.01,0-0.02,0l-54.61-1.92c-0.27-0.01-0.47-0.24-0.47-0.5l1.92-54.61
			c0.01-0.26,0.23-0.47,0.48-0.47c0.01,0,0.01,0,0.02,0l54.61,1.92c0.13,0.01,0.25,0.06,0.34,0.15c0.09,0.09,0.13,0.22,0.13,0.35
			l-1.92,54.61C260.45,325.34,260.23,325.55,259.98,325.55z M205.86,322.68l53.65,1.89l1.89-53.65l-53.65-1.89L205.86,322.68z"/>
	</g>
	<g id="POLYLINE_00000062874548095601033530000011856278478680046746_">
		<path class="st1" d="M261.42,284.59c-0.01,0-0.01,0-0.02,0l-54.61-1.92c-0.27-0.01-0.47-0.24-0.47-0.5l0.48-13.65
			c0.01-0.26,0.23-0.47,0.48-0.47c0.01,0,0.01,0,0.02,0l54.61,1.92c0.13,0.01,0.25,0.06,0.34,0.15c0.09,0.09,0.13,0.22,0.13,0.35
			l-0.48,13.65C261.89,284.38,261.67,284.59,261.42,284.59z M207.3,281.72l53.65,1.89l0.45-12.69l-53.65-1.89L207.3,281.72z"/>
	</g>
	<g id="SPLINE_00000034059712277404697510000001305479444519800468_">
		<path class="st1" d="M254.83,280.71c-0.04,0-0.08,0-0.13,0c-0.98-0.04-1.89-0.45-2.55-1.17c-0.67-0.72-1.02-1.65-0.99-2.63
			c0.03-0.98,0.45-1.89,1.16-2.56c0.72-0.67,1.64-0.99,2.63-0.99c2.02,0.07,3.61,1.78,3.54,3.8l0,0
			C258.43,279.15,256.79,280.71,254.83,280.71z M254.83,274.33c-0.69,0-1.34,0.26-1.84,0.73c-0.53,0.49-0.83,1.16-0.86,1.88
			c-0.05,1.49,1.11,2.75,2.6,2.8c1.51,0.06,2.75-1.12,2.8-2.61c0.05-1.49-1.12-2.75-2.61-2.8
			C254.89,274.33,254.86,274.33,254.83,274.33z M258.02,277.15h0.01H258.02z"/>
	</g>
	<g id="POLYLINE_00000146481936879534994950000006654594367297020289_">
		<path class="st1" d="M209.6,280.94c-0.01,0-0.01,0-0.02,0c-0.27-0.01-0.47-0.24-0.47-0.5l0.32-9.1c0.01-0.26,0.23-0.47,0.48-0.47
			c0.01,0,0.01,0,0.02,0l41.87,1.47c0.27,0.01,0.47,0.24,0.47,0.5c-0.01,0.26-0.23,0.47-0.48,0.47c-0.01,0-0.01,0-0.02,0
			l-41.39-1.46l-0.3,8.62C210.07,280.74,209.86,280.94,209.6,280.94z"/>
	</g>
	<g id="POLYLINE_00000091699288250501059340000016646903203131438778_">
		<path class="st1" d="M250.06,322.46c-0.01,0-0.01,0-0.02,0l-41.87-1.47c-0.13-0.01-0.25-0.06-0.34-0.15
			c-0.09-0.09-0.13-0.22-0.13-0.35l1.28-36.41c0.01-0.26,0.23-0.47,0.48-0.47c0.01,0,0.01,0,0.02,0c0.27,0.01,0.47,0.24,0.47,0.5
			l-1.26,35.93l41.39,1.45c0.27,0.01,0.47,0.24,0.47,0.5C250.54,322.26,250.32,322.46,250.06,322.46z"/>
	</g>
	<g id="SPLINE_00000020364050857177484100000013652573719041608124_">
		<path class="st1" d="M254.35,294.36c-0.04,0-0.09,0-0.13,0c-0.98-0.03-1.89-0.45-2.55-1.16c-0.67-0.72-1.02-1.65-0.99-2.63
			c0.03-0.98,0.45-1.89,1.16-2.55c0.72-0.67,1.71-0.99,2.63-0.99c0.98,0.03,1.89,0.45,2.55,1.16s1.02,1.65,0.99,2.63h0
			c-0.03,0.98-0.45,1.89-1.16,2.55C256.17,294.01,255.29,294.36,254.35,294.36z M254.35,287.99c-0.69,0-1.34,0.26-1.84,0.73
			c-0.53,0.49-0.83,1.16-0.86,1.88c-0.03,0.72,0.23,1.41,0.72,1.94c0.49,0.53,1.16,0.83,1.88,0.86c0.74,0.07,1.42-0.23,1.95-0.72
			c0.53-0.49,0.83-1.16,0.85-1.88c0,0,0,0,0,0c0.03-0.72-0.23-1.41-0.73-1.95c-0.49-0.53-1.16-0.83-1.88-0.85
			C254.41,287.99,254.38,287.99,254.35,287.99z"/>
	</g>
	<g id="POLYLINE_00000182503635966836645730000010999342262528866455_">
		<path class="st1" d="M231.12,316.09c-0.01,0-0.01,0-0.02,0c-0.27-0.01-0.47-0.24-0.47-0.5l0.92-26.13
			c0.01-0.27,0.27-0.51,0.5-0.47c0.27,0.01,0.47,0.24,0.47,0.5l-0.92,26.13C231.6,315.88,231.38,316.09,231.12,316.09z"/>
	</g>
	<g id="POLYLINE_00000085961171245572579080000005991774137660066200_">
		<path class="st1" d="M244.65,303.48c-0.01,0-0.01,0-0.02,0l-26.13-0.92c-0.27-0.01-0.47-0.24-0.47-0.5
			c0.01-0.26,0.23-0.47,0.48-0.47c0.01,0,0.01,0,0.02,0l26.13,0.92c0.27,0.01,0.47,0.24,0.47,0.5
			C245.12,303.28,244.9,303.48,244.65,303.48z"/>
	</g>
	<g id="POLYLINE_00000169543713083290358730000002388232795672001467_">
		<path class="st1" d="M239.17,311.17c-0.13,0-0.26-0.05-0.35-0.15l-15.18-16.29c-0.18-0.19-0.17-0.5,0.02-0.68
			c0.2-0.18,0.5-0.17,0.68,0.02l15.18,16.29c0.18,0.19,0.17,0.5-0.02,0.68C239.41,311.12,239.29,311.17,239.17,311.17z"/>
	</g>
	<g id="POLYLINE_00000138562384136929190580000001221911816713846927_">
		<path class="st1" d="M223.44,310.62c-0.13,0-0.26-0.05-0.35-0.15c-0.18-0.19-0.17-0.5,0.02-0.68l16.29-15.18
			c0.19-0.18,0.5-0.17,0.68,0.02c0.18,0.19,0.17,0.5-0.02,0.68l-16.29,15.18C223.67,310.57,223.56,310.62,223.44,310.62z"/>
	</g>
	<g id="POLYLINE_00000163059174823416082890000001091262787181593267_">
		<path class="st1" d="M231.9,294.01c-0.13,0-0.26-0.05-0.35-0.15l-3.75-4.02c-0.18-0.19-0.17-0.5,0.02-0.68
			c0.19-0.18,0.5-0.17,0.68,0.02l3.42,3.67l3.67-3.42c0.19-0.18,0.5-0.17,0.68,0.02c0.18,0.19,0.17,0.5-0.02,0.68l-4.02,3.75
			C232.14,293.97,232.02,294.01,231.9,294.01z"/>
	</g>
	<g id="POLYLINE_00000016063579724267710140000010961805368621326232_">
		<path class="st1" d="M235.02,316.06c-0.13,0-0.26-0.05-0.35-0.15l-3.42-3.67l-3.67,3.42c-0.2,0.18-0.5,0.17-0.68-0.02
			c-0.18-0.19-0.17-0.5,0.02-0.68l4.02-3.75c0.09-0.09,0.28-0.14,0.35-0.13c0.13,0.01,0.25,0.06,0.34,0.15l3.75,4.03
			c0.18,0.19,0.17,0.5-0.02,0.68C235.25,316.02,235.13,316.06,235.02,316.06z"/>
	</g>
	<g id="POLYLINE_00000140007609090350311310000015022322439761422209_">
		<path class="st1" d="M218.55,306.46c-0.13,0-0.26-0.05-0.35-0.15c-0.18-0.19-0.17-0.5,0.02-0.68l3.67-3.43l-3.42-3.67
			c-0.18-0.19-0.17-0.5,0.02-0.68c0.19-0.18,0.5-0.17,0.68,0.02l3.75,4.02c0.18,0.19,0.17,0.5-0.02,0.68l-4.02,3.75
			C218.79,306.41,218.67,306.46,218.55,306.46z"/>
	</g>
	<g id="POLYLINE_00000071530691216418064840000006961549844884436138_">
		<path class="st1" d="M244.34,307.37c-0.13,0-0.26-0.05-0.35-0.15l-3.75-4.03c-0.18-0.19-0.17-0.5,0.02-0.68l4.02-3.75
			c0.19-0.18,0.5-0.17,0.68,0.02c0.18,0.19,0.17,0.5-0.02,0.68l-3.67,3.42l3.42,3.67c0.18,0.19,0.17,0.5-0.02,0.68
			C244.58,307.32,244.46,307.37,244.34,307.37z"/>
	</g>
	<g id="POLYLINE_00000143605863565121705810000004717454030783176065_">
		<path class="st1" d="M241.7,298.37c-0.01,0-0.01,0-0.02,0l-4.94-0.17c-0.27-0.01-0.47-0.24-0.47-0.5l0.17-4.94
			c0.01-0.26,0.23-0.47,0.48-0.47c0.01,0,0.01,0,0.02,0c0.27,0.01,0.47,0.24,0.47,0.5l-0.16,4.46l4.45,0.15
			c0.27,0.01,0.47,0.24,0.47,0.5C242.17,298.17,241.95,298.37,241.7,298.37z"/>
	</g>
	<g id="POLYLINE_00000123410895899055945550000003618269328547485872_">
		<path class="st1" d="M226.76,297.85c-0.01,0-0.01,0-0.02,0l-4.94-0.18c-0.27-0.01-0.48-0.24-0.46-0.5
			c0.01-0.26,0.22-0.47,0.48-0.47c0.01,0,0.01,0,0.02,0l4.46,0.16l0.16-4.45c0.01-0.26,0.23-0.47,0.48-0.47c0.01,0,0.01,0,0.02,0
			c0.27,0.01,0.48,0.24,0.46,0.5l-0.17,4.94C227.23,297.64,227.02,297.85,226.76,297.85z"/>
	</g>
	<g id="POLYLINE_00000049916530429750133750000001122750145815165314_">
		<path class="st1" d="M236.23,313.14c-0.01,0-0.01,0-0.02,0c-0.27-0.01-0.48-0.24-0.46-0.5l0.17-4.94
			c0.01-0.26,0.23-0.47,0.48-0.47c0.01,0,0.01,0,0.02,0l4.94,0.18c0.27,0.01,0.48,0.24,0.46,0.5c-0.01,0.26-0.22,0.47-0.48,0.47
			c-0.01,0-0.01,0-0.02,0l-4.46-0.16l-0.16,4.45C236.71,312.93,236.49,313.14,236.23,313.14z"/>
	</g>
	<g id="POLYLINE_00000025438564674647248120000008316736483777371809_">
		<path class="st1" d="M226.23,312.79c-0.01,0-0.01,0-0.02,0c-0.27-0.01-0.47-0.24-0.47-0.5l0.16-4.46l-4.45-0.15
			c-0.27-0.01-0.47-0.24-0.47-0.5c0.01-0.26,0.23-0.47,0.48-0.47c0.01,0,0.01,0,0.02,0l4.94,0.17c0.27,0.01,0.47,0.24,0.47,0.5
			l-0.17,4.94C226.71,312.58,226.49,312.79,226.23,312.79z"/>
	</g>
	<g id="LWPOLYLINE_00000114065540610897677150000003600457241965890221_">
		<path class="st1" d="M776.43,313.91c-0.12,0-0.24-0.05-0.33-0.13c-0.09-0.09-0.15-0.21-0.15-0.34l-1.51-40.96
			c-0.01-0.27,0.2-0.49,0.46-0.5l54.6-2.01c0.01,0,0.01,0,0.02,0c0.12,0,0.24,0.05,0.33,0.13c0.09,0.09,0.15,0.21,0.15,0.34
			l1.51,40.96c0.01,0.27-0.2,0.49-0.46,0.5l-54.6,2.01C776.44,313.91,776.43,313.91,776.43,313.91z M775.42,272.93l1.47,40
			l53.64-1.97l-1.47-40L775.42,272.93z"/>
	</g>
	<g id="LINE_00000115508544388854519350000000849954299689494443_">
		<path class="st1" d="M799.88,305.25c-0.12,0-0.24-0.04-0.33-0.13c-0.19-0.18-0.2-0.49-0.03-0.68l12.21-13.14
			c0.19-0.19,0.49-0.2,0.68-0.03c0.19,0.18,0.2,0.49,0.03,0.68l-12.21,13.14C800.14,305.2,800.01,305.25,799.88,305.25z"/>
	</g>
	<g id="LINE_00000060749888478700332720000015343611224510928275_">
		<path class="st1" d="M796.68,293.92c-0.12,0-0.24-0.04-0.33-0.13c-0.19-0.18-0.2-0.49-0.03-0.68l6.89-7.42
			c0.19-0.19,0.48-0.2,0.68-0.03c0.19,0.18,0.2,0.49,0.03,0.68l-6.89,7.42C796.94,293.87,796.81,293.92,796.68,293.92z"/>
	</g>
	<g id="LINE_00000021100699472688712340000002297516931568993186_">
		<path class="st1" d="M797.02,303.56c-0.12,0-0.24-0.04-0.33-0.13c-0.19-0.18-0.2-0.49-0.03-0.68l9.93-10.69
			c0.19-0.19,0.49-0.2,0.68-0.03c0.19,0.18,0.2,0.49,0.03,0.68l-9.93,10.69C797.27,303.51,797.15,303.56,797.02,303.56z"/>
	</g>
	<g id="LINE_00000013896277374937244700000001237613382664098215_">
		<path class="st1" d="M804.21,305.83c-0.12,0-0.24-0.04-0.33-0.13c-0.19-0.18-0.2-0.49-0.03-0.68l7.66-8.25
			c0.19-0.19,0.49-0.2,0.68-0.03c0.19,0.18,0.2,0.49,0.03,0.68l-7.66,8.25C804.47,305.78,804.34,305.83,804.21,305.83z"/>
	</g>
	<g id="LINE_00000147177647801996280630000015527426463766762919_">
		<path class="st1" d="M796.95,300.95c-0.12,0-0.24-0.04-0.33-0.13c-0.19-0.18-0.2-0.49-0.03-0.68l11.84-12.75
			c0.19-0.19,0.49-0.2,0.68-0.03c0.19,0.18,0.2,0.49,0.03,0.68L797.3,300.8C797.21,300.9,797.08,300.95,796.95,300.95z"/>
	</g>
	<g id="ELLIPSE_00000159434219761786571130000016230830937432366488_">
		<path class="st1" d="M803.29,305.88c-2.57,0-5.01-0.96-6.91-2.72c-1.99-1.85-3.14-4.36-3.24-7.08c-0.2-5.61,4.19-10.33,9.79-10.54
			c0.13-0.01,0.25-0.01,0.38-0.01c5.43,0,9.95,4.32,10.16,9.8c0.1,2.72-0.86,5.31-2.71,7.3c-1.85,1.99-4.36,3.14-7.08,3.24
			C803.54,305.87,803.41,305.88,803.29,305.88z M803.3,286.49c-0.11,0-0.23,0-0.34,0.01c-5.07,0.19-9.05,4.47-8.87,9.54
			c0.09,2.46,1.14,4.73,2.94,6.41c1.8,1.68,4.17,2.51,6.6,2.46c2.46-0.09,4.73-1.14,6.41-2.94c1.68-1.8,2.54-4.15,2.46-6.6
			C812.31,290.41,808.22,286.49,803.3,286.49z"/>
	</g>
	<g id="ELLIPSE_00000131364842452862415940000002671168051294691740_">
		<path class="st1" d="M803.29,309.03c-7.13,0-13.05-5.66-13.31-12.84c-0.27-7.35,5.48-13.54,12.83-13.81
			c0.17-0.01,0.33-0.01,0.5-0.01c7.13,0,13.05,5.66,13.31,12.84c0.27,7.35-5.48,13.54-12.83,13.81
			C803.62,309.03,803.46,309.03,803.29,309.03z M803.31,283.34c-0.15,0-0.31,0-0.46,0.01c-3.3,0.12-6.36,1.52-8.61,3.94
			c-2.25,2.42-3.42,5.57-3.3,8.87c0.12,3.3,1.52,6.36,3.94,8.61c2.42,2.25,5.58,3.41,8.87,3.3c6.81-0.25,12.15-6,11.91-12.81
			c-0.12-3.3-1.52-6.36-3.94-8.61C809.41,284.5,806.44,283.34,803.31,283.34z"/>
	</g>
	<g id="ELLIPSE_00000154401723201086648910000017463141689634635189_">
		<path class="st1" d="M810.11,278.54c-0.66,0-1.29-0.25-1.78-0.7c-0.51-0.48-0.81-1.12-0.83-1.82c-0.01-0.27,0.2-0.49,0.46-0.5
			c0.01,0,0.01,0,0.02,0c0.26,0,0.47,0.2,0.48,0.46c0.03,0.89,0.77,1.6,1.66,1.6c0.02,0,0.04,0,0.06,0c0.45-0.02,0.85-0.2,1.15-0.53
			c0.3-0.33,0.46-0.75,0.45-1.19c-0.01-0.27,0.2-0.49,0.46-0.5c0.01,0,0.01,0,0.02,0c0.26,0,0.47,0.2,0.48,0.46
			c0.03,0.7-0.22,1.37-0.7,1.88c-0.48,0.51-1.13,0.81-1.83,0.83C810.18,278.54,810.14,278.54,810.11,278.54z"/>
	</g>
	<g id="ELLIPSE_00000121961539476870288030000001255525612894183057_">
		<path class="st1" d="M807.98,276.48c-0.26,0-0.47-0.21-0.48-0.47c-0.05-1.44,1.09-2.66,2.53-2.71c0.03,0,0.07,0,0.1,0
			c0.66,0,1.29,0.25,1.78,0.7c0.51,0.48,0.81,1.13,0.83,1.83c0.01,0.27-0.2,0.49-0.46,0.5c-0.01,0-0.01,0-0.02,0
			c-0.26,0-0.47-0.2-0.48-0.46c-0.02-0.45-0.21-0.85-0.53-1.16c-0.31-0.29-0.71-0.44-1.13-0.44c-0.02,0-0.04,0-0.06,0
			c-0.91,0.03-1.63,0.81-1.6,1.72c0.01,0.26-0.2,0.49-0.47,0.5C807.99,276.48,807.98,276.48,807.98,276.48z"/>
	</g>
	<g id="ELLIPSE_00000084496597387619235600000001279648044429490064_">
		<path class="st1" d="M816.25,278.31c-1.4,0-2.57-1.11-2.62-2.53c-0.01-0.27,0.2-0.49,0.46-0.5c0.28-0.05,0.49,0.19,0.5,0.46
			c0.03,0.89,0.77,1.6,1.66,1.6c0.02,0,0.04,0,0.06,0c0.44-0.02,0.85-0.2,1.15-0.53c0.3-0.33,0.46-0.75,0.44-1.19
			c-0.01-0.27,0.2-0.49,0.46-0.5c0.01,0,0.01,0,0.02,0c0.26,0,0.47,0.2,0.48,0.46c0.03,0.7-0.22,1.37-0.7,1.88
			c-0.48,0.51-1.12,0.81-1.82,0.83C816.31,278.31,816.28,278.31,816.25,278.31z"/>
	</g>
	<g id="ELLIPSE_00000078730570105354568590000002230449086686364579_">
		<path class="st1" d="M814.1,276.25c-0.26,0-0.47-0.2-0.48-0.46c-0.03-0.7,0.22-1.37,0.7-1.88c0.48-0.51,1.12-0.81,1.82-0.83
			c0.03,0,0.07,0,0.1,0c0.67,0,1.29,0.25,1.78,0.7c0.51,0.48,0.81,1.13,0.83,1.83c0.01,0.27-0.2,0.49-0.46,0.5
			c-0.01,0-0.01,0-0.02,0c-0.26,0-0.47-0.2-0.48-0.46c-0.03-0.89-0.77-1.6-1.66-1.6c-0.02,0-0.04,0-0.06,0
			c-0.44,0.02-0.85,0.21-1.15,0.53c-0.3,0.33-0.46,0.75-0.44,1.19c0.01,0.27-0.2,0.49-0.46,0.5
			C814.12,276.25,814.11,276.25,814.1,276.25z"/>
	</g>
	<g id="ELLIPSE_00000023277329249073657920000008175743007319621016_">
		<path class="st1" d="M822.36,278.09c-0.67,0-1.29-0.25-1.78-0.7c-0.51-0.48-0.81-1.13-0.83-1.83c-0.01-0.27,0.2-0.49,0.46-0.5
			c0.01,0,0.01,0,0.02,0c0.26,0,0.47,0.2,0.48,0.46c0.03,0.89,0.77,1.6,1.66,1.6c0.02,0,0.04,0,0.06,0
			c0.44-0.02,0.85-0.21,1.15-0.53c0.3-0.33,0.46-0.75,0.44-1.19c-0.01-0.27,0.2-0.49,0.46-0.5c0.29-0.07,0.49,0.19,0.5,0.46
			c0.03,0.7-0.22,1.37-0.7,1.88c-0.48,0.51-1.12,0.81-1.82,0.83C822.43,278.09,822.39,278.09,822.36,278.09z"/>
	</g>
	<g id="ELLIPSE_00000133526048866130984930000008404353390134384782_">
		<path class="st1" d="M820.23,276.03c-0.26,0-0.47-0.2-0.48-0.46c-0.03-0.7,0.22-1.37,0.7-1.88c0.48-0.51,1.13-0.81,1.83-0.83
			c0.69-0.09,1.37,0.22,1.88,0.7c0.51,0.48,0.81,1.13,0.83,1.83c0.01,0.26-0.2,0.49-0.47,0.5c-0.27,0.03-0.49-0.2-0.5-0.47
			c-0.03-0.89-0.77-1.6-1.66-1.6c-0.02,0-0.04,0-0.06,0c-0.44,0.02-0.85,0.2-1.15,0.53c-0.3,0.33-0.46,0.75-0.44,1.19
			c0.01,0.27-0.2,0.49-0.46,0.5C820.24,276.03,820.23,276.03,820.23,276.03z"/>
	</g>
	<g id="LINE_00000106128355533240523800000008356143924401570494_">
		<path class="st1" d="M775.29,282.86c-0.26,0-0.47-0.21-0.48-0.46c-0.01-0.27,0.2-0.49,0.46-0.5l54.6-2.01
			c0.31-0.04,0.49,0.2,0.5,0.46c0.01,0.27-0.2,0.49-0.46,0.5l-54.6,2.01C775.3,282.86,775.29,282.86,775.29,282.86z"/>
	</g>
	<g id="ELLIPSE_00000015312865642304881400000003528736490346121140_">
		<path class="st1" d="M778.88,278.99c-1.03,0-1.88-0.82-1.92-1.85c-0.02-0.51,0.16-1,0.51-1.38c0.35-0.38,0.82-0.59,1.33-0.61l0,0
			c0.03,0,0.05,0,0.08,0c1.02,0,1.87,0.81,1.91,1.84c0.04,1.06-0.79,1.95-1.84,1.99C778.93,278.99,778.9,278.99,778.88,278.99z
			 M778.88,276.11c-0.01,0-0.03,0-0.04,0c0,0,0,0,0,0c-0.52,0.02-0.93,0.46-0.92,0.99c0.02,0.51,0.45,0.92,0.96,0.92
			c0.01,0,0.02,0,0.03,0c0.52-0.02,0.93-0.46,0.92-0.99C779.81,276.52,779.39,276.11,778.88,276.11z M778.82,275.63h0.01H778.82z"/>
	</g>
	<g id="SPLINE_00000152263507564013833840000001134257676495892618_">
		<path class="st1" d="M839.16,455.18c-14.77,0-26.91-12.56-27.14-28.15c-0.23-15.52,11.11-28.16,25.82-28.77l102.31-4.29
			c2.72-0.15,5.3,0.89,7.29,2.82c1.99,1.93,3.15,4.55,3.27,7.38l1.49,35.65c0.12,2.83-0.82,5.54-2.64,7.62
			c-1.83,2.09-4.32,3.31-7.03,3.42l-103.07,4.32C839.37,455.18,839.27,455.18,839.16,455.18z M940.57,394.92
			c-0.12,0-0.25,0-0.37,0.01l-102.31,4.29c-14.18,0.6-25.12,12.81-24.89,27.8c0.22,15.06,11.93,27.2,26.16,27.2c0.1,0,0.2,0,0.29,0
			l103.06-4.31l0,0c2.44-0.1,4.69-1.2,6.35-3.09c1.66-1.9,2.51-4.37,2.4-6.95l-1.49-35.65c-0.11-2.58-1.16-4.97-2.98-6.73
			C945.07,395.82,942.88,394.92,940.57,394.92z"/>
	</g>
	<g id="SPLINE_00000098934877963408500900000016084724985869560483_">
		<path class="st1" d="M940.44,427.72c-2.27,0-4.18-1.89-4.28-4.29c-0.1-2.46,1.73-4.55,4.08-4.64c0.06,0,0.11-0.01,0.17-0.01
			c2.27,0,4.18,1.89,4.28,4.29c0,0,0,0,0,0c0.1,2.46-1.73,4.54-4.08,4.64C940.56,427.72,940.5,427.72,940.44,427.72z M940.42,419.75
			c-0.04,0-0.09,0-0.13,0c-1.82,0.08-3.24,1.71-3.16,3.64c0.08,1.93,1.58,3.42,3.45,3.36c1.82-0.08,3.24-1.71,3.16-3.64
			C943.65,421.23,942.18,419.75,940.42,419.75z"/>
	</g>
	<g id="LWPOLYLINE_00000047739944669844866620000010059657480685635746_">
		<path class="st1" d="M799.75,462.89c-0.12,0-0.24-0.05-0.33-0.13c-0.09-0.09-0.15-0.21-0.15-0.34l-2.86-68.24
			c-0.01-0.26,0.19-0.49,0.46-0.5l158.31-6.63c0.13-0.04,0.25,0.04,0.35,0.13c0.09,0.09,0.15,0.21,0.15,0.34l2.86,68.24
			c0.01,0.26-0.19,0.49-0.46,0.5l-158.31,6.63C799.76,462.89,799.75,462.89,799.75,462.89z M797.39,394.63l2.82,67.28l157.35-6.59
			l-2.82-67.28L797.39,394.63z"/>
	</g>
	<g>
		<path class="st1" d="M447.39,257.84l-145.4-2.54l-90.11-2.66l-78.61-3.06l-80.77-3.85l-16.38-0.87l-1.83,35.5l-0.71,16.29
			l-9.93,188.29l-9.51,182.83l-1.92,36.97l1.96,0.13l0.77,0.07l-4.37,83.88L10,799.77l5.33,0.29l0.58,0.03l54.51,2.65l0.49,0.02
			h0.03l0.02-0.48l0.03-0.4v-0.01l0.02-0.46l0.02-0.49l0.28-7.23l0.02-0.47l0.02-0.48v-0.01l0.02-0.4l0.02-0.49h-0.06l-0.49-0.02
			L21.5,789.4l4.34-83.88l26.5,1.47l82.54,3.93l0.48,0.02l5.14,0.26l0.02-0.55l0.41-13.07l0.01-0.13l0.01-0.35l-0.71-0.02
			l-4.43-0.14l0.01-0.39l0.25-7.37l0.03-0.89l0.46-14.19l0.02-0.49l-0.5-0.02l-81.94-3.77l-23.64-1.25l1.99-38.45l2.63-49.99
			l1.35-25.93l0.19-3.63l0.1-2.25l0.1-1.92l0.19-3.28l2.83-54.62v-0.06l1.86-35.6l3.28-63.6l5.91-113.63l0.74-13.53l56.8,2.8
			l153.43,5.59l22.75,0.6l-0.1,4.7l-0.64,27.34l-0.13,4.56l68.3,1.6l-2.73-0.03l-0.19,8.53l-0.01,0.5l6.86,0.12l0.44,0.01l0.16-9.03
			l0.86-36.43l90.12,1.29l0.03-9.14l0.03-7.25H447.39z M297.56,303.43l-9.12-0.19l0.64-27.34l9.12,0.19L297.56,303.43z
			 M338.52,304.39l-36.43-0.83l0.64-27.34l36.43,0.83L338.52,304.39z M343.08,304.49l0.64-27.34l9.1,0.22l-0.65,27.34L343.08,304.49
			z"/>
		<polygon class="st1" points="720.06,826.86 715.21,826.99 714.87,826.99 603.83,828.19 603.73,828.19 598.9,828.22 598.9,827.72 
			598.82,814.12 598.82,813.65 599.34,813.65 603.64,813.66 603.64,813.23 603.6,805.91 603.59,804.99 603.51,791.37 603.51,790.89 
			604,790.88 651.75,790.36 647.46,408.93 593.18,408.7 592.7,408.7 592.73,401.84 592.73,401.41 647.38,401.67 654.67,401.57 
			669.48,401.31 669.49,401.75 669.61,408.61 669.13,408.62 654.73,408.86 659.04,790.28 713.86,789.67 714.58,789.66 
			714.59,790.14 714.82,803.75 714.83,804.71 714.95,811.94 714.96,812.42 718.87,812.33 719.81,812.31 719.81,812.39 
			719.82,812.78 720.05,826.38 		"/>
		<path class="st1" d="M988.39,781.36v-0.12l-1.67-39.49l-0.67-15.03v-0.03l-2.28-54.36l-1.06-24l-7.23-168.56l-5.04-118
			l-4.15-96.28l-0.71-16.42l-8.25,0.32l-10.7,0.48l-69.3,2.67l-51.56,1.64l-38.32,1.06l-203.52,3.24l-44.72-0.16h-0.48v16.39
			l106.3-0.61l16.42-0.16l100.97-1.87l1.18,49.82l0.01,0.49l6.85-0.18l0.41-0.01l-1.16-50.25l18.15-0.32l36.47-1.03l2.79-0.06
			l2.38-0.06l18.99-0.68l0.48-0.03l27.88-1l1.77-0.06h0.29l71-2.54l2.47,57.47v0.17l0.07,1.63l1.47,32.07l0.07,2.34l0.67,14.43
			l0.03,1.18l0.52,12.08l0.03,1.38l1.7,40.19l0.9,21.27v0.71l0.23,4.69l0.06,1.54l-0.03-0.06l-163.17,5.33l-2.18-63.77l-0.16-4.53
			l-20.02,0.67l-0.22-9.02l-0.22,0.01l-7.04,0.18l0.01,0.43l0.18,8.66l0.16,4.47l-14.01,0.22l0.01,0.45l0.12,6.84l0.49-0.01
			l13.65-0.24l2.31,68.36l4.56-0.16l18.22-0.64l4.53-0.13l163.29-5.62l0.1,2.54l0.1,2.02l0.64,15.48l1.83,44.34l1.28,28.65
			l0.68,14.85l2.79,64.76l0.55,12.95l0.8,18.57l4.6,108.84l0.03,0.19l-46.75,2.01l-0.48,0.02l0.02,0.49l0.5,13.63l0.04,0.91
			l0.27,7.32l0.01,0.3l-4.29,0.14l-0.5,0.02l0.02,0.56v0.01l0.38,13.59l0.02,0.55l4.88-0.22l0.13-0.01L990,818.5L988.39,781.36z
			 M770,399.58l18.19-0.61l0.32,9.09l-18.19,0.64L770,399.58z M770.48,413.23l18.19-0.61l1.48,43.69l-18.19,0.61L770.48,413.23z
			 M772.41,470.58l-0.32-9.09l18.22-0.61l0.32,9.09L772.41,470.58z"/>
		<polygon class="st1" points="510.78,401.06 510.78,401.73 510.75,408.32 510.26,408.32 354.61,407.64 349.09,679.88 
			348.25,717.37 346.84,789.11 392.59,789.93 393.07,789.94 393.07,790.41 393.01,804.01 393,804.98 392.97,812.21 392.97,812.69 
			396.87,812.71 397.69,812.72 397.69,813.2 397.57,826.8 397.57,827.27 392.91,827.27 392.42,827.26 313.3,825.76 313.62,811.18 
			282.26,810.42 281.85,810.41 281.87,809.9 281.88,809.48 281.91,808.54 282.14,801.3 282.17,800.34 282.19,799.92 282.2,799.48 
			282.68,799.49 313.88,800.25 314.14,788.5 316.48,716.5 317.99,716.53 313.17,716.37 313.67,702.38 313.69,701.76 317.91,701.96 
			318.38,701.98 318.39,701.51 318.59,694.27 318.61,693.33 318.99,679.24 341.8,679.72 347.47,400.67 347.48,400.19 354.31,400.34 
			354.78,400.35 		"/>
	</g>
	<g id="TEXT_00000073680257605817627230000003538087961054000821_">
		<g>
			<path class="st1" d="M161.24,754.37c1.07,1.07,1.6,2.47,1.6,4.22v3.28c0,1.95-0.64,3.53-1.93,4.74
				c-1.29,1.21-2.97,1.81-5.05,1.81c-2.16,0-3.86-0.59-5.11-1.77c-1.25-1.18-1.87-2.8-1.87-4.86v-1.08h3.51v1
				c0,1.05,0.31,1.89,0.94,2.51c0.63,0.62,1.46,0.92,2.49,0.92c1.05,0,1.89-0.33,2.52-0.98c0.63-0.66,0.94-1.54,0.94-2.64v-2.39
				c0-1.08-0.3-1.91-0.91-2.51c-0.6-0.59-1.54-0.89-2.79-0.89h-3.12v-2.81l5.98-6.98h-9.06v-3.28h13.3v3.28l-5.78,6.63
				C158.73,752.7,160.17,753.3,161.24,754.37z"/>
			<path class="st1" d="M171.67,763.25v0.5l-2.78,9.33h-3.16l2-9.83H171.67z"/>
			<path class="st1" d="M189.75,764.68v3.28h-13.46v-3.28l5.21-6.55c1.62-2.06,2.73-3.69,3.33-4.92c0.6-1.22,0.91-2.49,0.91-3.8
				v-0.39c0-1.13-0.28-2-0.85-2.62c-0.57-0.62-1.35-0.93-2.35-0.93c-1.05,0-1.85,0.31-2.39,0.93c-0.54,0.62-0.81,1.5-0.81,2.66v1.04
				h-3.51v-1.04c0-2.18,0.58-3.88,1.75-5.07c1.17-1.19,2.83-1.79,4.99-1.79c2.11,0,3.75,0.59,4.92,1.77
				c1.17,1.18,1.75,2.83,1.75,4.93v0.38c0,1.65-0.36,3.24-1.08,4.78c-0.72,1.54-2.04,3.51-3.97,5.9l-3.78,4.7H189.75z"/>
			<path class="st1" d="M195.2,766.59c-1.3-1.22-1.95-2.85-1.95-4.88v-12.76c0-2.03,0.65-3.66,1.95-4.88
				c1.3-1.22,3.03-1.83,5.18-1.83c2.18,0,3.92,0.61,5.21,1.83c1.28,1.22,1.93,2.85,1.93,4.88v12.76c0,2.03-0.64,3.66-1.93,4.88
				c-1.29,1.22-3.02,1.83-5.21,1.83C198.23,768.42,196.5,767.81,195.2,766.59z M203.01,764.14c0.64-0.67,0.96-1.57,0.96-2.7v-12.18
				c0-1.13-0.32-2.04-0.96-2.72c-0.64-0.68-1.52-1.02-2.62-1.02c-1.08,0-1.95,0.33-2.6,1c-0.66,0.67-0.98,1.58-0.98,2.74v12.18
				c0,1.13,0.33,2.03,0.98,2.7c0.66,0.67,1.52,1,2.6,1C201.49,765.14,202.37,764.81,203.01,764.14z"/>
		</g>
	</g>
	<g id="TEXT_00000079454293730392988260000001941961970713542567_">
		<g>
			<path class="st1" d="M537.84,344.25v-0.39c0-1.13-0.31-2.01-0.92-2.64c-0.62-0.63-1.49-0.94-2.62-0.94
				c-1.16,0-2.06,0.31-2.7,0.94c-0.64,0.63-0.96,1.48-0.96,2.56v4.39c1.1-0.8,2.44-1.19,4.01-1.19c2.03,0,3.67,0.57,4.92,1.7
				c1.25,1.13,1.87,2.66,1.87,4.59v3.2c0,2.13-0.63,3.8-1.89,4.99c-1.26,1.2-3.01,1.79-5.24,1.79c-2.24,0-4-0.62-5.28-1.85
				s-1.93-2.9-1.93-5.01v-12.49c0-2.11,0.64-3.78,1.93-5.01c1.29-1.23,3.05-1.85,5.28-1.85c2.26,0,4.02,0.6,5.26,1.79
				c1.25,1.2,1.87,2.87,1.87,5.03v0.39H537.84z M532.12,350.73c-0.63,0.33-1.12,0.8-1.48,1.39v4.24c0,1.13,0.33,2.02,0.98,2.68
				c0.66,0.66,1.55,0.98,2.68,0.98c1.1,0,1.97-0.33,2.6-0.98c0.63-0.66,0.94-1.55,0.94-2.68v-2.7c0-1.03-0.33-1.86-0.98-2.49
				s-1.52-0.94-2.6-0.94C533.46,350.23,532.75,350.39,532.12,350.73z"/>
			<path class="st1" d="M550.49,358.09v0.5l-2.78,9.33h-3.16l2-9.83H550.49z"/>
			<path class="st1" d="M568.57,359.52v3.28h-13.46v-3.28l5.21-6.55c1.62-2.06,2.73-3.69,3.33-4.92c0.6-1.22,0.91-2.49,0.91-3.8
				v-0.39c0-1.13-0.28-2-0.85-2.62c-0.57-0.62-1.35-0.93-2.35-0.93c-1.05,0-1.85,0.31-2.39,0.93c-0.54,0.62-0.81,1.5-0.81,2.66v1.04
				h-3.51v-1.04c0-2.18,0.58-3.88,1.75-5.07c1.17-1.19,2.83-1.79,4.99-1.79c2.11,0,3.75,0.59,4.92,1.77
				c1.17,1.18,1.75,2.83,1.75,4.93v0.38c0,1.65-0.36,3.24-1.08,4.78c-0.72,1.54-2.04,3.51-3.97,5.9l-3.78,4.7H568.57z"/>
			<path class="st1" d="M582.83,344.25v-0.39c0-1.13-0.31-2.01-0.92-2.64c-0.62-0.63-1.49-0.94-2.62-0.94
				c-1.16,0-2.06,0.31-2.7,0.94c-0.64,0.63-0.96,1.48-0.96,2.56v4.39c1.1-0.8,2.44-1.19,4.01-1.19c2.03,0,3.67,0.57,4.92,1.7
				c1.25,1.13,1.87,2.66,1.87,4.59v3.2c0,2.13-0.63,3.8-1.89,4.99c-1.26,1.2-3.01,1.79-5.24,1.79c-2.24,0-4-0.62-5.28-1.85
				s-1.93-2.9-1.93-5.01v-12.49c0-2.11,0.64-3.78,1.93-5.01c1.29-1.23,3.05-1.85,5.28-1.85c2.26,0,4.02,0.6,5.26,1.79
				c1.25,1.2,1.87,2.87,1.87,5.03v0.39H582.83z M577.11,350.73c-0.63,0.33-1.12,0.8-1.48,1.39v4.24c0,1.13,0.33,2.02,0.98,2.68
				c0.66,0.66,1.55,0.98,2.68,0.98c1.1,0,1.97-0.33,2.6-0.98c0.63-0.66,0.94-1.55,0.94-2.68v-2.7c0-1.03-0.33-1.86-0.98-2.49
				s-1.52-0.94-2.6-0.94C578.45,350.23,577.74,350.39,577.11,350.73z"/>
		</g>
	</g>
	<g id="TEXT_00000055667838383010166900000003147479930965055119_">
		<g>
			<path class="st1" d="M809.38,359.73c1.07,1.07,1.6,2.47,1.6,4.22v3.28c0,1.95-0.64,3.53-1.93,4.74
				c-1.29,1.21-2.97,1.81-5.05,1.81c-2.16,0-3.86-0.59-5.11-1.77c-1.25-1.18-1.87-2.8-1.87-4.86v-1.08h3.51v1
				c0,1.05,0.31,1.89,0.94,2.51c0.63,0.62,1.46,0.92,2.49,0.92c1.05,0,1.89-0.33,2.52-0.98c0.63-0.66,0.94-1.54,0.94-2.64v-2.39
				c0-1.08-0.3-1.91-0.91-2.51c-0.6-0.59-1.54-0.89-2.79-0.89h-3.12v-2.81l5.98-6.98h-9.06v-3.28h13.3v3.28l-5.78,6.63
				C806.87,358.06,808.31,358.66,809.38,359.73z"/>
			<path class="st1" d="M819.81,368.61v0.5l-2.78,9.33h-3.16l2-9.83H819.81z"/>
			<path class="st1" d="M837.39,362.4c0.49,0.85,0.73,1.83,0.73,2.93v2.2c0,1.9-0.66,3.42-1.97,4.55s-3.05,1.7-5.21,1.7
				c-2.18,0-3.93-0.56-5.24-1.68c-1.31-1.12-1.97-2.64-1.97-4.57v-2.2c0-1.1,0.25-2.08,0.75-2.93c0.5-0.85,1.21-1.53,2.14-2.04
				c-0.85-0.51-1.5-1.19-1.97-2.02c-0.46-0.83-0.69-1.78-0.69-2.83v-1.81c0-1.9,0.63-3.4,1.89-4.49c1.26-1.09,2.96-1.64,5.09-1.64
				c2.13,0,3.82,0.55,5.07,1.64c1.25,1.09,1.87,2.59,1.87,4.49v1.81c0,1.08-0.23,2.03-0.67,2.85c-0.45,0.82-1.1,1.49-1.95,2
				C836.19,360.88,836.9,361.56,837.39,362.4z M834.69,365.33c0-1.03-0.33-1.83-1-2.41s-1.58-0.87-2.74-0.87
				c-1.16,0-2.08,0.3-2.76,0.89c-0.68,0.59-1.02,1.39-1.02,2.39v1.93c0,1.03,0.35,1.84,1.04,2.43c0.69,0.59,1.61,0.89,2.74,0.89
				c1.11,0,2-0.29,2.7-0.89c0.69-0.59,1.04-1.4,1.04-2.43V365.33z M827.36,355.58c0,2.18,1.2,3.28,3.58,3.28
				c2.36,0,3.55-1.09,3.55-3.28v-1.62c0-1.05-0.3-1.86-0.91-2.41c-0.6-0.55-1.48-0.83-2.64-0.83c-1.16,0-2.04,0.28-2.66,0.83
				c-0.62,0.55-0.93,1.36-0.93,2.41V355.58z"/>
			<path class="st1" d="M855.54,362.4c0.49,0.85,0.73,1.83,0.73,2.93v2.2c0,1.9-0.66,3.42-1.97,4.55s-3.05,1.7-5.21,1.7
				c-2.18,0-3.93-0.56-5.24-1.68c-1.31-1.12-1.97-2.64-1.97-4.57v-2.2c0-1.1,0.25-2.08,0.75-2.93c0.5-0.85,1.21-1.53,2.14-2.04
				c-0.85-0.51-1.5-1.19-1.97-2.02c-0.46-0.83-0.69-1.78-0.69-2.83v-1.81c0-1.9,0.63-3.4,1.89-4.49c1.26-1.09,2.96-1.64,5.09-1.64
				c2.13,0,3.82,0.55,5.07,1.64c1.25,1.09,1.87,2.59,1.87,4.49v1.81c0,1.08-0.23,2.03-0.67,2.85c-0.45,0.82-1.1,1.49-1.95,2
				C854.35,360.88,855.06,361.56,855.54,362.4z M852.85,365.33c0-1.03-0.33-1.83-1-2.41s-1.58-0.87-2.74-0.87
				c-1.16,0-2.08,0.3-2.76,0.89c-0.68,0.59-1.02,1.39-1.02,2.39v1.93c0,1.03,0.35,1.84,1.04,2.43c0.69,0.59,1.61,0.89,2.74,0.89
				c1.11,0,2-0.29,2.7-0.89c0.69-0.59,1.04-1.4,1.04-2.43V365.33z M845.52,355.58c0,2.18,1.2,3.28,3.58,3.28
				c2.36,0,3.55-1.09,3.55-3.28v-1.62c0-1.05-0.3-1.86-0.91-2.41c-0.6-0.55-1.48-0.83-2.64-0.83c-1.16,0-2.04,0.28-2.66,0.83
				c-0.62,0.55-0.93,1.36-0.93,2.41V355.58z"/>
		</g>
	</g>
	<g id="TEXT_00000012456359987544832940000015982035766518754727_">
		<g>
			<path class="st1" d="M432.58,620.21c-1.36-1.3-2.04-3.08-2.04-5.34v-11.64c0-2.26,0.68-4.04,2.04-5.34
				c1.36-1.3,3.23-1.95,5.59-1.95c2.52,0,4.41,0.67,5.69,2.02c1.27,1.35,1.91,3.35,1.91,6v2.31h-3.55v-2.31
				c0-3.16-1.36-4.74-4.09-4.74c-1.29,0-2.28,0.37-2.99,1.12c-0.71,0.75-1.06,1.8-1.06,3.16v11.14c0,1.36,0.35,2.41,1.06,3.14
				c0.71,0.73,1.7,1.1,2.99,1.1c2.72,0,4.09-1.53,4.09-4.59v-2.39h3.55v2.39c0,2.57-0.64,4.52-1.93,5.86c-1.29,1.34-3.17,2-5.67,2
				C435.8,622.16,433.94,621.51,432.58,620.21z"/>
			<path class="st1" d="M463.42,602.57v19.12h-3.47v-16h-6.67v16h-3.47v-19.12H463.42z"/>
			<path class="st1" d="M482.89,618.53v3.16h-1.81c-1.7,0-2.92-0.51-3.66-1.54c-1.11,1.34-2.72,2-4.86,2
				c-1.77,0-3.18-0.49-4.22-1.46c-1.04-0.98-1.56-2.3-1.56-3.97c0-1.59,0.49-2.85,1.48-3.78c0.99-0.93,2.51-1.57,4.57-1.93
				l3.82-0.66v-1.85c0-1.03-0.26-1.82-0.79-2.37c-0.53-0.55-1.29-0.83-2.29-0.83c-1.08,0-1.89,0.29-2.43,0.87
				c-0.54,0.58-0.81,1.41-0.81,2.49v0.39h-3.43v-0.39c0-2.13,0.57-3.76,1.7-4.88s2.75-1.68,4.86-1.68c2.16,0,3.8,0.56,4.92,1.68
				s1.68,2.76,1.68,4.92v7.98c0,1.23,0.55,1.85,1.66,1.85H482.89z M475.12,618.55c0.68-0.42,1.19-1,1.52-1.72v-3.62l-3.05,0.5
				c-2.29,0.39-3.43,1.36-3.43,2.93c0,0.8,0.24,1.42,0.73,1.87c0.49,0.45,1.16,0.67,2,0.67
				C473.7,619.19,474.44,618.98,475.12,618.55z"/>
			<path class="st1" d="M498.77,621.7h-3.47v-16h-5.36l-0.19,10.06c-0.05,2.08-0.48,3.59-1.27,4.53c-0.8,0.94-2.06,1.41-3.78,1.41
				h-1.12v-3.16h0.69c0.72,0,1.26-0.24,1.62-0.73c0.36-0.49,0.55-1.26,0.58-2.31l0.19-12.91h12.11V621.7z"/>
			<path class="st1" d="M515.19,610.48c1.13,1.05,1.7,2.58,1.7,4.59v0.46c0,1.98-0.57,3.5-1.7,4.57c-1.13,1.07-2.76,1.6-4.9,1.6
				h-7.13v-19.12h3.47v6.32h3.66C512.43,608.9,514.06,609.42,515.19,610.48z M513.46,615.06c0-2.06-1.17-3.08-3.51-3.08h-3.32v6.63
				h3.32c2.34,0,3.51-1.03,3.51-3.08V615.06z"/>
			<path class="st1" d="M523.6,602.57v7.94h6.67v-7.94h3.47v19.12h-3.47v-7.98h-6.67v7.98h-3.47v-19.12H523.6z"/>
			<path class="st1" d="M551.01,621.7h-3.47v-6.86h-2.16l-4.82,6.86h-3.66v-0.46l4.74-6.63c-1.44-0.31-2.56-0.94-3.35-1.89
				c-0.8-0.95-1.19-2.15-1.19-3.58v-0.77c0-1.8,0.6-3.21,1.79-4.24c1.2-1.03,2.83-1.54,4.92-1.54h7.21V621.7z M547.54,611.9v-6.28
				h-3.43c-1.11,0-1.98,0.25-2.62,0.75c-0.64,0.5-0.96,1.16-0.96,1.99v0.73c0,0.87,0.32,1.56,0.96,2.06
				c0.64,0.5,1.52,0.75,2.62,0.75H547.54z"/>
			<path class="st1" d="M466,667.96h-3.58v-19.93c-0.85,0.33-1.72,0.5-2.62,0.5h-2.35v-3.28h2.31c0.85,0,1.5-0.22,1.97-0.67
				c0.46-0.45,0.69-1.09,0.69-1.91H466V667.96z"/>
			<path class="st1" d="M482.33,654.37c1.07,1.07,1.6,2.47,1.6,4.22v3.28c0,1.95-0.64,3.53-1.93,4.74
				c-1.29,1.21-2.97,1.81-5.05,1.81c-2.16,0-3.86-0.59-5.11-1.77c-1.25-1.18-1.87-2.8-1.87-4.86v-1.08h3.51v1
				c0,1.05,0.31,1.89,0.94,2.51c0.63,0.62,1.46,0.92,2.49,0.92c1.05,0,1.89-0.33,2.52-0.98c0.63-0.66,0.94-1.54,0.94-2.64v-2.39
				c0-1.08-0.3-1.91-0.91-2.51c-0.6-0.59-1.54-0.89-2.79-0.89h-3.12v-2.81l5.98-6.98h-9.06v-3.28h13.3v3.28l-5.78,6.63
				C479.82,652.7,481.26,653.3,482.33,654.37z"/>
			<path class="st1" d="M492.76,663.25v0.5l-2.78,9.33h-3.16l2-9.83H492.76z"/>
			<path class="st1" d="M505.83,642.67v3.28c-1.77,3.68-3.18,7.42-4.22,11.22s-1.56,7.09-1.56,9.87v0.92h-3.51v-0.92
				c0-2.8,0.52-6.07,1.56-9.81s2.49-7.5,4.34-11.28h-9.68v-3.28H505.83z"/>
			<path class="st1" d="M522.25,657.05c0.49,0.85,0.73,1.83,0.73,2.93v2.2c0,1.9-0.66,3.42-1.97,4.55s-3.05,1.7-5.21,1.7
				c-2.18,0-3.93-0.56-5.24-1.68c-1.31-1.12-1.97-2.64-1.97-4.57v-2.2c0-1.1,0.25-2.08,0.75-2.93c0.5-0.85,1.21-1.53,2.14-2.04
				c-0.85-0.51-1.5-1.19-1.97-2.02c-0.46-0.83-0.69-1.78-0.69-2.83v-1.81c0-1.9,0.63-3.4,1.89-4.49c1.26-1.09,2.96-1.64,5.09-1.64
				c2.13,0,3.82,0.55,5.07,1.64c1.25,1.09,1.87,2.59,1.87,4.49v1.81c0,1.08-0.23,2.03-0.67,2.85c-0.45,0.82-1.1,1.49-1.95,2
				C521.05,655.52,521.76,656.2,522.25,657.05z M519.55,659.98c0-1.03-0.33-1.83-1-2.41s-1.58-0.87-2.74-0.87
				c-1.16,0-2.08,0.3-2.76,0.89c-0.68,0.59-1.02,1.39-1.02,2.39v1.93c0,1.03,0.35,1.84,1.04,2.43c0.69,0.59,1.61,0.89,2.74,0.89
				c1.11,0,2-0.29,2.7-0.89c0.69-0.59,1.04-1.4,1.04-2.43V659.98z M512.22,650.22c0,2.18,1.2,3.28,3.58,3.28
				c2.36,0,3.55-1.09,3.55-3.28v-1.62c0-1.05-0.3-1.86-0.91-2.41c-0.6-0.55-1.48-0.83-2.64-0.83c-1.16,0-2.04,0.28-2.66,0.83
				c-0.62,0.55-0.93,1.36-0.93,2.41V650.22z"/>
		</g>
	</g>
	<g id="TEXT_00000119107366992106399450000000298853674706613942_">
		<g>
			<path class="st1" d="M183.54,493.18v0.54h-3.7l-5.24-11.03h-2.78v11.03h-3.58v-25.29h3.58v11.03h2.78l5.17-11.03h3.62v0.54
				l-5.74,12.07L183.54,493.18z"/>
			<path class="st1" d="M200.04,474.6v0.5l-6.86,21.05c-0.49,1.52-1.15,2.58-1.99,3.2c-0.83,0.62-2.02,0.92-3.57,0.92h-2.12v-3.16
				h1.81c0.75,0,1.3-0.14,1.66-0.42c0.36-0.28,0.66-0.82,0.89-1.62l0.42-1.46l-6.36-18.5v-0.5h3.62l4.55,14.15l4.32-14.15H200.04z"
				/>
			<path class="st1" d="M216.73,493.22v0.5h-3.58l-3.82-6.71l-3.82,6.71h-3.55v-0.5l5.24-9.14l-5.13-8.98v-0.5h3.59l3.7,6.51
				l3.66-6.51h3.58v0.5l-5.13,8.98L216.73,493.22z"/>
			<path class="st1" d="M223.4,474.6v7.94h6.67v-7.94h3.47v19.12h-3.47v-7.98h-6.67v7.98h-3.47V474.6H223.4z"/>
			<path class="st1" d="M250.81,493.72h-3.47v-6.86h-2.16l-4.82,6.86h-3.66v-0.46l4.74-6.63c-1.44-0.31-2.56-0.94-3.35-1.89
				c-0.8-0.95-1.19-2.15-1.19-3.58v-0.77c0-1.8,0.6-3.21,1.79-4.24c1.2-1.03,2.83-1.54,4.92-1.54h7.21V493.72z M247.34,483.93v-6.28
				h-3.43c-1.11,0-1.98,0.25-2.62,0.75c-0.64,0.5-0.96,1.16-0.96,1.99v0.73c0,0.87,0.32,1.56,0.96,2.06
				c0.64,0.5,1.52,0.75,2.62,0.75H247.34z"/>
			<path class="st1" d="M180.47,539.98h-3.58v-19.93c-0.85,0.33-1.72,0.5-2.62,0.5h-2.35v-3.28h2.31c0.85,0,1.5-0.22,1.97-0.67
				c0.46-0.45,0.69-1.09,0.69-1.91h3.58V539.98z"/>
			<path class="st1" d="M201.52,534.51h-2.7v5.47h-3.55v-5.47h-10.29v-3.28c0.98-2.65,1.77-5.28,2.37-7.88s1.07-5.49,1.41-8.65h3.47
				v0.54c-0.62,5.68-1.81,11.01-3.58,16h6.63v-12.07h3.55v12.07h2.7V534.51z"/>
			<path class="st1" d="M209.2,535.28v0.5l-2.78,9.33h-3.16l2-9.83H209.2z"/>
			<path class="st1" d="M224.27,521.44v-0.39c0-1.13-0.31-2.01-0.92-2.64c-0.62-0.63-1.49-0.94-2.62-0.94
				c-1.16,0-2.06,0.31-2.7,0.94c-0.64,0.63-0.96,1.48-0.96,2.56v4.39c1.1-0.8,2.44-1.19,4.01-1.19c2.03,0,3.67,0.57,4.92,1.7
				c1.25,1.13,1.87,2.66,1.87,4.59v3.2c0,2.13-0.63,3.8-1.89,4.99c-1.26,1.2-3.01,1.79-5.24,1.79c-2.24,0-4-0.62-5.28-1.85
				s-1.93-2.9-1.93-5.01v-12.49c0-2.11,0.64-3.78,1.93-5.01c1.29-1.23,3.05-1.85,5.28-1.85c2.26,0,4.02,0.6,5.26,1.79
				c1.25,1.2,1.87,2.87,1.87,5.03v0.39H224.27z M218.54,527.91c-0.63,0.33-1.12,0.8-1.48,1.39v4.24c0,1.13,0.33,2.02,0.98,2.68
				c0.66,0.66,1.55,0.98,2.68,0.98c1.1,0,1.97-0.33,2.6-0.98c0.63-0.66,0.94-1.55,0.94-2.68v-2.7c0-1.03-0.33-1.86-0.98-2.49
				s-1.52-0.94-2.6-0.94C219.89,527.41,219.17,527.58,218.54,527.91z"/>
			<path class="st1" d="M243.66,516.08c1.29,1.23,1.93,2.9,1.93,5.01v12.49c0,2.11-0.64,3.78-1.93,5.01s-3.04,1.85-5.28,1.85
				c-2.26,0-4.02-0.6-5.26-1.79c-1.25-1.2-1.87-2.87-1.87-5.03v-0.38h3.58v0.38c0,1.13,0.31,2.01,0.93,2.64
				c0.62,0.63,1.49,0.94,2.62,0.94c1.16,0,2.06-0.31,2.7-0.94s0.96-1.48,0.96-2.56v-4.39c-1.11,0.8-2.44,1.2-4.01,1.2
				c-2.03,0-3.67-0.57-4.92-1.7c-1.25-1.13-1.87-2.66-1.87-4.59v-3.2c0-2.13,0.63-3.8,1.89-4.99c1.26-1.19,3.01-1.79,5.24-1.79
				S242.37,514.84,243.66,516.08z M240.56,526.76c0.63-0.33,1.12-0.8,1.48-1.39v-4.24c0-1.13-0.33-2.02-0.98-2.68
				c-0.66-0.66-1.55-0.98-2.68-0.98c-1.11,0-1.97,0.33-2.6,0.98c-0.63,0.66-0.94,1.55-0.94,2.68v2.7c0,1.03,0.33,1.86,0.98,2.49
				s1.52,0.94,2.6,0.94C239.21,527.26,239.93,527.09,240.56,526.76z"/>
		</g>
	</g>
	<g id="TEXT_00000127037591026390774530000000823984243194715284_">
		<g>
			<path class="st1" d="M755.35,609.94c-1.36-1.3-2.04-3.08-2.04-5.34v-11.64c0-2.26,0.68-4.04,2.04-5.34
				c1.36-1.3,3.23-1.95,5.59-1.95c2.52,0,4.41,0.67,5.69,2.02c1.27,1.35,1.91,3.35,1.91,6V596h-3.55v-2.31
				c0-3.16-1.36-4.74-4.09-4.74c-1.29,0-2.28,0.37-2.99,1.12c-0.71,0.75-1.06,1.8-1.06,3.16v11.14c0,1.36,0.35,2.41,1.06,3.14
				c0.71,0.73,1.7,1.1,2.99,1.1c2.72,0,4.09-1.53,4.09-4.59v-2.39h3.55v2.39c0,2.57-0.64,4.52-1.93,5.86c-1.29,1.34-3.17,2-5.67,2
				C758.57,611.89,756.71,611.24,755.35,609.94z"/>
			<path class="st1" d="M786.19,592.3v19.12h-3.47v-16h-6.67v16h-3.47V592.3H786.19z"/>
			<path class="st1" d="M805.66,608.26v3.16h-1.81c-1.7,0-2.92-0.51-3.66-1.54c-1.11,1.34-2.72,2-4.86,2
				c-1.77,0-3.18-0.49-4.22-1.46c-1.04-0.98-1.56-2.3-1.56-3.97c0-1.59,0.49-2.85,1.48-3.78c0.99-0.93,2.51-1.57,4.57-1.93
				l3.82-0.66v-1.85c0-1.03-0.26-1.82-0.79-2.37c-0.53-0.55-1.29-0.83-2.29-0.83c-1.08,0-1.89,0.29-2.43,0.87
				c-0.54,0.58-0.81,1.41-0.81,2.49v0.39h-3.43v-0.39c0-2.13,0.57-3.76,1.7-4.88s2.75-1.68,4.86-1.68c2.16,0,3.8,0.56,4.92,1.68
				s1.68,2.76,1.68,4.92v7.98c0,1.23,0.55,1.85,1.66,1.85H805.66z M797.89,608.28c0.68-0.42,1.19-1,1.52-1.72v-3.62l-3.05,0.5
				c-2.29,0.39-3.43,1.36-3.43,2.93c0,0.8,0.24,1.42,0.73,1.87c0.49,0.45,1.16,0.67,2,0.67
				C796.47,608.92,797.21,608.71,797.89,608.28z"/>
			<path class="st1" d="M821.54,611.42h-3.47v-16h-5.36l-0.19,10.06c-0.05,2.08-0.48,3.59-1.27,4.53c-0.8,0.94-2.06,1.41-3.78,1.41
				h-1.12v-3.16h0.69c0.72,0,1.26-0.24,1.62-0.73c0.36-0.49,0.55-1.26,0.58-2.31l0.19-12.91h12.11V611.42z"/>
			<path class="st1" d="M837.96,600.21c1.13,1.05,1.7,2.58,1.7,4.59v0.46c0,1.98-0.57,3.5-1.7,4.57c-1.13,1.07-2.76,1.6-4.9,1.6
				h-7.13V592.3h3.47v6.32h3.66C835.2,598.62,836.83,599.15,837.96,600.21z M836.23,604.79c0-2.06-1.17-3.08-3.51-3.08h-3.32v6.63
				h3.32c2.34,0,3.51-1.03,3.51-3.08V604.79z"/>
			<path class="st1" d="M846.36,592.3v7.94h6.67v-7.94h3.47v19.12h-3.47v-7.98h-6.67v7.98h-3.47V592.3H846.36z"/>
			<path class="st1" d="M873.77,611.42h-3.47v-6.86h-2.16l-4.82,6.86h-3.66v-0.46l4.74-6.63c-1.44-0.31-2.56-0.94-3.35-1.89
				c-0.8-0.95-1.19-2.15-1.19-3.58v-0.77c0-1.8,0.6-3.21,1.79-4.24c1.2-1.03,2.83-1.54,4.92-1.54h7.21V611.42z M870.3,601.63v-6.28
				h-3.43c-1.11,0-1.98,0.25-2.62,0.75c-0.64,0.5-0.96,1.16-0.96,1.99v0.73c0,0.87,0.32,1.56,0.96,2.06
				c0.64,0.5,1.52,0.75,2.62,0.75H870.3z"/>
			<path class="st1" d="M785.18,657.69h-3.58v-19.93c-0.85,0.33-1.72,0.5-2.62,0.5h-2.35v-3.28h2.31c0.85,0,1.5-0.22,1.97-0.67
				c0.46-0.45,0.69-1.09,0.69-1.91h3.58V657.69z"/>
			<path class="st1" d="M803.3,654.41v3.28h-13.46v-3.28l5.21-6.55c1.62-2.06,2.73-3.69,3.33-4.92c0.6-1.22,0.91-2.49,0.91-3.8
				v-0.39c0-1.13-0.28-2-0.85-2.62c-0.57-0.62-1.35-0.93-2.35-0.93c-1.05,0-1.85,0.31-2.39,0.93c-0.54,0.62-0.81,1.5-0.81,2.66v1.04
				h-3.51v-1.04c0-2.18,0.58-3.88,1.75-5.07c1.17-1.19,2.83-1.79,4.99-1.79c2.11,0,3.75,0.59,4.92,1.77
				c1.17,1.18,1.75,2.83,1.75,4.93v0.38c0,1.65-0.36,3.24-1.08,4.78c-0.72,1.54-2.04,3.51-3.97,5.9l-3.78,4.7H803.3z"/>
			<path class="st1" d="M812.67,652.98v0.5l-2.78,9.33h-3.16l2-9.83H812.67z"/>
			<path class="st1" d="M829.9,643.36c1.16,1.12,1.74,2.65,1.74,4.61v3.47c0,2.13-0.61,3.78-1.83,4.95
				c-1.22,1.17-2.95,1.75-5.18,1.75c-2.26,0-3.99-0.58-5.19-1.74c-1.19-1.16-1.79-2.83-1.79-5.01v-0.38h3.47v0.38
				c0,1.13,0.3,1.99,0.91,2.58c0.6,0.59,1.46,0.89,2.56,0.89c1.13,0,2-0.31,2.62-0.92c0.62-0.62,0.92-1.49,0.92-2.62v-2.74
				c0-1.16-0.31-2.06-0.94-2.72c-0.63-0.66-1.5-0.98-2.6-0.98c-0.92,0-1.68,0.26-2.25,0.77c-0.58,0.51-0.91,1.22-0.98,2.12h-3.55
				l0.77-15.38h12.26v3.28h-9.1l-0.31,6.86c1.05-0.57,2.27-0.85,3.66-0.85C827.14,641.69,828.75,642.25,829.9,643.36z"/>
			<path class="st1" d="M848.6,646.78c0.49,0.85,0.73,1.83,0.73,2.93v2.2c0,1.9-0.66,3.42-1.97,4.55s-3.05,1.7-5.21,1.7
				c-2.18,0-3.93-0.56-5.24-1.68c-1.31-1.12-1.97-2.64-1.97-4.57v-2.2c0-1.1,0.25-2.08,0.75-2.93c0.5-0.85,1.21-1.53,2.14-2.04
				c-0.85-0.51-1.5-1.19-1.97-2.02c-0.46-0.83-0.69-1.78-0.69-2.83v-1.81c0-1.9,0.63-3.4,1.89-4.49c1.26-1.09,2.96-1.64,5.09-1.64
				c2.13,0,3.82,0.55,5.07,1.64c1.25,1.09,1.87,2.59,1.87,4.49v1.81c0,1.08-0.23,2.03-0.67,2.85c-0.45,0.82-1.1,1.49-1.95,2
				C847.41,645.25,848.11,645.93,848.6,646.78z M845.9,649.71c0-1.03-0.33-1.83-1-2.41s-1.58-0.87-2.74-0.87
				c-1.16,0-2.08,0.3-2.76,0.89c-0.68,0.59-1.02,1.39-1.02,2.39v1.93c0,1.03,0.35,1.84,1.04,2.43c0.69,0.59,1.61,0.89,2.74,0.89
				c1.11,0,2-0.29,2.7-0.89c0.69-0.59,1.04-1.4,1.04-2.43V649.71z M838.58,639.95c0,2.18,1.2,3.28,3.58,3.28
				c2.36,0,3.55-1.09,3.55-3.28v-1.62c0-1.05-0.3-1.86-0.91-2.41c-0.6-0.55-1.48-0.83-2.64-0.83c-1.16,0-2.04,0.28-2.66,0.83
				c-0.62,0.55-0.93,1.36-0.93,2.41V639.95z"/>
		</g>
	</g>
	<g>
		<g>
			<rect x="394.85" y="532.06" class="st0" width="208.92" height="54.64"/>
			<path class="st1" d="M604.42,587.34H394.21v-55.93h210.21V587.34z M395.49,586.06h207.64V532.7H395.49V586.06z"/>
		</g>
		<rect x="394.85" y="532.06" class="st3" width="54.64" height="54.64"/>
		<g>
			<path class="st1" d="M496.17,555.93c1.58,1.54,2.36,3.67,2.36,6.37v4.27c0,2.98-0.84,5.28-2.52,6.89
				c-1.68,1.61-4.08,2.42-7.2,2.42c-3.19,0-5.6-0.8-7.25-2.42c-1.64-1.61-2.47-3.96-2.47-7.04v-0.51h5.81v0.51
				c0,2.67,1.28,4.01,3.85,4.01c1.27,0,2.24-0.35,2.9-1.05c0.67-0.7,1-1.7,1-3.01v-3.03c0-1.37-0.34-2.43-1.03-3.19
				c-0.69-0.75-1.66-1.13-2.93-1.13c-1,0-1.81,0.25-2.44,0.75s-1.02,1.23-1.16,2.18h-5.86l0.98-20.41h17.07v5.45h-11.77l-0.36,7.45
				c1.23-0.55,2.71-0.82,4.42-0.82C492.4,553.62,494.59,554.39,496.17,555.93z"/>
			<path class="st1" d="M520.79,569.81v5.45h-18.5v-5.5l6.99-8.74c1.92-2.4,3.24-4.33,3.96-5.78c0.72-1.46,1.08-2.96,1.08-4.5v-0.51
				c0-1.23-0.3-2.18-0.9-2.85c-0.6-0.67-1.45-1-2.54-1c-2.3,0-3.44,1.32-3.44,3.96v1.39h-5.86v-1.39c0-3.05,0.81-5.38,2.44-6.99
				c1.63-1.61,3.95-2.42,6.96-2.42c2.91,0,5.17,0.8,6.79,2.39c1.61,1.59,2.42,3.83,2.42,6.71v0.51c0,2.09-0.46,4.1-1.36,6.04
				c-0.91,1.94-2.6,4.45-5.06,7.53l-4.57,5.71H520.79z"/>
			<path class="st1" d="M526.8,574.84c-0.69-0.69-1.03-1.56-1.03-2.62s0.34-1.93,1.03-2.6c0.68-0.67,1.56-1,2.62-1
				c1.1,0,1.98,0.33,2.65,1c0.67,0.67,1,1.53,1,2.6s-0.33,1.94-1,2.62c-0.67,0.68-1.55,1.03-2.65,1.03
				C528.36,575.87,527.49,575.53,526.8,574.84z"/>
			<path class="st1" d="M550.71,541.54v5.45c-2.3,4.76-4.1,9.54-5.42,14.34c-1.32,4.8-1.98,9.01-1.98,12.64v1.29h-5.86v-1.29
				c0-3.67,0.65-7.84,1.95-12.52c1.3-4.68,3.17-9.5,5.6-14.47h-12.23v-5.45H550.71z"/>
			<path class="st1" d="M570.78,543.46c1.8,1.7,2.7,4,2.7,6.91v16.04c0,2.91-0.9,5.22-2.7,6.91s-4.24,2.54-7.32,2.54
				c-3.19,0-5.65-0.82-7.38-2.47c-1.73-1.64-2.6-3.96-2.6-6.94v-0.51h5.96v0.51c0,1.27,0.35,2.25,1.05,2.96
				c0.7,0.7,1.69,1.05,2.96,1.05c1.27,0,2.26-0.34,2.98-1.03c0.72-0.68,1.08-1.63,1.08-2.83v-4.99c-1.44,0.82-3.02,1.23-4.73,1.23
				c-2.78,0-5.02-0.77-6.73-2.31c-1.71-1.54-2.57-3.65-2.57-6.32v-4.01c0-2.95,0.87-5.23,2.62-6.86c1.75-1.63,4.2-2.44,7.35-2.44
				C566.54,540.92,568.98,541.77,570.78,543.46z M565.79,556.93c0.7-0.36,1.28-0.85,1.72-1.46v-5.04c0-1.27-0.36-2.27-1.08-3.01
				c-0.72-0.74-1.71-1.11-2.98-1.11c-1.23,0-2.21,0.37-2.93,1.11c-0.72,0.74-1.08,1.74-1.08,3.01v3.14c0,1.17,0.37,2.11,1.11,2.83
				c0.74,0.72,1.7,1.08,2.9,1.08C564.31,557.47,565.09,557.29,565.79,556.93z"/>
		</g>
		<g>
			<g>
				<path class="st0" d="M431.81,569.81v5.45h-18.5v-5.5l6.99-8.74c1.92-2.4,3.24-4.33,3.96-5.78c0.72-1.46,1.08-2.96,1.08-4.5
					v-0.51c0-1.23-0.3-2.18-0.9-2.85c-0.6-0.67-1.45-1-2.54-1c-2.3,0-3.44,1.32-3.44,3.96v1.39h-5.86v-1.39
					c0-3.05,0.81-5.38,2.44-6.99c1.63-1.61,3.95-2.42,6.96-2.42c2.91,0,5.17,0.8,6.79,2.39c1.61,1.59,2.42,3.83,2.42,6.71v0.51
					c0,2.09-0.46,4.1-1.36,6.04c-0.91,1.94-2.6,4.45-5.06,7.53l-4.57,5.71H431.81z"/>
			</g>
		</g>
	</g>
</g>
</svg>
