<?xml version="1.0" encoding="utf-8"?>
<!-- Generator: Adobe Illustrator 28.0.0, SVG Export Plug-In . SVG Version: 6.00 Build 0)  -->
<svg version="1.1" id="Балкон" xmlns="http://www.w3.org/2000/svg" xmlns:xlink="http://www.w3.org/1999/xlink" x="0px"
	 y="0px" width="1000px" height="1000px" viewBox="0 0 1000 1000" style="enable-background:new 0 0 1000 1000;"
	 xml:space="preserve">
<style type="text/css">
	.st0{fill:#FFFFFF;}
	.st1{fill:#4B5056;}
	.st2{fill:#CDA69E;}
	.st3{fill:none;stroke:#4B5056;stroke-width:1.2885;stroke-linecap:round;stroke-linejoin:round;stroke-miterlimit:10;}
</style>
<g>
	<path class="st0" d="M510.75,11.43l0,0.01L592.77,10l2.15,163.05l3.67,270.65l3.87,288.65l125.27-0.49l12.45-0.02l8.11,0l0.02,22.6
		l0.04,21.95l-0.39,0.01l0,0.01l0,5.03c26.74,0.23,52.31,10.29,72.04,28.38c19.87,18.19,32.16,42.98,34.62,69.8l0.01,0.11l0,0.06
		l0,3.31c0,0.3-0.23,0.55-0.52,0.59l-0.07,0.01l-106.13,0.02l-0.01,4.98l0.53,0l0.07,88.27l-513.22,11.8L183.7,990l-0.14-3.02
		l-38.21-846.44l31.41-1.45L171.5,22.4l62.06-2.68c0-0.31,0.25-0.59,0.59-0.6l275.99-8.28C510.47,10.84,510.74,11.1,510.75,11.43z"
		/>
	<path class="st1" d="M269.78,756.44c-0.02,0-0.03,0-0.05,0l-44.89,1.91c-0.33,0.01-0.61-0.24-0.62-0.57l-1.19-28.06
		c-0.01-0.33,0.24-0.6,0.57-0.62l44.89-1.91c0.16-0.01,0.31,0.05,0.43,0.16c0.12,0.11,0.19,0.26,0.19,0.41l1.19,28.06
		c0.01,0.16-0.05,0.31-0.16,0.43C270.05,756.35,269.92,756.42,269.78,756.44z M225.39,757.14l43.7-1.86l-1.14-26.87l-43.7,1.86
		L225.39,757.14z"/>
	<path class="st1" d="M269.78,756.44c-0.29,0.04-0.57-0.15-0.65-0.43l-6.02-22.28l-39.54-3.43c-0.31-0.03-0.55-0.29-0.54-0.61
		c0.01-0.31,0.25-0.57,0.57-0.58l44.89-1.91c0.16-0.01,0.31,0.05,0.43,0.16c0.12,0.11,0.19,0.26,0.19,0.41l1.19,28.06
		c0.01,0.3-0.2,0.57-0.5,0.61C269.8,756.44,269.79,756.44,269.78,756.44z M232.84,729.9l30.79,2.67c0.25,0.02,0.46,0.2,0.52,0.44
		l4.74,17.52l-0.94-22.13L232.84,729.9z"/>
	<path class="st1" d="M333.32,761.63c-0.02,0-0.03,0-0.05,0l-107.35,4.66c-0.33,0.01-0.61-0.24-0.62-0.57
		c-0.01-0.33,0.24-0.6,0.57-0.62l107.35-4.66c0.33-0.01,0.61,0.24,0.62,0.57C333.85,761.32,333.62,761.59,333.32,761.63z"/>
	<path class="st1" d="M510.58,23.85c-0.02,0-0.04,0-0.06,0c-0.33,0.01-0.6-0.25-0.61-0.58l-0.3-10.11c-0.01-0.33,0.25-0.6,0.58-0.61
		c0.33-0.01,0.6,0.25,0.61,0.58l0.3,10.11C511.11,23.55,510.88,23.81,510.58,23.85z"/>
	<path class="st1" d="M510.28,13.74c-0.02,0-0.04,0-0.06,0l-275.99,8.25c-0.33,0.01-0.6-0.25-0.61-0.58
		c-0.01-0.33,0.25-0.6,0.58-0.61l275.99-8.25c0.33-0.01,0.6,0.25,0.61,0.58C510.81,13.44,510.58,13.7,510.28,13.74z"/>
	<path class="st1" d="M504.14,18.98c-0.02,0-0.04,0-0.06,0l-263.42,7.87c-0.33,0.01-0.6-0.25-0.61-0.58
		c-0.01-0.33,0.24-0.6,0.58-0.61l263.42-7.87c0.33-0.01,0.6,0.25,0.61,0.58C504.67,18.68,504.44,18.95,504.14,18.98z"/>
	<path class="st1" d="M510.58,23.85c-0.02,0-0.04,0-0.06,0c-0.33,0.01-0.6-0.25-0.61-0.58l-0.3-10.11c-0.01-0.33,0.25-0.6,0.58-0.61
		c0.33-0.01,0.6,0.25,0.61,0.58l0.3,10.11C511.11,23.55,510.88,23.81,510.58,23.85z"/>
	<path class="st1" d="M504.29,24.04c-0.02,0-0.04,0-0.06,0c-0.33,0.01-0.6-0.25-0.61-0.58l-0.3-10.11c-0.01-0.33,0.25-0.6,0.58-0.61
		c0.33-0.01,0.6,0.25,0.61,0.58l0.3,10.11C504.82,23.74,504.59,24,504.29,24.04z"/>
	<path class="st1" d="M234.58,32.09c-0.02,0-0.04,0-0.06,0c-0.33,0.01-0.6-0.25-0.61-0.58l-0.3-10.11c-0.01-0.33,0.25-0.6,0.58-0.61
		c0.33-0.01,0.6,0.25,0.61,0.58l0.3,10.11C235.11,31.79,234.89,32.06,234.58,32.09z"/>
	<path class="st1" d="M240.87,31.91c-0.02,0-0.04,0-0.06,0c-0.33,0.01-0.6-0.25-0.61-0.58l-0.3-10.11c-0.01-0.33,0.25-0.6,0.58-0.61
		c0.33-0.01,0.6,0.25,0.61,0.58l0.3,10.11C241.4,31.61,241.17,31.87,240.87,31.91z"/>
	<path class="st1" d="M510.58,23.85c-0.02,0-0.04,0-0.06,0L234.53,32.1c-0.33,0.01-0.6-0.25-0.61-0.58
		c-0.01-0.33,0.25-0.6,0.58-0.61l275.99-8.25c0.33-0.01,0.6,0.25,0.61,0.58C511.11,23.55,510.88,23.81,510.58,23.85z"/>
	<path class="st1" d="M510.63,25.53c-0.02,0-0.04,0-0.06,0l-275.99,8.25c-0.33,0.01-0.6-0.25-0.61-0.58
		c-0.01-0.33,0.24-0.6,0.58-0.61l275.99-8.25c0.33-0.01,0.6,0.25,0.61,0.58C511.16,25.23,510.93,25.49,510.63,25.53z"/>
	<path class="st1" d="M510.75,11.43l0,0.01c-0.01,0.29-0.23,0.55-0.52,0.59l-0.07,0.01l-275.84,8.27l-0.14,0.01
		c-0.32,0.01-0.61-0.25-0.62-0.58l0-0.01c0-0.31,0.25-0.59,0.59-0.6l275.99-8.28C510.47,10.84,510.74,11.1,510.75,11.43z"/>
	<path class="st1" d="M415.31,158.85c-0.02,0-0.04,0-0.05,0l-112.6,3.72c-0.33,0.01-0.6-0.25-0.61-0.57
		c-0.01-0.33,0.24-0.6,0.57-0.61l112.6-3.72c0.33-0.01,0.6,0.25,0.61,0.57C415.84,158.55,415.61,158.81,415.31,158.85z"/>
	<path class="st1" d="M414.89,148.75c-0.02,0-0.04,0-0.05,0l-112.6,3.72c-0.33,0.01-0.6-0.25-0.61-0.57
		c-0.01-0.33,0.25-0.6,0.57-0.61l112.6-3.72c0.33-0.01,0.6,0.25,0.61,0.57C415.42,148.45,415.19,148.71,414.89,148.75z"/>
	<path class="st1" d="M403.1,153.73c-0.02,0-0.04,0-0.05,0l-94.34,2.96c-0.33,0.01-0.6-0.25-0.61-0.58
		c-0.01-0.33,0.24-0.6,0.58-0.61l94.34-2.96c0.33-0.01,0.6,0.25,0.61,0.58C403.63,153.43,403.4,153.69,403.1,153.73z"/>
	<path class="st1" d="M409.61,159.08c-0.02,0-0.03,0-0.05,0c-0.33,0.01-0.61-0.24-0.62-0.57l-0.42-10.1
		c-0.01-0.33,0.25-0.61,0.57-0.62c0.33-0.01,0.61,0.24,0.62,0.57l0.42,10.1C410.15,158.78,409.92,159.05,409.61,159.08z"/>
	<path class="st1" d="M308.99,162.31c-0.02,0-0.03,0-0.05,0c-0.33,0.01-0.61-0.24-0.62-0.57l-0.42-10.1
		c-0.01-0.33,0.25-0.61,0.57-0.62c0.33-0.01,0.61,0.24,0.62,0.57l0.42,10.1C309.52,162,309.29,162.27,308.99,162.31z"/>
	<path class="st1" d="M416.08,177.58c-0.02,0-0.04,0-0.05,0l-112.6,3.72c-0.33,0.01-0.6-0.25-0.61-0.57
		c-0.01-0.33,0.24-0.6,0.57-0.61l112.6-3.72c0.33-0.01,0.6,0.25,0.61,0.57C416.61,177.28,416.38,177.54,416.08,177.58z"/>
	<path class="st1" d="M414.77,131.27c-0.02,0-0.04,0-0.05,0l-112.6,3.72c-0.33,0.01-0.6-0.25-0.61-0.57
		c-0.01-0.33,0.24-0.6,0.57-0.61l112.6-3.72c0.33-0.01,0.6,0.25,0.61,0.57C415.31,130.97,415.08,131.23,414.77,131.27z"/>
	<path class="st1" d="M403.33,159.35c-0.02,0-0.03,0-0.05,0c-0.33,0.01-0.61-0.24-0.62-0.57l-0.42-10.1
		c-0.01-0.33,0.25-0.6,0.57-0.62c0.33-0.01,0.61,0.24,0.62,0.57l0.42,10.1C403.86,159.05,403.63,159.31,403.33,159.35z"/>
	<path class="st1" d="M303.47,181.3c-0.02,0-0.04,0-0.06,0c-0.33,0.01-0.6-0.25-0.61-0.58l-1.3-46.32
		c-0.01-0.33,0.25-0.59,0.58-0.61c0.33-0.01,0.6,0.25,0.61,0.58l1.3,46.32C304,181,303.77,181.26,303.47,181.3z"/>
	<path class="st1" d="M403.14,154.85c-0.02,0-0.04,0-0.05,0l-94.34,2.96c-0.33,0.01-0.6-0.25-0.61-0.58
		c-0.01-0.33,0.25-0.6,0.58-0.61l94.34-2.96c0.33-0.01,0.6,0.25,0.61,0.58C403.67,154.55,403.44,154.82,403.14,154.85z"/>
	<path class="st1" d="M229.81,240.73c-0.86,0.11-1.73,0.2-2.6,0.28c-0.33,0.03-0.62-0.21-0.64-0.54c-0.03-0.33,0.21-0.62,0.54-0.64
		c39.83-3.53,69.28-37.57,67.07-77.49c-0.02-0.33,0.22-0.61,0.56-0.63c0.33-0.02,0.61,0.23,0.63,0.56
		c1.08,19.51-5.36,38.38-18.15,53.15C265,229.53,248.25,238.45,229.81,240.73z"/>
	<path class="st1" d="M302.7,162.57c-0.02,0-0.03,0-0.05,0l-7.86,0.32c-0.33,0.01-0.61-0.24-0.62-0.57
		c-0.01-0.33,0.25-0.61,0.57-0.62l7.86-0.32c0.33-0.01,0.61,0.24,0.62,0.57C303.23,162.26,303,162.53,302.7,162.57z"/>
	<path class="st1" d="M294.84,162.89c-0.02,0-0.03,0-0.05,0c-0.33,0.01-0.61-0.24-0.62-0.57l-0.42-10.1
		c-0.01-0.33,0.25-0.6,0.57-0.62c0.33-0.01,0.61,0.24,0.62,0.57l0.42,10.1C295.38,162.59,295.15,162.85,294.84,162.89z"/>
	<path class="st1" d="M302.28,152.46c-0.02,0-0.03,0-0.05,0l-7.86,0.32c-0.33,0.01-0.61-0.24-0.62-0.57
		c-0.01-0.33,0.25-0.6,0.57-0.62l7.86-0.32c0.33-0.01,0.61,0.24,0.62,0.57C302.82,152.16,302.59,152.43,302.28,152.46z"/>
	<path class="st1" d="M220.35,155.84c-0.02,0-0.03,0-0.05,0l-7.86,0.32c-0.33,0.01-0.61-0.24-0.62-0.57
		c-0.01-0.33,0.25-0.61,0.57-0.62l7.86-0.32c0.33-0.01,0.61,0.24,0.62,0.57C220.89,155.54,220.66,155.8,220.35,155.84z"/>
	<path class="st1" d="M220.77,165.94c-0.02,0-0.03,0-0.05,0c-0.33,0.01-0.61-0.24-0.62-0.57l-0.42-10.1
		c-0.01-0.33,0.24-0.6,0.57-0.62c0.33-0.01,0.61,0.24,0.62,0.57l0.42,10.1C221.3,165.64,221.07,165.9,220.77,165.94z"/>
	<path class="st1" d="M220.77,165.94c-0.02,0-0.03,0-0.05,0l-7.86,0.32c-0.33,0.01-0.61-0.24-0.62-0.57
		c-0.01-0.33,0.25-0.61,0.57-0.62l7.86-0.32c0.33-0.01,0.61,0.24,0.62,0.57C221.3,165.64,221.07,165.9,220.77,165.94z"/>
	<path class="st1" d="M212.91,166.27c-0.02,0-0.03,0-0.05,0c-0.33,0.01-0.61-0.24-0.62-0.57l-0.42-10.1
		c-0.01-0.33,0.25-0.61,0.57-0.62c0.33-0.01,0.61,0.24,0.62,0.57l0.42,10.1C213.44,165.96,213.22,166.23,212.91,166.27z"/>
	<path class="st1" d="M224.04,164.61l-2.77,0.12l-0.6,0.02l-0.04,0.01c-0.14,0.02-0.27,0.09-0.36,0.18
		c-0.11,0.12-0.17,0.27-0.16,0.43l0.01,0.06l0.01,0.53l3.07,74.59c0.02,0.33,0.29,0.58,0.63,0.57l3.26-0.13l0.1,0l0.05-0.01
		c0.13-0.02,0.27-0.09,0.36-0.19c0.1-0.12,0.17-0.27,0.16-0.43l-0.02-0.61l-3.08-74.56C224.65,164.86,224.36,164.61,224.04,164.61z
		 M226.54,239.83l-2.18,0.09l-3.05-73.99l2.18-0.09L226.54,239.83z"/>
	<path class="st1" d="M562.21,745c-0.12-0.1-0.27-0.17-0.43-0.16l-5.01,0.11l-0.61,0.01c-0.34,0-0.58,0.27-0.57,0.6l0.01,0.6
		l0.15,7.27c0.01,0.16,0.07,0.31,0.19,0.42c0.11,0.11,0.26,0.17,0.42,0.17l5.57-0.12l0.04-0.01c0.02,0.01,0.04,0.01,0.06,0
		c0.3-0.04,0.53-0.3,0.52-0.61l-0.16-7.82l-0.01-0.04C562.39,745.26,562.33,745.11,562.21,745z M561.36,752.71l-4.43,0.1l-0.14-6.68
		l4.43-0.09L561.36,752.71z"/>
	<path class="st1" d="M466.75,747.03c-0.12-0.1-0.27-0.17-0.43-0.16l-0.58,0.01l-5.03,0.11c-0.33,0.01-0.58,0.28-0.57,0.6l0,0.18
		l0.16,7.68c0.01,0.33,0.28,0.59,0.61,0.58l0.01,0l5.61-0.12l0.06-0.01c0.13-0.02,0.26-0.08,0.35-0.18
		c0.11-0.12,0.17-0.26,0.17-0.43l-0.17-7.86C466.93,747.29,466.86,747.14,466.75,747.03z M465.9,754.75l-4.43,0.1l-0.14-6.67
		l4.43-0.1L465.9,754.75z"/>
	<path class="st1" d="M466.41,748.05c-0.02,0-0.04,0-0.06,0c-0.33,0.01-0.6-0.25-0.61-0.58c-1.01-48.82,36.37-89.35,85.12-92.27
		c0.33-0.02,0.61,0.23,0.63,0.56c0.02,0.33-0.23,0.61-0.56,0.63c-48.11,2.89-85,42.88-84,91.06
		C466.94,747.75,466.71,748.01,466.41,748.05z"/>
	<path class="st1" d="M554.25,655.13l-3.27,0.07l-0.01,0l-0.08,0c-0.16,0-0.31,0.07-0.42,0.18c-0.11,0.12-0.17,0.27-0.17,0.43
		l0.01,0.63l1.9,89.21c0.01,0.32,0.28,0.59,0.61,0.58l2.78-0.06l0.6-0.01l0.06-0.01c0.13-0.02,0.26-0.08,0.35-0.18
		c0.11-0.12,0.17-0.26,0.17-0.42l-0.01-0.6l-1.9-89.25C554.86,655.38,554.59,655.12,554.25,655.13z M555.58,744.97l-2.18,0.05
		l-1.89-88.65l2.18-0.04L555.58,744.97z"/>
	<path class="st1" d="M455.15,886.36c-0.12-0.11-0.27-0.17-0.43-0.17l-0.58,0.01l-7.27,0.19c-0.33,0.02-0.59,0.28-0.58,0.62
		l0.15,5.61c0,0.01,0,0.02,0,0.02c0.02,0.31,0.29,0.56,0.6,0.55l7.85-0.19l0.07-0.01c0.13-0.02,0.26-0.07,0.35-0.18
		c0.11-0.11,0.17-0.26,0.17-0.42l-0.13-5.02l-0.01-0.6C455.33,886.62,455.26,886.47,455.15,886.36z M447.49,887.57l6.67-0.17
		l0.11,4.44L447.6,892L447.49,887.57z"/>
	<path class="st1" d="M452.89,813.21l-0.03,0l-7.83,0.19c-0.3,0.01-0.55,0.25-0.57,0.55c0,0.02-0.01,0.04,0,0.06l0.14,5.61
		c0.01,0.32,0.28,0.58,0.6,0.57l7.87-0.2l0.05-0.01c0.3-0.04,0.53-0.3,0.52-0.6l-0.01-0.6l-0.13-5.03
		C453.5,813.46,453.23,813.2,452.89,813.21z M445.66,814.58l6.67-0.17l0.12,4.42l-6.68,0.17L445.66,814.58z"/>
	<path class="st1" d="M522.1,882.32c-0.01,0-0.02,0-0.03,0c-0.33,0.02-0.61-0.22-0.64-0.55c-2.74-35.5-32.77-62.63-68.36-61.77
		c-0.33,0.01-0.6-0.25-0.61-0.58c-0.01-0.33,0.25-0.6,0.58-0.61c36.22-0.87,66.78,26.74,69.57,62.87
		C522.64,882.01,522.41,882.29,522.1,882.32z"/>
	<path class="st1" d="M522.44,881.3c-0.12-0.1-0.27-0.17-0.43-0.16l-0.64,0.02l-66.73,1.67c-0.33,0.01-0.59,0.28-0.58,0.62
		l0.08,2.76l0.01,0.61c0,0.16,0.07,0.31,0.18,0.41c0.12,0.11,0.27,0.18,0.43,0.17l0.6-0.01l66.77-1.67l0.06-0.01
		c0.3-0.04,0.53-0.3,0.51-0.61l-0.08-3.29l0-0.08l-0.01-0.07C522.59,881.52,522.53,881.39,522.44,881.3z M521.5,884.52l-66.18,1.66
		l-0.05-2.18l66.18-1.66L521.5,884.52z"/>
	<path class="st1" d="M747.75,882.72c-0.11-0.11-0.26-0.18-0.42-0.18l-0.6,0l-7.26,0c-0.34,0-0.6,0.26-0.6,0.6l-0.01,5.6l0,0.01
		c0,0.16,0.07,0.31,0.18,0.42c0.11,0.11,0.26,0.18,0.42,0.18l7.86,0c0.03,0,0.05,0,0.07,0c0.3-0.04,0.52-0.29,0.52-0.6l0-0.03
		l0.01-4.98l0-0.6C747.92,882.98,747.86,882.83,747.75,882.72z M740.05,883.73l6.68,0l-0.01,4.43l-6.67,0L740.05,883.73z"/>
	<path class="st1" d="M747.39,775.82l-7.87,0c-0.15,0-0.31,0.07-0.42,0.18c-0.11,0.11-0.17,0.26-0.17,0.42l0,0.01l-0.01,5.61
		c0,0.32,0.27,0.58,0.6,0.59l7.86,0.01l0.07-0.01c0.13-0.02,0.25-0.07,0.35-0.17c0.11-0.11,0.18-0.26,0.18-0.42l0-0.59l0-5.03
		l0-0.01C747.98,776.08,747.72,775.82,747.39,775.82z M740.12,777.01l6.68,0l-0.01,4.43l-6.67,0L740.12,777.01z"/>
	<path class="st1" d="M854.64,879.63l0.01,0.11l0,0.06c-0.03,0.28-0.24,0.49-0.52,0.52c0,0-0.01,0-0.02,0
		c-0.32,0.03-0.61-0.21-0.64-0.54c-0.02-0.22-0.04-0.43-0.07-0.65c-5.34-54.88-50.8-96.33-106-96.51l-0.01,0
		c-0.34-0.01-0.59-0.27-0.59-0.6c0-0.34,0.27-0.59,0.6-0.6c0.2,0,0.39,0,0.59,0.01c26.74,0.23,52.31,10.29,72.04,28.38
		C839.89,828.02,852.18,852.8,854.64,879.63z"/>
	<path class="st1" d="M854.48,879.33c-0.11-0.11-0.26-0.18-0.42-0.18l-0.66,0l-106.07,0.02c-0.33,0-0.59,0.27-0.6,0.6l0,2.77l0,0.6
		c0,0.16,0.06,0.31,0.18,0.42c0.11,0.11,0.26,0.18,0.42,0.18l0.6,0l106.13-0.02l0.07-0.01c0.3-0.04,0.52-0.28,0.52-0.59l0-3.31
		l0-0.06l-0.01-0.11C854.63,879.51,854.56,879.41,854.48,879.33z M853.46,882.52l-105.54,0.02l-0.01-2.18l105.55-0.02L853.46,882.52
		z"/>
	<path class="st1" d="M441.83,748.96c-0.02,0-0.03,0-0.05,0l-67.37,2.35c-0.16,0.01-0.31-0.05-0.43-0.16
		c-0.12-0.11-0.18-0.26-0.19-0.41l-2.35-67.37c-0.01-0.33,0.24-0.6,0.57-0.61l67.36-2.35c0.33-0.01,0.6,0.24,0.61,0.57l2.35,67.37
		C442.36,748.66,442.13,748.92,441.83,748.96z M374.97,750.11l66.18-2.31l-2.31-66.18l-66.18,2.31L374.97,750.11z"/>
	<path class="st1" d="M281.42,516.11c-0.02,0-0.03,0-0.05,0l-67.33,3.04c-0.16,0.01-0.31-0.05-0.43-0.15
		c-0.12-0.11-0.19-0.25-0.19-0.41l-3.03-67.33c-0.02-0.33,0.23-0.62,0.57-0.62l67.33-3.04c0.33-0.01,0.61,0.24,0.62,0.57l3.04,67.33
		c0.01,0.16-0.05,0.31-0.15,0.43C281.69,516.03,281.56,516.1,281.42,516.11z M214.59,517.94l66.14-2.98l-2.98-66.14l-66.14,2.98
		L214.59,517.94z"/>
	<path class="st1" d="M262.75,509.05c-0.31,0.04-0.63,0.07-0.95,0.08c-3.19,0.14-6.25-0.96-8.61-3.12c-2.36-2.16-3.74-5.1-3.88-8.29
		c-0.3-6.59,4.81-12.21,11.41-12.49c3.19-0.14,6.25,0.96,8.61,3.12c2.36,2.16,3.74,5.1,3.88,8.29c0.14,3.19-0.96,6.25-3.12,8.61
		C268.16,507.37,265.58,508.7,262.75,509.05z M259.94,486.48c-5.52,0.68-9.69,5.53-9.44,11.18c0.27,5.94,5.31,10.55,11.25,10.28
		c2.88-0.13,5.53-1.37,7.47-3.5c1.94-2.12,2.94-4.88,2.81-7.75l0,0c-0.27-5.94-5.31-10.55-11.25-10.28
		C260.5,486.43,260.22,486.45,259.94,486.48z"/>
	<path class="st1" d="M262.33,505.71c-0.22,0.03-0.44,0.05-0.67,0.06c-4.73,0.21-8.76-3.46-8.97-8.2c-0.21-4.73,3.46-8.76,8.2-8.97
		c2.29-0.1,4.49,0.69,6.18,2.24c1.7,1.55,2.69,3.66,2.79,5.96C270.06,501.3,266.73,505.16,262.33,505.71z M260.36,489.83
		c-3.8,0.47-6.66,3.8-6.49,7.68c0.18,4.08,3.65,7.25,7.73,7.07c4.08-0.19,7.25-3.65,7.07-7.73l0.59-0.03l-0.59,0.03
		c-0.09-1.98-0.94-3.8-2.4-5.13c-1.46-1.33-3.35-2.02-5.33-1.93C260.74,489.79,260.55,489.8,260.36,489.83z"/>
	<path class="st1" d="M232.54,481.45c-0.31,0.04-0.62,0.06-0.93,0.08c-6.59,0.3-12.19-4.82-12.49-11.41
		c-0.3-6.59,4.82-12.2,11.41-12.49c3.19-0.14,6.25,0.96,8.61,3.12c2.36,2.16,3.74,5.1,3.88,8.29
		C243.3,475.31,238.67,480.7,232.54,481.45z M229.74,458.88c-5.52,0.68-9.69,5.53-9.44,11.18c0.27,5.94,5.31,10.55,11.25,10.28
		c5.94-0.27,10.55-5.32,10.28-11.25l0.59-0.03l-0.59,0.03c-0.13-2.88-1.37-5.53-3.5-7.47c-2.12-1.94-4.88-2.94-7.75-2.81
		C230.29,458.83,230.01,458.85,229.74,458.88z"/>
	<path class="st1" d="M232.12,478.11c-0.22,0.03-0.44,0.05-0.67,0.06c-2.29,0.1-4.49-0.69-6.18-2.24c-1.69-1.55-2.68-3.66-2.79-5.96
		c-0.1-2.29,0.69-4.49,2.24-6.18c1.55-1.69,3.67-2.68,5.96-2.79c2.29-0.1,4.49,0.69,6.18,2.24c1.7,1.55,2.69,3.66,2.79,5.96
		C239.85,473.7,236.53,477.56,232.12,478.11z M230.14,462.23c-1.75,0.22-3.35,1.04-4.55,2.35c-1.33,1.46-2.02,3.35-1.93,5.33
		s0.94,3.8,2.4,5.13c1.46,1.33,3.35,2.02,5.33,1.93c4.08-0.19,7.25-3.65,7.07-7.73l0.59-0.03l-0.59,0.03
		c-0.18-4.08-3.65-7.25-7.73-7.07C230.53,462.19,230.34,462.2,230.14,462.23z"/>
	<path class="st1" d="M233.28,505.81c-0.19,0.02-0.38,0.04-0.58,0.05c-4.07,0.18-7.53-2.98-7.71-7.05
		c-0.09-1.97,0.59-3.86,1.93-5.32c1.33-1.46,3.15-2.31,5.12-2.4c1.97-0.09,3.86,0.59,5.32,1.93c1.46,1.33,2.31,3.15,2.4,5.12
		C239.92,502.02,237.06,505.34,233.28,505.81z M231.6,492.33c-1.46,0.18-2.8,0.87-3.81,1.97c-1.12,1.22-1.69,2.81-1.62,4.46
		c0.15,3.41,3.06,6.07,6.47,5.91c3.42-0.16,6.07-3.06,5.91-6.47c-0.07-1.65-0.79-3.18-2.01-4.3c-1.22-1.12-2.81-1.69-4.46-1.62
		C231.92,492.3,231.76,492.31,231.6,492.33z"/>
	<path class="st1" d="M232.86,502.47c-0.1,0.01-0.21,0.02-0.32,0.03c-1.07,0.05-2.1-0.32-2.89-1.05s-1.25-1.71-1.3-2.78
		c-0.05-1.07,0.32-2.1,1.05-2.89c0.72-0.79,1.72-1.26,2.78-1.3c1.07-0.05,2.1,0.32,2.89,1.05c0.79,0.72,1.25,1.71,1.3,2.78l0,0
		c0.05,1.07-0.32,2.1-1.05,2.89C234.68,501.9,233.81,502.35,232.86,502.47z M232.01,495.67c-0.67,0.08-1.28,0.4-1.74,0.9
		c-0.51,0.56-0.77,1.28-0.74,2.03c0.07,1.56,1.39,2.77,2.95,2.7c1.55-0.07,2.77-1.39,2.7-2.95l0,0c-0.03-0.75-0.36-1.45-0.92-1.96
		c-0.56-0.51-1.28-0.77-2.03-0.74C232.16,495.66,232.09,495.67,232.01,495.67z"/>
	<path class="st1" d="M260.88,475.6c-0.19,0.02-0.38,0.04-0.58,0.05c-4.07,0.18-7.53-2.98-7.71-7.05c-0.18-4.07,2.98-7.54,7.05-7.71
		c4.07-0.18,7.53,2.98,7.71,7.05C267.52,471.82,264.66,475.14,260.88,475.6z M259.2,462.12c-3.18,0.39-5.57,3.18-5.43,6.43
		c0.07,1.65,0.79,3.18,2.01,4.3c1.22,1.12,2.81,1.69,4.46,1.62c1.65-0.08,3.18-0.79,4.3-2.01c1.12-1.22,1.69-2.81,1.62-4.46
		l0.59-0.03l-0.59,0.03c-0.15-3.41-3.06-6.07-6.47-5.91C259.52,462.09,259.36,462.11,259.2,462.12z"/>
	<path class="st1" d="M260.46,472.26c-0.1,0.01-0.21,0.02-0.31,0.03c-1.07,0.05-2.1-0.32-2.89-1.05c-0.79-0.72-1.25-1.71-1.3-2.78
		c-0.05-1.07,0.32-2.1,1.05-2.89s1.71-1.26,2.78-1.3c2.21-0.1,4.09,1.62,4.19,3.83C264.07,470.2,262.52,472.01,260.46,472.26z
		 M259.61,465.47c-0.67,0.08-1.28,0.4-1.74,0.9c-0.51,0.56-0.77,1.28-0.74,2.03c0.07,1.56,1.39,2.77,2.95,2.7
		c1.55-0.08,2.77-1.39,2.7-2.95c-0.07-1.56-1.39-2.77-2.95-2.7C259.76,465.45,259.69,465.46,259.61,465.47z"/>
	<path class="st1" d="M241.49,633.53c-0.02,0-0.03,0-0.05,0c-0.33,0.01-0.61-0.24-0.62-0.57c-0.05-1.11-1-1.98-2.11-1.93
		c-0.33,0.01-0.61-0.24-0.62-0.57c-0.01-0.33,0.24-0.61,0.57-0.62c1.77-0.08,3.27,1.29,3.35,3.06
		C242.03,633.23,241.8,633.49,241.49,633.53z"/>
	<path class="st1" d="M239.21,636.24c-0.08,0.01-0.17,0.02-0.25,0.02c-1.77,0.08-3.27-1.29-3.35-3.06
		c-0.02-0.33,0.23-0.61,0.57-0.62c0.33-0.01,0.61,0.24,0.62,0.57c0.05,1.11,1,1.98,2.11,1.93c0.54-0.02,1.04-0.26,1.4-0.66
		c0.36-0.4,0.55-0.91,0.53-1.45c-0.02-0.33,0.23-0.61,0.57-0.62c0.33-0.01,0.61,0.24,0.62,0.57c0.04,0.86-0.26,1.68-0.84,2.31
		C240.66,635.79,239.96,636.15,239.21,636.24z"/>
	<path class="st1" d="M236.27,633.77c-0.02,0-0.03,0-0.05,0c-0.33,0.01-0.61-0.24-0.62-0.57c-0.08-1.77,1.31-3.28,3.06-3.35
		c0.33-0.01,0.61,0.24,0.62,0.57c0.01,0.33-0.23,0.61-0.57,0.62c-1.12,0.05-1.98,1-1.93,2.11
		C236.8,633.46,236.57,633.73,236.27,633.77z"/>
	<path class="st1" d="M244.13,642.77c-0.02,0-0.03,0-0.05,0l-2.23,0.1c-0.33,0.01-0.61-0.24-0.62-0.57
		c-0.02-0.33,0.23-0.61,0.57-0.62l2.23-0.1c0.33-0.01,0.61,0.24,0.62,0.57C244.67,642.46,244.44,642.73,244.13,642.77z"/>
	<path class="st1" d="M270.38,641.55c-0.3,0.04-0.6,0.06-0.91,0.08l-27.62,1.24c-3.11,0.14-6.09-0.94-8.39-3.04
		c-2.3-2.1-3.64-4.97-3.78-8.08l-1.24-27.62c-0.29-6.42,4.7-11.88,11.12-12.17l27.62-1.24c3.11-0.14,6.09,0.94,8.38,3.04
		c2.3,2.1,3.64,4.97,3.78,8.08l1.25,27.62l0,0C280.86,635.57,276.35,640.81,270.38,641.55z M238.78,593.23
		c-2.47,0.3-4.73,1.47-6.43,3.33c-1.89,2.06-2.85,4.74-2.73,7.53l1.24,27.62c0.13,2.79,1.33,5.37,3.4,7.25
		c2.06,1.89,4.74,2.85,7.53,2.73l27.62-1.24c5.77-0.26,10.24-5.16,9.98-10.93l-1.25-27.62c-0.13-2.79-1.33-5.37-3.4-7.25
		s-4.74-2.85-7.53-2.73l-27.62,1.24C239.33,593.17,239.06,593.19,238.78,593.23z M279.99,629.49l0.01,0L279.99,629.49z"/>
	<path class="st1" d="M224.58,627.04c-0.02,0-0.03,0-0.05,0c-0.33,0.01-0.61-0.24-0.62-0.57l-0.75-16.57
		c-0.01-0.33,0.23-0.61,0.57-0.62c0.33-0.01,0.61,0.24,0.62,0.57l0.75,16.57C225.11,626.74,224.89,627.01,224.58,627.04z"/>
	<path class="st1" d="M226.72,613.11c-0.02,0-0.03,0-0.05,0l-5.52,0.25c-0.33,0.01-0.61-0.24-0.62-0.57
		c-0.01-0.33,0.24-0.61,0.57-0.62l5.52-0.25c0.33-0.01,0.61,0.24,0.62,0.57C227.25,612.8,227.02,613.07,226.72,613.11z"/>
	<path class="st1" d="M227.22,624.16c-0.02,0-0.03,0-0.05,0l-5.52,0.25c-0.33,0.01-0.61-0.24-0.62-0.57
		c-0.02-0.33,0.23-0.61,0.57-0.62l5.52-0.25c0.33-0.01,0.61,0.24,0.62,0.57C227.75,623.85,227.52,624.12,227.22,624.16z"/>
	<path class="st1" d="M224.21,618.76c-0.19,0.02-0.39-0.05-0.52-0.2c-0.21-0.25-0.19-0.62,0.06-0.84l19.86-17.11
		c0.25-0.21,0.62-0.19,0.84,0.06c0.21,0.25,0.19,0.62-0.06,0.84l-19.86,17.11C224.43,618.7,224.32,618.74,224.21,618.76z"/>
	<path class="st1" d="M287.53,649.64c-0.02,0-0.03,0-0.05,0l-67.33,3.04c-0.16,0.01-0.31-0.05-0.43-0.15
		c-0.12-0.11-0.19-0.25-0.19-0.41l-3.04-67.33c-0.01-0.33,0.24-0.62,0.57-0.62l67.33-3.04c0.16-0.01,0.31,0.05,0.43,0.15
		c0.12,0.11,0.19,0.25,0.19,0.41l3.04,67.33C288.07,649.33,287.84,649.6,287.53,649.64z M220.69,651.46l66.14-2.98l-2.98-66.14
		l-66.14,2.98L220.69,651.46z"/>
	<path class="st1" d="M237.54,821.58c-0.05,0.01-0.11,0.01-0.17,0.01c-0.56,0.03-1.1-0.17-1.51-0.55c-0.41-0.38-0.66-0.9-0.68-1.46
		l0,0c-0.03-0.56,0.17-1.1,0.55-1.51s0.89-0.66,1.46-0.68c1.16-0.05,2.14,0.85,2.19,2c0.03,0.56-0.17,1.1-0.55,1.51
		C238.49,821.29,238.04,821.52,237.54,821.58z M237.17,818.59c-0.47,0.06-0.82,0.47-0.8,0.95l0,0c0.01,0.24,0.12,0.47,0.3,0.63
		c0.18,0.16,0.41,0.25,0.66,0.24c0.24-0.01,0.47-0.12,0.63-0.3c0.16-0.18,0.25-0.41,0.24-0.66c-0.02-0.5-0.45-0.89-0.95-0.87
		C237.22,818.59,237.19,818.59,237.17,818.59z M235.78,819.56l0.01,0L235.78,819.56z"/>
	<path class="st1" d="M237.59,821.95c-0.06,0.01-0.13,0.01-0.19,0.02c-0.66,0.03-1.29-0.2-1.78-0.64c-0.49-0.45-0.77-1.05-0.8-1.71
		c-0.06-1.36,1-2.52,2.36-2.58c1.36-0.06,2.52,1,2.58,2.36C239.81,820.68,238.85,821.79,237.59,821.95z M237.12,818.22
		c-0.66,0.08-1.15,0.66-1.12,1.33c0.03,0.71,0.63,1.26,1.34,1.23c0.7-0.04,1.26-0.63,1.23-1.34c-0.03-0.71-0.63-1.26-1.34-1.22
		C237.19,818.22,237.16,818.22,237.12,818.22z"/>
	<path class="st1" d="M244.64,840.56c-0.16,0.02-0.31,0.03-0.47,0.02l-14.61-0.62c-0.89-0.04-1.6-0.74-1.64-1.63l-1.66-36.75
		c-0.04-0.89,0.6-1.65,1.48-1.77l14.49-1.93c0.02-0.01,0.08-0.01,0.09-0.01c0.75-0.08,1.49,0.15,2.07,0.62
		c0.58,0.48,0.95,1.15,1.03,1.91c1.25,12.37,1.82,24.95,1.69,37.39c-0.03,0.84-0.36,1.54-0.91,2.05
		C245.76,840.24,245.22,840.49,244.64,840.56z M242.32,798.47l0.08,0.59l-14.49,1.93c-0.27,0.04-0.46,0.27-0.45,0.54l1.66,36.75
		c0.01,0.27,0.23,0.49,0.5,0.5l14.6,0.62c0.44,0.02,0.86-0.13,1.18-0.43c0.32-0.3,0.51-0.7,0.53-1.14
		c0.13-12.45-0.43-24.98-1.68-37.31c-0.04-0.44-0.25-0.83-0.59-1.1s-0.76-0.4-1.2-0.36L242.32,798.47z M242.32,798.47l0.01,0
		L242.32,798.47z"/>
	<path class="st1" d="M275.48,823.6c-0.76,0.09-1.53,0.04-2.29-0.15c-0.88-0.23-1.6-0.87-1.93-1.71c-0.93-2.39-1.06-5.07-0.34-7.54
		c0.25-0.87,0.91-1.57,1.77-1.88c0,0,0,0,0,0c0.46-0.16,0.94-0.27,1.42-0.32c1.64-0.17,3.25,0.3,4.53,1.34
		c1.28,1.04,2.08,2.51,2.26,4.15c0,0.56-0.07,1.04-0.19,1.51c-0.41,1.6-1.42,2.94-2.84,3.78
		C277.13,823.23,276.32,823.5,275.48,823.6z M273.09,813.44c-0.5,0.18-0.88,0.58-1.02,1.09c-0.64,2.22-0.53,4.63,0.31,6.78
		c0.19,0.49,0.61,0.86,1.12,0.99c1.29,0.33,2.63,0.14,3.78-0.54c1.15-0.68,1.96-1.76,2.29-3.05c0.1-0.38,0.15-0.77,0.16-1.17
		c-0.14-1.25-0.78-2.44-1.82-3.28c-1.04-0.84-2.33-1.22-3.66-1.08C273.85,813.22,273.46,813.31,273.09,813.44L273.09,813.44z"/>
	<path class="st1" d="M286.57,831.75c-0.71,0.09-1.42,0.15-2.12,0.18l-11.81,0.53c-4.55,0.21-8.69-2.69-10.07-7.03
		c-1.44-4.56-1.66-9.44-0.64-14.12c0.98-4.45,4.83-7.71,9.39-7.91l11.81-0.53c1.31-0.06,2.63-0.02,3.93,0.11
		c2.16,0.21,4.22,1.01,5.96,2.31c0.8,0.6,1.55,1.28,2.22,2.03c5.56,6.2,5.04,15.77-1.17,21.33c-1.61,1.45-3.59,2.43-5.73,2.83l0,0
		C287.76,831.58,287.17,831.68,286.57,831.75z M288.24,830.89l0.01,0L288.24,830.89z M270.69,804.65c-3.71,0.46-6.78,3.22-7.6,6.92
		c-0.98,4.47-0.77,9.14,0.61,13.5c1.21,3.83,4.86,6.38,8.88,6.2l11.81-0.53c1.25-0.06,2.5-0.2,3.73-0.44l0,0
		c1.92-0.37,3.7-1.25,5.15-2.55c5.71-5.12,6.19-13.93,1.07-19.65c-0.62-0.69-1.3-1.32-2.04-1.87c-1.57-1.17-3.42-1.89-5.36-2.08
		c-1.24-0.12-2.51-0.16-3.76-0.1l-11.81,0.53C271.15,804.6,270.92,804.62,270.69,804.65z"/>
	<path class="st1" d="M286.54,837.92c-0.53,0.07-1.07,0.11-1.62,0.14l-31.22,1.41c-0.07,0-0.13-0.01-0.2-0.02
		c-2.38-0.72-4.79-1.47-7.16-2.24c-0.24-0.08-0.41-0.31-0.41-0.57l-0.04-8.3l-0.3-9.21l-0.6-10.11l-0.64-7.35
		c-0.03-0.26,0.12-0.51,0.36-0.61c2.28-0.98,4.62-1.94,6.93-2.87c0.06-0.03,0.13-0.04,0.19-0.04l31.22-1.41
		c11.39-0.51,21.08,8.34,21.59,19.73C305.14,827.31,297.14,836.61,286.54,837.92z M253.76,838.27l31.11-1.4
		c10.74-0.49,19.08-9.61,18.6-20.35c-0.48-10.74-9.61-19.08-20.35-18.6l-31.11,1.4c-2.14,0.86-4.3,1.75-6.42,2.66l1.01,12.83
		l0.44,10.92l0.1,10.47C249.32,836.91,251.55,837.6,253.76,838.27z"/>
	<path class="st1" d="M391.02,947.49c-0.19,0.02-0.38-0.04-0.52-0.19c-0.66-0.75-2.14-0.95-3.21-0.44c-0.29,0.14-0.53,0.32-0.7,0.52
		c-0.21,0.25-0.58,0.29-0.84,0.09c-0.25-0.21-0.29-0.58-0.09-0.84c0.28-0.34,0.67-0.64,1.11-0.85c1.56-0.74,3.58-0.42,4.6,0.72
		c0.22,0.24,0.2,0.62-0.05,0.84C391.25,947.43,391.13,947.47,391.02,947.49z"/>
	<path class="st1" d="M389.01,945.08c-0.17,0.02-0.33,0.03-0.51,0.04c-2.04,0.04-3.73-1.19-3.76-2.76
		c-0.03-1.57,1.59-2.88,3.64-2.92c0.95-0.02,1.86,0.23,2.56,0.72c0.76,0.52,1.18,1.25,1.2,2.05
		C392.17,943.65,390.83,944.85,389.01,945.08z M388.04,940.65c-1.19,0.15-2.13,0.87-2.11,1.68c0.02,0.9,1.19,1.63,2.55,1.6
		c1.36-0.02,2.5-0.81,2.48-1.71c-0.01-0.4-0.25-0.79-0.69-1.09c-0.49-0.34-1.16-0.52-1.86-0.5l0,0
		C388.28,940.62,388.16,940.63,388.04,940.65z"/>
	<path class="st1" d="M393.51,960.42c-1.52,0.19-3.08,0.3-4.67,0.34c-16.92,0.37-30.88-8.38-31.12-19.5
		c-0.24-11.12,13.31-20.47,30.23-20.85l0,0c16.92-0.37,30.88,8.38,31.12,19.5C419.3,949.99,408.18,958.61,393.51,960.42z
		 M383.39,921.93c-14.06,1.73-24.69,9.84-24.48,19.3c0.23,10.47,13.65,18.69,29.91,18.34c16.27-0.36,29.3-9.17,29.07-19.63
		c-0.23-10.47-13.65-18.69-29.91-18.34C386.42,921.64,384.89,921.75,383.39,921.93z"/>
	<path class="st1" d="M398.88,951.37c-0.02,0-0.04,0-0.06,0l-7.78,0.17c-0.33,0.01-0.6-0.25-0.61-0.58
		c-0.01-0.33,0.25-0.6,0.58-0.61l7.68-0.17c6.12-2.11,10.33-5.78,11.56-10.07c0.86-3,0.15-6.02-2.06-8.72
		c-5.63-6.89-19.15-9.45-30.14-5.69c-6.17,2.11-10.41,5.79-11.65,10.1c-0.86,3-0.15,6.02,2.06,8.72c2.19,2.68,5.79,4.86,10.14,6.13
		c0.31,0.09,0.5,0.42,0.4,0.74c-0.09,0.31-0.42,0.49-0.74,0.4c-4.57-1.34-8.38-3.66-10.72-6.52c-2.43-2.97-3.24-6.45-2.28-9.8
		c1.34-4.69,5.86-8.67,12.41-10.9c11.42-3.9,25.53-1.18,31.45,6.07c2.43,2.97,3.24,6.45,2.28,9.8c-1.34,4.69-5.86,8.67-12.41,10.9
		C398.96,951.36,398.92,951.37,398.88,951.37z"/>
	<path class="st1" d="M386.29,951.65c-0.02,0-0.04,0-0.06,0l-7.78,0.17c-0.33,0.01-0.6-0.25-0.61-0.58
		c-0.01-0.33,0.25-0.6,0.58-0.61l7.78-0.17c0.33-0.01,0.6,0.25,0.61,0.58C386.82,951.35,386.59,951.61,386.29,951.65z"/>
	<path class="st1" d="M396.21,957.65c-0.02,0-0.04,0-0.06,0l-14.75,0.32c-0.16,0-0.31-0.06-0.42-0.16
		c-0.11-0.11-0.18-0.26-0.18-0.42l-0.07-3.03c-0.01-0.33,0.25-0.6,0.58-0.61l4.97-0.11c0.33-0.01,0.6,0.25,0.61,0.58
		c0.01,0.33-0.25,0.6-0.58,0.61l-4.37,0.1l0.04,1.84l13.56-0.3l-0.04-1.84l-4.37,0.1c-0.33,0.01-0.6-0.25-0.61-0.58
		s0.25-0.6,0.58-0.61l4.97-0.11c0.16,0,0.31,0.06,0.42,0.16c0.11,0.11,0.18,0.26,0.18,0.42l0.07,3.03
		C396.74,957.35,396.51,957.61,396.21,957.65z"/>
	<path class="st1" d="M391.22,956.97c-0.02,0-0.04,0-0.06,0l-4.81,0.11c-0.16,0-0.31-0.06-0.42-0.16c-0.11-0.11-0.18-0.26-0.18-0.42
		l-0.21-9.48c-0.01-0.33,0.25-0.6,0.58-0.61c0.33-0.01,0.6,0.25,0.61,0.58l0.2,8.89l3.62-0.08l-0.2-8.89
		c-0.01-0.33,0.25-0.6,0.58-0.61c0.33-0.01,0.6,0.25,0.61,0.58l0.21,9.48C391.75,956.68,391.52,956.93,391.22,956.97z"/>
	<path class="st1" d="M422.94,962.55c-0.02,0-0.04,0-0.06,0l-67.38,1.48c-0.33,0.01-0.6-0.25-0.61-0.58l-0.99-44.92
		c0-0.16,0.06-0.31,0.16-0.42c0.11-0.11,0.26-0.18,0.42-0.18l67.38-1.48c0.33-0.01,0.6,0.25,0.61,0.58l0.99,44.92
		c0,0.16-0.06,0.31-0.16,0.42C423.2,962.47,423.08,962.53,422.94,962.55z M356.07,962.83l66.19-1.46l-0.96-43.73l-66.19,1.46
		L356.07,962.83z"/>
	<path class="st1" d="M249.68,954.51c-0.13,0.02-0.26,0.03-0.39,0.03c-2.36,0.08-4.34-1.78-4.42-4.14
		c-0.04-1.14,0.37-2.23,1.15-3.07c0.78-0.83,1.84-1.31,2.98-1.35c2.36-0.08,4.34,1.78,4.42,4.14c0.04,1.14-0.37,2.23-1.15,3.07
		C251.58,953.93,250.67,954.39,249.68,954.51z M248.76,947.2c-0.72,0.09-1.37,0.42-1.87,0.96c-0.56,0.6-0.86,1.39-0.83,2.21
		c0.06,1.7,1.49,3.04,3.19,2.99c1.71-0.07,3.04-1.49,2.99-3.19l0,0c-0.06-1.7-1.49-3.04-3.19-2.99
		C248.95,947.18,248.85,947.18,248.76,947.2z"/>
	<path class="st1" d="M313.13,959.08c-0.02,0-0.04,0-0.05,0l-73.68,2.44c-0.33,0.01-0.6-0.25-0.61-0.57l-2.44-73.68
		c-0.01-0.33,0.24-0.6,0.57-0.61l73.68-2.44c0.33-0.01,0.6,0.25,0.61,0.57l2.44,73.68C313.67,958.78,313.44,959.04,313.13,959.08z
		 M239.96,960.31l72.49-2.4l-2.4-72.49l-72.49,2.4L239.96,960.31z"/>
	<path class="st1" d="M318.57,964.17c-0.02,0-0.04,0-0.05,0l-84.2,2.78c-0.33,0.01-0.6-0.25-0.61-0.57l-2.78-84.2
		c-0.01-0.33,0.24-0.6,0.57-0.61l84.2-2.78c0.33-0.01,0.6,0.25,0.61,0.57l2.78,84.2C319.1,963.87,318.87,964.13,318.57,964.17z
		 M234.87,965.75l83.01-2.75l-2.75-83.01l-83.01,2.75L234.87,965.75z"/>
	<path class="st1" d="M441.83,748.96c-0.02,0-0.03,0-0.05,0l-67.37,2.35c-0.16,0.01-0.31-0.05-0.43-0.16
		c-0.12-0.11-0.18-0.26-0.19-0.41l-2.35-67.37c-0.01-0.33,0.24-0.6,0.57-0.61l67.36-2.35c0.33-0.01,0.6,0.24,0.61,0.57l2.35,67.37
		C442.36,748.66,442.13,748.92,441.83,748.96z M374.97,750.11l66.18-2.31l-2.31-66.18l-66.18,2.31L374.97,750.11z"/>
	<path class="st1" d="M441.91,748.87c-0.02,0-0.03,0-0.05,0l-67.36,2.43c-0.33,0.01-0.6-0.24-0.62-0.57l-2.43-67.36
		c-0.01-0.16,0.05-0.31,0.16-0.43c0.11-0.12,0.26-0.19,0.41-0.19l67.36-2.43c0.33-0.01,0.6,0.24,0.62,0.57l2.43,67.36
		c0.01,0.16-0.05,0.31-0.16,0.43C442.18,748.79,442.05,748.86,441.91,748.87z M375.05,750.1l66.17-2.39l-2.39-66.17l-66.17,2.39
		L375.05,750.1z"/>
	<path class="st1" d="M440.08,698.35c-0.02,0-0.03,0-0.05,0l-67.36,2.43c-0.16,0.01-0.31-0.05-0.43-0.16
		c-0.12-0.11-0.18-0.26-0.19-0.41l-0.61-16.84c-0.01-0.33,0.24-0.61,0.57-0.62l67.36-2.43c0.16-0.01,0.31,0.05,0.43,0.16
		c0.12,0.11,0.18,0.26,0.19,0.41l0.61,16.84C440.62,698.05,440.39,698.31,440.08,698.35z M373.22,699.58l66.17-2.39l-0.57-15.65
		l-66.17,2.39L373.22,699.58z"/>
	<path class="st1" d="M431.84,694.14c-0.13,0.02-0.26,0.03-0.39,0.03c-1.21,0.04-2.36-0.39-3.25-1.21c-0.89-0.82-1.4-1.94-1.44-3.15
		c-0.04-1.21,0.39-2.36,1.21-3.25c0.82-0.89,1.94-1.4,3.15-1.44c2.49-0.09,4.6,1.87,4.69,4.36
		C435.89,691.84,434.15,693.85,431.84,694.14z M430.87,686.33c-0.78,0.1-1.49,0.46-2.03,1.04c-0.61,0.65-0.92,1.5-0.89,2.39
		c0.03,0.89,0.41,1.72,1.06,2.32c0.65,0.61,1.5,0.92,2.39,0.89c1.84-0.07,3.28-1.62,3.22-3.46c0,0,0,0,0,0
		c-0.07-1.84-1.62-3.28-3.46-3.22C431.07,686.31,430.97,686.32,430.87,686.33z"/>
	<path class="st1" d="M376.01,698.42c-0.02,0-0.03,0-0.05,0c-0.33,0.01-0.6-0.24-0.62-0.57l-0.41-11.23
		c-0.01-0.16,0.05-0.31,0.16-0.43c0.11-0.12,0.26-0.18,0.41-0.19l51.64-1.87c0.33-0.01,0.6,0.24,0.62,0.57
		c0.01,0.33-0.25,0.6-0.57,0.62l-51.05,1.85l0.39,10.63C376.54,698.12,376.31,698.38,376.01,698.42z"/>
	<path class="st1" d="M429.44,745.95c-0.02,0-0.03,0-0.05,0l-51.64,1.87c-0.33,0.01-0.6-0.24-0.62-0.57l-1.62-44.91
		c-0.01-0.33,0.25-0.61,0.57-0.62c0.33-0.01,0.6,0.24,0.62,0.57l1.6,44.31l51.05-1.84c0.33-0.01,0.6,0.24,0.62,0.57
		C429.97,745.65,429.74,745.91,429.44,745.95z"/>
	<path class="st1" d="M432.45,710.98c-0.13,0.02-0.26,0.03-0.39,0.03c-2.49,0.09-4.6-1.87-4.69-4.36c-0.09-2.49,1.87-4.6,4.36-4.69
		c2.49-0.09,4.6,1.87,4.69,4.36c0,0,0,0,0,0C436.5,708.68,434.75,710.69,432.45,710.98z M431.48,703.17
		c-1.7,0.21-2.99,1.69-2.92,3.43c0.07,1.84,1.62,3.28,3.46,3.22c1.83-0.07,3.28-1.62,3.21-3.46c-0.07-1.84-1.62-3.28-3.46-3.21
		C431.68,703.15,431.58,703.16,431.48,703.17z M435.82,706.34l0.01,0L435.82,706.34z"/>
	<path class="st1" d="M405.58,739.77c-0.02,0-0.03,0-0.05,0c-0.33,0.01-0.6-0.24-0.62-0.57l-1.16-32.23
		c-0.01-0.33,0.24-0.61,0.57-0.62c0.33-0.01,0.6,0.24,0.62,0.57l1.16,32.23C406.11,739.47,405.88,739.73,405.58,739.77z"/>
	<path class="st1" d="M421.11,723.08c-0.02,0-0.03,0-0.05,0l-32.23,1.16c-0.33,0.01-0.6-0.24-0.62-0.57
		c-0.01-0.33,0.24-0.61,0.57-0.62l32.23-1.16c0.33-0.01,0.6,0.24,0.62,0.57C421.64,722.77,421.41,723.04,421.11,723.08z"/>
	<path class="st1" d="M415.05,733.01c-0.17,0.02-0.34-0.03-0.48-0.15l-20.11-18.7c-0.24-0.22-0.25-0.6-0.03-0.84
		c0.22-0.24,0.6-0.25,0.84-0.03l20.11,18.7c0.24,0.22,0.25,0.6,0.03,0.84C415.31,732.93,415.18,732.99,415.05,733.01z"/>
	<path class="st1" d="M395.64,733.71c-0.17,0.02-0.34-0.03-0.48-0.15c-0.24-0.22-0.25-0.6-0.03-0.84l18.7-20.11
		c0.22-0.24,0.6-0.25,0.84-0.03c0.24,0.22,0.25,0.6,0.03,0.84l-18.7,20.11C395.91,733.63,395.78,733.69,395.64,733.71z"/>
	<path class="st1" d="M404.59,712.54c-0.17,0.02-0.34-0.03-0.48-0.15l-4.97-4.62c-0.24-0.22-0.25-0.6-0.03-0.84
		c0.22-0.24,0.6-0.25,0.84-0.03l4.53,4.22l4.22-4.53c0.22-0.24,0.6-0.25,0.84-0.03c0.24,0.22,0.25,0.6,0.03,0.84l-4.62,4.97
		C404.86,712.47,404.73,712.53,404.59,712.54z"/>
	<path class="st1" d="M410.36,739.39c-0.17,0.02-0.34-0.03-0.48-0.15l-4.53-4.22l-4.22,4.53c-0.22,0.24-0.6,0.25-0.84,0.03
		c-0.24-0.22-0.25-0.6-0.03-0.84l4.62-4.97c0.22-0.24,0.6-0.25,0.84-0.03l4.97,4.62c0.24,0.22,0.25,0.6,0.03,0.84
		C410.63,739.31,410.5,739.38,410.36,739.39z"/>
	<path class="st1" d="M389.26,729.03c-0.17,0.02-0.34-0.03-0.48-0.15c-0.24-0.22-0.25-0.6-0.03-0.84l4.22-4.53l-4.53-4.22
		c-0.24-0.22-0.25-0.6-0.03-0.84c0.22-0.24,0.6-0.25,0.84-0.03l4.97,4.62c0.24,0.22,0.25,0.6,0.03,0.84l-4.62,4.97
		C389.52,728.95,389.39,729.01,389.26,729.03z"/>
	<path class="st1" d="M421.08,727.88c-0.17,0.02-0.34-0.03-0.48-0.15l-4.97-4.62c-0.24-0.22-0.25-0.6-0.03-0.84l4.62-4.97
		c0.22-0.24,0.6-0.25,0.84-0.03c0.24,0.22,0.25,0.6,0.03,0.84l-4.22,4.53l4.53,4.22c0.24,0.22,0.25,0.6,0.03,0.84
		C421.34,727.8,421.21,727.86,421.08,727.88z"/>
	<path class="st1" d="M417.03,717.05c-0.02,0-0.03,0-0.05,0l-6.09,0.22c-0.33,0.01-0.6-0.24-0.62-0.57l-0.22-6.09
		c-0.01-0.33,0.24-0.6,0.57-0.62c0.33-0.01,0.6,0.24,0.62,0.57l0.2,5.5l5.5-0.2c0.33-0.01,0.6,0.24,0.62,0.57
		C417.56,716.75,417.33,717.01,417.03,717.05z"/>
	<path class="st1" d="M398.61,717.71c-0.02,0-0.03,0-0.05,0l-6.09,0.22c-0.33,0.01-0.6-0.24-0.62-0.57
		c-0.01-0.33,0.25-0.6,0.57-0.62l5.5-0.2l-0.2-5.5c-0.01-0.33,0.24-0.61,0.57-0.62c0.33-0.01,0.6,0.24,0.62,0.57l0.22,6.09
		C399.14,717.41,398.91,717.68,398.61,717.71z"/>
	<path class="st1" d="M411.61,735.69c-0.02,0-0.03,0-0.05,0c-0.33,0.01-0.6-0.24-0.62-0.57l-0.22-6.09
		c-0.01-0.33,0.25-0.6,0.57-0.62l6.09-0.22c0.33-0.01,0.6,0.24,0.62,0.57c0.01,0.33-0.25,0.6-0.57,0.62l-5.5,0.2l0.2,5.5
		C412.14,735.39,411.91,735.66,411.61,735.69z"/>
	<path class="st1" d="M399.27,736.14c-0.02,0-0.03,0-0.05,0c-0.33,0.01-0.6-0.24-0.62-0.57l-0.2-5.5l-5.5,0.2
		c-0.33,0.01-0.6-0.24-0.62-0.57c-0.01-0.33,0.25-0.6,0.57-0.62l6.09-0.22c0.33-0.01,0.6,0.24,0.62,0.57l0.22,6.09
		C399.8,735.84,399.57,736.1,399.27,736.14z"/>
	<path class="st1" d="M376.42,810.52c-0.02,0-0.04,0-0.06,0c-0.33,0.01-0.6-0.25-0.61-0.58l-1.53-50.53
		c-0.01-0.33,0.24-0.6,0.58-0.61c0.33-0.01,0.6,0.25,0.61,0.58l1.53,50.53C376.95,810.22,376.72,810.48,376.42,810.52z"/>
	<path class="st1" d="M443.79,808.48c-0.02,0-0.04,0-0.06,0c-0.33,0.01-0.6-0.25-0.61-0.58l-1.53-50.53
		c-0.01-0.33,0.24-0.6,0.58-0.61c0.33-0.01,0.6,0.25,0.61,0.58l1.53,50.53C444.32,808.18,444.09,808.45,443.79,808.48z"/>
	<path class="st1" d="M443.79,808.48c-0.02,0-0.04,0-0.06,0l-67.37,2.04c-0.33,0.01-0.6-0.25-0.61-0.58
		c-0.01-0.33,0.24-0.6,0.58-0.61l67.37-2.04c0.33-0.01,0.6,0.25,0.61,0.58C444.32,808.18,444.09,808.45,443.79,808.48z"/>
	<path class="st1" d="M442.26,757.96c-0.02,0-0.04,0-0.06,0L374.84,760c-0.33,0.01-0.6-0.25-0.61-0.58
		c-0.01-0.33,0.24-0.6,0.58-0.61l67.37-2.04c0.33-0.01,0.6,0.25,0.61,0.58C442.79,757.66,442.56,757.92,442.26,757.96z"/>
	<path class="st1" d="M404.51,801.61c-0.17,0.02-0.35-0.03-0.48-0.16c-0.24-0.23-0.25-0.6-0.03-0.84l17.59-18.68
		c0.23-0.24,0.6-0.25,0.84-0.03c0.24,0.23,0.25,0.6,0.03,0.84l-17.59,18.68C404.77,801.53,404.64,801.59,404.51,801.61z"/>
	<path class="st1" d="M400.02,785.36c-0.17,0.02-0.35-0.03-0.48-0.16c-0.24-0.23-0.25-0.6-0.03-0.84l9.93-10.55
		c0.23-0.24,0.6-0.25,0.84-0.03c0.24,0.23,0.25,0.6,0.03,0.84l-9.93,10.55C400.29,785.28,400.16,785.34,400.02,785.36z"/>
	<path class="st1" d="M400.42,799.16c-0.17,0.02-0.35-0.03-0.48-0.16c-0.24-0.23-0.25-0.6-0.03-0.84l14.31-15.2
		c0.23-0.24,0.6-0.25,0.84-0.03s0.25,0.6,0.03,0.84l-14.31,15.2C400.68,799.08,400.55,799.14,400.42,799.16z"/>
	<path class="st1" d="M410.69,802.47c-0.17,0.02-0.35-0.03-0.48-0.16c-0.24-0.23-0.25-0.6-0.03-0.84l11.04-11.73
		c0.23-0.24,0.6-0.25,0.84-0.03c0.24,0.23,0.25,0.6,0.03,0.84l-11.04,11.73C410.95,802.4,410.82,802.46,410.69,802.47z"/>
	<path class="st1" d="M400.34,795.42c-0.17,0.02-0.35-0.03-0.48-0.16c-0.24-0.23-0.25-0.6-0.03-0.84l17.06-18.12
		c0.23-0.24,0.6-0.25,0.84-0.03c0.24,0.23,0.25,0.6,0.03,0.84l-17.06,18.12C400.6,795.34,400.48,795.4,400.34,795.42z"/>
	<path class="st1" d="M411.2,802.42c-0.45,0.06-0.9,0.09-1.36,0.1c-3.86,0.12-7.54-1.28-10.35-3.92c-2.81-2.65-4.42-6.23-4.54-10.09
		c-0.24-7.97,6.05-14.65,14.02-14.89c3.86-0.12,7.54,1.28,10.35,3.92s4.42,6.23,4.54,10.09c0.12,3.86-1.28,7.53-3.92,10.35
		C417.59,800.46,414.53,802.01,411.2,802.42z M407.75,774.91c-3.06,0.38-5.87,1.8-8.01,4.07c-2.43,2.58-3.71,5.95-3.6,9.5
		c0.11,3.54,1.59,6.83,4.17,9.26c2.58,2.43,5.95,3.71,9.5,3.6c3.55-0.1,6.83-1.59,9.26-4.17c2.43-2.58,3.71-5.95,3.6-9.5
		c-0.11-3.54-1.59-6.83-4.17-9.26c-2.58-2.43-5.95-3.71-9.5-3.6C408.58,774.82,408.16,774.85,407.75,774.91z"/>
	<path class="st1" d="M411.74,806.91c-0.58,0.07-1.17,0.12-1.76,0.13c-10.46,0.32-19.23-7.94-19.54-18.4
		c-0.32-10.46,7.93-19.21,18.4-19.54l0,0c10.46-0.32,19.23,7.94,19.54,18.4C428.67,797.36,421.34,805.72,411.74,806.91z
		 M407.21,770.42c-9.01,1.11-15.87,8.95-15.59,18.19c0.3,9.8,8.51,17.54,18.32,17.24c9.81-0.29,17.54-8.51,17.24-18.32
		c-0.3-9.8-8.51-17.54-18.32-17.24C408.3,770.31,407.75,770.35,407.21,770.42z"/>
	<path class="st1" d="M418.58,766.08c-0.1,0.01-0.2,0.02-0.3,0.02c-1.78,0.05-3.28-1.35-3.33-3.14c-0.01-0.33,0.24-0.6,0.58-0.61
		c0.33-0.01,0.6,0.25,0.61,0.58c0.03,1.13,0.98,2.02,2.11,1.98c0.54-0.02,1.05-0.24,1.43-0.64c0.37-0.4,0.57-0.92,0.55-1.46
		c-0.01-0.33,0.25-0.6,0.58-0.61c0.33-0.01,0.6,0.25,0.61,0.58c0.03,0.86-0.29,1.69-0.88,2.31
		C420.01,765.64,419.32,765.99,418.58,766.08z"/>
	<path class="st1" d="M420.88,763.38c-0.02,0-0.04,0-0.06,0c-0.33,0.01-0.6-0.25-0.61-0.58c-0.03-1.13-0.98-2.02-2.11-1.98
		c-1.12,0.03-2.02,0.98-1.98,2.11c0.01,0.33-0.25,0.6-0.58,0.61c-0.33,0.01-0.6-0.25-0.61-0.58c-0.05-1.78,1.36-3.28,3.14-3.33
		c0.86-0.03,1.69,0.29,2.31,0.88c0.63,0.59,0.99,1.39,1.02,2.26C421.41,763.09,421.19,763.35,420.88,763.38z"/>
	<path class="st1" d="M426.13,765.86c-0.1,0.01-0.2,0.02-0.3,0.02c-1.78,0.05-3.28-1.35-3.33-3.14c-0.01-0.33,0.24-0.6,0.58-0.61
		c0.33-0.01,0.6,0.25,0.61,0.58c0.03,1.13,0.98,2.02,2.11,1.98c1.13-0.03,2.02-0.98,1.98-2.11c-0.01-0.33,0.24-0.6,0.58-0.61
		c0.33-0.01,0.6,0.25,0.61,0.58C429.01,764.23,427.77,765.65,426.13,765.86z"/>
	<path class="st1" d="M428.44,763.16c-0.02,0-0.04,0-0.06,0c-0.33,0.01-0.6-0.25-0.61-0.58c-0.02-0.55-0.24-1.05-0.64-1.43
		c-0.4-0.37-0.92-0.57-1.46-0.55c-1.13,0.04-2.02,0.98-1.98,2.11c0.01,0.33-0.26,0.6-0.58,0.61c-0.33,0.01-0.6-0.25-0.61-0.58
		c-0.03-0.86,0.29-1.69,0.88-2.31c0.59-0.63,1.4-0.99,2.26-1.02c0.86-0.03,1.69,0.29,2.31,0.88c0.63,0.59,0.99,1.39,1.02,2.26
		C428.97,762.86,428.74,763.12,428.44,763.16z"/>
	<path class="st1" d="M433.69,765.63c-0.1,0.01-0.2,0.02-0.3,0.02c-1.78,0.05-3.28-1.35-3.33-3.14c-0.01-0.33,0.24-0.6,0.58-0.61
		c0.33-0.01,0.6,0.25,0.61,0.58c0.03,1.13,0.98,2.02,2.11,1.98c0.55-0.01,1.05-0.24,1.43-0.64c0.37-0.4,0.57-0.92,0.55-1.46
		c-0.01-0.33,0.24-0.6,0.58-0.61c0.33-0.01,0.6,0.25,0.61,0.58c0.03,0.86-0.29,1.69-0.88,2.31
		C435.12,765.19,434.44,765.53,433.69,765.63z"/>
	<path class="st1" d="M436,762.93c-0.02,0-0.04,0-0.06,0c-0.33,0.01-0.6-0.25-0.61-0.58c-0.03-1.13-0.98-2.02-2.11-1.98
		c-1.14,0.03-2.02,0.98-1.98,2.11c0.01,0.33-0.25,0.59-0.58,0.61c-0.33,0.01-0.6-0.25-0.61-0.58c-0.03-0.86,0.29-1.69,0.88-2.31
		c0.59-0.63,1.4-0.99,2.26-1.02c1.78-0.05,3.28,1.35,3.33,3.14C436.53,762.63,436.3,762.89,436,762.93z"/>
	<path class="st1" d="M442.55,767.63c-0.02,0-0.04,0-0.06,0l-67.37,2.04c-0.33,0.01-0.6-0.25-0.61-0.58
		c-0.01-0.33,0.24-0.6,0.58-0.61l67.37-2.04c0.33-0.01,0.6,0.25,0.61,0.58C443.08,767.33,442.85,767.59,442.55,767.63z"/>
	<path class="st1" d="M379.92,766.39c-0.07,0.01-0.15,0.01-0.22,0.02c-1.3,0.04-2.4-0.99-2.44-2.29c-0.02-0.63,0.21-1.23,0.64-1.69
		c0.43-0.46,1.02-0.72,1.65-0.74l0,0c1.3-0.04,2.4,0.99,2.44,2.29C382.03,765.2,381.12,766.24,379.92,766.39z M379.49,762.87
		c-0.27,0.03-0.52,0.16-0.71,0.36c-0.22,0.23-0.33,0.53-0.32,0.84c0.02,0.65,0.56,1.16,1.21,1.14c0.64-0.02,1.16-0.56,1.14-1.21
		s-0.56-1.16-1.21-1.14l0,0C379.56,762.86,379.52,762.87,379.49,762.87z"/>
	<g>
		<polygon class="st1" points="748.44,888.71 748.51,976.98 235.29,988.79 183.7,990 183.56,986.98 145.34,140.55 176.75,139.1 
			171.5,22.4 233.56,19.72 234.29,19.69 234.31,20.31 234.32,20.8 234.32,20.82 234.36,21.99 234.65,30.9 234.68,32.07 
			234.68,32.09 234.7,32.59 234.72,33.17 233.97,33.2 185.54,35.28 190.26,138.51 217.54,137.34 218.29,154.74 218.32,155.29 
			213.01,155.55 212.52,155.58 212.55,156.16 212.93,165.07 212.97,166.25 212.97,166.26 213.71,183.62 199.05,184.27 
			223.23,720.72 341.34,715.57 341.29,724.92 342,751.74 442.21,748.36 442.24,748.36 443.44,748.34 460.13,747.77 460.74,747.75 
			460.91,756.04 460.92,756.72 451.53,756.96 452.86,813.21 452.87,813.73 444.46,813.95 443.87,813.96 442.44,757.36 
			342.24,760.74 333.25,761.05 332.31,725.27 223.64,729.61 234.28,966.35 447.69,961.42 445.91,892.65 446.44,892.64 
			454.86,892.42 454.88,893 456.65,961.24 726.04,955.04 725.97,888.76 738.86,888.73 747.91,888.72 		"/>
		<polygon class="st1" points="748.3,731.85 748.33,754.45 748.36,776.4 747.98,776.41 738.94,776.42 725.89,776.45 725.87,754.58 
			574.7,755.22 574.68,754.11 561.94,754.4 561.93,753.89 561.92,753.28 561.8,745.47 562.4,745.46 574.57,745.13 566.86,173.48 
			548.04,173.76 416.48,176.65 415.68,176.67 415.67,176.41 415.21,158.86 415.18,157.67 414.95,148.73 414.94,148.61 
			409.74,148.76 409.13,148.77 409.11,147.8 409.1,147.75 408.61,131.47 408.59,130.83 415.29,130.67 547.99,127.65 546.55,24.37 
			511.15,24.93 510.52,24.94 510.5,24.36 510.49,23.85 510.49,23.84 510.46,22.67 510.2,13.75 510.16,12.56 510.15,12.04 
			510.13,11.45 510.75,11.44 592.77,10 594.92,173.05 598.59,443.7 602.46,732.35 727.74,731.87 740.19,731.85 		"/>
	</g>
	<g>
		<path class="st1" d="M578.4,862.3l-3.33,0l0,6.75l-4.37,0l0-6.75l-12.7,0v-4.04c1.2-3.27,2.18-6.51,2.92-9.72
			c0.74-3.22,1.32-6.78,1.74-10.68l4.28,0v0.67c-0.76,7.01-2.23,13.58-4.42,19.74l8.18,0l0-14.88l4.37,0l0,14.88h3.33L578.4,862.3z"
			/>
		<path class="st1" d="M587.86,863.25v0.62l-3.42,11.51l-3.9,0l2.47-12.13L587.86,863.25z"/>
		<path class="st1" d="M607.34,852.29c1.32,1.32,1.97,3.05,1.97,5.21v4.04c0,2.41-0.79,4.36-2.38,5.85
			c-1.59,1.49-3.66,2.23-6.23,2.23c-2.66,0-4.76-0.73-6.3-2.19c-1.54-1.46-2.31-3.45-2.31-5.99v-1.33h4.33v1.24
			c0,1.3,0.39,2.33,1.17,3.09c0.78,0.76,1.8,1.14,3.07,1.14c1.3,0,2.34-0.4,3.11-1.21c0.78-0.81,1.17-1.89,1.17-3.26l0-2.95
			c0-1.33-0.37-2.36-1.12-3.09c-0.75-0.73-1.89-1.09-3.45-1.09l-3.85,0l0-3.47l7.37-8.61l-11.17,0v-4.04l16.41,0v4.04l-7.13,8.18
			C604.24,850.23,606.02,850.97,607.34,852.29z"/>
		<path class="st1" d="M633.9,862.3h-3.33l0,6.75h-4.37l0-6.75l-12.7,0v-4.04c1.2-3.27,2.18-6.51,2.92-9.72
			c0.74-3.22,1.32-6.78,1.74-10.68h4.28v0.67c-0.76,7.01-2.23,13.58-4.42,19.74l8.18,0l0-14.88h4.37l0,14.88l3.33,0L633.9,862.3z"/>
	</g>
	<g>
		<path class="st1" d="M257.93,383.47v0.67l-4.57,0l-6.47-13.6l-3.42,0l0,13.6l-4.42,0l0-31.2l4.42,0l0,13.6l3.42,0l6.37-13.6
			l4.47,0v0.67l-7.09,14.88L257.93,383.47z"/>
		<path class="st1" d="M278.29,360.55v0.62l-8.46,25.96c-0.6,1.87-1.42,3.19-2.45,3.95c-1.03,0.76-2.5,1.14-4.4,1.14l-2.62,0l0-3.9
			h2.23c0.92,0,1.6-0.17,2.05-0.52c0.44-0.35,0.81-1.01,1.09-2l0.52-1.81l-7.85-22.83v-0.62l4.47,0l5.61,17.45l5.33-17.45
			L278.29,360.55z"/>
		<path class="st1" d="M298.88,383.52v0.62l-4.42,0l-4.71-8.27l-4.71,8.27l-4.37,0v-0.62l6.47-11.27l-6.32-11.08v-0.62l4.42,0
			l4.57,8.04l4.52-8.04l4.42,0v0.62l-6.32,11.08L298.88,383.52z"/>
		<path class="st1" d="M307.1,360.55l0,9.8l8.23,0l0-9.8l4.28,0l0,23.59l-4.28,0l0-9.84l-8.23,0l0,9.84l-4.28,0l0-23.59
			L307.1,360.55z"/>
		<path class="st1" d="M340.91,384.14l-4.28,0l0-8.46l-2.66,0l-5.94,8.46l-4.52,0v-0.57l5.85-8.18c-1.78-0.38-3.16-1.16-4.14-2.33
			c-0.98-1.17-1.47-2.65-1.47-4.42v-0.95c0-2.22,0.74-3.96,2.21-5.23c1.47-1.27,3.49-1.9,6.06-1.9l8.89,0L340.91,384.14z
			 M336.64,372.06l0-7.75l-4.23,0c-1.36,0-2.44,0.31-3.23,0.93c-0.79,0.62-1.19,1.43-1.19,2.45v0.9c0,1.08,0.4,1.93,1.19,2.54
			c0.79,0.62,1.87,0.93,3.23,0.93L336.64,372.06z"/>
		<path class="st1" d="M356.65,369.02l0,3.9l-10.22,0l0-3.9L356.65,369.02z"/>
		<path class="st1" d="M374.72,360.55l0,3.85l-8.23,0l0,19.73l-4.28,0l0-23.59L374.72,360.55z"/>
		<path class="st1" d="M378.98,382.66c-1.51-1.36-2.26-3.31-2.26-5.85l0-8.89c0-2.57,0.75-4.53,2.26-5.9
			c1.51-1.36,3.53-2.04,6.06-2.04c2.54,0,4.56,0.68,6.06,2.04c1.5,1.36,2.26,3.33,2.26,5.9l0,8.89c0,2.54-0.75,4.49-2.26,5.85
			c-1.51,1.36-3.53,2.04-6.06,2.04C382.51,384.71,380.49,384.03,378.98,382.66z M387.97,379.6c0.74-0.71,1.12-1.7,1.12-2.97l0-8.56
			c0-1.3-0.37-2.31-1.12-3.02c-0.75-0.71-1.72-1.07-2.92-1.07c-1.21,0-2.18,0.36-2.92,1.07c-0.75,0.71-1.12,1.72-1.12,3.02l0,8.56
			c0,1.27,0.37,2.26,1.12,2.97c0.74,0.71,1.72,1.07,2.92,1.07C386.25,380.67,387.22,380.31,387.97,379.6z"/>
		<path class="st1" d="M400.14,382.62c-1.47-1.39-2.21-3.33-2.21-5.8l0-8.89c0-2.5,0.73-4.45,2.19-5.85
			c1.46-1.39,3.5-2.09,6.13-2.09c2.6,0,4.63,0.7,6.09,2.09c1.46,1.4,2.19,3.35,2.19,5.85v2l-4.28,0v-1.85
			c0-1.24-0.36-2.23-1.07-2.97c-0.71-0.74-1.69-1.12-2.92-1.12c-1.24,0-2.22,0.37-2.95,1.12c-0.73,0.75-1.09,1.74-1.09,2.97l0,8.56
			c0,1.21,0.36,2.18,1.09,2.92c0.73,0.75,1.71,1.12,2.95,1.12c1.24,0,2.21-0.36,2.92-1.09c0.71-0.73,1.07-1.71,1.07-2.95v-1.71
			l4.28,0v1.9c0,2.47-0.73,4.41-2.19,5.8c-1.46,1.4-3.49,2.09-6.09,2.09C403.65,384.71,401.62,384.01,400.14,382.62z"/>
		<path class="st1" d="M416.52,364.4l0-3.85l17.45,0l0,3.85l-6.56,0l0,19.73l-4.28,0l0-19.73L416.52,364.4z"/>
		<path class="st1" d="M441.25,360.55l0,15.88l8.42-15.88l3.99,0l0,23.59l-4.09,0l0-15.93l-8.46,15.93l-3.95,0l0-23.59
			L441.25,360.55z"/>
		<path class="st1" d="M463.36,360.55l0,9.8l8.23,0l0-9.8l4.28,0l0,23.59l-4.28,0l0-9.84l-8.23,0l0,9.84l-4.28,0l0-23.59
			L463.36,360.55z"/>
		<path class="st1" d="M499.89,380.24l0,3.9h-2.23c-2.09,0-3.6-0.63-4.52-1.9c-1.36,1.65-3.36,2.47-5.99,2.47
			c-2.19,0-3.92-0.6-5.21-1.81c-1.28-1.2-1.93-2.84-1.93-4.9c0-1.97,0.61-3.52,1.83-4.66c1.22-1.14,3.1-1.93,5.63-2.38l4.71-0.81
			l0-2.28c0-1.27-0.33-2.24-0.97-2.92c-0.65-0.68-1.59-1.02-2.83-1.02c-1.33,0-2.33,0.36-3,1.07c-0.67,0.71-1,1.74-1,3.07v0.48
			l-4.23,0v-0.48c0-2.63,0.7-4.64,2.09-6.02c1.39-1.38,3.39-2.07,5.99-2.07c2.66,0,4.68,0.69,6.06,2.07
			c1.38,1.38,2.07,3.4,2.07,6.06l0,9.84c0,1.52,0.68,2.28,2.05,2.28H499.89z M490.3,380.26c0.84-0.52,1.47-1.23,1.88-2.12l0-4.47
			l-3.76,0.62c-2.82,0.48-4.23,1.68-4.23,3.61c0,0.98,0.3,1.75,0.9,2.31c0.6,0.55,1.43,0.83,2.47,0.83
			C488.55,381.05,489.46,380.79,490.3,380.26z"/>
		<path class="st1" d="M519.14,384.14l-4.28,0l0-8.46h-2.66l-5.94,8.46l-4.52,0l0-0.57l5.85-8.18c-1.78-0.38-3.15-1.16-4.14-2.33
			c-0.98-1.17-1.47-2.65-1.47-4.42v-0.95c0-2.22,0.74-3.96,2.21-5.23c1.47-1.27,3.49-1.9,6.06-1.9l8.89,0L519.14,384.14z
			 M514.86,372.06l0-7.75l-4.23,0c-1.36,0-2.44,0.31-3.23,0.93c-0.79,0.62-1.19,1.43-1.19,2.45v0.9c0,1.08,0.4,1.93,1.19,2.54
			c0.79,0.62,1.87,0.93,3.23,0.93L514.86,372.06z"/>
		<path class="st1" d="M344.46,441.2l-4.42,0l0-24.59c-1.05,0.41-2.12,0.62-3.23,0.62h-2.9l0-4.04l2.85,0
			c1.05,0,1.85-0.28,2.43-0.83c0.57-0.55,0.86-1.34,0.86-2.35l4.42,0L344.46,441.2z"/>
		<path class="st1" d="M365.76,423.54c1.43,1.38,2.14,3.27,2.14,5.68l0,4.28c0,2.63-0.75,4.67-2.26,6.11
			c-1.51,1.44-3.64,2.16-6.4,2.16c-2.79,0-4.92-0.71-6.4-2.14c-1.47-1.43-2.21-3.49-2.21-6.18v-0.48l4.28,0v0.48
			c0,1.4,0.37,2.46,1.12,3.19c0.74,0.73,1.8,1.09,3.16,1.09c1.39,0,2.47-0.38,3.23-1.14c0.76-0.76,1.14-1.84,1.14-3.23l0-3.38
			c0-1.43-0.39-2.54-1.17-3.35c-0.78-0.81-1.85-1.21-3.21-1.21c-1.14,0-2.07,0.32-2.78,0.95c-0.71,0.63-1.12,1.51-1.21,2.62l-4.37,0
			l0.95-18.97l15.12,0l0,4.04l-11.22,0l-0.38,8.46c1.3-0.7,2.81-1.05,4.52-1.05C362.35,421.47,364.33,422.16,365.76,423.54z"/>
		<path class="st1" d="M378.41,435.4v0.62l-3.42,11.51l-3.9,0l2.47-12.13L378.41,435.4z"/>
		<path class="st1" d="M398.34,411.72c1.58,1.52,2.38,3.58,2.38,6.18l0,15.41c0,2.6-0.79,4.66-2.38,6.18
			c-1.59,1.52-3.76,2.28-6.51,2.28c-2.79,0-4.95-0.74-6.49-2.21c-1.54-1.47-2.31-3.54-2.31-6.21v-0.48l4.42,0l0,0.48
			c0,1.4,0.38,2.48,1.14,3.26c0.76,0.78,1.84,1.17,3.23,1.17c1.43,0,2.54-0.39,3.33-1.17c0.79-0.78,1.19-1.83,1.19-3.16l0-5.42
			c-1.36,0.98-3.01,1.47-4.95,1.47c-2.5,0-4.53-0.7-6.06-2.09c-1.54-1.39-2.31-3.28-2.31-5.66l0-3.95c0-2.63,0.78-4.68,2.33-6.16
			c1.55-1.47,3.71-2.21,6.47-2.21C394.58,409.44,396.75,410.2,398.34,411.72z M394.51,424.89c0.78-0.41,1.39-0.98,1.83-1.71l0-5.23
			c0-1.39-0.4-2.5-1.21-3.31c-0.81-0.81-1.91-1.21-3.3-1.21c-1.36,0-2.43,0.4-3.21,1.21c-0.78,0.81-1.17,1.91-1.17,3.31l0,3.33
			c0,1.27,0.4,2.29,1.21,3.07c0.81,0.78,1.88,1.17,3.21,1.17C392.85,425.51,393.73,425.3,394.51,424.89z"/>
		<path class="st1" d="M421.3,423.54c1.43,1.38,2.14,3.27,2.14,5.68l0,4.28c0,2.63-0.75,4.67-2.26,6.11
			c-1.51,1.44-3.64,2.16-6.4,2.16c-2.79,0-4.92-0.71-6.4-2.14c-1.47-1.43-2.21-3.49-2.21-6.18v-0.48l4.28,0v0.48
			c0,1.4,0.37,2.46,1.12,3.19c0.74,0.73,1.8,1.09,3.16,1.09c1.39,0,2.47-0.38,3.23-1.14c0.76-0.76,1.14-1.84,1.14-3.23l0-3.38
			c0-1.43-0.39-2.54-1.17-3.35c-0.78-0.81-1.85-1.21-3.21-1.21c-1.14,0-2.07,0.32-2.78,0.95c-0.71,0.63-1.12,1.51-1.21,2.62l-4.37,0
			l0.95-18.97l15.12,0l0,4.04l-11.22,0l-0.38,8.46c1.3-0.7,2.81-1.05,4.52-1.05C417.9,421.47,419.88,422.16,421.3,423.54z"/>
	</g>
	<g>
		<path class="st1" d="M350.42,82.32c1.32,1.32,1.97,3.05,1.97,5.21l0,4.04c0,2.41-0.79,4.36-2.38,5.85
			c-1.59,1.49-3.66,2.23-6.23,2.23c-2.66,0-4.76-0.73-6.3-2.19c-1.54-1.46-2.31-3.45-2.31-5.99v-1.33l4.33,0l0,1.24
			c0,1.3,0.39,2.33,1.17,3.09c0.78,0.76,1.8,1.14,3.07,1.14c1.3,0,2.34-0.4,3.11-1.21c0.78-0.81,1.17-1.89,1.17-3.26V88.2
			c0-1.33-0.37-2.36-1.12-3.09c-0.75-0.73-1.89-1.09-3.45-1.09l-3.85,0v-3.47l7.37-8.61l-11.17,0l0-4.04l16.41,0l0,4.04l-7.13,8.18
			C347.32,80.27,349.11,81.01,350.42,82.32z"/>
		<path class="st1" d="M363.28,93.28v0.62l-3.42,11.51l-3.9,0l2.47-12.13L363.28,93.28z"/>
		<path class="st1" d="M371.01,97.4c-1.6-1.51-2.4-3.51-2.4-6.02l0-15.74c0-2.5,0.8-4.51,2.4-6.02c1.6-1.51,3.73-2.26,6.4-2.26
			c2.69,0,4.83,0.75,6.42,2.26c1.59,1.51,2.38,3.51,2.38,6.02l0,15.74c0,2.5-0.79,4.51-2.38,6.02c-1.59,1.51-3.73,2.26-6.42,2.26
			C374.74,99.66,372.61,98.9,371.01,97.4z M380.64,94.38c0.79-0.82,1.19-1.93,1.19-3.33l0-15.03c0-1.39-0.4-2.51-1.19-3.35
			c-0.79-0.84-1.87-1.26-3.23-1.26c-1.33,0-2.4,0.41-3.21,1.24c-0.81,0.82-1.21,1.95-1.21,3.38l0,15.03c0,1.4,0.4,2.5,1.21,3.33
			c0.81,0.82,1.88,1.24,3.21,1.24C378.77,95.61,379.85,95.2,380.64,94.38z"/>
		<path class="st1" d="M408.17,85.63c0.6,1.05,0.9,2.25,0.9,3.61l0,2.71c0,2.35-0.81,4.22-2.43,5.61c-1.62,1.4-3.76,2.09-6.42,2.09
			c-2.69,0-4.85-0.69-6.47-2.07c-1.62-1.38-2.43-3.26-2.43-5.64l0-2.71c0-1.36,0.31-2.57,0.93-3.61c0.62-1.05,1.5-1.89,2.64-2.52
			c-1.05-0.63-1.85-1.47-2.43-2.5c-0.57-1.03-0.86-2.19-0.86-3.5l0-2.23c0-2.35,0.78-4.19,2.33-5.54c1.55-1.35,3.65-2.02,6.28-2.02
			c2.63,0,4.72,0.67,6.25,2.02c1.54,1.35,2.31,3.19,2.31,5.54l0,2.23c0,1.33-0.28,2.5-0.83,3.52c-0.56,1.01-1.36,1.84-2.4,2.47
			C406.7,83.74,407.57,84.58,408.17,85.63z M404.85,89.24c0-1.27-0.41-2.26-1.24-2.97c-0.82-0.71-1.95-1.07-3.38-1.07
			c-1.43,0-2.56,0.36-3.4,1.09c-0.84,0.73-1.26,1.71-1.26,2.95v2.38c0,1.27,0.43,2.27,1.28,3c0.86,0.73,1.98,1.09,3.38,1.09
			c1.36,0,2.47-0.36,3.33-1.09c0.86-0.73,1.28-1.73,1.28-3L404.85,89.24z M395.81,77.21c0,2.69,1.47,4.04,4.42,4.04
			c2.92,0,4.37-1.35,4.37-4.04l0-2c0-1.3-0.37-2.29-1.12-2.97c-0.75-0.68-1.83-1.02-3.26-1.02c-1.43,0-2.52,0.34-3.28,1.02
			c-0.76,0.68-1.14,1.67-1.14,2.97V77.21z"/>
	</g>
	<g>
		<path class="st1" d="M356.07,839.2c1.32,1.32,1.97,3.05,1.97,5.21l0,4.04c0,2.41-0.79,4.36-2.38,5.85
			c-1.59,1.49-3.66,2.23-6.23,2.23c-2.66,0-4.76-0.73-6.3-2.19c-1.54-1.46-2.31-3.45-2.31-5.99v-1.33l4.33,0v1.24
			c0,1.3,0.39,2.33,1.17,3.09c0.78,0.76,1.8,1.14,3.07,1.14c1.3,0,2.34-0.4,3.11-1.21c0.78-0.81,1.17-1.89,1.17-3.26l0-2.95
			c0-1.33-0.37-2.36-1.12-3.09c-0.75-0.73-1.89-1.09-3.45-1.09h-3.85l0-3.47l7.37-8.61l-11.17,0l0-4.04l16.41,0l0,4.04l-7.13,8.18
			C352.97,837.15,354.76,837.89,356.07,839.2z"/>
		<path class="st1" d="M368.94,850.16v0.62l-3.42,11.51l-3.9,0l2.47-12.13L368.94,850.16z"/>
		<path class="st1" d="M392.9,849.21h-3.33l0,6.75h-4.37l0-6.75l-12.7,0l0-4.04c1.2-3.27,2.18-6.51,2.92-9.72
			c0.74-3.22,1.32-6.78,1.74-10.68h4.28v0.67c-0.76,7.01-2.23,13.58-4.42,19.74l8.18,0l0-14.88h4.37l0,14.88l3.33,0L392.9,849.21z"
			/>
		<path class="st1" d="M412.97,842.51c0.6,1.05,0.9,2.25,0.9,3.61l0,2.71c0,2.35-0.81,4.22-2.43,5.61c-1.62,1.4-3.76,2.09-6.42,2.09
			c-2.69,0-4.85-0.69-6.47-2.07c-1.62-1.38-2.43-3.26-2.43-5.64v-2.71c0-1.36,0.31-2.57,0.93-3.61c0.62-1.05,1.5-1.89,2.64-2.52
			c-1.05-0.63-1.85-1.47-2.43-2.5c-0.57-1.03-0.86-2.19-0.86-3.5l0-2.23c0-2.35,0.78-4.19,2.33-5.54c1.55-1.35,3.65-2.02,6.28-2.02
			c2.63,0,4.72,0.67,6.25,2.02c1.54,1.35,2.31,3.19,2.31,5.54v2.23c0,1.33-0.28,2.5-0.83,3.52c-0.56,1.02-1.36,1.84-2.4,2.47
			C411.5,840.62,412.37,841.46,412.97,842.51z M409.64,846.12c0-1.27-0.41-2.26-1.24-2.97c-0.82-0.71-1.95-1.07-3.38-1.07
			c-1.43,0-2.56,0.36-3.4,1.09c-0.84,0.73-1.26,1.71-1.26,2.95l0,2.38c0,1.27,0.43,2.27,1.28,3c0.86,0.73,1.98,1.09,3.38,1.09
			c1.36,0,2.47-0.36,3.33-1.09c0.86-0.73,1.28-1.73,1.28-3V846.12z M400.61,834.09c0,2.69,1.47,4.04,4.42,4.04
			c2.92,0,4.37-1.35,4.37-4.04v-2c0-1.3-0.37-2.29-1.12-2.97c-0.75-0.68-1.83-1.02-3.26-1.02c-1.43,0-2.52,0.34-3.28,1.02
			c-0.76,0.68-1.14,1.67-1.14,2.97L400.61,834.09z"/>
	</g>
	<g>
		<g>
			<g>
				<rect x="269.13" y="275.04" class="st0" width="257.71" height="67.4"/>
				<path class="st1" d="M527.63,343.23l-259.29,0l0-68.98l259.29,0L527.63,343.23z M269.92,341.64l256.12,0v-65.81l-256.12,0
					L269.92,341.64z"/>
			</g>
			<rect x="269.13" y="275.04" class="st2" width="67.4" height="67.4"/>
			<g>
				<path class="st1" d="M396.37,318.97l0,6.72l-22.83,0l0-6.78l8.62-10.78c2.37-2.96,3.99-5.34,4.88-7.13
					c0.89-1.8,1.33-3.65,1.33-5.55v-0.63c0-1.52-0.37-2.69-1.11-3.52c-0.74-0.82-1.79-1.24-3.14-1.24c-2.83,0-4.25,1.63-4.25,4.88
					l0,1.71l-7.23,0l0-1.71c0-3.76,1-6.64,3.01-8.62c2.01-1.99,4.87-2.98,8.59-2.98c3.59,0,6.38,0.98,8.37,2.95
					c1.99,1.97,2.98,4.72,2.98,8.27v0.63c0,2.58-0.56,5.06-1.68,7.45c-1.12,2.39-3.2,5.48-6.25,9.29l-5.64,7.04L396.37,318.97z"/>
				<path class="st1" d="M422.05,301.86c1.94,1.9,2.92,4.52,2.92,7.86l0,5.26c0,3.68-1.04,6.51-3.11,8.5
					c-2.07,1.99-5.03,2.98-8.88,2.98c-3.93,0-6.91-0.99-8.94-2.98c-2.03-1.99-3.04-4.88-3.04-8.69v-0.63l7.16,0v0.63
					c0,3.3,1.59,4.95,4.76,4.95c1.56,0,2.76-0.43,3.58-1.3c0.82-0.87,1.24-2.1,1.24-3.71l0-3.74c0-1.69-0.42-3-1.27-3.93
					c-0.85-0.93-2.05-1.39-3.61-1.39c-1.23,0-2.23,0.31-3.01,0.92c-0.78,0.61-1.26,1.51-1.43,2.69l-7.23,0l1.2-25.17l21.05,0l0,6.72
					l-14.52,0l-0.44,9.19c1.52-0.68,3.34-1.01,5.45-1.01C417.4,299,420.1,299.95,422.05,301.86z"/>
				<path class="st1" d="M465.39,303.34c1.59,1.75,2.38,4.01,2.38,6.75l0,5.26c0,3.34-1.1,6.02-3.3,8.05
					c-2.2,2.03-5.09,3.04-8.69,3.04c-3.76,0-6.7-1-8.81-3.01c-2.11-2.01-3.17-4.79-3.17-8.34v-1.9l7.23,0v1.78
					c0,1.48,0.42,2.64,1.27,3.49c0.85,0.85,1.99,1.27,3.42,1.27c1.48,0,2.64-0.45,3.49-1.36c0.85-0.91,1.27-2.17,1.27-3.77l0-3.36
					c0-3.08-1.73-4.63-5.2-4.63l-5.58,0l0-5.77l8.69-10.02l-13.63,0l0-6.72l22.38,0l0,6.72l-8.31,9.38
					C461.61,300.55,463.8,301.59,465.39,303.34z"/>
				<path class="st1" d="M486.15,325.69l-7.35,0l0-31.7c-1.14,0.38-2.39,0.57-3.74,0.57l-3.87,0l0-6.72l3.74,0
					c1.23,0,2.18-0.33,2.85-0.98c0.68-0.65,1.01-1.57,1.01-2.76l7.35,0L486.15,325.69z"/>
			</g>
			<g>
				<g>
					<path class="st0" d="M293.36,327.03c-2.37-2.18-3.55-5.15-3.55-8.91l0-18.77c0-3.76,1.18-6.73,3.55-8.91
						c2.37-2.18,5.58-3.27,9.64-3.27c8.71,0,13.06,4.57,13.06,13.7l0,3.87l-7.35,0l0-3.87c0-2.37-0.47-4.12-1.39-5.26
						c-0.93-1.14-2.39-1.71-4.37-1.71c-1.86,0-3.29,0.52-4.28,1.55c-0.99,1.04-1.49,2.53-1.49,4.47l0,17.69
						c0,1.94,0.5,3.42,1.49,4.44c0.99,1.01,2.42,1.52,4.28,1.52c3.85,0,5.77-2.22,5.77-6.66l0-3.87l7.35,0l0,3.87
						c0,4.44-1.1,7.78-3.3,10.02c-2.2,2.24-5.45,3.36-9.76,3.36C298.94,330.29,295.73,329.2,293.36,327.03z"/>
				</g>
			</g>
		</g>
		<path class="st1" d="M430.75,325.92c-0.95-0.95-1.42-2.15-1.42-3.62c0-1.47,0.47-2.66,1.42-3.59c0.95-0.92,2.15-1.39,3.62-1.39
			c1.51,0,2.74,0.46,3.66,1.39c0.92,0.92,1.39,2.12,1.39,3.59c0,1.47-0.46,2.68-1.39,3.62c-0.92,0.95-2.14,1.42-3.66,1.42
			C432.91,327.34,431.7,326.87,430.75,325.92z"/>
	</g>
</g>
</svg>
