<?xml version="1.0" encoding="utf-8"?>
<!-- Generator: Adobe Illustrator 28.0.0, SVG Export Plug-In . SVG Version: 6.00 Build 0)  -->
<svg version="1.1" id="_x5F_квартиры" xmlns="http://www.w3.org/2000/svg" xmlns:xlink="http://www.w3.org/1999/xlink"
	 x="0px" y="0px" width="1000px" height="1000px" viewBox="0 0 1000 1000" style="enable-background:new 0 0 1000 1000;"
	 xml:space="preserve">
<style type="text/css">
	.st0{fill:#FFFFFF;}
	.st1{fill:#2A8695;}
	.st2{fill:#706F6F;}
	.st3{fill:#797370;}
	.st4{fill:#DD6854;}
</style>
<g>
	<path class="st0" d="M314.94,559.67h-0.01V0h86.05v17.49h199.4V0.04L664.66,0h20.41v213.9h-0.02v640.61H508.48v37.35h-28.82
		c0,0.33-0.27,0.6-0.6,0.6H474l-0.09,106.94c0,0.33-0.27,0.6-0.6,0.6h-3.39c-0.04,0-0.08,0-0.12-0.01
		c-27.02-2.5-51.99-14.9-70.31-34.93c-18.21-19.89-28.33-45.65-28.54-72.6h-5.07c-0.34,0-0.6-0.27-0.6-0.6h-50.34V559.67z"/>
	<g id="MTEXT_00000016072644970855984650000009725649315162475156_">
		<g>
			<path class="st1" d="M392.39,691.18c1.32,1.33,1.99,3.08,1.99,5.25l0,4.07c0,2.43-0.8,4.39-2.4,5.89
				c-1.6,1.5-3.69,2.25-6.28,2.25c-2.68,0-4.8-0.74-6.35-2.21c-1.55-1.47-2.32-3.48-2.32-6.04l0-1.34l4.36,0l0,1.25
				c0,1.31,0.39,2.35,1.17,3.12c0.78,0.77,1.81,1.15,3.09,1.15c1.31,0,2.35-0.41,3.14-1.22c0.78-0.81,1.17-1.91,1.17-3.28l0-2.97
				c0-1.34-0.38-2.38-1.12-3.11c-0.75-0.73-1.91-1.1-3.47-1.1l-3.88,0l0-3.5l7.43-8.67l-11.26,0l0-4.07l16.53,0.01l0,4.07
				l-7.19,8.24C389.27,689.11,391.06,689.85,392.39,691.18z"/>
			<path class="st1" d="M405.34,702.23l0,0.62l-3.45,11.59l-3.93,0l2.5-12.22L405.34,702.23z"/>
			<path class="st1" d="M426.77,690.28c1.44,1.39,2.15,3.3,2.15,5.73l0,4.31c0,2.65-0.76,4.7-2.28,6.16
				c-1.52,1.45-3.67,2.18-6.44,2.18c-2.81,0-4.96-0.72-6.44-2.16c-1.48-1.44-2.23-3.51-2.23-6.23l0-0.48l4.31,0l0,0.48
				c0,1.41,0.37,2.48,1.12,3.21c0.75,0.73,1.81,1.1,3.19,1.1c1.41,0,2.49-0.38,3.26-1.15c0.77-0.77,1.15-1.85,1.15-3.26l0-3.4
				c0-1.44-0.39-2.56-1.17-3.38c-0.78-0.81-1.86-1.22-3.23-1.22c-1.15,0-2.08,0.32-2.8,0.96c-0.72,0.64-1.13,1.52-1.22,2.63l-4.41,0
				l0.96-19.12l15.24,0.01l0,4.07l-11.31,0l-0.39,8.53c1.31-0.7,2.83-1.05,4.55-1.05C423.33,688.2,425.33,688.89,426.77,690.28z"/>
			<path class="st1" d="M448.23,678.38c1.6,1.53,2.39,3.61,2.39,6.23l-0.01,15.52c0,2.62-0.8,4.69-2.4,6.23
				c-1.6,1.53-3.79,2.3-6.57,2.3c-2.81,0-4.99-0.74-6.54-2.23c-1.55-1.49-2.32-3.57-2.32-6.25l0-0.48l4.46,0l0,0.48
				c0,1.41,0.38,2.5,1.15,3.28c0.77,0.78,1.85,1.17,3.26,1.17c1.44,0,2.56-0.39,3.35-1.17c0.8-0.78,1.2-1.84,1.2-3.19l0-5.46
				c-1.37,0.99-3.04,1.48-4.98,1.48c-2.52,0-4.56-0.7-6.11-2.11c-1.55-1.41-2.32-3.31-2.32-5.7l0-3.98c0-2.65,0.78-4.72,2.35-6.2
				c1.56-1.48,3.74-2.23,6.52-2.23C444.45,676.08,446.64,676.85,448.23,678.38z M444.37,691.65c0.78-0.41,1.4-0.99,1.85-1.72l0-5.27
				c0-1.41-0.41-2.52-1.22-3.33c-0.81-0.81-1.92-1.22-3.33-1.22c-1.37,0-2.45,0.41-3.23,1.22c-0.78,0.81-1.18,1.92-1.18,3.33l0,3.35
				c0,1.28,0.41,2.31,1.22,3.09c0.81,0.78,1.89,1.17,3.23,1.17C442.7,692.28,443.59,692.07,444.37,691.65z"/>
		</g>
	</g>
	<g id="MTEXT_00000087388786214517955880000004458195264889037982_">
		<g>
			<path class="st1" d="M514.54,736.31c1.32,1.33,1.99,3.08,1.99,5.25l0,4.07c0,2.43-0.8,4.39-2.4,5.89
				c-1.6,1.5-3.69,2.25-6.28,2.25c-2.68,0-4.8-0.74-6.35-2.21c-1.55-1.47-2.32-3.48-2.32-6.04l0-1.34l4.36,0l0,1.25
				c0,1.31,0.39,2.35,1.17,3.12c0.78,0.77,1.81,1.15,3.09,1.15c1.31,0,2.35-0.41,3.14-1.22c0.78-0.81,1.17-1.91,1.17-3.28l0-2.97
				c0-1.34-0.38-2.38-1.12-3.11c-0.75-0.74-1.91-1.1-3.47-1.1l-3.88,0l0-3.5l7.43-8.67l-11.26,0l0-4.07l16.53,0.01l0,4.07
				l-7.19,8.24C511.42,734.24,513.21,734.99,514.54,736.31z"/>
			<path class="st1" d="M527.5,747.36l0,0.62l-3.45,11.59l-3.93,0l2.5-12.22L527.5,747.36z"/>
			<path class="st1" d="M547.12,736.33c1.32,1.33,1.99,3.08,1.99,5.25l0,4.07c0,2.43-0.8,4.39-2.4,5.89
				c-1.6,1.5-3.69,2.25-6.28,2.25c-2.68,0-4.8-0.74-6.35-2.21c-1.55-1.47-2.32-3.48-2.32-6.04l0-1.34l4.36,0l0,1.25
				c0,1.31,0.39,2.35,1.17,3.12c0.78,0.77,1.81,1.15,3.09,1.15c1.31,0,2.35-0.41,3.14-1.22c0.78-0.81,1.17-1.91,1.17-3.28l0-2.97
				c0-1.34-0.38-2.38-1.12-3.11c-0.75-0.74-1.91-1.1-3.47-1.1l-3.88,0l0-3.5l7.43-8.67l-11.26,0l0-4.07l16.53,0.01l0,4.07
				l-7.19,8.24C544,734.26,545.8,735,547.12,736.33z"/>
			<path class="st1" d="M570.23,749.15l0,4.07l-16.72-0.01l0-4.07l6.47-8.14c2.01-2.55,3.4-4.59,4.15-6.11
				c0.75-1.52,1.13-3.09,1.13-4.72v-0.48c0-1.4-0.35-2.49-1.05-3.26c-0.7-0.77-1.68-1.15-2.92-1.15c-1.31,0-2.3,0.38-2.97,1.15
				c-0.67,0.77-1.01,1.87-1.01,3.31l0,1.29l-4.36,0l0-1.29c0-2.71,0.73-4.82,2.18-6.3c1.45-1.48,3.52-2.23,6.21-2.23
				c2.62,0,4.65,0.74,6.11,2.21c1.45,1.47,2.18,3.51,2.18,6.13v0.48c0,2.04-0.45,4.02-1.34,5.94c-0.9,1.92-2.54,4.36-4.94,7.33
				l-4.7,5.84L570.23,749.15z"/>
		</g>
	</g>
	<g id="MTEXT_00000151502645429034719370000016299982967445328263_">
		<g>
			<path class="st1" d="M379.12,239.29v0.67l-4.6,0l-6.51-13.71l-3.45,0l0,13.7l-4.46,0l0.01-31.43l4.46,0l-0.01,13.7l3.45,0
				l6.43-13.7l4.5,0l0,0.67l-7.14,14.99L379.12,239.29z"/>
			<path class="st1" d="M399.64,216.2v0.62l-8.54,26.16c-0.61,1.88-1.43,3.21-2.47,3.98c-1.04,0.77-2.52,1.15-4.43,1.15l-2.64,0
				l0-3.93l2.25,0c0.93,0,1.61-0.17,2.06-0.53c0.45-0.35,0.81-1.02,1.1-2.01l0.53-1.82l-7.9-23v-0.62l4.5,0l5.65,17.59l5.37-17.58
				L399.64,216.2z"/>
			<path class="st1" d="M420.37,239.35v0.62l-4.46,0l-4.74-8.34l-4.75,8.33l-4.41,0v-0.62l6.52-11.35l-6.37-11.17v-0.62l4.46,0
				l4.6,8.1l4.55-8.1l4.46,0v0.62l-6.38,11.16L420.37,239.35z"/>
			<path class="st1" d="M428.67,216.21l0,9.87l8.29,0l0-9.87l4.31,0l-0.01,23.77l-4.31,0l0-9.92l-8.29,0l0,9.92l-4.31,0l0.01-23.77
				L428.67,216.21z"/>
			<path class="st1" d="M462.73,239.99l-4.31,0l0-8.53l-2.68,0l-5.99,8.53l-4.55,0v-0.58l5.9-8.24c-1.79-0.38-3.18-1.17-4.17-2.35
				c-0.99-1.18-1.48-2.67-1.48-4.46l0-0.96c0-2.24,0.74-3.99,2.23-5.27c1.49-1.28,3.52-1.92,6.11-1.91l8.96,0L462.73,239.99z
				 M458.42,227.82l0-7.81l-4.26,0c-1.37,0-2.46,0.31-3.26,0.93c-0.8,0.62-1.2,1.45-1.2,2.47l0,0.91c0,1.09,0.4,1.94,1.2,2.56
				c0.8,0.62,1.88,0.94,3.26,0.94L458.42,227.82z"/>
			<path class="st1" d="M478.59,224.76l0,3.93l-10.3,0l0-3.93L478.59,224.76z"/>
			<path class="st1" d="M496.8,216.24l0,3.88l-8.29,0L488.51,240l-4.31,0l0.01-23.77L496.8,216.24z"/>
			<path class="st1" d="M501.08,238.52c-1.52-1.37-2.27-3.34-2.27-5.89l0-8.96c0-2.59,0.76-4.57,2.28-5.94
				c1.52-1.37,3.55-2.06,6.11-2.06c2.56,0,4.59,0.69,6.11,2.06c1.52,1.37,2.27,3.35,2.27,5.94l0,8.96c0,2.56-0.76,4.52-2.28,5.89
				c-1.52,1.37-3.55,2.06-6.11,2.06C504.64,240.58,502.6,239.89,501.08,238.52z M510.14,235.43c0.75-0.72,1.13-1.72,1.13-2.99
				l0-8.62c0-1.31-0.37-2.32-1.12-3.04c-0.75-0.72-1.73-1.08-2.95-1.08s-2.2,0.36-2.95,1.08c-0.75,0.72-1.13,1.73-1.13,3.04l0,8.62
				c0,1.28,0.37,2.28,1.12,3c0.75,0.72,1.73,1.08,2.95,1.08S509.39,236.15,510.14,235.43z"/>
			<path class="st1" d="M522.41,238.48c-1.48-1.41-2.23-3.35-2.23-5.85l0-8.96c0-2.52,0.74-4.49,2.21-5.89
				c1.47-1.4,3.53-2.11,6.18-2.11c2.62,0,4.66,0.71,6.13,2.11c1.47,1.41,2.2,3.37,2.2,5.89l0,2.01l-4.31,0l0-1.87
				c0-1.25-0.36-2.24-1.08-3c-0.72-0.75-1.7-1.13-2.95-1.13c-1.25,0-2.24,0.38-2.97,1.12c-0.74,0.75-1.1,1.75-1.1,2.99l0,8.62
				c0,1.21,0.37,2.2,1.1,2.95c0.73,0.75,1.72,1.13,2.97,1.13c1.25,0,2.23-0.37,2.95-1.1c0.72-0.73,1.08-1.72,1.08-2.97l0-1.73
				l4.31,0l0,1.92c0,2.49-0.74,4.44-2.21,5.85c-1.47,1.41-3.51,2.11-6.13,2.11S523.89,239.89,522.41,238.48z"/>
			<path class="st1" d="M538.92,220.13l0-3.88l17.58,0.01l0,3.88l-6.61,0l-0.01,19.88l-4.31,0l0.01-19.88L538.92,220.13z"/>
			<path class="st1" d="M563.83,216.26l-0.01,16l8.49-16l4.02,0l-0.01,23.77l-4.12,0l0.01-16.05l-8.53,16.05l-3.98,0l0.01-23.77
				L563.83,216.26z"/>
			<path class="st1" d="M586.11,216.27l0,9.87l8.29,0l0-9.87l4.31,0l-0.01,23.77l-4.31,0l0-9.92l-8.29,0l0,9.92l-4.31,0l0.01-23.77
				L586.11,216.27z"/>
			<path class="st1" d="M622.91,236.12l0,3.93l-2.25,0c-2.11,0-3.63-0.64-4.55-1.92c-1.37,1.66-3.39,2.49-6.04,2.49
				c-2.2,0-3.95-0.61-5.25-1.82c-1.29-1.21-1.94-2.86-1.94-4.94c0-1.98,0.62-3.55,1.85-4.69c1.23-1.15,3.12-1.95,5.68-2.39
				l4.74-0.81l0-2.3c0-1.28-0.33-2.26-0.98-2.95c-0.66-0.69-1.6-1.03-2.85-1.03c-1.34,0-2.35,0.36-3.02,1.08
				c-0.67,0.72-1.01,1.75-1.01,3.09v0.48l-4.26,0v-0.48c0-2.65,0.7-4.67,2.11-6.06c1.41-1.39,3.42-2.08,6.04-2.08
				c2.68,0,4.72,0.7,6.11,2.09c1.39,1.39,2.08,3.43,2.08,6.11l0,9.92c0,1.53,0.69,2.3,2.06,2.3L622.91,236.12z M613.25,236.14
				c0.85-0.53,1.48-1.24,1.89-2.13l0-4.5l-3.79,0.62c-2.84,0.48-4.27,1.69-4.27,3.64c0,0.99,0.3,1.77,0.91,2.32
				c0.61,0.56,1.44,0.84,2.49,0.84C611.48,236.93,612.4,236.67,613.25,236.14z"/>
			<path class="st1" d="M642.31,240.06l-4.31,0l0-8.53l-2.68,0l-5.99,8.53l-4.55,0v-0.58l5.9-8.24c-1.79-0.38-3.18-1.17-4.17-2.35
				c-0.99-1.18-1.48-2.67-1.48-4.46l0-0.96c0-2.24,0.74-3.99,2.23-5.27c1.49-1.28,3.52-1.92,6.11-1.91l8.96,0L642.31,240.06z
				 M638,227.89l0-7.81l-4.26,0c-1.37,0-2.46,0.31-3.26,0.93c-0.8,0.62-1.2,1.45-1.2,2.47l0,0.91c0,1.09,0.4,1.94,1.2,2.56
				c0.8,0.62,1.88,0.94,3.26,0.94L638,227.89z"/>
			<path class="st1" d="M466.73,297.49l-4.46,0l0.01-24.77c-1.05,0.42-2.14,0.62-3.26,0.62l-2.92,0l0-4.07l2.87,0
				c1.05,0,1.87-0.28,2.44-0.84c0.58-0.56,0.86-1.35,0.86-2.37l4.46,0L466.73,297.49z"/>
			<path class="st1" d="M487.03,280.61c1.32,1.33,1.99,3.08,1.99,5.25l0,4.07c0,2.43-0.8,4.39-2.4,5.89s-3.69,2.25-6.28,2.25
				c-2.68,0-4.8-0.74-6.35-2.21c-1.55-1.47-2.32-3.48-2.32-6.04l0-1.34l4.36,0l0,1.25c0,1.31,0.39,2.35,1.17,3.12
				c0.78,0.77,1.81,1.15,3.09,1.15c1.31,0,2.35-0.41,3.14-1.22c0.78-0.81,1.17-1.91,1.17-3.28l0-2.97c0-1.34-0.38-2.38-1.12-3.11
				c-0.75-0.74-1.91-1.1-3.47-1.1l-3.88,0l0-3.5l7.43-8.67l-11.26,0l0-4.07l16.53,0.01l0,4.07l-7.19,8.24
				C483.91,278.54,485.7,279.28,487.03,280.61z"/>
			<path class="st1" d="M499.99,291.66l0,0.62l-3.45,11.59l-3.93,0l2.5-12.22L499.99,291.66z"/>
			<path class="st1" d="M521.41,279.71c1.44,1.39,2.15,3.3,2.15,5.73l0,4.31c0,2.65-0.76,4.7-2.28,6.16
				c-1.52,1.45-3.67,2.18-6.45,2.18c-2.81,0-4.96-0.72-6.44-2.16s-2.23-3.51-2.23-6.23l0-0.48l4.31,0l0,0.48
				c0,1.41,0.37,2.48,1.12,3.21c0.75,0.74,1.81,1.1,3.19,1.1c1.41,0,2.49-0.38,3.26-1.15s1.15-1.85,1.15-3.26l0-3.4
				c0-1.44-0.39-2.56-1.17-3.38c-0.78-0.81-1.86-1.22-3.23-1.22c-1.15,0-2.08,0.32-2.8,0.96c-0.72,0.64-1.13,1.52-1.22,2.64l-4.41,0
				l0.96-19.12l15.24,0.01l0,4.07l-11.31,0l-0.39,8.53c1.31-0.7,2.83-1.05,4.55-1.05C517.98,277.62,519.97,278.32,521.41,279.71z"/>
			<path class="st1" d="M543.26,279.72c1.44,1.39,2.15,3.3,2.15,5.73l0,4.31c0,2.65-0.76,4.7-2.28,6.16
				c-1.52,1.45-3.67,2.18-6.45,2.18c-2.81,0-4.96-0.72-6.44-2.16s-2.23-3.51-2.23-6.23l0-0.48l4.31,0l0,0.48
				c0,1.41,0.37,2.48,1.12,3.21c0.75,0.73,1.81,1.1,3.19,1.1c1.41,0,2.49-0.38,3.26-1.15c0.77-0.77,1.15-1.85,1.15-3.26l0-3.4
				c0-1.44-0.39-2.56-1.17-3.38c-0.78-0.81-1.86-1.22-3.23-1.22c-1.15,0-2.08,0.32-2.8,0.96c-0.72,0.64-1.13,1.52-1.22,2.63l-4.41,0
				l0.96-19.12l15.24,0.01l0,4.07l-11.31,0l-0.39,8.53c1.31-0.7,2.83-1.05,4.55-1.05C539.82,277.63,541.82,278.33,543.26,279.72z"/>
		</g>
	</g>
	<g id="LINE_00000111162369719455331110000007086094667226151343_">
		<path class="st2" d="M664.68,606.67h-45.26c-0.33,0-0.6-0.27-0.6-0.6s0.27-0.6,0.6-0.6h45.26c0.33,0,0.6,0.27,0.6,0.6
			S665.01,606.67,664.68,606.67z"/>
	</g>
	<g id="LINE_00000056391916258702406560000000026255726845445258_">
		<path class="st2" d="M619.42,606.67c-0.33,0-0.6-0.27-0.6-0.6v-28.3c0-0.33,0.27-0.6,0.6-0.6s0.6,0.27,0.6,0.6v28.3
			C620.01,606.41,619.75,606.67,619.42,606.67z"/>
	</g>
	<g id="LINE_00000080892042690276209830000002202660046774020774_">
		<path class="st2" d="M631.87,585.11c-0.28,0-0.53-0.19-0.59-0.48c-0.07-0.32,0.14-0.64,0.47-0.71l32.81-6.73
			c0.33-0.06,0.64,0.14,0.71,0.47c0.07,0.32-0.14,0.64-0.47,0.71l-32.81,6.73C631.95,585.1,631.91,585.11,631.87,585.11z"/>
	</g>
	<g id="LINE_00000139293693577644456190000014046652249950718628_">
		<path class="st2" d="M619.42,606.67c-0.1,0-0.2-0.03-0.3-0.08c-0.29-0.17-0.38-0.53-0.22-0.82l12.45-21.56
			c0.17-0.28,0.53-0.38,0.82-0.22c0.29,0.17,0.38,0.53,0.22,0.82l-12.45,21.56C619.82,606.57,619.62,606.67,619.42,606.67z"/>
	</g>
	<g id="LWPOLYLINE_00000086679847191976218170000015555423031261346434_">
		<path class="st2" d="M479.06,883.34h-5.66c-0.33,0-0.6,0.26-0.6,0.6v7.92c0,0.33,0.27,0.6,0.6,0.6h5.66c0.33,0,0.6-0.27,0.6-0.6
			v-7.92C479.66,883.6,479.39,883.34,479.06,883.34z M478.46,891.26H474v-6.73h4.46V891.26z"/>
	</g>
	<g id="LWPOLYLINE_00000174571562294469160160000005741601451686236319_">
		<path class="st2" d="M371.53,883.34h-5.66c-0.34,0.01-0.59,0.26-0.59,0.6v7.92c0,0.33,0.26,0.6,0.6,0.6h5.65
			c0.33,0,0.59-0.26,0.6-0.59v-7.93C372.13,883.6,371.86,883.34,371.53,883.34z M366.47,884.53h4.47v6.73h-4.47V884.53z"/>
	</g>
	<g id="ARC_00000009587242799275121890000010837500018990054847_">
		<path class="st2" d="M470.51,999.46c-0.03,0.31-0.29,0.54-0.59,0.54c-0.04,0-0.08,0-0.12-0.01c-27.02-2.5-51.99-14.9-70.31-34.93
			c-18.21-19.89-28.33-45.65-28.54-72.6c-0.01-0.2-0.01-0.39-0.01-0.59c-0.01-0.33,0.26-0.6,0.59-0.6c0.33,0,0.59,0.26,0.6,0.59
			v0.01c0.16,55.63,41.9,101.46,97.19,106.86c0.22,0.03,0.43,0.05,0.65,0.07C470.3,998.84,470.54,999.13,470.51,999.46z"/>
	</g>
	<g id="LWPOLYLINE_00000049206756237233220910000012529889153608609691_">
		<path class="st2" d="M473.82,891.44c-0.11-0.12-0.26-0.18-0.42-0.18H470c-0.33,0-0.6,0.27-0.6,0.6l-0.08,106.87v0.67
			c0,0.16,0.06,0.31,0.17,0.42c0.09,0.09,0.2,0.15,0.31,0.17c0.04,0.01,0.08,0.01,0.12,0.01h3.39c0.33,0,0.6-0.27,0.6-0.6
			L474,892.46v-0.6C474,891.7,473.93,891.55,473.82,891.44z M472.71,998.8h-2.19l0.08-106.34h2.2L472.71,998.8z"/>
	</g>
	<g id="LWPOLYLINE_00000060708760593967896160000011621072978423395493_">
		<path class="st2" d="M377.19,567.56h-5.66c-0.33,0-0.59,0.27-0.59,0.6v7.92c0,0.33,0.26,0.6,0.59,0.6h5.66
			c0.33,0,0.6-0.27,0.6-0.6v-7.92C377.79,567.83,377.52,567.56,377.19,567.56z M376.59,575.48h-4.46v-6.72h4.46V575.48z"/>
	</g>
	<g id="LWPOLYLINE_00000181077877920433381280000016689537316390100628_">
		<path class="st2" d="M473.4,567.56h-5.66c-0.33,0-0.59,0.26-0.6,0.59v7.93c0,0.33,0.27,0.6,0.6,0.6h5.66c0.33,0,0.6-0.27,0.6-0.6
			v-7.92C474,567.83,473.73,567.56,473.4,567.56z M472.8,575.48h-4.46v-6.72h4.46V575.48z"/>
	</g>
	<g id="ARC_00000041281501188975103320000011785275711562342278_">
		<path class="st2" d="M467.74,568.75c-0.33,0-0.6-0.27-0.6-0.6c-0.03-48.56-38.05-88.06-86.57-89.93
			c-0.33-0.01-0.59-0.29-0.58-0.62c0.01-0.33,0.24-0.64,0.62-0.58c49.17,1.9,87.7,41.92,87.73,91.13
			C468.34,568.48,468.07,568.75,467.74,568.75z"/>
	</g>
	<g id="LWPOLYLINE_00000022520149892700382420000011501660724698396323_">
		<path class="st2" d="M381.01,477.2c-0.08-0.08-0.19-0.14-0.3-0.17l-0.12-0.01h-3.4c-0.33,0-0.6,0.27-0.6,0.6v90.54
			c0,0.33,0.27,0.6,0.6,0.6h3.4c0.33,0,0.6-0.27,0.6-0.6v-90.54C381.19,477.46,381.13,477.31,381.01,477.2z M379.99,567.56h-2.2
			v-89.34h2.2V567.56z"/>
	</g>
	<g id="LWPOLYLINE_00000127758736935812021520000012292265665103932047_">
		<path class="st2" d="M498.3,772.42h-7.93c-0.33,0-0.59,0.27-0.59,0.6v5.66c0,0.33,0.26,0.59,0.59,0.59h7.93
			c0.33,0,0.6-0.26,0.6-0.59v-5.66C498.9,772.69,498.63,772.42,498.3,772.42z M497.7,773.62v4.46h-6.73v-4.46H497.7z"/>
	</g>
	<g id="LWPOLYLINE_00000077292356201626453420000011701347272367583891_">
		<path class="st2" d="M498.3,698.85h-7.93c-0.33,0-0.59,0.27-0.59,0.6v5.66c0,0.33,0.26,0.6,0.59,0.6h7.93c0.33,0,0.6-0.27,0.6-0.6
			v-5.66C498.9,699.12,498.63,698.85,498.3,698.85z M497.7,704.51h-6.73v-4.46h6.73V704.51z"/>
	</g>
	<g id="ARC_00000026878477334957308110000003990850536849703601_">
		<path class="st2" d="M422.48,770.22c-0.01,0-0.02,0-0.03,0c-0.33-0.02-0.58-0.3-0.57-0.63c1.9-36.46,31.98-65.05,68.49-65.08l0,0
			c0.33,0,0.6,0.27,0.6,0.6c0,0.33-0.27,0.6-0.6,0.6c-35.87,0.03-65.43,28.12-67.29,63.95
			C423.06,769.97,422.79,770.22,422.48,770.22z"/>
	</g>
	<g id="LWPOLYLINE_00000168115323920448204390000008301079908247316883_">
		<path class="st2" d="M490.37,769.02h-67.89c-0.29,0-0.53,0.21-0.59,0.48c-0.01,0.04-0.01,0.08-0.01,0.12v3.4
			c0,0.33,0.27,0.6,0.6,0.6h67.89c0.34,0,0.6-0.27,0.6-0.6v-3.4C490.97,769.29,490.71,769.02,490.37,769.02z M423.08,772.42v-2.2
			h66.7v2.2H423.08z"/>
	</g>
	<g id="LINE_00000078006849707325044700000013755811437192885889_">
		<path class="st2" d="M395.29,30.57L395.29,30.57c-0.33,0-0.6-0.27-0.6-0.6l0.03-10.19c0-0.33,0.27-0.6,0.6-0.6h0
			c0.33,0,0.6,0.27,0.6,0.6l-0.03,10.19C395.89,30.31,395.62,30.57,395.29,30.57z"/>
	</g>
	<g id="LINE_00000115508718759070365530000015653376167728531860_">
		<path class="st2" d="M605.81,30.57H395.29c-0.33,0-0.6-0.27-0.6-0.6c0-0.33,0.27-0.6,0.6-0.6h210.52c0.33,0,0.6,0.27,0.6,0.6
			C606.41,30.31,606.14,30.57,605.81,30.57z"/>
	</g>
	<g id="LINE_00000151502965023049586800000010594945248599400119_">
		<path class="st2" d="M401.64,25.5c-0.33,0-0.6-0.27-0.6-0.6c0-0.33,0.27-0.6,0.6-0.6l197.84-0.04c0.33,0,0.6,0.27,0.6,0.6
			c0,0.33-0.27,0.6-0.6,0.6L401.64,25.5z"/>
	</g>
	<g id="LINE_00000119113793120391657210000005285143368635051651_">
		<path class="st2" d="M395.29,30.57L395.29,30.57c-0.33,0-0.6-0.27-0.6-0.6l0.03-10.19c0-0.33,0.27-0.6,0.6-0.6h0
			c0.33,0,0.6,0.27,0.6,0.6l-0.03,10.19C395.89,30.31,395.62,30.57,395.29,30.57z"/>
	</g>
	<g id="LINE_00000145054878350129732770000002690262911580198298_">
		<path class="st2" d="M401.63,30.59L401.63,30.59c-0.33,0-0.6-0.27-0.6-0.6l0.03-10.19c0-0.33,0.27-0.6,0.6-0.6h0
			c0.33,0,0.6,0.27,0.6,0.6l-0.03,10.19C402.22,30.32,401.96,30.59,401.63,30.59z"/>
	</g>
	<g id="LINE_00000058547490026175268740000009093774003201719226_">
		<path class="st2" d="M605.81,30.57L605.81,30.57c-0.33,0-0.6-0.27-0.6-0.6l0.03-10.19c0-0.33,0.27-0.6,0.6-0.6h0
			c0.33,0,0.6,0.27,0.6,0.6l-0.03,10.19C606.41,30.31,606.14,30.57,605.81,30.57z"/>
	</g>
	<g id="LINE_00000137095932074358932460000009649105257177667470_">
		<path class="st2" d="M599.47,30.56L599.47,30.56c-0.33,0-0.6-0.27-0.6-0.6l0.03-10.19c0-0.33,0.27-0.6,0.6-0.6h0
			c0.33,0,0.6,0.27,0.6,0.6l-0.03,10.19C600.07,30.29,599.8,30.56,599.47,30.56z"/>
	</g>
	<g id="LINE_00000151536185680023896350000001251597280417193388_">
		<path class="st2" d="M605.83,20.39H395.32c-0.33,0-0.6-0.27-0.6-0.6s0.27-0.6,0.6-0.6h210.52c0.33,0,0.6,0.27,0.6,0.6
			S606.17,20.39,605.83,20.39z"/>
	</g>
	<g id="LINE_00000044165916797086444790000009116170490525113017_">
		<path class="st2" d="M606.44,18.09c0,0.33-0.26,0.59-0.59,0.6H395.31c-0.33-0.01-0.59-0.27-0.59-0.6c0-0.33,0.27-0.6,0.6-0.6
			h210.52C606.17,17.49,606.44,17.76,606.44,18.09z"/>
	</g>
	<g id="LINE_00000134219400890351064480000002488979309499326877_">
		<path class="st2" d="M395.28,32.3c-0.33,0-0.6-0.27-0.6-0.6c0-0.33,0.27-0.6,0.6-0.6l210.52-0.02c0.33,0,0.6,0.27,0.6,0.6
			c0,0.33-0.27,0.6-0.6,0.6L395.28,32.3z"/>
	</g>
	<g id="SPLINE_00000078025246480025431970000015268158092171698087_">
		<path class="st2" d="M548.69,549.09c-0.33,0-0.6-0.27-0.6-0.6c0-1.12-0.91-2.04-2.04-2.04c-0.33,0-0.6-0.27-0.6-0.6
			c0-0.33,0.27-0.6,0.6-0.6c1.78,0,3.23,1.45,3.23,3.23C549.29,548.82,549.02,549.09,548.69,549.09z"/>
	</g>
	<g id="SPLINE_00000041980957630063015850000007793853009891789456_">
		<path class="st2" d="M546.06,551.72c-1.78,0-3.23-1.45-3.23-3.23c0-1.78,1.45-3.23,3.23-3.23c0.33,0,0.6,0.27,0.6,0.6
			c0,0.33-0.27,0.6-0.6,0.6c-1.12,0-2.04,0.91-2.04,2.04s0.91,2.04,2.04,2.04c0.33,0,0.6,0.27,0.6,0.6
			C546.66,551.46,546.39,551.72,546.06,551.72z"/>
	</g>
	<g id="SPLINE_00000034077486687849339760000013581372797990563712_">
		<path class="st2" d="M546.06,551.72c-0.33,0-0.6-0.27-0.6-0.6c0-0.33,0.27-0.6,0.6-0.6c1.12,0,2.04-0.91,2.04-2.04
			c0-0.33,0.27-0.6,0.6-0.6s0.6,0.27,0.6,0.6C549.29,550.27,547.84,551.72,546.06,551.72z"/>
	</g>
	<g id="POLYLINE_00000014621949276420534790000001314329998836628611_">
		<path class="st2" d="M536.64,546.47c-0.33,0-0.6-0.27-0.6-0.6v-2.25c0-0.33,0.27-0.6,0.6-0.6s0.6,0.27,0.6,0.6v2.25
			C537.24,546.2,536.97,546.47,536.64,546.47z"/>
	</g>
	<g id="SPLINE_00000014626758694939096860000003620869260860968073_">
		<path class="st2" d="M575.64,557.61h-27.86c-6.47,0-11.74-5.27-11.74-11.74v-27.86c0-6.47,5.27-11.74,11.74-11.74h27.86
			c6.47,0,11.74,5.27,11.74,11.74v27.86C587.38,552.35,582.12,557.61,575.64,557.61z M547.78,507.47c-5.81,0-10.54,4.73-10.54,10.54
			v27.86c0,5.81,4.73,10.54,10.54,10.54h27.86c5.81,0,10.54-4.73,10.54-10.54v-27.86c0-5.81-4.73-10.54-10.54-10.54H547.78z"/>
	</g>
	<g id="POLYLINE_00000041273545698197457540000006560887986271568258_">
		<path class="st2" d="M570.07,563.18h-16.71c-0.33,0-0.6-0.27-0.6-0.6c0-0.33,0.27-0.6,0.6-0.6h16.71c0.33,0,0.6,0.27,0.6,0.6
			C570.67,562.92,570.4,563.18,570.07,563.18z"/>
	</g>
	<g id="POLYLINE_00000114755421432502028840000011080121360426617478_">
		<path class="st2" d="M567.28,565.97c-0.33,0-0.6-0.27-0.6-0.6v-5.57c0-0.33,0.27-0.6,0.6-0.6c0.33,0,0.6,0.27,0.6,0.6v5.57
			C567.88,565.7,567.61,565.97,567.28,565.97z"/>
	</g>
	<g id="POLYLINE_00000107564189122107646050000006243908249446852762_">
		<path class="st2" d="M556.14,565.97c-0.33,0-0.6-0.27-0.6-0.6v-5.57c0-0.33,0.27-0.6,0.6-0.6c0.33,0,0.6,0.27,0.6,0.6v5.57
			C556.74,565.7,556.47,565.97,556.14,565.97z"/>
	</g>
	<g id="POLYLINE_00000181778996279139184150000017172264302758874542_">
		<path class="st2" d="M561.71,563.18c-0.13,0-0.26-0.04-0.37-0.13c-0.26-0.2-0.3-0.58-0.1-0.84l16.32-20.76
			c0.2-0.26,0.58-0.3,0.84-0.1c0.26,0.2,0.3,0.58,0.1,0.84l-16.32,20.76C562.07,563.11,561.89,563.18,561.71,563.18z"/>
	</g>
	<g id="LWPOLYLINE_00000182503715491270755610000001939367697864191147_">
		<path class="st2" d="M595.67,568.76h-67.91c-0.33,0-0.6-0.27-0.6-0.6v-67.91c0-0.33,0.27-0.6,0.6-0.6h67.91
			c0.33,0,0.6,0.27,0.6,0.6v67.91C596.27,568.49,596,568.76,595.67,568.76z M528.36,567.56h66.71v-66.71h-66.71V567.56z"/>
	</g>
	<g id="POLYLINE_00000039095266528625834510000003977393987203425201_">
		<path class="st2" d="M664.68,433.5h-67.91c-0.33,0-0.6-0.27-0.6-0.6V365c0-0.33,0.27-0.6,0.6-0.6h67.91c0.33,0,0.6,0.27,0.6,0.6
			v67.91C665.27,433.23,665.01,433.5,664.68,433.5z M597.37,432.3h66.71v-66.71h-66.71V432.3z"/>
	</g>
	<g id="SPLINE_00000161599900513001876490000011214157792577677712_">
		<path class="st2" d="M616.15,425.58c-6.65,0-12.05-5.41-12.05-12.05c0-6.65,5.41-12.06,12.05-12.06c6.65,0,12.05,5.41,12.05,12.06
			C628.2,420.17,622.79,425.58,616.15,425.58z M616.15,402.67c-5.99,0-10.86,4.87-10.86,10.86c0,5.99,4.87,10.86,10.86,10.86
			c5.99,0,10.86-4.87,10.86-10.86C627,407.54,622.13,402.67,616.15,402.67z"/>
	</g>
	<g id="SPLINE_00000042695681197186316330000016624870449636285335_">
		<path class="st2" d="M616.15,422.18c-4.77,0-8.66-3.88-8.66-8.66c0-4.77,3.89-8.66,8.66-8.66c4.77,0,8.66,3.89,8.66,8.66
			C624.8,418.3,620.92,422.18,616.15,422.18z M616.15,406.06c-4.12,0-7.46,3.35-7.46,7.46c0,4.11,3.35,7.46,7.46,7.46
			c4.11,0,7.46-3.35,7.46-7.46C623.61,409.41,620.26,406.06,616.15,406.06z"/>
	</g>
	<g id="SPLINE_00000096055200879670779340000003672190904566683023_">
		<path class="st2" d="M645.3,396.43c-6.65,0-12.05-5.41-12.05-12.06c0-6.65,5.41-12.05,12.05-12.05c6.65,0,12.05,5.41,12.05,12.05
			C657.35,391.02,651.94,396.43,645.3,396.43z M645.3,373.52c-5.99,0-10.86,4.87-10.86,10.86c0,5.99,4.87,10.86,10.86,10.86
			c5.99,0,10.86-4.87,10.86-10.86C656.15,378.39,651.28,373.52,645.3,373.52z"/>
	</g>
	<g id="SPLINE_00000178908269771439639670000006665519224701102244_">
		<path class="st2" d="M645.3,393.03c-4.77,0-8.66-3.89-8.66-8.66c0-4.77,3.89-8.66,8.66-8.66c4.77,0,8.66,3.88,8.66,8.66
			C653.96,389.15,650.07,393.03,645.3,393.03z M645.3,376.91c-4.12,0-7.46,3.35-7.46,7.46c0,4.12,3.35,7.46,7.46,7.46
			c4.11,0,7.46-3.35,7.46-7.46C652.76,380.26,649.41,376.91,645.3,376.91z"/>
	</g>
	<g id="SPLINE_00000153702712906125613280000007113077523663520189_">
		<path class="st2" d="M616.15,391.81c-4.1,0-7.44-3.34-7.44-7.44c0-4.1,3.34-7.44,7.44-7.44s7.44,3.34,7.44,7.44
			C623.59,388.48,620.25,391.81,616.15,391.81z M616.15,378.13c-3.44,0-6.24,2.8-6.24,6.24c0,3.44,2.8,6.24,6.24,6.24
			c3.44,0,6.24-2.8,6.24-6.24C622.39,380.93,619.59,378.13,616.15,378.13z"/>
	</g>
	<g id="SPLINE_00000089558831312175653940000001661954574285654187_">
		<path class="st2" d="M616.15,388.42c-2.23,0-4.05-1.82-4.05-4.05c0-2.23,1.82-4.05,4.05-4.05c2.23,0,4.05,1.82,4.05,4.05
			C620.19,386.61,618.38,388.42,616.15,388.42z M616.15,381.52c-1.57,0-2.85,1.28-2.85,2.85c0,1.57,1.28,2.85,2.85,2.85
			c1.57,0,2.85-1.28,2.85-2.85C618.99,382.8,617.72,381.52,616.15,381.52z"/>
	</g>
	<g id="SPLINE_00000027595820292927320770000007096432534437439661_">
		<path class="st2" d="M645.3,420.97c-4.1,0-7.44-3.34-7.44-7.44c0-4.1,3.34-7.44,7.44-7.44s7.44,3.34,7.44,7.44
			C652.74,417.63,649.4,420.97,645.3,420.97z M645.3,407.28c-3.44,0-6.24,2.8-6.24,6.24c0,3.44,2.8,6.24,6.24,6.24
			c3.44,0,6.24-2.8,6.24-6.24C651.54,410.08,648.74,407.28,645.3,407.28z"/>
	</g>
	<g id="SPLINE_00000158745209775410264390000004675065202661105595_">
		<path class="st2" d="M645.3,417.57c-2.23,0-4.05-1.82-4.05-4.05c0-2.23,1.82-4.05,4.05-4.05c2.23,0,4.05,1.82,4.05,4.05
			C649.34,415.76,647.53,417.57,645.3,417.57z M645.3,410.68c-1.57,0-2.85,1.28-2.85,2.85c0,1.57,1.28,2.85,2.85,2.85
			c1.57,0,2.85-1.28,2.85-2.85C648.15,411.95,646.87,410.68,645.3,410.68z"/>
	</g>
	<g id="SPLINE_00000076595605822669418080000001829218412397628304_">
		<path class="st2" d="M539.65,630.87c-3.5-0.21-6.12-3.16-5.91-6.58c0.03-0.5,0.12-0.98,0.26-1.45c0.27-0.87,0.94-1.57,1.81-1.86
			c2.45-0.83,5.15-0.83,7.61,0c0.86,0.29,1.54,0.99,1.81,1.87c1,3.28-0.85,6.77-4.13,7.77
			C540.62,630.76,540.13,630.84,539.65,630.87z M539.61,621.56c-1.16,0-2.32,0.19-3.42,0.56c-0.5,0.17-0.89,0.57-1.05,1.08
			c0,0,0,0,0,0c-0.11,0.37-0.19,0.76-0.21,1.16c-0.17,2.76,1.95,5.15,4.71,5.31c0.32-0.02,0.71-0.09,1.09-0.21
			c1.28-0.39,2.34-1.26,2.97-2.44c0.63-1.18,0.76-2.54,0.37-3.83c-0.16-0.51-0.55-0.91-1.05-1.08
			C541.93,621.74,540.77,621.56,539.61,621.56z M534.57,623.02h0.02H534.57z"/>
	</g>
	<g id="SPLINE_00000109728360860678876360000011880324040336929170_">
		<path class="st2" d="M539.6,649.21c-3.39,0-6.8-1.12-9.62-3.43c-0.78-0.64-1.5-1.36-2.14-2.14c-1.38-1.69-2.28-3.73-2.59-5.89
			c-0.19-1.31-0.28-2.63-0.28-3.95v-11.91c0-4.59,3.1-8.63,7.54-9.81c4.66-1.24,9.58-1.24,14.24,0c4.44,1.19,7.54,5.22,7.54,9.81
			v11.91c0,1.32-0.1,2.65-0.28,3.95l0,0c-0.31,2.16-1.21,4.2-2.59,5.89C548.38,647.3,544.01,649.21,539.6,649.21z M539.61,612.33
			c-2.29,0-4.58,0.3-6.81,0.89c-3.91,1.05-6.65,4.61-6.65,8.65v11.91c0,1.26,0.09,2.53,0.27,3.78c0.28,1.95,1.09,3.78,2.34,5.3
			c0.59,0.72,1.25,1.38,1.97,1.97c2.9,2.37,6.54,3.47,10.27,3.1c3.73-0.37,7.08-2.17,9.45-5.07c1.25-1.52,2.05-3.36,2.34-5.3l0,0
			c0.18-1.24,0.27-2.51,0.27-3.78v-11.91c0-4.05-2.73-7.61-6.65-8.65C544.19,612.63,541.9,612.33,539.61,612.33z M553.39,637.66
			h0.02H553.39z"/>
	</g>
	<g id="SPLINE_00000095306773248640942680000012728622779218389937_">
		<path class="st2" d="M539.61,654.84c-11.49,0-20.84-9.35-20.84-20.84v-31.48c0-0.07,0.01-0.13,0.03-0.2
			c0.83-2.38,1.69-4.75,2.58-7.11c0.09-0.23,0.31-0.39,0.56-0.39h0l13.39,0.45l13.56-0.12l8.35-0.33c0.26-0.02,0.5,0.14,0.59,0.39
			c0.89,2.36,1.74,4.73,2.58,7.11c0.02,0.06,0.03,0.13,0.03,0.2V634C560.45,645.49,551.1,654.84,539.61,654.84z M519.97,602.61V634
			c0,10.83,8.81,19.64,19.64,19.64s19.64-8.81,19.64-19.64v-31.38c-0.77-2.2-1.57-4.4-2.38-6.58l-14.79,0.43l-12.7-0.14l-7.02-0.29
			C521.54,598.22,520.74,600.41,519.97,602.61z"/>
	</g>
	<g id="SPLINE_00000156576757977058835850000013731306591088132001_">
		<path class="st2" d="M539.61,589c-1.17,0-2.12-0.95-2.12-2.12c0-1.17,0.95-2.12,2.12-2.12c1.17,0,2.12,0.95,2.12,2.12
			C541.73,588.05,540.78,589,539.61,589z M539.61,585.96c-0.51,0-0.92,0.41-0.92,0.92s0.41,0.92,0.92,0.92s0.92-0.41,0.92-0.92
			S540.12,585.96,539.61,585.96z"/>
	</g>
	<g id="SPLINE_00000125589006039782086300000009405653514510221456_">
		<path class="st2" d="M539.61,589.37c-1.37,0-2.49-1.12-2.49-2.49c0-1.37,1.12-2.49,2.49-2.49c1.37,0,2.49,1.12,2.49,2.49
			C542.1,588.26,540.98,589.37,539.61,589.37z M539.61,585.59c-0.71,0-1.29,0.58-1.29,1.29s0.58,1.29,1.29,1.29s1.29-0.58,1.29-1.29
			S540.32,585.59,539.61,585.59z"/>
	</g>
	<g id="SPLINE_00000162313572523959971130000003763633522517646012_">
		<path class="st2" d="M539.57,596.47c-6.3,0-12.58-0.18-18.82-0.52c-1.57-0.09-2.77-1.44-2.68-3c0-0.01,0.01-0.08,0.01-0.09
			l1.28-14.67c0.08-0.9,0.82-1.57,1.72-1.57h37.06c0.89,0,1.64,0.69,1.72,1.57l1.28,14.67c0.14,1.56-1.02,2.95-2.59,3.09
			C552.24,596.3,545.9,596.47,539.57,596.47z M518.67,592.91l0.59,0.07c-0.05,0.94,0.65,1.72,1.55,1.77c12.47,0.7,25.11,0.7,37.58,0
			c0.96-0.08,1.63-0.89,1.55-1.79l-1.28-14.67c-0.02-0.27-0.25-0.48-0.52-0.48h-37.06c-0.27,0-0.5,0.21-0.52,0.48l-1.28,14.67
			L518.67,592.91l0.6,0.05L518.67,592.91z"/>
	</g>
	<g id="SPLINE_00000052102625025312280180000011651436642934634628_">
		<path class="st2" d="M644.55,829.97H600.2c-7.29,0-13.21-5.65-13.21-12.59v-130.1c0-18.3,15.1-33.04,34.39-33.56
			c19.51-0.46,35.83,14.1,36.39,32.6v131.06C657.76,824.32,651.83,829.97,644.55,829.97z M622.4,654.91c-0.33,0-0.66,0-0.99,0.01
			c-18.63,0.5-33.22,14.72-33.22,32.36v130.1c0,6.28,5.39,11.39,12.02,11.39h44.34c6.63,0,12.02-5.11,12.02-11.39V686.34
			C656.04,668.83,640.8,654.91,622.4,654.91z"/>
	</g>
	<g id="SPLINE_00000018207257713964348820000009666355809178621360_">
		<path class="st2" d="M623.37,821.5c-3.06,0-5.55-2.38-5.55-5.31c0-2.93,2.49-5.31,5.55-5.31c3.06,0,5.55,2.38,5.55,5.31
			C628.93,819.12,626.43,821.5,623.37,821.5z M623.37,812.08c-2.4,0-4.36,1.84-4.36,4.11c0,2.27,1.95,4.11,4.36,4.11
			c2.4,0,4.36-1.84,4.36-4.11C627.73,813.93,625.77,812.08,623.37,812.08z"/>
	</g>
	<g id="LWPOLYLINE_00000071550019275993686340000012945381861873071019_">
		<path class="st2" d="M664.68,837h-84.89c-0.33,0-0.6-0.27-0.6-0.6V636.63c0-0.33,0.27-0.6,0.6-0.6h84.89c0.33,0,0.6,0.27,0.6,0.6
			V836.4C665.27,836.73,665.01,837,664.68,837z M580.39,835.8h83.69V637.23h-83.69V835.8z"/>
	</g>
	<g id="POLYLINE_00000114752504846637297140000010909342118784119727_">
		<path class="st2" d="M664.68,330.17h-67.92c-0.33,0-0.6-0.27-0.6-0.6v-67.92c0-0.33,0.27-0.6,0.6-0.6h67.92
			c0.33,0,0.6,0.27,0.6,0.6v67.92C665.27,329.9,665.01,330.17,664.68,330.17z M597.36,328.97h66.72v-66.72h-66.72V328.97z"/>
	</g>
	<g id="POLYLINE_00000089550502838760944150000012790337768280621967_">
		<path class="st2" d="M664.68,330.17H647.7c-0.33,0-0.6-0.27-0.6-0.6v-67.92c0-0.33,0.27-0.6,0.6-0.6h16.98
			c0.33,0,0.6,0.27,0.6,0.6v67.92C665.27,329.9,665.01,330.17,664.68,330.17z M648.3,328.97h15.78v-66.72H648.3V328.97z"/>
	</g>
	<g id="SPLINE_00000158708520346712792940000013253998966266655899_">
		<path class="st2" d="M656.19,325.64c-2.52,0-4.56-2.05-4.56-4.56s2.05-4.56,4.56-4.56c2.51,0,4.56,2.05,4.56,4.56
			S658.7,325.64,656.19,325.64z M656.19,317.72c-1.85,0-3.36,1.51-3.36,3.36s1.51,3.36,3.36,3.36c1.86,0,3.36-1.51,3.36-3.36
			S658.04,317.72,656.19,317.72z"/>
	</g>
	<g id="POLYLINE_00000051354622874692316580000002610162769200307369_">
		<path class="st2" d="M661.28,317.72c-0.33,0-0.6-0.27-0.6-0.6v-51.47h-10.72c-0.33,0-0.6-0.27-0.6-0.6c0-0.33,0.27-0.6,0.6-0.6
			h11.32c0.33,0,0.6,0.27,0.6,0.6v52.07C661.88,317.45,661.61,317.72,661.28,317.72z"/>
	</g>
	<g id="POLYLINE_00000070819102830407049370000009740712138227251886_">
		<path class="st2" d="M600.16,317.72c-0.33,0-0.6-0.27-0.6-0.6v-52.07c0-0.33,0.27-0.6,0.6-0.6h45.28c0.33,0,0.6,0.27,0.6,0.6
			c0,0.33-0.27,0.6-0.6,0.6h-44.68v51.47C600.75,317.45,600.49,317.72,600.16,317.72z"/>
	</g>
	<g id="SPLINE_00000071536910996274038690000014534702494626637743_">
		<path class="st2" d="M639.21,325.64c-2.52,0-4.56-2.05-4.56-4.56s2.05-4.56,4.56-4.56s4.56,2.05,4.56,4.56
			S641.72,325.64,639.21,325.64z M639.21,317.72c-1.85,0-3.36,1.51-3.36,3.36s1.51,3.36,3.36,3.36c1.86,0,3.37-1.51,3.37-3.36
			S641.06,317.72,639.21,317.72z"/>
	</g>
	<g id="POLYLINE_00000076604216534667473320000001533138628964381337_">
		<path class="st2" d="M639.74,293.92h-32.49c-0.33,0-0.6-0.27-0.6-0.6s0.27-0.6,0.6-0.6h32.49c0.33,0,0.6,0.27,0.6,0.6
			S640.07,293.92,639.74,293.92z"/>
	</g>
	<g id="POLYLINE_00000082351233247404133900000009484743955731429284_">
		<path class="st2" d="M623.49,310.16c-0.33,0-0.6-0.27-0.6-0.6v-32.49c0-0.33,0.27-0.6,0.6-0.6s0.6,0.27,0.6,0.6v32.49
			C624.09,309.9,623.82,310.16,623.49,310.16z"/>
	</g>
	<g id="POLYLINE_00000178178196768947100140000005123664123068322238_">
		<path class="st2" d="M613.71,303.7c-0.15,0-0.31-0.06-0.42-0.18c-0.23-0.23-0.23-0.61,0-0.85l19.57-19.57
			c0.23-0.23,0.61-0.23,0.85,0c0.23,0.23,0.23,0.61,0,0.85l-19.57,19.57C614.02,303.64,613.86,303.7,613.71,303.7z"/>
	</g>
	<g id="POLYLINE_00000122689256353147386180000008204703200481179324_">
		<path class="st2" d="M633.28,303.7c-0.15,0-0.31-0.06-0.42-0.18l-19.57-19.57c-0.23-0.23-0.23-0.61,0-0.85
			c0.23-0.23,0.61-0.23,0.85,0l19.57,19.57c0.23,0.23,0.23,0.61,0,0.85C633.58,303.64,633.43,303.7,633.28,303.7z"/>
	</g>
	<g id="POLYLINE_00000135660797485217711860000000720572224310593450_">
		<path class="st2" d="M639.53,298.75c-0.15,0-0.31-0.06-0.42-0.18l-4.83-4.83c-0.23-0.23-0.23-0.61,0-0.85l4.83-4.83
			c0.23-0.23,0.61-0.23,0.85,0s0.23,0.61,0,0.85l-4.41,4.41l4.41,4.41c0.23,0.23,0.23,0.61,0,0.85
			C639.84,298.69,639.69,298.75,639.53,298.75z"/>
	</g>
	<g id="POLYLINE_00000001635223616465675030000005896819428683049650_">
		<path class="st2" d="M607.45,298.75c-0.15,0-0.31-0.06-0.42-0.18c-0.23-0.23-0.23-0.61,0-0.85l4.41-4.41l-4.41-4.41
			c-0.23-0.23-0.23-0.61,0-0.85s0.61-0.23,0.85,0l4.83,4.83c0.23,0.23,0.23,0.61,0,0.85l-4.83,4.83
			C607.76,298.69,607.61,298.75,607.45,298.75z"/>
	</g>
	<g id="POLYLINE_00000121273472454508485490000004215870441009203382_">
		<path class="st2" d="M623.49,282.71c-0.15,0-0.31-0.06-0.42-0.18l-4.83-4.83c-0.23-0.23-0.23-0.61,0-0.85s0.61-0.23,0.85,0
			l4.41,4.41l4.41-4.41c0.23-0.23,0.61-0.23,0.85,0s0.23,0.61,0,0.85l-4.83,4.83C623.8,282.65,623.65,282.71,623.49,282.71z"/>
	</g>
	<g id="POLYLINE_00000152980501747820100540000000793007354396293281_">
		<path class="st2" d="M628.33,309.96c-0.15,0-0.31-0.06-0.42-0.18l-4.41-4.41l-4.41,4.41c-0.23,0.23-0.61,0.23-0.85,0
			s-0.23-0.61,0-0.85l4.83-4.84c0.22-0.23,0.62-0.23,0.85,0l4.83,4.84c0.23,0.23,0.23,0.61,0,0.85
			C628.63,309.9,628.48,309.96,628.33,309.96z"/>
	</g>
	<g id="POLYLINE_00000139978666882736667080000002760367408640054462_">
		<path class="st2" d="M629.71,306.28c-0.33,0-0.6-0.27-0.6-0.6v-6.14c0-0.33,0.27-0.6,0.6-0.6h6.14c0.33,0,0.6,0.27,0.6,0.6
			c0,0.33-0.27,0.6-0.6,0.6h-5.54v5.54C630.31,306.01,630.04,306.28,629.71,306.28z"/>
	</g>
	<g id="POLYLINE_00000117637647775644403970000008159382310672829619_">
		<path class="st2" d="M635.85,287.7h-6.14c-0.33,0-0.6-0.27-0.6-0.6v-6.14c0-0.33,0.27-0.6,0.6-0.6c0.33,0,0.6,0.27,0.6,0.6v5.54
			h5.54c0.33,0,0.6,0.27,0.6,0.6C636.45,287.43,636.18,287.7,635.85,287.7z"/>
	</g>
	<g id="POLYLINE_00000182491955082553461190000015965255869504663682_">
		<path class="st2" d="M617.28,306.28c-0.33,0-0.6-0.27-0.6-0.6v-5.54h-5.54c-0.33,0-0.6-0.27-0.6-0.6c0-0.33,0.27-0.6,0.6-0.6h6.14
			c0.33,0,0.6,0.27,0.6,0.6v6.14C617.87,306.01,617.61,306.28,617.28,306.28z"/>
	</g>
	<g id="POLYLINE_00000107581522253133723970000005470753708423395720_">
		<path class="st2" d="M617.28,287.7h-6.14c-0.33,0-0.6-0.27-0.6-0.6c0-0.33,0.27-0.6,0.6-0.6h5.54v-5.54c0-0.33,0.27-0.6,0.6-0.6
			s0.6,0.27,0.6,0.6v6.14C617.87,287.43,617.61,287.7,617.28,287.7z"/>
	</g>
	<g id="SPLINE_00000003102071207864084140000005276136524294075031_">
		<path class="st2" d="M543.55,821.12c-0.17,0-0.34-0.07-0.46-0.21c-0.65-0.77-2.13-1-3.22-0.51c-0.29,0.13-0.54,0.31-0.72,0.51
			c-0.22,0.25-0.59,0.28-0.84,0.06c-0.25-0.21-0.28-0.59-0.06-0.84c0.29-0.34,0.68-0.62,1.14-0.83c1.59-0.71,3.62-0.35,4.62,0.83
			c0.21,0.25,0.18,0.63-0.07,0.84C543.82,821.07,543.68,821.12,543.55,821.12z"/>
	</g>
	<g id="SPLINE_00000176746126183992044370000015510576489028318592_">
		<path class="st2" d="M541.13,818.67c-2.06,0-3.73-1.28-3.73-2.86c0-1.61,1.64-2.86,3.73-2.86c2.06,0,3.73,1.28,3.73,2.86
			C544.86,817.39,543.18,818.67,541.13,818.67z M541.13,814.14c-1.37,0-2.53,0.76-2.53,1.67c0,0.9,1.16,1.67,2.53,1.67
			c1.37,0,2.53-0.76,2.53-1.67C543.66,814.9,542.5,814.14,541.13,814.14z"/>
	</g>
	<g id="SPLINE_00000055678007918749648210000014906734065001499058_">
		<path class="st2" d="M541.12,834.44c-17.05,0-30.92-9.12-30.92-20.33s13.87-20.33,30.92-20.33c17.05,0,30.92,9.12,30.92,20.33
			S558.17,834.44,541.12,834.44z M541.12,794.97c-16.39,0-29.72,8.58-29.72,19.13s13.33,19.13,29.72,19.13s29.72-8.58,29.72-19.13
			S557.51,794.97,541.12,794.97z"/>
	</g>
	<g id="SPLINE_00000152242489863294911040000016058322378200329397_">
		<path class="st2" d="M530.86,825.21c-0.06,0-0.12-0.01-0.18-0.03c-4.58-1.45-8.36-3.87-10.66-6.81c-2.38-3.05-3.12-6.57-2.08-9.92
			c1.46-4.7,6.1-8.6,12.74-10.71c11.6-3.68,25.75-0.62,31.55,6.81c2.38,3.05,3.12,6.57,2.08,9.92c-1.46,4.7-6.1,8.6-12.74,10.7
			c-0.06,0.02-0.12,0.03-0.18,0.03h-7.84c-0.33,0-0.6-0.27-0.6-0.6c0-0.33,0.27-0.6,0.6-0.6h7.74c6.21-1.99,10.54-5.59,11.87-9.89
			c0.93-3.01,0.28-6.06-1.88-8.83c-5.52-7.07-19.09-9.94-30.24-6.4c-6.26,1.98-10.62,5.6-11.96,9.92c-0.93,3.01-0.28,6.06,1.88,8.83
			c2.15,2.75,5.73,5.02,10.08,6.4c0.32,0.1,0.49,0.44,0.39,0.75C531.35,825.04,531.11,825.21,530.86,825.21z"/>
	</g>
	<g id="POLYLINE_00000129919873652175870490000012081370167415386503_">
		<path class="st2" d="M538.7,825.21h-7.84c-0.33,0-0.6-0.27-0.6-0.6c0-0.33,0.27-0.6,0.6-0.6h7.84c0.33,0,0.6,0.27,0.6,0.6
			C539.29,824.94,539.03,825.21,538.7,825.21z"/>
	</g>
	<g id="LWPOLYLINE_00000081626107604803676790000011467940399710719399_">
		<path class="st2" d="M548.55,831.47h-14.86c-0.33,0-0.6-0.27-0.6-0.6v-3.06c0-0.33,0.27-0.6,0.6-0.6h5c0.33,0,0.6,0.27,0.6,0.6
			s-0.27,0.6-0.6,0.6h-4.41v1.86h13.66v-1.86h-4.41c-0.33,0-0.6-0.27-0.6-0.6s0.27-0.6,0.6-0.6h5.01c0.33,0,0.6,0.27,0.6,0.6v3.06
			C549.15,831.2,548.88,831.47,548.55,831.47z"/>
	</g>
	<g id="LWPOLYLINE_00000148645253561461140020000003290155956209974165_">
		<path class="st2" d="M543.55,830.67h-4.85c-0.33,0-0.6-0.27-0.6-0.6v-9.56c0-0.33,0.27-0.6,0.6-0.6c0.33,0,0.6,0.27,0.6,0.6v8.96
			h3.65v-8.96c0-0.33,0.27-0.6,0.6-0.6s0.6,0.27,0.6,0.6v9.56C544.14,830.41,543.88,830.67,543.55,830.67z"/>
	</g>
	<g id="LWPOLYLINE_00000083789285246817190000000016696633380023674035_">
		<path class="st2" d="M575.37,837h-67.91c-0.33,0-0.6-0.27-0.6-0.6v-45.27c0-0.33,0.27-0.6,0.6-0.6h67.91c0.33,0,0.6,0.27,0.6,0.6
			v45.27C575.97,836.73,575.7,837,575.37,837z M508.06,835.8h66.71v-44.08h-66.71V835.8z"/>
	</g>
	<g>
		<g id="LINE_00000139267042578070890240000018172651163211586443_">
			<path class="st3" d="M664.68,433.5h-67.91c-0.33,0-0.6-0.27-0.6-0.6c0-0.33,0.27-0.6,0.6-0.6h67.91c0.33,0,0.6,0.27,0.6,0.6
				C665.27,433.23,665.01,433.5,664.68,433.5z"/>
		</g>
		<g id="LINE_00000151518948025964258170000012246568265522976386_">
			<path class="st3" d="M664.68,501.41c-0.33,0-0.6-0.27-0.6-0.6V432.9c0-0.33,0.27-0.6,0.6-0.6c0.33,0,0.6,0.27,0.6,0.6v67.91
				C665.27,501.15,665.01,501.41,664.68,501.41z"/>
		</g>
		<g id="LINE_00000099619910597287200880000007347183868214676869_">
			<path class="st3" d="M664.68,501.41h-67.91c-0.33,0-0.6-0.27-0.6-0.6c0-0.33,0.27-0.6,0.6-0.6h67.91c0.33,0,0.6,0.27,0.6,0.6
				C665.27,501.15,665.01,501.41,664.68,501.41z"/>
		</g>
		<g id="LINE_00000152225535203292630820000007202546246097286824_">
			<path class="st3" d="M596.77,501.41c-0.33,0-0.6-0.27-0.6-0.6V432.9c0-0.33,0.27-0.6,0.6-0.6c0.33,0,0.6,0.27,0.6,0.6v67.91
				C597.37,501.15,597.1,501.41,596.77,501.41z"/>
		</g>
		<g id="LINE_00000076592556325295759730000013357947516537399180_">
			<path class="st3" d="M631.32,482.38c-0.15,0-0.31-0.06-0.42-0.18l-21.17-21.17c-0.23-0.23-0.23-0.61,0-0.85
				c0.23-0.23,0.61-0.23,0.85,0l21.17,21.17c0.23,0.23,0.23,0.61,0,0.85C631.62,482.32,631.47,482.38,631.32,482.38z"/>
		</g>
		<g id="LINE_00000169528183407450938060000009481272165483333526_">
			<path class="st3" d="M641.21,468.51c-0.15,0-0.31-0.06-0.42-0.18l-11.96-11.96c-0.23-0.23-0.23-0.61,0-0.85
				c0.23-0.23,0.61-0.23,0.85,0l11.96,11.96c0.23,0.23,0.23,0.61,0,0.85C641.52,468.45,641.37,468.51,641.21,468.51z"/>
		</g>
		<g id="LINE_00000013174409467566951320000011445955592972841131_">
			<path class="st3" d="M630.36,473.75c-0.15,0-0.31-0.06-0.42-0.18l-17.22-17.22c-0.23-0.23-0.23-0.61,0-0.85
				c0.23-0.23,0.61-0.23,0.85,0l17.22,17.22c0.23,0.23,0.23,0.61,0,0.85C630.67,473.69,630.52,473.75,630.36,473.75z"/>
		</g>
		<g id="LINE_00000047758277065970401750000001352933173640274584_">
			<path class="st3" d="M622.21,481.68c-0.15,0-0.31-0.06-0.42-0.18l-13.29-13.29c-0.23-0.23-0.23-0.61,0-0.85
				c0.23-0.23,0.61-0.23,0.85,0l13.29,13.29c0.23,0.23,0.23,0.61,0,0.85C622.52,481.62,622.37,481.68,622.21,481.68z"/>
		</g>
		<g id="LINE_00000073695682684443352550000002060957396914714297_">
			<path class="st3" d="M638.05,477.11c-0.15,0-0.31-0.06-0.42-0.18l-20.54-20.54c-0.23-0.23-0.23-0.61,0-0.85s0.61-0.23,0.85,0
				l20.54,20.54c0.23,0.23,0.23,0.61,0,0.85C638.36,477.05,638.2,477.11,638.05,477.11z"/>
		</g>
		<g id="ELLIPSE_00000165932166411365281870000000327817589465963180_">
			<path class="st3" d="M625.07,483.63c-9.25,0-16.78-7.53-16.78-16.78c0-9.25,7.53-16.77,16.78-16.77
				c9.25,0,16.78,7.53,16.78,16.77C641.84,476.11,634.32,483.63,625.07,483.63z M625.07,451.28c-8.59,0-15.58,6.99-15.58,15.58
				c0,8.59,6.99,15.58,15.58,15.58c8.59,0,15.58-6.99,15.58-15.58C640.65,458.27,633.66,451.28,625.07,451.28z"/>
		</g>
		<g id="ELLIPSE_00000065057180928728166200000015057819621785657751_">
			<path class="st3" d="M625.07,488.91c-12.16,0-22.05-9.89-22.05-22.05c0-12.16,9.89-22.05,22.05-22.05
				c12.16,0,22.05,9.89,22.05,22.05C647.12,479.02,637.23,488.91,625.07,488.91z M625.07,446.01c-11.5,0-20.85,9.35-20.85,20.85
				c0,11.5,9.35,20.85,20.85,20.85c11.5,0,20.85-9.35,20.85-20.85C645.92,455.36,636.57,446.01,625.07,446.01z"/>
		</g>
		<g id="ELLIPSE_00000085957714296723805070000002474655007999964046_">
			<path class="st3" d="M658.78,479.72c-1.8,0-3.26-1.46-3.26-3.26s1.46-3.26,3.26-3.26c0.33,0,0.6,0.27,0.6,0.6
				c0,0.33-0.27,0.6-0.6,0.6c-1.14,0-2.06,0.92-2.06,2.06s0.92,2.06,2.06,2.06c0.33,0,0.6,0.27,0.6,0.6
				C659.38,479.45,659.12,479.72,658.78,479.72z"/>
		</g>
		<g id="ELLIPSE_00000038404262793676787870000010369401895878014854_">
			<path class="st3" d="M658.78,479.72c-0.33,0-0.6-0.27-0.6-0.6c0-0.33,0.27-0.6,0.6-0.6c1.14,0,2.06-0.93,2.06-2.06
				s-0.93-2.06-2.06-2.06c-0.33,0-0.6-0.27-0.6-0.6c0-0.33,0.27-0.6,0.6-0.6c1.8,0,3.26,1.46,3.26,3.26S660.58,479.72,658.78,479.72
				z"/>
		</g>
		<g id="ELLIPSE_00000031903228490350889990000008158892624261893012_">
			<path class="st3" d="M658.78,487.34c-1.8,0-3.26-1.46-3.26-3.26s1.46-3.26,3.26-3.26c0.33,0,0.6,0.27,0.6,0.6
				c0,0.33-0.27,0.6-0.6,0.6c-1.14,0-2.06,0.93-2.06,2.06s0.92,2.06,2.06,2.06c0.33,0,0.6,0.27,0.6,0.6
				C659.38,487.07,659.12,487.34,658.78,487.34z"/>
		</g>
		<g id="ELLIPSE_00000052092385873526128660000004540696605233530783_">
			<path class="st3" d="M658.78,487.34c-0.33,0-0.6-0.27-0.6-0.6c0-0.33,0.27-0.6,0.6-0.6c1.14,0,2.06-0.92,2.06-2.06
				s-0.93-2.06-2.06-2.06c-0.33,0-0.6-0.27-0.6-0.6c0-0.33,0.27-0.6,0.6-0.6c1.8,0,3.26,1.46,3.26,3.26S660.58,487.34,658.78,487.34
				z"/>
		</g>
		<g id="ELLIPSE_00000124857323179734491980000015889648411910866599_">
			<path class="st3" d="M658.78,494.95c-1.8,0-3.26-1.46-3.26-3.26c0-1.8,1.46-3.26,3.26-3.26c0.33,0,0.6,0.27,0.6,0.6
				c0,0.33-0.27,0.6-0.6,0.6c-1.14,0-2.06,0.92-2.06,2.06s0.92,2.06,2.06,2.06c0.33,0,0.6,0.27,0.6,0.6
				C659.38,494.69,659.12,494.95,658.78,494.95z"/>
		</g>
		<g id="ELLIPSE_00000022549013805419143740000013857925016655121845_">
			<path class="st3" d="M658.78,494.95c-0.33,0-0.6-0.27-0.6-0.6c0-0.33,0.27-0.6,0.6-0.6c1.14,0,2.06-0.92,2.06-2.06
				s-0.93-2.06-2.06-2.06c-0.33,0-0.6-0.27-0.6-0.6c0-0.33,0.27-0.6,0.6-0.6c1.8,0,3.26,1.46,3.26,3.26
				C662.04,493.49,660.58,494.95,658.78,494.95z"/>
		</g>
		<g id="LINE_00000051373119290372512240000014561613808801281434_">
			<path class="st3" d="M652.36,501.41c-0.33,0-0.6-0.27-0.6-0.6V432.9c0-0.33,0.27-0.6,0.6-0.6c0.33,0,0.6,0.27,0.6,0.6v67.91
				C652.96,501.15,652.69,501.41,652.36,501.41z"/>
		</g>
		<g id="ELLIPSE_00000109008864804972984890000007096090773529101467_">
			<path class="st3" d="M658.78,439.99c-1.31,0-2.38-1.07-2.38-2.38c0-1.31,1.07-2.38,2.38-2.38s2.38,1.07,2.38,2.38
				C661.17,438.92,660.1,439.99,658.78,439.99z M658.78,436.42c-0.66,0-1.19,0.53-1.19,1.19c0,0.65,0.53,1.19,1.19,1.19
				s1.19-0.53,1.19-1.19C659.97,436.95,659.44,436.42,658.78,436.42z"/>
		</g>
	</g>
	<g>
		<polygon class="st1" points="400.98,0 400.98,18.09 395.31,18.09 395.31,46.4 337.57,46.4 337.57,503.64 337.58,503.64 
			337.58,568.16 371.53,568.16 371.53,577.21 337.58,577.21 337.58,871.49 365.87,871.49 365.87,891.86 314.94,891.86 
			314.94,559.67 314.93,559.67 314.93,0 		"/>
		<polygon class="st1" points="685.07,0 685.07,213.9 685.05,213.9 685.05,854.51 508.48,854.51 508.48,891.86 479.06,891.86 
			479.06,871.49 490.38,871.49 490.38,778.68 499.43,778.68 499.43,836.4 664.68,836.4 664.68,577.21 499.43,577.21 499.43,699.45 
			490.38,699.45 490.38,577.21 473.4,577.21 473.4,568.16 664.68,568.16 664.68,213.9 664.66,213.9 664.66,46.4 605.85,46.4 
			605.85,18.09 600.38,18.09 600.38,0.04 664.66,0 		"/>
	</g>
	<g>
		<g>
			<rect x="371.3" y="124.39" class="st0" width="259.66" height="67.91"/>
			<path class="st4" d="M631.56,192.9H370.7v-69.11h260.86V192.9z M371.9,191.7h258.46v-66.71H371.9V191.7z"/>
		</g>
		<g>
			<rect x="371.3" y="124.39" class="st4" width="67.91" height="67.91"/>
			<path class="st4" d="M439.81,192.9H370.7v-69.11h69.11V192.9z M371.9,191.7h66.71v-66.71H371.9V191.7z"/>
		</g>
		<g>
			<g>
				<path class="st1" d="M493.2,171.25v6.77h-23v-6.84l8.69-10.86c2.38-2.98,4.02-5.38,4.92-7.19c0.89-1.81,1.34-3.67,1.34-5.59
					v-0.64c0-1.53-0.37-2.72-1.12-3.55c-0.75-0.83-1.8-1.25-3.16-1.25c-2.85,0-4.28,1.64-4.28,4.92v1.73h-7.28v-1.73
					c0-3.79,1.01-6.69,3.03-8.69c2.02-2,4.91-3,8.66-3c3.62,0,6.43,0.99,8.43,2.97c2,1.98,3,4.76,3,8.34v0.64
					c0,2.6-0.56,5.1-1.69,7.51c-1.13,2.41-3.23,5.53-6.29,9.36l-5.69,7.09H493.2z"/>
				<path class="st1" d="M501.41,175.66c-2.28-2.09-3.42-4.83-3.42-8.24v-20.63c0-3.45,1.13-6.21,3.39-8.27
					c2.26-2.07,5.28-3.1,9.07-3.1c3.79,0,6.81,1.03,9.07,3.1c2.26,2.07,3.39,4.82,3.39,8.27v20.63c0,3.45-1.13,6.21-3.39,8.27
					c-2.26,2.07-5.28,3.1-9.07,3.1C506.7,178.79,503.69,177.75,501.41,175.66z M514.19,170.61c0.92-0.94,1.37-2.19,1.37-3.77v-19.42
					c0-1.62-0.46-2.9-1.37-3.83c-0.92-0.94-2.16-1.41-3.74-1.41c-1.53,0-2.76,0.47-3.67,1.41c-0.92,0.94-1.37,2.21-1.37,3.83v19.42
					c0,1.58,0.46,2.83,1.37,3.77c0.92,0.94,2.14,1.41,3.67,1.41C512.03,172.02,513.27,171.55,514.19,170.61z"/>
				<path class="st1" d="M530.58,177.51c-0.85-0.85-1.28-1.94-1.28-3.26c0-1.32,0.43-2.4,1.28-3.23c0.85-0.83,1.94-1.25,3.26-1.25
					c1.36,0,2.46,0.42,3.29,1.25c0.83,0.83,1.25,1.91,1.25,3.23c0,1.32-0.42,2.41-1.25,3.26c-0.83,0.85-1.93,1.28-3.29,1.28
					C532.51,178.79,531.43,178.37,530.58,177.51z"/>
				<path class="st1" d="M570.63,169.4h-3.83v8.62h-7.41v-8.62h-16.8v-6.77c1.41-4.09,2.54-8.23,3.42-12.43
					c0.87-4.19,1.54-8.89,2.01-14.09h7.22v1.09c-0.85,9.37-2.53,17.85-5.05,25.43h9.2V143.4h7.41v19.23h3.83V169.4z"/>
				<path class="st1" d="M592.22,147.68v-0.64c0-1.58-0.44-2.8-1.31-3.67c-0.87-0.87-2.1-1.31-3.67-1.31
					c-1.58,0-2.81,0.43-3.71,1.28c-0.89,0.85-1.34,2.02-1.34,3.51v6.2c1.79-1.02,3.75-1.53,5.88-1.53c3.45,0,6.24,0.96,8.37,2.87
					c2.13,1.92,3.19,4.54,3.19,7.86v4.98c0,3.66-1.09,6.51-3.26,8.53c-2.17,2.02-5.22,3.03-9.14,3.03c-3.83,0-6.87-1.05-9.1-3.16
					c-2.24-2.11-3.35-4.97-3.35-8.59V147.1c0-3.62,1.12-6.48,3.35-8.59c2.24-2.11,5.27-3.16,9.1-3.16c3.96,0,7.02,1.02,9.17,3.07
					c2.15,2.04,3.23,4.92,3.23,8.62v0.64H592.22z M584.37,158.89c-0.89,0.45-1.62,1.05-2.17,1.82v6.26c0,1.58,0.45,2.82,1.34,3.74
					c0.89,0.92,2.13,1.37,3.71,1.37c1.53,0,2.75-0.46,3.64-1.37c0.89-0.92,1.34-2.16,1.34-3.74v-3.9c0-1.45-0.46-2.62-1.37-3.51
					c-0.92-0.89-2.12-1.34-3.61-1.34C586.22,158.22,585.26,158.44,584.37,158.89z"/>
			</g>
		</g>
		<g>
			<g>
				<path class="st0" d="M395.93,175.5c-2.39-2.19-3.58-5.18-3.58-8.98v-18.91c0-3.79,1.19-6.78,3.58-8.98
					c2.38-2.19,5.62-3.29,9.71-3.29c8.77,0,13.16,4.6,13.16,13.8v3.9h-7.41v-3.9c0-2.38-0.47-4.15-1.41-5.3
					c-0.94-1.15-2.41-1.72-4.41-1.72c-1.87,0-3.31,0.52-4.31,1.56c-1,1.04-1.5,2.55-1.5,4.5v17.82c0,1.96,0.5,3.45,1.5,4.47
					c1,1.02,2.44,1.53,4.31,1.53c3.88,0,5.81-2.24,5.81-6.71v-3.9h7.41v3.9c0,4.47-1.11,7.84-3.32,10.09
					c-2.22,2.26-5.49,3.39-9.84,3.39C401.55,178.79,398.31,177.7,395.93,175.5z"/>
			</g>
		</g>
	</g>
</g>
</svg>
