<?xml version="1.0" encoding="utf-8"?>
<!-- Generator: Adobe Illustrator 28.0.0, SVG Export Plug-In . SVG Version: 6.00 Build 0)  -->
<svg version="1.1" id="Балкон" xmlns="http://www.w3.org/2000/svg" xmlns:xlink="http://www.w3.org/1999/xlink" x="0px"
	 y="0px" width="1000px" height="1000px" viewBox="0 0 1000 1000" style="enable-background:new 0 0 1000 1000;"
	 xml:space="preserve">
<style type="text/css">
	.st0{fill:#FFFFFF;}
	.st1{fill:#4B5056;}
	.st2{fill:#CDA69E;}
	.st3{fill:none;stroke:#4B5056;stroke-width:1.2885;stroke-linecap:round;stroke-linejoin:round;stroke-miterlimit:10;}
	.st4{fill:none;}
</style>
<g>
	<path class="st0" d="M625.07,11.94l68.43,1.28l6.7,0.17l-20.6,877.54l-228.86-3.15c0,0.15-0.06,0.28-0.17,0.39
		c-0.11,0.11-0.25,0.17-0.4,0.17h-4.81V990c0,0.31-0.26,0.57-0.57,0.57h-3.23c-0.04,0-0.08,0-0.11-0.01
		c-25.69-2.36-49.43-14.12-66.86-33.15c-17.32-18.89-26.96-43.37-27.19-68.99h-4.82c-0.26,0-0.49-0.18-0.55-0.43l-34.92,0.25
		l-0.48-58.1h-0.03l-6.8-819.8l75.18-0.31v-0.01c0-0.31,0.26-0.57,0.57-0.57l248.95,1.91C624.82,11.37,625.07,11.62,625.07,11.94z"
		/>
	<g>
		<path class="st1" d="M460.46,668.48C460.46,668.48,460.46,668.48,460.46,668.48l-15.19-0.21c-0.31,0-0.57-0.26-0.56-0.58
			s0.24-0.56,0.58-0.56l15.18,0.21c0.31,0,0.57,0.26,0.56,0.58C461.03,668.23,460.78,668.48,460.46,668.48z"/>
		<path class="st1" d="M411.38,667.82C411.37,667.82,411.37,667.82,411.38,667.82l-33.92-0.46c-0.31,0-0.57-0.26-0.56-0.58
			s0.25-0.59,0.58-0.56l33.91,0.46c0.31,0,0.57,0.26,0.56,0.58C411.94,667.57,411.69,667.82,411.38,667.82z"/>
		<path class="st1" d="M343.56,666.9C343.56,666.9,343.55,666.9,343.56,666.9l-15.19-0.2c-0.31,0-0.57-0.26-0.56-0.58
			c0-0.31,0.26-0.56,0.57-0.56c0,0,0,0,0.01,0l15.18,0.2c0.31,0,0.57,0.26,0.56,0.58C344.12,666.65,343.87,666.9,343.56,666.9z"/>
	</g>
	<path class="st1" d="M661.86,670.54c0,0-0.01,0-0.01,0l-43.02-1c-0.31-0.01-0.56-0.27-0.56-0.58c0.01-0.31,0.26-0.56,0.57-0.56
		c0,0,0.01,0,0.01,0l43.02,1c0.31,0.01,0.56,0.27,0.56,0.58C662.42,670.29,662.17,670.54,661.86,670.54z"/>
	<path class="st1" d="M618.84,669.53c0,0-0.01,0-0.01,0c-0.31-0.01-0.56-0.27-0.56-0.58l0.63-26.89c0.01-0.31,0.26-0.56,0.57-0.56
		c0,0,0.01,0,0.01,0c0.31,0.01,0.56,0.27,0.56,0.58l-0.63,26.89C619.4,669.29,619.15,669.53,618.84,669.53z"/>
	<path class="st1" d="M662.49,643.65c0,0-0.01,0-0.01,0l-43.02-1c-0.31-0.01-0.56-0.27-0.56-0.58c0.01-0.31,0.26-0.56,0.57-0.56
		c0,0,0.01,0,0.01,0l43.02,1c0.31,0.01,0.56,0.27,0.56,0.58C663.05,643.4,662.8,643.65,662.49,643.65z"/>
	<path class="st1" d="M661.86,670.54c0,0-0.01,0-0.01,0c-0.31-0.01-0.56-0.27-0.56-0.58l0.63-26.89c0.01-0.31,0.26-0.56,0.57-0.56
		c0,0,0.01,0,0.01,0c0.31,0.01,0.56,0.27,0.56,0.58l-0.63,26.89C662.42,670.29,662.17,670.54,661.86,670.54z"/>
	<path class="st1" d="M618.84,669.53c-0.03,0-0.05,0-0.08,0c-0.29-0.04-0.5-0.29-0.49-0.58l0.63-26.89
		c0.01-0.31,0.26-0.56,0.57-0.56c0,0,0.01,0,0.01,0l43.02,1c0.3,0.01,0.54,0.25,0.55,0.55c0.01,0.3-0.21,0.56-0.51,0.59l-37.8,4.02
		l-5.36,21.44C619.33,669.36,619.1,669.53,618.84,669.53z M620.02,642.66l-0.49,21.2l4.21-16.87c0.06-0.23,0.25-0.4,0.49-0.43
		l29.44-3.13L620.02,642.66z"/>
	<path class="st1" d="M664.98,678.15c0,0-0.01,0-0.01,0l-75.41-1.57c-0.31-0.01-0.56-0.27-0.56-0.58s0.24-0.55,0.58-0.56l75.41,1.57
		c0.31,0.01,0.56,0.27,0.56,0.58C665.54,677.9,665.29,678.15,664.98,678.15z"/>
	<path class="st1" d="M625.07,11.94c0,0.31-0.26,0.56-0.57,0.56l-5.51-0.04l-238.02-1.83l-5.42-0.04c-0.32,0-0.56-0.25-0.57-0.56
		v-0.01c0-0.31,0.26-0.57,0.57-0.57l248.95,1.91C624.82,11.37,625.07,11.62,625.07,11.94z"/>
	<path class="st1" d="M624.29,39.4C624.29,39.4,624.29,39.4,624.29,39.4l-248.95-1.91c-0.31,0-0.57-0.26-0.57-0.57
		c0-0.31,0.26-0.56,0.57-0.56c0,0,0,0,0,0l248.95,1.91c0.31,0,0.57,0.26,0.57,0.57C624.86,39.15,624.61,39.4,624.29,39.4z"/>
	<path class="st1" d="M380.53,37.53C380.53,37.53,380.53,37.53,380.53,37.53c-0.32,0-0.57-0.26-0.57-0.57l0.08-9.68
		c0-0.31,0.26-0.56,0.57-0.56c0,0,0,0,0,0c0.31,0,0.57,0.26,0.56,0.57l-0.08,9.68C381.1,37.28,380.84,37.53,380.53,37.53z"/>
	<path class="st1" d="M618.91,39.36C618.91,39.36,618.91,39.36,618.91,39.36c-0.32,0-0.57-0.26-0.57-0.57l0.07-9.68
		c0-0.31,0.26-0.56,0.57-0.56c0,0,0,0,0,0c0.31,0,0.57,0.26,0.57,0.57l-0.07,9.68C619.48,39.1,619.23,39.36,618.91,39.36z"/>
	<path class="st1" d="M624.37,29.72C624.37,29.72,624.36,29.72,624.37,29.72l-248.95-1.91c-0.31,0-0.57-0.26-0.57-0.57
		c0-0.31,0.26-0.56,0.57-0.56c0,0,0,0,0,0l248.95,1.91c0.31,0,0.57,0.26,0.57,0.57C624.93,29.46,624.68,29.72,624.37,29.72z"/>
	<path class="st1" d="M612.92,35.07C612.92,35.07,612.92,35.07,612.92,35.07l-226.34-1.74c-0.31,0-0.57-0.26-0.57-0.57
		c0-0.31,0.26-0.56,0.57-0.56c0,0,0,0,0,0l226.33,1.74c0.31,0,0.57,0.26,0.57,0.57C613.49,34.82,613.23,35.07,612.92,35.07z"/>
	<path class="st1" d="M612.89,39.31C612.89,39.31,612.89,39.31,612.89,39.31c-0.32,0-0.57-0.26-0.57-0.57l0.08-9.68
		c0-0.31,0.26-0.56,0.57-0.56c0,0,0,0,0,0c0.31,0,0.57,0.26,0.56,0.57l-0.08,9.68C613.46,39.06,613.2,39.31,612.89,39.31z"/>
	<path class="st1" d="M380.53,37.53C380.53,37.53,380.53,37.53,380.53,37.53c-0.32,0-0.57-0.26-0.57-0.57l0.08-9.68
		c0-0.31,0.26-0.56,0.57-0.56c0,0,0,0,0,0c0.31,0,0.57,0.26,0.56,0.57l-0.08,9.68C381.1,37.28,380.84,37.53,380.53,37.53z"/>
	<path class="st1" d="M386.56,37.57C386.55,37.57,386.55,37.57,386.56,37.57c-0.32,0-0.57-0.26-0.57-0.57l0.07-9.68
		c0-0.31,0.26-0.56,0.57-0.56c0,0,0,0,0,0c0.31,0,0.57,0.26,0.57,0.57l-0.07,9.68C387.12,37.32,386.87,37.57,386.56,37.57z"/>
	<path class="st1" d="M624.16,56.51C624.16,56.51,624.16,56.51,624.16,56.51L375.21,54.6c-0.31,0-0.57-0.26-0.57-0.57
		c0-0.31,0.26-0.56,0.57-0.56c0,0,0,0,0,0l248.95,1.91c0.31,0,0.57,0.26,0.57,0.57C624.73,56.26,624.47,56.51,624.16,56.51z"/>
	<path class="st1" d="M612.93,33.88C612.93,33.88,612.93,33.88,612.93,33.88l-226.34-1.74c-0.31,0-0.57-0.26-0.57-0.57
		c0-0.31,0.26-0.56,0.57-0.56c0,0,0,0,0,0l226.33,1.74c0.31,0,0.57,0.26,0.57,0.57C613.5,33.63,613.24,33.88,612.93,33.88z"/>
	<path class="st1" d="M467.52,808.76c-0.11-0.11-0.25-0.17-0.4-0.17l-6.97-0.06h-0.57c-0.31,0-0.57,0.25-0.57,0.57v0.57l-0.04,4.8
		c0,0.32,0.25,0.58,0.56,0.58h0.01l7.52,0.06c0.01,0,0.01,0,0.01,0c0.15,0,0.29-0.06,0.4-0.17c0.1-0.09,0.16-0.22,0.17-0.36v-0.04
		l0.04-5.38C467.68,809.01,467.62,808.87,467.52,808.76z M466.54,809.72l-0.04,4.24l-6.39-0.04l0.03-4.25L466.54,809.72z"/>
	<path class="st1" d="M468.06,738.83c-0.1-0.11-0.25-0.17-0.4-0.17l-7.5-0.06h-0.03c-0.14-0.03-0.29,0.06-0.4,0.17
		c-0.11,0.1-0.17,0.25-0.17,0.4l-0.04,4.81v0.57c-0.01,0.15,0.05,0.29,0.16,0.4c0.11,0.11,0.24,0.17,0.39,0.17c0.01,0,0.01,0,0.01,0
		l7.53,0.06c0,0,0,0,0.01,0c0.31,0,0.56-0.25,0.56-0.57l0.05-5.32v-0.05C468.23,739.08,468.17,738.94,468.06,738.83z M467.05,744.04
		l-6.39-0.05l0.03-4.24l6.39,0.04L467.05,744.04z"/>
	<path class="st1" d="M395.07,805.94c-0.01,0-0.02,0-0.04,0c-0.31-0.02-0.55-0.29-0.53-0.6c2.07-34.64,30.9-61.62,65.58-61.35
		c0.31,0,0.57,0.26,0.57,0.57c0,0.31-0.26,0.57-0.57,0.57c0,0,0,0,0,0c-0.15,0-0.3,0-0.45,0c-33.9,0-61.96,26.39-63.99,60.28
		C395.62,805.7,395.37,805.94,395.07,805.94z"/>
	<path class="st1" d="M460.01,805.47c-0.11-0.1-0.25-0.17-0.4-0.17l-63.94-0.5h-0.6c-0.16-0.01-0.3,0.06-0.4,0.16
		c-0.08,0.08-0.14,0.18-0.16,0.29c-0.01,0.04-0.01,0.07-0.01,0.11v0.01l-0.03,3.22c0,0.31,0.25,0.57,0.57,0.57l63.97,0.51h0.56
		c0.01,0,0.01,0,0.01,0c0.31,0,0.57-0.25,0.57-0.56v-0.58l0.02-2.65C460.17,805.73,460.12,805.58,460.01,805.47z M395.61,808.03
		l0.02-2.09l63.4,0.5l-0.02,2.09L395.61,808.03z"/>
	<path class="st1" d="M450.73,880.24c0-0.16-0.06-0.3-0.17-0.41c-0.1-0.1-0.25-0.16-0.4-0.16h-5.38c-0.31,0-0.57,0.26-0.57,0.57
		l0.01,6.96v0.57c0,0.31,0.25,0.57,0.57,0.57h5.38c0.15,0,0.29-0.06,0.4-0.17c0.11-0.11,0.17-0.24,0.17-0.39v-0.01L450.73,880.24z
		 M445.36,887.2l-0.01-6.39h4.24l0.01,6.39H445.36z"/>
	<path class="st1" d="M348.52,880.32c0-0.15-0.06-0.3-0.16-0.41c-0.11-0.1-0.26-0.16-0.41-0.16h-5.38c-0.02,0-0.04,0-0.06,0.01
		c-0.28,0.03-0.5,0.27-0.5,0.56v7.53c0,0.05,0.01,0.09,0.02,0.14c0.06,0.25,0.29,0.43,0.55,0.43h5.38c0.15,0,0.3-0.06,0.4-0.17
		c0.11-0.11,0.17-0.25,0.17-0.4L348.52,880.32z M343.14,880.89h4.24l0.01,6.39h-4.24L343.14,880.89z"/>
	<path class="st1" d="M442.13,990.05c-0.03,0.3-0.28,0.52-0.57,0.52c-0.04,0-0.08,0-0.11-0.01c-25.69-2.36-49.43-14.12-66.86-33.15
		c-17.32-18.89-26.96-43.37-27.19-68.99c-0.01-0.19-0.01-0.37-0.01-0.56c0-0.32,0.25-0.57,0.57-0.57c0.31,0,0.57,0.25,0.57,0.56
		c0.2,52.88,39.9,96.42,92.46,101.52c0.21,0.02,0.41,0.04,0.62,0.06C441.93,989.46,442.16,989.74,442.13,990.05z"/>
	<path class="st1" d="M445.19,887.37c-0.11-0.11-0.25-0.17-0.4-0.17h-3.23c-0.31,0-0.57,0.26-0.57,0.57V990
		c0,0.15,0.06,0.3,0.17,0.4c0.08,0.08,0.18,0.14,0.29,0.16c0.03,0.01,0.07,0.01,0.11,0.01h3.23c0.31,0,0.57-0.26,0.57-0.57V887.77
		C445.36,887.62,445.3,887.47,445.19,887.37z M444.22,989.43h-2.09V888.34h2.09V989.43z"/>
	<path class="st1" d="M525.49,632.89C525.49,632.89,525.48,632.89,525.49,632.89l-64.56-0.74c-0.31,0-0.57-0.26-0.56-0.58
		l0.74-64.55c0-0.15,0.06-0.29,0.17-0.4c0.11-0.1,0.25-0.16,0.4-0.16c0,0,0,0,0.01,0l64.55,0.74c0.31,0,0.57,0.26,0.56,0.58
		l-0.74,64.55c0,0.15-0.06,0.29-0.17,0.4C525.78,632.84,525.64,632.89,525.49,632.89z M461.51,631.03l63.42,0.72l0.72-63.42
		l-63.42-0.72L461.51,631.03z"/>
	<path class="st1" d="M670.9,439.95c0,0-0.01,0-0.01,0l-64.53-1.5c-0.15,0-0.29-0.07-0.4-0.18c-0.1-0.11-0.16-0.26-0.16-0.41
		l1.5-64.53c0.01-0.31,0.22-0.55,0.58-0.56l64.53,1.5c0.15,0,0.29,0.07,0.4,0.18c0.1,0.11,0.16,0.26,0.16,0.41l-1.5,64.53
		C671.46,439.71,671.2,439.95,670.9,439.95z M606.94,437.33l63.4,1.48l1.48-63.4l-63.4-1.48L606.94,437.33z"/>
	<path class="st1" d="M625.86,403.65c-0.09,0-0.18,0-0.27,0c-3.06-0.07-5.91-1.33-8.02-3.54c-2.11-2.21-3.24-5.12-3.17-8.18l0,0
		c0.15-6.23,5.26-11.19,11.45-11.19c0.09,0,0.18,0,0.27,0c6.32,0.15,11.34,5.41,11.19,11.72
		C637.16,398.69,632.05,403.65,625.86,403.65z M615.53,391.95c-0.06,2.76,0.95,5.37,2.85,7.37s4.47,3.13,7.23,3.19
		c5.67,0.14,10.42-4.39,10.56-10.08c0.13-5.69-4.39-10.43-10.08-10.56C620.44,381.74,615.67,386.26,615.53,391.95L615.53,391.95z"/>
	<path class="st1" d="M625.86,400.42c-0.07,0-0.13,0-0.2,0c-2.2-0.05-4.24-0.96-5.76-2.55c-1.52-1.59-2.33-3.68-2.27-5.88l0,0
		c0.05-2.2,0.96-4.24,2.54-5.76c1.59-1.52,3.64-2.33,5.88-2.27c4.54,0.11,8.14,3.88,8.04,8.42c-0.05,2.2-0.96,4.25-2.55,5.76
		C629.99,399.62,627.98,400.42,625.86,400.42z M625.85,385.1c-1.83,0-3.56,0.69-4.89,1.96c-1.37,1.31-2.15,3.07-2.19,4.97l0,0
		c-0.09,3.91,3.02,7.17,6.93,7.26c1.88,0.05,3.69-0.65,5.06-1.96c1.37-1.31,2.15-3.07,2.19-4.97c0.09-3.91-3.02-7.17-6.93-7.26
		C625.96,385.1,625.9,385.1,625.85,385.1z M618.19,392.01L618.19,392.01L618.19,392.01z"/>
	<path class="st1" d="M652.92,432c-0.09,0-0.18,0-0.27,0c-6.32-0.15-11.34-5.41-11.19-11.72c0.07-3.06,1.33-5.91,3.54-8.02
		c2.21-2.11,5.08-3.24,8.18-3.17c3.06,0.07,5.91,1.33,8.02,3.54s3.24,5.12,3.17,8.18s-1.33,5.91-3.54,8.02
		C658.67,430.88,655.88,432,652.92,432z M652.9,410.22c-2.67,0-5.19,1.01-7.12,2.85c-1.99,1.9-3.13,4.47-3.19,7.23
		c-0.13,5.69,4.39,10.43,10.08,10.56c2.74,0.05,5.37-0.95,7.37-2.85c1.99-1.9,3.13-4.47,3.19-7.23c0.06-2.76-0.95-5.37-2.85-7.37
		s-4.47-3.13-7.23-3.19C653.07,410.22,652.98,410.22,652.9,410.22z"/>
	<path class="st1" d="M652.91,428.77c-0.07,0-0.13,0-0.2,0c-2.2-0.05-4.25-0.96-5.76-2.55c-1.52-1.59-2.33-3.68-2.28-5.88
		c0.11-4.54,3.92-8.13,8.42-8.04c2.2,0.05,4.24,0.96,5.76,2.55c1.52,1.59,2.33,3.68,2.27,5.88c-0.05,2.2-0.96,4.25-2.55,5.76
		C657.05,427.97,655.04,428.77,652.91,428.77z M652.9,413.45c-1.83,0-3.56,0.69-4.89,1.96c-1.37,1.31-2.15,3.07-2.19,4.97
		s0.65,3.69,1.96,5.06c1.31,1.37,3.07,2.15,4.97,2.19c1.88,0.05,3.69-0.65,5.06-1.96c1.37-1.31,2.15-3.07,2.19-4.97
		c0.09-3.91-3.02-7.17-6.93-7.26C653.02,413.45,652.96,413.45,652.9,413.45z"/>
	<path class="st1" d="M653.56,399.91c-0.06,0-0.11,0-0.17,0c-1.89-0.04-3.65-0.82-4.95-2.19s-2-3.16-1.96-5.05
		c0.04-1.89,0.82-3.65,2.19-4.95c1.37-1.3,3.14-1.99,5.05-1.96c3.9,0.09,7,3.34,6.91,7.24
		C660.54,396.85,657.38,399.91,653.56,399.91z M653.55,386.9c-1.53,0-2.98,0.58-4.09,1.64c-1.15,1.09-1.8,2.57-1.83,4.16l0,0
		c-0.04,1.58,0.54,3.09,1.64,4.24s2.57,1.8,4.16,1.84c0.05,0,0.09,0,0.14,0c3.21,0,5.86-2.57,5.93-5.8c0.08-3.27-2.52-6-5.8-6.07
		C653.64,386.9,653.6,386.9,653.55,386.9z M647.05,392.69L647.05,392.69L647.05,392.69z"/>
	<path class="st1" d="M653.56,396.68c-0.03,0-0.06,0-0.09,0c-2.12-0.05-3.8-1.81-3.76-3.94l0.57,0.01l-0.57-0.01
		c0.02-1.03,0.45-1.98,1.19-2.69c0.74-0.71,1.67-1.09,2.75-1.06c1.03,0.02,1.98,0.45,2.69,1.19c0.71,0.74,1.09,1.72,1.06,2.75
		c-0.02,1.03-0.45,1.98-1.19,2.69C655.49,396.31,654.55,396.68,653.56,396.68z M653.55,390.13c-0.7,0-1.36,0.26-1.87,0.75
		c-0.52,0.5-0.82,1.17-0.84,1.9c-0.04,1.49,1.15,2.74,2.64,2.77c0.71,0.01,1.41-0.25,1.93-0.75c0.52-0.5,0.82-1.17,0.84-1.9
		c0.02-0.72-0.25-1.41-0.75-1.93c-0.5-0.52-1.17-0.82-1.9-0.84C653.59,390.13,653.57,390.13,653.55,390.13z"/>
	<path class="st1" d="M625.21,426.97c-0.06,0-0.11,0-0.17,0c-3.9-0.09-7-3.34-6.91-7.24l0,0c0.09-3.9,3.31-6.98,7.24-6.91
		c1.89,0.04,3.65,0.82,4.95,2.19c1.3,1.37,2,3.16,1.96,5.05C632.19,423.9,629.03,426.97,625.21,426.97z M619.27,419.76
		L619.27,419.76c-0.08,3.27,2.52,6,5.8,6.07c0.05,0,0.09,0,0.14,0c3.21,0,5.86-2.57,5.93-5.8c0.04-1.58-0.54-3.09-1.64-4.24
		c-1.09-1.15-2.57-1.8-4.16-1.84c-0.05,0-0.09,0-0.14,0C622,413.96,619.35,416.53,619.27,419.76z"/>
	<path class="st1" d="M625.21,423.74c-0.03,0-0.06,0-0.09,0c-2.12-0.05-3.8-1.81-3.76-3.94c0,0,0,0,0,0
		c0.05-2.09,1.77-3.76,3.84-3.76c0.03,0,0.06,0,0.09,0c1.03,0.02,1.98,0.45,2.69,1.19c0.71,0.74,1.09,1.72,1.06,2.75
		c-0.02,1.03-0.45,1.98-1.19,2.69C627.14,423.36,626.2,423.74,625.21,423.74z M622.5,419.83c-0.03,1.49,1.15,2.73,2.64,2.77
		c0.72,0.03,1.41-0.25,1.93-0.75c0.52-0.5,0.82-1.17,0.84-1.9s-0.25-1.41-0.75-1.93c-0.5-0.52-1.17-0.82-1.9-0.84
		c-0.02,0-0.04,0-0.06,0C623.74,417.19,622.53,418.36,622.5,419.83L622.5,419.83z"/>
	<path class="st1" d="M650.17,525.12c0,0-0.01,0-0.01,0c-0.82-0.02-1.58-0.35-2.15-0.95s-0.87-1.37-0.85-2.19
		c0.01-0.31,0.26-0.56,0.57-0.56c0,0,0.01,0,0.01,0c0.31,0.01,0.56,0.27,0.56,0.58c-0.01,0.52,0.18,1.01,0.54,1.38
		s0.84,0.59,1.36,0.6c0.31,0.01,0.56,0.27,0.56,0.58C650.73,524.87,650.47,525.12,650.17,525.12z"/>
	<path class="st1" d="M652.72,522.67c0,0-0.01,0-0.01,0c-0.31-0.01-0.56-0.27-0.56-0.58c0.02-1.07-0.83-1.95-1.89-1.98
		c-0.01,0-0.03,0-0.04,0c-1.05,0-1.91,0.84-1.93,1.89c-0.01,0.31-0.3,0.55-0.58,0.56c-0.31-0.01-0.56-0.27-0.56-0.58
		c0.04-1.67,1.41-3.01,3.07-3.01c0.02,0,0.04,0,0.07,0c1.69,0.04,3.04,1.45,3,3.14C653.29,522.43,653.03,522.67,652.72,522.67z"/>
	<path class="st1" d="M650.22,525.12c-0.02,0-0.04,0-0.07,0c-0.31-0.01-0.56-0.27-0.56-0.58c0.01-0.31,0.26-0.56,0.57-0.56
		c0.02,0,0.04,0,0.06,0c1.05,0,1.91-0.84,1.93-1.89c0.01-0.31,0.28-0.55,0.58-0.56c0.31,0.01,0.56,0.27,0.56,0.58
		C653.26,523.79,651.88,525.12,650.22,525.12z"/>
	<path class="st1" d="M647.93,513.62c0,0-0.01,0-0.01,0l-2.14-0.05c-0.31-0.01-0.56-0.27-0.56-0.58c0.01-0.31,0.26-0.56,0.57-0.56
		c0,0,0.01,0,0.01,0l2.14,0.05c0.31,0.01,0.56,0.27,0.56,0.58C648.49,513.37,648.24,513.62,647.93,513.62z"/>
	<path class="st1" d="M647.12,561.27c-0.08,0-0.17,0-0.25,0l-26.47-0.59c-6.15-0.14-11.05-5.25-10.91-11.41l0.59-26.47
		c0.07-2.98,1.29-5.76,3.44-7.82c2.15-2.06,4.98-3.16,7.96-3.09l26.47,0.59c6.15,0.14,11.05,5.25,10.91,11.41l-0.59,26.47
		c-0.07,2.98-1.29,5.76-3.44,7.82C652.73,560.17,650,561.27,647.12,561.27z M621.22,513.03c-2.59,0-5.04,0.98-6.92,2.78
		c-1.93,1.85-3.03,4.34-3.09,7.02l0,0l-0.59,26.47c-0.12,5.53,4.27,10.12,9.8,10.24l26.47,0.59c2.67,0.06,5.21-0.93,7.15-2.78
		c1.93-1.85,3.03-4.34,3.09-7.02l0.59-26.47c0.12-5.53-4.27-10.12-9.8-10.24l-26.47-0.59C621.37,513.03,621.29,513.03,621.22,513.03
		z M610.63,522.81L610.63,522.81L610.63,522.81z"/>
	<path class="st1" d="M663.11,545.73c0,0-0.01,0-0.01,0c-0.31-0.01-0.56-0.27-0.56-0.58l0.35-15.88c0.01-0.31,0.25-0.58,0.58-0.56
		c0.31,0.01,0.56,0.27,0.56,0.58l-0.35,15.88C663.67,545.49,663.42,545.73,663.11,545.73z"/>
	<path class="st1" d="M665.81,543.15c0,0-0.01,0-0.01,0l-5.29-0.12c-0.31-0.01-0.56-0.27-0.56-0.58c0.01-0.31,0.3-0.56,0.58-0.56
		l5.29,0.12c0.31,0.01,0.56,0.27,0.56,0.58C666.38,542.9,666.12,543.15,665.81,543.15z"/>
	<path class="st1" d="M666.05,532.56c0,0-0.01,0-0.01,0l-5.29-0.12c-0.31-0.01-0.56-0.27-0.56-0.58c0.01-0.31,0.3-0.55,0.58-0.56
		l5.29,0.12c0.31,0.01,0.56,0.27,0.56,0.58C666.61,532.31,666.36,532.56,666.05,532.56z"/>
	<path class="st1" d="M643.21,552.87c-0.17,0-0.34-0.08-0.46-0.23c-0.19-0.25-0.14-0.61,0.11-0.8l20.08-15.08
		c0.25-0.19,0.61-0.14,0.8,0.11c0.19,0.25,0.14,0.61-0.11,0.8l-20.08,15.08C643.45,552.83,643.33,552.87,643.21,552.87z"/>
	<path class="st1" d="M667.86,570.18c0,0-0.01,0-0.01,0l-64.54-1.43c-0.31-0.01-0.56-0.27-0.56-0.58l1.43-64.54
		c0-0.15,0.07-0.29,0.18-0.4c0.11-0.1,0.25-0.16,0.41-0.16l64.54,1.43c0.31,0.01,0.56,0.27,0.56,0.58l-1.43,64.54
		c0,0.15-0.07,0.29-0.18,0.4C668.15,570.12,668.01,570.18,667.86,570.18z M603.91,567.62l63.4,1.41l1.41-63.4l-63.4-1.41
		L603.91,567.62z"/>
	<path class="st1" d="M654.72,741.31c-0.02,0-0.03,0-0.05,0c-1.11-0.03-1.99-0.95-1.96-2.06c0.01-0.54,0.23-1.04,0.62-1.41
		c0.39-0.37,0.91-0.55,1.44-0.56c0.54,0.01,1.04,0.23,1.41,0.62c0.37,0.39,0.57,0.9,0.56,1.44c-0.01,0.54-0.23,1.04-0.62,1.41
		C655.73,741.11,655.24,741.31,654.72,741.31z M654.72,738.42c-0.23,0-0.44,0.08-0.6,0.24c-0.17,0.16-0.26,0.38-0.27,0.61
		c-0.01,0.23,0.08,0.45,0.24,0.62s0.38,0.27,0.61,0.27c0.24,0,0.45-0.08,0.62-0.24c0.17-0.16,0.27-0.38,0.27-0.61
		c0.01-0.23-0.08-0.46-0.24-0.62c-0.16-0.17-0.38-0.26-0.61-0.27C654.73,738.42,654.73,738.42,654.72,738.42z"/>
	<path class="st1" d="M654.72,741.67c-0.02,0-0.04,0-0.06,0c-1.3-0.03-2.34-1.12-2.31-2.42c0.01-0.63,0.28-1.22,0.73-1.66
		s1.07-0.65,1.69-0.65c1.3,0.03,2.34,1.12,2.31,2.42v0C657.06,740.64,656,741.67,654.72,741.67z M654.72,738.07
		c-0.32,0-0.62,0.12-0.85,0.34c-0.24,0.23-0.37,0.53-0.38,0.86c-0.02,0.68,0.52,1.24,1.2,1.26c0.33-0.01,0.64-0.11,0.88-0.34
		c0.24-0.23,0.37-0.53,0.38-0.86c0.02-0.68-0.52-1.24-1.2-1.26C654.74,738.07,654.73,738.07,654.72,738.07z M656.52,739.34
		L656.52,739.34L656.52,739.34z"/>
	<path class="st1" d="M648.38,759.63c-0.66,0-1.28-0.24-1.78-0.67c-0.54-0.48-0.87-1.14-0.91-1.86c-0.39-12-0.11-24.05,0.83-35.92
		c0.12-1.49,1.43-2.61,2.91-2.48c0.01,0,0.08,0.01,0.08,0.01l13.92,1.54c0.85,0.09,1.48,0.81,1.46,1.67l-0.82,35.22
		c-0.02,0.85-0.68,1.54-1.53,1.6l-13.97,0.89C648.5,759.63,648.44,759.63,648.38,759.63z M649.21,719.82c-0.8,0-1.49,0.62-1.56,1.44
		c-0.94,11.83-1.22,23.84-0.83,35.71c0.03,0.47,0.22,0.85,0.53,1.13c0.31,0.28,0.72,0.42,1.13,0.39l13.97-0.89
		c0.26-0.02,0.46-0.23,0.47-0.49l0.82-35.22c0.01-0.26-0.18-0.48-0.44-0.51l-13.91-1.54c0,0-0.01,0-0.01,0l0.07-0.56l-0.12,0.56
		C649.29,719.82,649.25,719.82,649.21,719.82z"/>
	<path class="st1" d="M618.82,744.05c-2.58,0-4.96-1.71-5.7-4.32c-0.13-0.45-0.2-0.91-0.22-1.38c0.27-3.32,3.13-5.73,6.39-5.47
		c0.46,0.04,0.92,0.13,1.37,0.28c0.82,0.27,1.47,0.93,1.73,1.76c0.74,2.35,0.68,4.92-0.17,7.23c-0.3,0.82-0.98,1.44-1.81,1.68
		C619.89,743.98,619.35,744.05,618.82,744.05z M618.8,734.01c-2.46,0-4.55,1.89-4.76,4.38c0.02,0.31,0.07,0.68,0.18,1.04
		c0.71,2.53,3.34,4.02,5.89,3.31c0.48-0.14,0.88-0.5,1.05-0.97c0.76-2.08,0.81-4.39,0.15-6.5c-0.15-0.48-0.53-0.86-1-1.02
		c0,0,0,0,0,0c-0.36-0.12-0.73-0.19-1.1-0.23C619.07,734.01,618.94,734.01,618.8,734.01z"/>
	<path class="st1" d="M621.36,752.45c-0.08,0-0.15,0-0.23,0l-11.32-0.26c-1.25-0.03-2.52-0.15-3.75-0.36l0,0
		c-2.05-0.35-3.96-1.24-5.54-2.6c-2.93-2.51-4.71-6.02-5-9.87s0.93-7.59,3.44-10.52c0.63-0.73,1.33-1.4,2.08-1.99
		c1.64-1.28,3.59-2.08,5.66-2.33c1.24-0.15,2.51-0.21,3.76-0.18l11.32,0.26c4.36,0.1,8.13,3.14,9.16,7.38
		c1.08,4.45,0.97,9.13-0.31,13.53C629.42,749.62,625.63,752.45,621.36,752.45z M606.26,750.71c1.18,0.2,2.38,0.31,3.58,0.34
		l11.32,0.26c3.84,0.1,7.29-2.43,8.37-6.12c1.23-4.21,1.33-8.68,0.3-12.94c-0.91-3.74-4.23-6.42-8.08-6.51l-11.32-0.26
		c-1.19-0.03-2.41,0.03-3.59,0.17c-1.86,0.22-3.62,0.95-5.09,2.1c-0.7,0.54-1.34,1.16-1.92,1.83c-4.78,5.58-4.14,14.01,1.44,18.79
		C602.69,749.59,604.41,750.39,606.26,750.71L606.26,750.71z"/>
	<path class="st1" d="M639.42,758.75c0,0-0.01,0-0.01,0l-29.92-0.7c-5.29-0.12-10.21-2.3-13.87-6.13c-3.65-3.83-5.6-8.85-5.47-14.14
		c0.25-10.92,9.33-19.64,20.26-19.34l29.92,0.7c0.06,0,0.13,0.01,0.19,0.04c2.24,0.84,4.49,1.72,6.7,2.61
		c0.22,0.09,0.36,0.3,0.36,0.53v0l-0.46,7.1l-0.27,5.63l-0.19,10.42l0.13,10.41c0,0.25-0.15,0.47-0.38,0.55
		c-2.25,0.79-4.54,1.56-6.81,2.29C639.54,758.74,639.48,758.75,639.42,758.75z M609.93,719.58c-4.82,0-9.38,1.82-12.88,5.17
		c-3.61,3.44-5.66,8.08-5.77,13.07c-0.12,4.99,1.72,9.72,5.16,13.32c3.44,3.61,8.08,5.66,13.07,5.77l29.82,0.69
		c2.1-0.68,4.22-1.39,6.31-2.12l-0.12-7.55l0-2.48l0.19-10.46l0.7-12.32c-2.05-0.82-4.13-1.63-6.2-2.41l-29.82-0.7
		C610.23,719.58,610.08,719.58,609.93,719.58z"/>
	<path class="st1" d="M534.1,854.97c-0.16,0-0.33-0.07-0.44-0.21c-0.61-0.74-2.01-0.98-3.06-0.53c-0.28,0.12-0.52,0.29-0.69,0.48
		c-0.21,0.24-0.57,0.26-0.8,0.05c-0.24-0.21-0.26-0.57-0.05-0.8c0.28-0.32,0.66-0.59,1.09-0.78c1.52-0.66,3.45-0.28,4.38,0.84
		c0.2,0.24,0.17,0.6-0.07,0.8C534.36,854.93,534.23,854.97,534.1,854.97z"/>
	<path class="st1" d="M531.88,852.62c-0.02,0-0.04,0-0.06,0c-0.91-0.01-1.78-0.29-2.43-0.77c-0.71-0.53-1.09-1.24-1.08-2
		c0.01-0.76,0.41-1.46,1.13-1.97c0.67-0.47,1.57-0.7,2.45-0.71h0c0.91,0.01,1.78,0.29,2.43,0.77c0.71,0.53,1.09,1.24,1.08,2
		c-0.01,0.76-0.41,1.46-1.13,1.97C533.62,852.37,532.78,852.62,531.88,852.62z M531.83,848.31c-0.66,0-1.27,0.18-1.73,0.5
		c-0.41,0.29-0.64,0.67-0.65,1.05s0.22,0.77,0.62,1.07c0.46,0.34,1.09,0.54,1.77,0.55c0.01,0,0.03,0,0.05,0
		c0.66,0,1.27-0.18,1.73-0.5c0.41-0.29,0.64-0.67,0.65-1.05s-0.22-0.77-0.62-1.07c-0.46-0.34-1.09-0.54-1.76-0.55l0,0
		C531.86,848.31,531.85,848.31,531.83,848.31z"/>
	<path class="st1" d="M532.21,867.61c-0.2,0-0.39,0-0.59,0c-7.81-0.1-15.13-2.18-20.62-5.85c-5.56-3.72-8.59-8.64-8.52-13.85
		c0.07-5.21,3.22-10.05,8.87-13.63c5.58-3.53,12.97-5.39,20.76-5.32c7.81,0.1,15.13,2.18,20.62,5.85c5.56,3.72,8.59,8.64,8.52,13.85
		c-0.07,5.21-3.22,10.05-8.87,13.63C546.95,865.72,539.8,867.61,532.21,867.61z M531.53,830.09c-7.38,0-14.3,1.82-19.56,5.15
		c-5.32,3.37-8.28,7.87-8.34,12.68c-0.06,4.81,2.79,9.39,8.02,12.89c5.31,3.55,12.41,5.56,20,5.66c7.57,0.12,14.74-1.73,20.13-5.14
		c5.32-3.37,8.28-7.87,8.34-12.68c0.06-4.81-2.79-9.39-8.02-12.89c-5.31-3.55-12.41-5.56-20-5.66l0,0
		C531.92,830.09,531.72,830.09,531.53,830.09z"/>
	<path class="st1" d="M541.5,858.95C541.5,858.95,541.5,858.95,541.5,858.95l-7.46-0.09c-0.31,0-0.57-0.26-0.56-0.58
		c0-0.31,0.26-0.56,0.57-0.56c0,0,0,0,0.01,0l7.36,0.09c5.93-1.82,10.08-5.19,11.4-9.25c0.92-2.85,0.34-5.75-1.68-8.41
		c-5.16-6.78-18.01-9.68-28.67-6.45c-5.97,1.81-10.16,5.19-11.48,9.28c-0.92,2.85-0.34,5.75,1.68,8.41c2.01,2.64,5.38,4.84,9.5,6.21
		c0.3,0.1,0.46,0.42,0.36,0.72c-0.1,0.3-0.42,0.46-0.72,0.36c-4.33-1.43-7.9-3.78-10.05-6.6c-2.22-2.92-2.88-6.28-1.86-9.45
		c1.44-4.45,5.9-8.1,12.24-10.02c11.07-3.35,24.48-0.28,29.9,6.85c2.22,2.92,2.88,6.28,1.86,9.45c-1.44,4.45-5.9,8.1-12.24,10.02
		C541.61,858.95,541.56,858.95,541.5,858.95z"/>
	<path class="st1" d="M529.44,858.8C529.44,858.8,529.44,858.8,529.44,858.8l-7.46-0.09c-0.31,0-0.57-0.26-0.56-0.58
		c0-0.31,0.26-0.56,0.57-0.56c0,0,0,0,0.01,0l7.45,0.09c0.31,0,0.57,0.26,0.56,0.58C530.01,858.55,529.75,858.8,529.44,858.8z"/>
	<path class="st1" d="M538.73,864.87C538.73,864.87,538.73,864.87,538.73,864.87l-14.13-0.18c-0.15,0-0.3-0.06-0.4-0.17
		c-0.11-0.11-0.16-0.25-0.16-0.4l0.04-2.91c0-0.31,0.26-0.58,0.58-0.56l4.76,0.06c0.31,0,0.57,0.26,0.56,0.58
		c0,0.31-0.26,0.56-0.57,0.56c0,0,0,0-0.01,0l-4.19-0.05l-0.02,1.77l12.99,0.17l0.02-1.77l-4.19-0.05c-0.31,0-0.57-0.26-0.56-0.58
		c0-0.31,0.26-0.56,0.57-0.56c0,0,0,0,0.01,0l4.76,0.06c0.31,0,0.57,0.26,0.56,0.58l-0.04,2.91
		C539.3,864.62,539.05,864.87,538.73,864.87z"/>
	<path class="st1" d="M533.99,864.06C533.98,864.06,533.98,864.06,533.99,864.06l-4.62-0.06c-0.15,0-0.3-0.06-0.4-0.17
		c-0.11-0.11-0.16-0.25-0.16-0.4l0.12-9.08c0-0.31,0.28-0.61,0.58-0.56c0.31,0,0.57,0.26,0.56,0.58l-0.11,8.51l3.47,0.04l0.11-8.51
		c0-0.31,0.26-0.56,0.57-0.56c0,0,0,0,0.01,0c0.31,0,0.57,0.26,0.56,0.58l-0.12,9.08C534.55,863.81,534.3,864.06,533.99,864.06z"/>
	<path class="st1" d="M564.16,870.45C564.16,870.45,564.15,870.45,564.16,870.45l-64.55-0.82c-0.31,0-0.57-0.26-0.56-0.58
		l0.55-43.03c0-0.31,0.26-0.56,0.57-0.56c0,0,0,0,0.01,0l64.55,0.82c0.31,0,0.57,0.26,0.56,0.58l-0.55,43.03
		C564.72,870.2,564.47,870.45,564.16,870.45z M500.19,868.5l63.41,0.81l0.53-41.89l-63.41-0.81L500.19,868.5z"/>
	<path class="st1" d="M646.31,860.09c-0.02,0-0.04,0-0.06,0c-1.09-0.01-2.12-0.45-2.88-1.24c-0.76-0.78-1.18-1.82-1.16-2.91l0,0
		c0.01-1.1,0.45-2.12,1.24-2.88c0.78-0.76,1.84-1.17,2.91-1.16c2.26,0.03,4.08,1.89,4.05,4.15c-0.01,1.09-0.45,2.12-1.24,2.88
		C648.4,859.67,647.39,860.09,646.31,860.09z M646.31,853.03c-0.78,0-1.51,0.3-2.07,0.84c-0.57,0.55-0.88,1.29-0.89,2.08
		c0,0,0,0,0,0c-0.01,0.79,0.29,1.54,0.84,2.1s1.29,0.88,2.08,0.89c0.77,0.02,1.54-0.29,2.11-0.84s0.88-1.29,0.89-2.08
		c0.02-1.63-1.29-2.98-2.92-3C646.34,853.03,646.32,853.03,646.31,853.03z M642.78,855.94L642.78,855.94L642.78,855.94z"/>
	<path class="st1" d="M655.87,866.58C655.86,866.58,655.86,866.58,655.87,866.58l-70.6-0.9c-0.31,0-0.57-0.26-0.56-0.58l0.9-70.6
		c0-0.15,0.06-0.3,0.17-0.4c0.11-0.11,0.28-0.14,0.4-0.16l70.6,0.9c0.15,0,0.3,0.06,0.4,0.17c0.11,0.11,0.16,0.25,0.16,0.4
		l-0.9,70.6C656.43,866.33,656.18,866.58,655.87,866.58z M585.84,864.55l69.46,0.89l0.89-69.46l-69.46-0.89L585.84,864.55z"/>
	<path class="st1" d="M660.84,871.69C660.84,871.69,660.84,871.69,660.84,871.69l-80.69-1.03c-0.31,0-0.57-0.26-0.56-0.58
		l1.03-80.68c0-0.32,0.3-0.56,0.58-0.56l80.68,1.03c0.31,0,0.57,0.26,0.56,0.58l-1.03,80.68c0,0.15-0.06,0.3-0.17,0.4
		C661.13,871.63,660.99,871.69,660.84,871.69z M580.74,869.53l79.55,1.01l1.01-79.55l-79.55-1.01L580.74,869.53z"/>
	<path class="st1" d="M525.49,632.9C525.49,632.9,525.49,632.9,525.49,632.9l-64.56-0.73c-0.31,0-0.57-0.26-0.56-0.58l0.73-64.56
		c0-0.15,0.06-0.29,0.17-0.4c0.11-0.1,0.25-0.16,0.4-0.16c0,0,0,0,0.01,0l64.55,0.73c0.31,0,0.57,0.26,0.56,0.58l-0.73,64.55
		C526.06,632.65,525.8,632.9,525.49,632.9z M461.51,631.03l63.42,0.72l0.72-63.42l-63.42-0.72L461.51,631.03z"/>
	<path class="st1" d="M526.04,584.48C526.04,584.48,526.04,584.48,526.04,584.48l-64.56-0.73c-0.31,0-0.57-0.26-0.56-0.58
		l0.18-16.14c0-0.31,0.26-0.56,0.57-0.56c0,0,0,0,0.01,0l64.55,0.73c0.31,0,0.57,0.26,0.56,0.58l-0.18,16.14
		C526.61,584.23,526.35,584.48,526.04,584.48z M462.06,582.62l63.42,0.72l0.17-15l-63.42-0.72L462.06,582.62z"/>
	<path class="st1" d="M518.06,580.09c-0.02,0-0.03,0-0.05,0c-2.39-0.03-4.31-1.99-4.29-4.38c0.03-2.37,1.97-4.29,4.33-4.29
		c0.02,0,0.03,0,0.05,0c1.16,0.01,2.24,0.48,3.05,1.3s1.25,1.92,1.23,3.08c-0.01,1.16-0.48,2.24-1.3,3.05
		C520.28,579.65,519.2,580.09,518.06,580.09z M518.06,572.56c-1.75,0-3.18,1.41-3.2,3.16c-0.01,0.85,0.31,1.66,0.91,2.27
		c0.6,0.61,1.4,0.95,2.25,0.96c0.88,0,1.66-0.31,2.27-0.91c0.61-0.6,0.95-1.4,0.96-2.25l0,0c0.01-0.85-0.31-1.66-0.91-2.27
		s-1.4-0.95-2.25-0.96C518.09,572.56,518.07,572.56,518.06,572.56z"/>
	<path class="st1" d="M464.74,581.63C464.74,581.63,464.73,581.63,464.74,581.63c-0.32,0-0.57-0.26-0.57-0.58l0.12-10.76
		c0-0.15,0.06-0.29,0.17-0.4c0.11-0.1,0.22-0.16,0.41-0.16l49.49,0.56c0.31,0,0.57,0.26,0.56,0.58c0,0.31-0.26,0.56-0.57,0.56
		c0,0,0,0-0.01,0l-48.92-0.56l-0.12,10.19C465.3,581.38,465.05,581.63,464.74,581.63z"/>
	<path class="st1" d="M513.69,629.54C513.69,629.54,513.69,629.54,513.69,629.54l-49.5-0.56c-0.15,0-0.29-0.06-0.4-0.17
		c-0.11-0.11-0.16-0.25-0.16-0.41l0.49-43.04c0-0.31,0.26-0.56,0.57-0.56c0,0,0,0,0.01,0c0.31,0,0.57,0.26,0.56,0.58l-0.48,42.47
		l48.92,0.56c0.31,0,0.57,0.26,0.56,0.58C514.26,629.29,514,629.54,513.69,629.54z"/>
	<path class="st1" d="M517.88,596.23c-0.02,0-0.03,0-0.05,0c-2.39-0.03-4.31-1.99-4.29-4.38c0.03-2.39,1.99-4.35,4.38-4.29
		c2.39,0.03,4.31,1.99,4.29,4.38l0,0C522.19,594.31,520.25,596.23,517.88,596.23z M517.88,588.69c-1.75,0-3.18,1.41-3.2,3.16
		c-0.01,0.85,0.31,1.66,0.91,2.27c0.6,0.61,1.4,0.95,2.25,0.96c1.79,0.03,3.21-1.4,3.23-3.16l0,0c0.02-1.76-1.4-3.21-3.16-3.23
		C517.9,588.69,517.89,588.69,517.88,588.69z M521.65,591.93L521.65,591.93L521.65,591.93z"/>
	<path class="st1" d="M491.15,622.54C491.14,622.54,491.14,622.54,491.15,622.54c-0.32,0-0.57-0.26-0.57-0.58l0.35-30.88
		c0-0.31,0.26-0.56,0.57-0.56c0,0,0,0,0.01,0c0.31,0,0.57,0.26,0.56,0.58l-0.35,30.88C491.71,622.29,491.46,622.54,491.15,622.54z"
		/>
	<path class="st1" d="M506.76,607.27C506.76,607.27,506.76,607.27,506.76,607.27l-30.89-0.35c-0.31,0-0.57-0.26-0.56-0.58
		c0-0.31,0.26-0.56,0.57-0.56c0,0,0,0,0.01,0l30.89,0.35c0.31,0,0.57,0.26,0.56,0.58C507.33,607.02,507.08,607.27,506.76,607.27z"/>
	<path class="st1" d="M500.51,616.5c-0.15,0-0.3-0.06-0.41-0.17l-18.39-18.81c-0.22-0.23-0.22-0.59,0.01-0.81
		c0.22-0.22,0.58-0.22,0.81,0.01l18.39,18.81c0.22,0.23,0.22,0.59-0.01,0.81C500.8,616.45,500.66,616.5,500.51,616.5z"/>
	<path class="st1" d="M481.92,616.29c-0.15,0-0.3-0.06-0.41-0.17c-0.22-0.23-0.22-0.59,0.01-0.81l18.81-18.39
		c0.22-0.22,0.58-0.22,0.81,0.01c0.22,0.23,0.22,0.59-0.01,0.81l-18.81,18.39C482.21,616.24,482.06,616.29,481.92,616.29z"/>
	<path class="st1" d="M491.44,596.45c-0.15,0-0.3-0.06-0.41-0.17l-4.54-4.65c-0.22-0.23-0.22-0.59,0.01-0.81
		c0.22-0.22,0.58-0.22,0.81,0.01l4.14,4.24l4.24-4.14c0.22-0.22,0.58-0.22,0.81,0.01c0.22,0.23,0.22,0.59-0.01,0.81l-4.65,4.54
		C491.73,596.39,491.59,596.45,491.44,596.45z"/>
	<path class="st1" d="M495.74,622.39c-0.15,0-0.3-0.06-0.41-0.17l-4.14-4.24l-4.24,4.14c-0.23,0.22-0.59,0.21-0.81-0.01
		c-0.22-0.23-0.22-0.59,0.01-0.81l4.65-4.54c0.22-0.22,0.58-0.21,0.81,0.01l4.54,4.65c0.22,0.23,0.22,0.59-0.01,0.81
		C496.03,622.34,495.89,622.39,495.74,622.39z"/>
	<path class="st1" d="M476.02,611.52c-0.15,0-0.3-0.06-0.41-0.17c-0.22-0.23-0.22-0.59,0.01-0.81l4.24-4.14l-4.14-4.24
		c-0.22-0.23-0.22-0.59,0.01-0.81s0.58-0.21,0.81,0.01l4.54,4.65c0.22,0.23,0.22,0.59-0.01,0.81l-4.65,4.54
		C476.31,611.46,476.17,611.52,476.02,611.52z"/>
	<path class="st1" d="M506.51,611.86c-0.15,0-0.3-0.06-0.41-0.17l-4.54-4.65c-0.22-0.23-0.22-0.59,0.01-0.81l4.65-4.54
		c0.22-0.22,0.58-0.21,0.81,0.01c0.22,0.23,0.22,0.59-0.01,0.81l-4.24,4.14l4.14,4.24c0.22,0.23,0.22,0.59-0.01,0.81
		C506.8,611.81,506.66,611.86,506.51,611.86z"/>
	<path class="st1" d="M503.14,601.32C503.13,601.32,503.13,601.32,503.14,601.32l-5.84-0.07c-0.15,0-0.29-0.06-0.4-0.17
		c-0.11-0.11-0.16-0.25-0.16-0.41l0.07-5.84c0-0.31,0.26-0.56,0.57-0.56c0,0,0,0,0.01,0c0.31,0,0.57,0.26,0.56,0.58l-0.06,5.27
		l5.27,0.06c0.31,0,0.57,0.26,0.56,0.58C503.7,601.07,503.45,601.32,503.14,601.32z"/>
	<path class="st1" d="M485.48,601.12C485.48,601.12,485.47,601.12,485.48,601.12l-5.84-0.07c-0.31,0-0.57-0.26-0.56-0.58
		c0-0.31,0.26-0.56,0.57-0.56c0,0,0,0,0.01,0l5.27,0.06l0.06-5.27c0-0.31,0.26-0.56,0.57-0.56c0,0,0,0,0.01,0
		c0.31,0,0.57,0.26,0.56,0.58l-0.07,5.84C486.04,600.87,485.79,601.12,485.48,601.12z"/>
	<path class="st1" d="M497.1,618.91C497.1,618.91,497.09,618.91,497.1,618.91c-0.32,0-0.57-0.26-0.57-0.58l0.07-5.84
		c0-0.31,0.26-0.56,0.57-0.56c0,0,0,0,0.01,0l5.84,0.07c0.31,0,0.57,0.26,0.56,0.58c0,0.31-0.26,0.56-0.57,0.56c0,0,0,0-0.01,0
		l-5.27-0.06l-0.06,5.27C497.66,618.66,497.41,618.91,497.1,618.91z"/>
	<path class="st1" d="M485.28,618.78C485.28,618.78,485.27,618.78,485.28,618.78c-0.32,0-0.57-0.26-0.57-0.58l0.06-5.27l-5.27-0.06
		c-0.31,0-0.57-0.26-0.56-0.58c0-0.31,0.26-0.56,0.57-0.56c0,0,0,0,0.01,0l5.84,0.07c0.31,0,0.57,0.26,0.56,0.58l-0.07,5.84
		C485.84,618.53,485.59,618.78,485.28,618.78z"/>
	<path class="st1" d="M468.52,723.67C468.51,723.67,468.51,723.67,468.52,723.67c-0.32,0-0.57-0.26-0.57-0.58l0.56-48.41
		c0-0.31,0.26-0.56,0.57-0.56c0,0,0,0,0.01,0c0.31,0,0.57,0.26,0.56,0.58l-0.56,48.41C469.08,723.42,468.83,723.67,468.52,723.67z"
		/>
	<path class="st1" d="M533.06,724.41C533.06,724.41,533.06,724.41,533.06,724.41c-0.32,0-0.57-0.26-0.57-0.58l0.56-48.41
		c0-0.31,0.26-0.56,0.57-0.56c0,0,0,0,0.01,0c0.31,0,0.57,0.26,0.56,0.58l-0.56,48.41C533.63,724.16,533.38,724.41,533.06,724.41z"
		/>
	<path class="st1" d="M533.06,724.41C533.06,724.41,533.06,724.41,533.06,724.41l-64.55-0.75c-0.31,0-0.57-0.26-0.56-0.58
		c0-0.31,0.26-0.56,0.57-0.56c0,0,0,0,0.01,0l64.55,0.75c0.31,0,0.57,0.26,0.56,0.58C533.63,724.16,533.38,724.41,533.06,724.41z"/>
	<path class="st1" d="M533.62,676C533.62,676,533.62,676,533.62,676l-64.55-0.75c-0.31,0-0.57-0.26-0.56-0.58
		c0-0.31,0.26-0.56,0.57-0.56c0,0,0,0,0.01,0l64.55,0.75c0.31,0,0.57,0.26,0.56,0.58C534.19,675.75,533.94,676,533.62,676z"/>
	<path class="st1" d="M495.75,716.26c-0.15,0-0.3-0.06-0.41-0.17c-0.22-0.22-0.22-0.58,0.01-0.8l17.58-17.17
		c0.22-0.22,0.58-0.22,0.8,0.01c0.22,0.22,0.22,0.58-0.01,0.8l-17.58,17.17C496.04,716.21,495.9,716.26,495.75,716.26z"/>
	<path class="st1" d="M492.11,700.53c-0.15,0-0.3-0.06-0.41-0.17c-0.22-0.22-0.22-0.58,0.01-0.8l9.92-9.7
		c0.22-0.22,0.58-0.22,0.8,0.01c0.22,0.22,0.22,0.58-0.01,0.8l-9.92,9.7C492.4,700.48,492.25,700.53,492.11,700.53z"/>
	<path class="st1" d="M491.94,713.76c-0.15,0-0.3-0.06-0.41-0.17c-0.22-0.22-0.22-0.58,0.01-0.8l14.3-13.97
		c0.22-0.22,0.58-0.22,0.8,0.01c0.22,0.22,0.22,0.58-0.01,0.8l-14.3,13.97C492.22,713.7,492.08,713.76,491.94,713.76z"/>
	<path class="st1" d="M501.63,717.34c-0.15,0-0.3-0.06-0.41-0.17c-0.22-0.22-0.22-0.58,0.01-0.8l11.04-10.78
		c0.22-0.22,0.58-0.22,0.8,0.01c0.22,0.22,0.22,0.58-0.01,0.8l-11.04,10.78C501.92,717.29,501.77,717.34,501.63,717.34z"/>
	<path class="st1" d="M492.01,710.17c-0.15,0-0.3-0.06-0.41-0.17c-0.22-0.22-0.22-0.58,0.01-0.8l17.05-16.66
		c0.22-0.22,0.58-0.22,0.8,0.01c0.22,0.22,0.22,0.58-0.01,0.8l-17.05,16.66C492.3,710.12,492.16,710.17,492.01,710.17z"/>
	<path class="st1" d="M501.02,717.35c-0.05,0-0.11,0-0.16,0c-3.7-0.04-7.16-1.52-9.74-4.17c-2.58-2.65-3.99-6.14-3.94-9.84
		c0.09-7.58,6.28-13.69,13.84-13.69c0.05,0,0.11,0,0.16,0c7.63,0.09,13.77,6.37,13.69,14.01
		C514.78,711.25,508.58,717.35,501.02,717.35z M501.02,690.8c-3.34,0-6.49,1.28-8.88,3.62c-2.43,2.37-3.79,5.55-3.83,8.94
		c-0.04,3.39,1.25,6.6,3.62,9.03c2.37,2.43,5.55,3.79,8.94,3.83c0.05,0,0.1,0,0.15,0c3.34,0,6.49-1.28,8.88-3.62
		c2.43-2.37,3.79-5.55,3.83-8.94c0.08-7.01-5.55-12.77-12.56-12.86C501.12,690.8,501.07,690.8,501.02,690.8z"/>
	<path class="st1" d="M501.03,721.68c-0.07,0-0.14,0-0.22,0c-4.85-0.06-9.4-2-12.79-5.47c-3.39-3.47-5.23-8.06-5.17-12.91
		c0.06-4.85,2-9.4,5.47-12.79c3.42-3.34,7.92-5.17,12.7-5.17c0.07,0,0.14,0,0.22,0c4.85,0.06,9.4,2,12.79,5.47
		c3.39,3.47,5.23,8.06,5.17,12.91c-0.06,4.85-2,9.4-5.47,12.79C510.3,719.85,505.8,721.68,501.03,721.68z M501.01,686.47
		c-4.47,0-8.69,1.72-11.9,4.85c-3.25,3.18-5.08,7.44-5.13,11.99c-0.11,9.39,7.44,17.12,16.84,17.23c4.54,0.06,8.85-1.67,12.1-4.85
		c3.26-3.18,5.08-7.44,5.13-11.99c0.05-4.55-1.67-8.85-4.85-12.1c-3.18-3.26-7.44-5.08-11.99-5.13l0,0
		C501.15,686.47,501.08,686.47,501.01,686.47z"/>
	<path class="st1" d="M510.42,682.84c-0.01,0-0.02,0-0.04,0c-0.83-0.01-1.6-0.34-2.18-0.93c-0.58-0.59-0.89-1.37-0.88-2.2
		c0-0.31,0.24-0.58,0.58-0.56c0.31,0,0.57,0.26,0.56,0.58c-0.01,0.52,0.19,1.02,0.56,1.39c0.37,0.37,0.86,0.58,1.38,0.59
		c0.01,0,0.01,0,0.02,0c1.07,0,1.95-0.86,1.96-1.94c0-0.31,0.26-0.56,0.57-0.56c0,0,0,0,0.01,0c0.31,0,0.57,0.26,0.56,0.58
		C513.5,681.47,512.12,682.84,510.42,682.84z"/>
	<path class="st1" d="M512.95,680.34C512.95,680.34,512.95,680.34,512.95,680.34c-0.32,0-0.57-0.26-0.57-0.58
		c0.01-1.08-0.86-1.97-1.94-1.98c-0.55,0-1.02,0.19-1.39,0.56c-0.37,0.37-0.58,0.86-0.59,1.38c0,0.31-0.26,0.56-0.57,0.56
		c0,0,0,0-0.01,0c-0.31,0-0.57-0.26-0.56-0.58c0.01-0.83,0.34-1.6,0.93-2.18s1.4-0.86,2.2-0.88c1.71,0.02,3.08,1.43,3.06,3.13
		C513.52,680.09,513.26,680.34,512.95,680.34z"/>
	<path class="st1" d="M517.67,682.92c-0.01,0-0.02,0-0.04,0c-0.83-0.01-1.6-0.34-2.18-0.93s-0.89-1.37-0.88-2.2
		c0-0.31,0.26-0.56,0.57-0.56c0,0,0,0,0.01,0c0.31,0,0.57,0.26,0.56,0.58c-0.01,1.08,0.86,1.97,1.94,1.98
		c0.49-0.02,1.02-0.19,1.39-0.56c0.38-0.37,0.58-0.86,0.59-1.38c0-0.31,0.26-0.56,0.57-0.56c0,0,0,0,0.01,0
		c0.31,0,0.57,0.26,0.56,0.58C520.74,681.56,519.36,682.92,517.67,682.92z"/>
	<path class="st1" d="M520.19,680.43C520.19,680.43,520.19,680.43,520.19,680.43c-0.32,0-0.57-0.26-0.57-0.58
		c0.01-0.52-0.19-1.02-0.56-1.39c-0.37-0.37-0.86-0.58-1.38-0.59c-0.54-0.02-1.02,0.19-1.39,0.56c-0.38,0.37-0.58,0.86-0.59,1.38
		c0,0.31-0.26,0.56-0.57,0.56c0,0,0,0-0.01,0c-0.31,0-0.57-0.26-0.56-0.58c0.01-0.83,0.34-1.6,0.93-2.18s1.38-0.88,2.2-0.88
		c0.83,0.01,1.6,0.34,2.18,0.93s0.89,1.37,0.88,2.2C520.76,680.18,520.5,680.43,520.19,680.43z"/>
	<path class="st1" d="M524.91,683.01c-0.01,0-0.02,0-0.04,0c-1.71-0.02-3.08-1.43-3.06-3.13c0-0.31,0.26-0.56,0.57-0.56
		c0,0,0,0,0.01,0c0.31,0,0.57,0.26,0.56,0.58c-0.01,1.08,0.86,1.97,1.94,1.98c0.01,0,0.01,0,0.02,0c1.07,0,1.95-0.86,1.96-1.94
		c0-0.31,0.26-0.56,0.57-0.56c0,0,0,0,0.01,0c0.31,0,0.57,0.26,0.56,0.58C527.98,681.64,526.6,683.01,524.91,683.01z"/>
	<path class="st1" d="M527.43,680.51C527.43,680.51,527.43,680.51,527.43,680.51c-0.32,0-0.57-0.26-0.57-0.58
		c0.01-1.08-0.86-1.97-1.94-1.98c-0.53,0.02-1.02,0.19-1.39,0.56c-0.37,0.37-0.58,0.86-0.59,1.38c0,0.31-0.26,0.56-0.57,0.56
		c0,0,0,0-0.01,0c-0.31,0-0.57-0.26-0.56-0.58c0.01-0.83,0.34-1.6,0.93-2.18s1.41-0.9,2.2-0.88c1.71,0.02,3.08,1.43,3.06,3.13
		C528,680.26,527.75,680.51,527.43,680.51z"/>
	<path class="st1" d="M533.52,685.27C533.52,685.27,533.51,685.27,533.52,685.27l-64.55-0.75c-0.31,0-0.57-0.26-0.56-0.58
		c0-0.31,0.26-0.56,0.57-0.56c0,0,0,0,0.01,0l64.55,0.75c0.31,0,0.57,0.26,0.56,0.58C534.08,685.02,533.83,685.27,533.52,685.27z"/>
	<path class="st1" d="M473.5,681.58c-0.01,0-0.02,0-0.03,0c-0.61-0.01-1.17-0.25-1.59-0.68s-0.65-1-0.64-1.61
		c0.01-0.61,0.25-1.17,0.68-1.59c0.43-0.42,1-0.64,1.61-0.64l0,0c1.25,0.01,2.25,1.04,2.24,2.29
		C475.75,680.58,474.73,681.58,473.5,681.58z M473.5,678.19c-0.3,0-0.57,0.11-0.79,0.32c-0.22,0.21-0.34,0.49-0.34,0.79
		c0,0.3,0.11,0.59,0.32,0.8c0.21,0.22,0.49,0.34,0.79,0.34c0.58-0.02,1.13-0.49,1.14-1.11c0.01-0.62-0.49-1.13-1.11-1.14l0,0
		C473.5,678.19,473.5,678.19,473.5,678.19z"/>
	<g>
		<polygon class="st1" points="381.06,26.71 381.06,27.19 380.05,27.18 375.43,27.14 375.43,27.81 375.45,36.35 375.45,37.49 
			375.49,53.46 375.49,54.04 374.64,54.04 319.46,54.29 326.33,868.72 342.5,868.62 342.51,879.76 342.52,887.99 342.03,887.99 
			307.11,888.24 306.63,830.14 306.6,830.14 299.8,10.34 374.98,10.03 380.97,10 380.97,10.63 		"/>
		<path class="st1" d="M693.5,13.22l-68.43-1.28L619,11.83l-0.01,0.63l-0.26,16.08v0.07l-0.01,0.44l0.84,0.01l4.8,0.08l-0.01,0.58
			l-0.15,8.54l-0.02,1.14l-0.29,15.97l-0.01,0.6l0.85,0.02l55.06,1.14l-13.45,577.41l-76.32-1.49l-3.29-0.06l0.01,0.03l-125.82-1.43
			l-0.3,43.02l-0.46,63.99v0.61l8.07,0.08h0.38l0.46-64.61l120.49,1.33l0.05-5.22l0.32-29.2l0.02,0.07l76.18,1.5l-5.3,227.96
			l-192.99-2.47l0.31-54.06l-0.51-0.01l-8.1-0.1v0.57l-0.34,53.49l-9.03-0.11l-0.05,11.24l-0.04,8.1l0.66,0.01l228.86,3.15
			l20.6-877.54L693.5,13.22z M476.99,669.44l-11.08-0.12l0.35-32.29l10.74,0.1L476.99,669.44z M568.12,670.39l-86.06-0.9v-0.42
			l0.34-31.87l86.07,0.94L568.12,670.39z M584.26,670.57l-10.77-0.1l0.35-32.3l10.74,0.14L584.26,670.57z"/>
	</g>
	<g>
		<path class="st1" d="M386.59,321.27v0.64h-4.37l-6.19-13.03h-3.28v13.03h-4.24v-29.88h4.24v13.03h3.28l6.1-13.03h4.28v0.64
			l-6.79,14.26L386.59,321.27z"/>
		<path class="st1" d="M406.09,299.32v0.59l-8.11,24.87c-0.58,1.79-1.36,3.05-2.35,3.78c-0.99,0.73-2.39,1.09-4.21,1.09h-2.5v-3.73
			h2.14c0.88,0,1.53-0.17,1.96-0.5c0.42-0.33,0.77-0.97,1.05-1.91l0.5-1.73l-7.51-21.86v-0.59h4.28l5.37,16.71l5.1-16.71H406.09z"/>
		<path class="st1" d="M425.81,321.32v0.59h-4.24l-4.51-7.92l-4.51,7.92h-4.19v-0.59l6.19-10.79l-6.06-10.61v-0.59h4.24l4.37,7.7
			l4.33-7.7h4.24v0.59l-6.06,10.61L425.81,321.32z"/>
		<path class="st1" d="M433.69,299.32v9.38h7.88v-9.38h4.1v22.59h-4.1v-9.43h-7.88v9.43h-4.1v-22.59H433.69z"/>
		<path class="st1" d="M466.07,321.91h-4.1v-8.11h-2.55l-5.69,8.11h-4.33v-0.55l5.6-7.83c-1.7-0.36-3.02-1.11-3.96-2.23
			c-0.94-1.12-1.41-2.54-1.41-4.24v-0.91c0-2.12,0.71-3.79,2.12-5.01c1.41-1.21,3.35-1.82,5.81-1.82h8.52V321.91z M461.97,310.34
			v-7.42h-4.05c-1.31,0-2.34,0.3-3.1,0.89c-0.76,0.59-1.14,1.37-1.14,2.35v0.87c0,1.03,0.38,1.84,1.14,2.44
			c0.76,0.59,1.79,0.89,3.1,0.89H461.97z"/>
		<path class="st1" d="M481.14,307.42v3.73h-9.79v-3.73H481.14z"/>
		<path class="st1" d="M498.45,299.32v3.69h-7.88v18.9h-4.1v-22.59H498.45z"/>
		<path class="st1" d="M502.53,320.5c-1.44-1.31-2.16-3.17-2.16-5.6v-8.52c0-2.46,0.72-4.34,2.16-5.65
			c1.44-1.31,3.38-1.96,5.81-1.96c2.43,0,4.37,0.65,5.81,1.96c1.44,1.31,2.16,3.19,2.16,5.65v8.52c0,2.43-0.72,4.3-2.16,5.6
			c-1.44,1.31-3.38,1.96-5.81,1.96C505.91,322.45,503.97,321.8,502.53,320.5z M511.14,317.56c0.71-0.68,1.07-1.63,1.07-2.85v-8.2
			c0-1.24-0.36-2.21-1.07-2.89c-0.71-0.68-1.65-1.02-2.8-1.02s-2.09,0.34-2.8,1.02c-0.71,0.68-1.07,1.65-1.07,2.89v8.2
			c0,1.21,0.36,2.16,1.07,2.85c0.71,0.68,1.65,1.02,2.8,1.02S510.42,318.24,511.14,317.56z"/>
		<path class="st1" d="M522.79,320.45c-1.41-1.34-2.12-3.19-2.12-5.56v-8.52c0-2.4,0.7-4.27,2.09-5.6c1.4-1.34,3.35-2,5.88-2
			c2.49,0,4.43,0.67,5.83,2c1.4,1.34,2.09,3.2,2.09,5.6v1.91h-4.1v-1.78c0-1.18-0.34-2.13-1.02-2.85c-0.68-0.71-1.62-1.07-2.8-1.07
			c-1.18,0-2.12,0.36-2.82,1.07c-0.7,0.71-1.05,1.66-1.05,2.85v8.2c0,1.15,0.35,2.09,1.05,2.8c0.7,0.71,1.64,1.07,2.82,1.07
			c1.18,0,2.12-0.35,2.8-1.05c0.68-0.7,1.02-1.64,1.02-2.82v-1.64h4.1v1.82c0,2.37-0.7,4.22-2.09,5.56c-1.4,1.34-3.34,2-5.83,2
			S524.21,321.79,522.79,320.45z"/>
		<path class="st1" d="M538.49,303.01v-3.69h16.72v3.69h-6.29v18.9h-4.1v-18.9H538.49z"/>
		<path class="st1" d="M562.17,299.32v15.21l8.06-15.21h3.83v22.59h-3.92v-15.26l-8.11,15.26h-3.78v-22.59H562.17z"/>
		<path class="st1" d="M583.35,299.32v9.38h7.88v-9.38h4.1v22.59h-4.1v-9.43h-7.88v9.43h-4.1v-22.59H583.35z"/>
		<path class="st1" d="M618.33,318.17v3.73h-2.14c-2,0-3.45-0.61-4.33-1.82c-1.31,1.58-3.22,2.37-5.74,2.37
			c-2.1,0-3.76-0.58-4.99-1.73c-1.23-1.15-1.84-2.72-1.84-4.69c0-1.88,0.58-3.37,1.75-4.46c1.17-1.09,2.97-1.85,5.4-2.28l4.51-0.77
			v-2.19c0-1.21-0.31-2.15-0.93-2.8c-0.62-0.65-1.53-0.98-2.71-0.98c-1.28,0-2.23,0.34-2.87,1.02s-0.96,1.66-0.96,2.94v0.46h-4.05
			v-0.46c0-2.52,0.67-4.44,2-5.76c1.34-1.32,3.25-1.98,5.74-1.98c2.55,0,4.49,0.66,5.81,1.98c1.32,1.32,1.98,3.26,1.98,5.81v9.43
			c0,1.46,0.65,2.19,1.96,2.19H618.33z M609.15,318.2c0.8-0.5,1.4-1.18,1.8-2.03v-4.28l-3.6,0.59c-2.7,0.46-4.05,1.61-4.05,3.46
			c0,0.94,0.29,1.68,0.87,2.21c0.58,0.53,1.37,0.8,2.37,0.8C607.47,318.95,608.34,318.7,609.15,318.2z"/>
		<path class="st1" d="M636.77,321.91h-4.1v-8.11h-2.55l-5.69,8.11h-4.33v-0.55l5.6-7.83c-1.7-0.36-3.02-1.11-3.96-2.23
			c-0.94-1.12-1.41-2.54-1.41-4.24v-0.91c0-2.12,0.71-3.79,2.12-5.01c1.41-1.21,3.35-1.82,5.81-1.82h8.52V321.91z M632.67,310.34
			v-7.42h-4.05c-1.31,0-2.34,0.3-3.1,0.89c-0.76,0.59-1.14,1.37-1.14,2.35v0.87c0,1.03,0.38,1.84,1.14,2.44
			c0.76,0.59,1.79,0.89,3.1,0.89H632.67z"/>
		<path class="st1" d="M483.81,376.56h-4.24v-23.55c-1,0.4-2.03,0.59-3.1,0.59h-2.78v-3.87h2.73c1,0,1.78-0.27,2.32-0.8
			c0.55-0.53,0.82-1.28,0.82-2.25h4.24V376.56z"/>
		<path class="st1" d="M503.12,346.69v3.87c-2.09,4.34-3.76,8.76-4.99,13.25c-1.23,4.49-1.84,8.38-1.84,11.66v1.09h-4.14v-1.09
			c0-3.31,0.61-7.17,1.84-11.59c1.23-4.42,2.94-8.86,5.12-13.32h-11.43v-3.87H503.12z"/>
		<path class="st1" d="M508.36,371.01v0.59l-3.28,11.02h-3.74l2.37-11.61H508.36z"/>
		<path class="st1" d="M528.72,359.64c1.37,1.32,2.05,3.14,2.05,5.44v4.1c0,2.52-0.72,4.47-2.16,5.85
			c-1.44,1.38-3.48,2.07-6.13,2.07c-2.67,0-4.71-0.68-6.13-2.05c-1.41-1.37-2.12-3.34-2.12-5.92v-0.46h4.1v0.46
			c0,1.34,0.36,2.35,1.07,3.05c0.71,0.7,1.72,1.05,3.03,1.05c1.33,0,2.37-0.36,3.1-1.09c0.73-0.73,1.09-1.76,1.09-3.1v-3.23
			c0-1.37-0.37-2.44-1.12-3.21c-0.75-0.77-1.77-1.16-3.07-1.16c-1.09,0-1.98,0.3-2.67,0.91c-0.68,0.61-1.07,1.44-1.16,2.5h-4.19
			l0.91-18.17h14.48v3.87h-10.75l-0.36,8.11c1.25-0.67,2.69-1,4.33-1C525.45,357.66,527.35,358.32,528.72,359.64z"/>
	</g>
	<g>
		<path class="st1" d="M364.29,753.56v3.87h-15.9v-3.87l6.15-7.74c1.91-2.43,3.23-4.36,3.94-5.81c0.71-1.44,1.07-2.94,1.07-4.49
			v-0.46c0-1.34-0.33-2.37-1-3.1s-1.59-1.09-2.78-1.09c-1.25,0-2.19,0.36-2.82,1.09s-0.96,1.78-0.96,3.14v1.23h-4.14v-1.23
			c0-2.58,0.69-4.58,2.07-5.99c1.38-1.41,3.35-2.12,5.9-2.12c2.49,0,4.42,0.7,5.81,2.09c1.38,1.4,2.07,3.34,2.07,5.83v0.46
			c0,1.94-0.42,3.83-1.27,5.65c-0.85,1.82-2.41,4.14-4.69,6.97l-4.46,5.56H364.29z"/>
		<path class="st1" d="M375.36,751.88v0.59l-3.28,11.02h-3.74l2.37-11.61H375.36z"/>
		<path class="st1" d="M390.8,727.56v3.87c-2.09,4.34-3.76,8.76-4.99,13.25c-1.23,4.49-1.84,8.38-1.84,11.66v1.09h-4.14v-1.09
			c0-3.31,0.61-7.17,1.84-11.59c1.23-4.42,2.94-8.86,5.12-13.32h-11.43v-3.87H390.8z"/>
		<path class="st1" d="M407.24,735.53v-0.46c0-1.34-0.36-2.38-1.09-3.12c-0.73-0.74-1.76-1.12-3.1-1.12c-1.37,0-2.43,0.37-3.19,1.12
			s-1.14,1.75-1.14,3.03v5.19c1.31-0.94,2.88-1.41,4.74-1.41c2.4,0,4.33,0.67,5.81,2c1.47,1.34,2.21,3.14,2.21,5.42v3.78
			c0,2.52-0.74,4.49-2.23,5.9c-1.49,1.41-3.55,2.12-6.19,2.12s-4.72-0.73-6.24-2.19c-1.52-1.46-2.28-3.43-2.28-5.92v-14.76
			c0-2.49,0.76-4.46,2.28-5.92c1.52-1.46,3.6-2.19,6.24-2.19c2.67,0,4.74,0.71,6.22,2.12c1.47,1.41,2.21,3.39,2.21,5.94v0.46H407.24
			z M400.48,743.18c-0.74,0.4-1.33,0.94-1.75,1.64v5.01c0,1.34,0.39,2.39,1.16,3.17c0.77,0.77,1.83,1.16,3.17,1.16
			c1.3,0,2.33-0.39,3.07-1.16s1.12-1.83,1.12-3.17v-3.19c0-1.21-0.39-2.19-1.16-2.94c-0.77-0.74-1.8-1.12-3.07-1.12
			C402.06,742.59,401.22,742.78,400.48,743.18z"/>
	</g>
	<g>
		<path class="st1" d="M514.52,763.8c1.26,1.26,1.89,2.92,1.89,4.99v3.87c0,2.31-0.76,4.18-2.28,5.6c-1.52,1.43-3.51,2.14-5.97,2.14
			c-2.55,0-4.56-0.7-6.04-2.1c-1.47-1.4-2.21-3.31-2.21-5.74v-1.28h4.14v1.18c0,1.25,0.37,2.23,1.12,2.96s1.72,1.09,2.94,1.09
			c1.25,0,2.24-0.39,2.98-1.16s1.12-1.81,1.12-3.12v-2.82c0-1.28-0.36-2.26-1.07-2.96c-0.71-0.7-1.81-1.05-3.3-1.05h-3.69v-3.33
			l7.06-8.24h-10.7v-3.87h15.71v3.87l-6.83,7.83C511.55,761.84,513.25,762.54,514.52,763.8z"/>
		<path class="st1" d="M526.84,774.3v0.59l-3.28,11.02h-3.74l2.37-11.61H526.84z"/>
		<path class="st1" d="M545.49,763.8c1.26,1.26,1.89,2.92,1.89,4.99v3.87c0,2.31-0.76,4.18-2.28,5.6c-1.52,1.43-3.51,2.14-5.97,2.14
			c-2.55,0-4.56-0.7-6.04-2.1c-1.47-1.4-2.21-3.31-2.21-5.74v-1.28h4.14v1.18c0,1.25,0.37,2.23,1.12,2.96s1.72,1.09,2.94,1.09
			c1.25,0,2.24-0.39,2.98-1.16s1.12-1.81,1.12-3.12v-2.82c0-1.28-0.36-2.26-1.07-2.96c-0.71-0.7-1.81-1.05-3.3-1.05h-3.69v-3.33
			l7.06-8.24h-10.7v-3.87h15.71v3.87l-6.83,7.83C542.52,761.84,544.23,762.54,545.49,763.8z"/>
		<path class="st1" d="M560.54,779.86h-4.24v-23.55c-1,0.4-2.03,0.59-3.1,0.59h-2.78v-3.87h2.73c1,0,1.78-0.27,2.32-0.8
			s0.82-1.28,0.82-2.25h4.24V779.86z"/>
	</g>
	<g>
		<rect x="365.86" y="216.48" class="st0" width="246.82" height="64.55"/>
		<path class="st1" d="M613.44,281.79l-248.34,0l0-66.07l248.34,0V281.79z M366.62,280.27l245.3,0v-63.03l-245.3,0L366.62,280.27z"
			/>
	</g>
	<rect x="366.1" y="216.48" class="st2" width="64.55" height="64.55"/>
	<g>
		<path class="st1" d="M486.55,262.24v6.44h-21.86v-6.5l8.26-10.32c2.27-2.83,3.83-5.11,4.68-6.83c0.85-1.72,1.28-3.49,1.28-5.31
			v-0.61c0-1.46-0.36-2.58-1.06-3.37c-0.71-0.79-1.71-1.18-3.01-1.18c-2.71,0-4.07,1.56-4.07,4.68v1.64h-6.92v-1.64
			c0-3.6,0.96-6.36,2.88-8.26c1.92-1.9,4.67-2.85,8.23-2.85c3.44,0,6.11,0.94,8.02,2.82c1.9,1.88,2.85,4.52,2.85,7.92v0.61
			c0,2.47-0.54,4.85-1.61,7.14c-1.07,2.29-3.07,5.25-5.98,8.9l-5.41,6.74H486.55z"/>
		<path class="st1" d="M510.14,247.27c1.52,1.68,2.28,3.84,2.28,6.47v5.04c0,3.2-1.05,5.77-3.16,7.71
			c-2.11,1.94-4.88,2.91-8.32,2.91c-3.6,0-6.42-0.96-8.44-2.88c-2.02-1.92-3.04-4.58-3.04-7.99v-1.82h6.92v1.7
			c0,1.42,0.4,2.53,1.21,3.34c0.81,0.81,1.9,1.21,3.28,1.21c1.42,0,2.53-0.43,3.34-1.31c0.81-0.87,1.21-2.07,1.21-3.61v-3.22
			c0-2.95-1.66-4.43-4.98-4.43h-5.34v-5.53l8.32-9.6h-13.06v-6.44h21.44v6.44l-7.96,8.99C506.53,244.59,508.62,245.59,510.14,247.27
			z"/>
		<path class="st1" d="M518.49,268.19c-0.81-0.81-1.21-1.84-1.21-3.1c0-1.25,0.4-2.28,1.21-3.07c0.81-0.79,1.84-1.18,3.1-1.18
			c1.29,0,2.34,0.4,3.13,1.18c0.79,0.79,1.18,1.81,1.18,3.07c0,1.26-0.39,2.29-1.18,3.1c-0.79,0.81-1.83,1.21-3.13,1.21
			C520.33,269.4,519.3,269,518.49,268.19z"/>
		<path class="st1" d="M553.23,245.84c1.86,1.82,2.79,4.33,2.79,7.53v5.04c0,3.52-0.99,6.23-2.98,8.14c-1.98,1.9-4.82,2.85-8.5,2.85
			c-3.76,0-6.62-0.95-8.56-2.85c-1.94-1.9-2.91-4.68-2.91-8.32v-0.61h6.86v0.61c0,3.16,1.52,4.74,4.55,4.74
			c1.5,0,2.64-0.41,3.43-1.24c0.79-0.83,1.18-2.01,1.18-3.55v-3.58c0-1.62-0.41-2.87-1.21-3.77c-0.81-0.89-1.96-1.34-3.46-1.34
			c-1.17,0-2.14,0.29-2.88,0.88c-0.75,0.59-1.21,1.45-1.37,2.58h-6.92l1.15-24.11h20.16v6.44h-13.91l-0.43,8.81
			c1.46-0.65,3.2-0.97,5.22-0.97C548.77,243.11,551.37,244.02,553.23,245.84z"/>
		<path class="st1" d="M578.92,228.84v6.44c-2.71,5.63-4.85,11.28-6.41,16.94c-1.56,5.67-2.34,10.65-2.34,14.94v1.52h-6.92v-1.52
			c0-4.33,0.77-9.26,2.31-14.79c1.54-5.53,3.74-11.22,6.62-17.09h-14.45v-6.44H578.92z"/>
	</g>
	<g>
		<g>
			<path class="st0" d="M389.6,266.28c-2.27-2.08-3.4-4.93-3.4-8.53v-17.98c0-3.6,1.13-6.45,3.4-8.53c2.27-2.08,5.34-3.13,9.23-3.13
				c8.34,0,12.51,4.37,12.51,13.12v3.7h-7.04v-3.7c0-2.27-0.45-3.95-1.34-5.04c-0.89-1.09-2.29-1.64-4.19-1.64
				c-1.78,0-3.15,0.5-4.1,1.49c-0.95,0.99-1.43,2.42-1.43,4.28v16.94c0,1.86,0.48,3.28,1.43,4.25c0.95,0.97,2.32,1.46,4.1,1.46
				c3.68,0,5.53-2.13,5.53-6.38v-3.7h7.04v3.7c0,4.25-1.05,7.45-3.16,9.59c-2.11,2.15-5.22,3.22-9.35,3.22
				C394.95,269.4,391.87,268.36,389.6,266.28z"/>
		</g>
	</g>
</g>
</svg>
