<?xml version="1.0" encoding="utf-8"?>
<!-- Generator: Adobe Illustrator 28.0.0, SVG Export Plug-In . SVG Version: 6.00 Build 0)  -->
<svg version="1.1" id="Балконы" xmlns="http://www.w3.org/2000/svg" xmlns:xlink="http://www.w3.org/1999/xlink" x="0px"
	 y="0px" width="1000px" height="1000px" viewBox="0 0 1000 1000" style="enable-background:new 0 0 1000 1000;"
	 xml:space="preserve">
<style type="text/css">
	.st0{fill:#FFFFFF;}
	.st1{fill:#4B5056;}
	.st2{fill:#4B5157;}
	.st3{fill:#CDA69E;}
	.st4{fill:none;stroke:#4B5056;stroke-width:1.3835;stroke-linecap:round;stroke-linejoin:round;stroke-miterlimit:10;}
	.st5{fill:none;stroke:#4B5056;stroke-width:1.0734;stroke-linecap:round;stroke-linejoin:round;stroke-miterlimit:10;}
</style>
<g>
	<path class="st0" d="M67.48,835.52l23.08-526.49c-0.01,0-0.01,0-0.02,0c-0.34-0.01-0.61-0.3-0.59-0.64l10.58-241.18
		c0.02-0.33,0.27-0.6,0.63-0.59l1.98-45.45L103.63,10l39.92,1.54l120.53,4.59l118.21,3.34l91.95,1.81l46.14,0.62l9.4,0.13
		l86.09,0.65l49.29,0.12l7.57-0.02l8.96-0.02l0.05,21.13l0.04,75.69c0.16,0,0.32,0.07,0.44,0.18c0.11,0.12,0.18,0.28,0.18,0.44
		l-0.01,5.26c27.95,0.25,54.68,10.78,75.3,29.67c20.76,19.03,33.6,44.93,36.17,72.97c0.01,0.04,0.01,0.08,0.01,0.12v3.52
		c0,0.34-0.28,0.62-0.62,0.62H682.31v5.25c0,0.17-0.07,0.33-0.19,0.44c-0.07,0.08-0.17,0.14-0.28,0.16l0.03,17h7.96l82.58-0.38
		l94.19-1.21l51.64-0.93l0.43,21.12l1.2,63.37l2.67,136.34l1.68,86.28l2.22,115.06l3.12,158.16l2.05,106.2l0.91,48.1l-9.34,0.2
		l-72.95,1.4v0.04c0,0.35-0.28,0.63-0.62,0.63l-271.32,0.98c-0.34,0-0.62-0.27-0.62-0.61v-0.06l-102-1.06l0.25-18.79l-40.18-0.65
		c-0.01,0.34-0.29,0.61-0.63,0.61c0,0,0,0-0.01,0c-2.2-0.04-4.4-0.08-6.61-0.12c-0.05,0.02-0.12,0.03-0.18,0.03
		c-0.07,0-0.14-0.01-0.2-0.04c-73.09-1.32-147.1-3.28-220.17-5.83c-0.1,0.06-0.22,0.1-0.34,0.1h-0.03
		c-0.13-0.01-0.25-0.05-0.34-0.13c-1.08-0.03-2.17-0.07-3.25-0.11h-0.03l-0.58-0.03c-0.72-0.03-1.44-0.06-2.15-0.11
		c-0.06,0.02-0.12,0.03-0.18,0.03H201c-0.08,0-0.15-0.02-0.22-0.06h-0.01c-31.75-1.91-61.03-15.79-82.67-39.24
		c-20.64-22.34-32.05-50.91-32.54-81.09c-0.13-0.12-0.22-0.29-0.21-0.49c0.01-0.16,0.09-0.31,0.2-0.42
		c-0.02-2.03,0.01-4.08,0.09-6.13c0-0.01,0-0.01,0-0.02v-0.03L67.48,835.52z"/>
	<g id="LWPOLYLINE_00000013194816554366316280000007641240592559797157_">
		<path class="st1" d="M828.33,316.28c-0.16,0-0.32-0.06-0.43-0.18c-0.12-0.12-0.19-0.27-0.19-0.44l-0.33-40.35
			c0-0.34,0.27-0.62,0.62-0.63c0,0,0,0,0,0c0.34,0,0.62,0.27,0.62,0.62l0.33,39.72l69.34-1.39c0,0,0.01,0,0.01,0
			c0.34,0,0.61,0.27,0.62,0.61c0.01,0.34-0.27,0.63-0.61,0.63l-69.97,1.4C828.34,316.28,828.33,316.28,828.33,316.28z"/>
	</g>
	<g id="LINE_00000068655483265940360960000015418481184559995824_">
		<path class="st1" d="M837.64,306.71c-0.34,0-0.61-0.27-0.62-0.61c-0.01-0.34,0.27-0.63,0.61-0.63l46.95-0.91c0,0,0.01,0,0.01,0
			c0.34,0,0.61,0.27,0.62,0.61c0.01,0.34-0.27,0.63-0.61,0.63l-46.95,0.91C837.65,306.71,837.65,306.71,837.64,306.71z"/>
	</g>
	<g id="LINE_00000052794025511466494790000005752917165164263071_">
		<path class="st1" d="M837.64,306.71c-0.34,0-0.61-0.27-0.62-0.61l-0.57-29.35c-0.01-0.34,0.27-0.63,0.61-0.63
			c0.33,0.03,0.63,0.27,0.63,0.61l0.57,29.35c0.01,0.34-0.27,0.63-0.61,0.63C837.65,306.71,837.65,306.71,837.64,306.71z"/>
	</g>
	<g id="LINE_00000032634010445118087820000012346698963235726752_">
		<path class="st1" d="M837.07,277.36c-0.34,0-0.61-0.27-0.62-0.61c-0.01-0.34,0.27-0.63,0.61-0.63l46.96-0.91
			c0.37,0,0.63,0.27,0.63,0.61c0.01,0.34-0.27,0.63-0.61,0.63l-46.96,0.91C837.08,277.36,837.08,277.36,837.07,277.36z"/>
	</g>
	<g id="LINE_00000135649907606944545700000012578157762451855535_">
		<path class="st1" d="M884.6,305.79c-0.34,0-0.61-0.27-0.62-0.61l-0.57-29.35c-0.01-0.34,0.27-0.63,0.61-0.63
			c0.37,0,0.63,0.27,0.63,0.61l0.57,29.35c0.01,0.34-0.27,0.63-0.61,0.63C884.6,305.79,884.6,305.79,884.6,305.79z"/>
	</g>
	<g id="SOLID_00000139266654730701234060000008197833054005471895_">
		<path class="st1" d="M837.64,306.71c-0.02,0-0.04,0-0.06,0c-0.32-0.03-0.56-0.29-0.56-0.61l-0.57-29.35
			c0-0.17,0.06-0.32,0.17-0.44c0.11-0.12,0.27-0.19,0.44-0.19l46.96-0.91c0.34,0.02,0.6,0.24,0.63,0.57
			c0.03,0.33-0.2,0.62-0.53,0.67l-41.03,6.14l-4.84,23.63C838.19,306.5,837.94,306.71,837.64,306.71z M837.7,277.35l0.45,23.14
			l3.81-18.58c0.05-0.26,0.26-0.45,0.52-0.49l31.95-4.78L837.7,277.35z"/>
	</g>
	<g id="LINE_00000147933605059486369740000011650808733976937143_">
		<path class="st1" d="M489.55,91.57C489.54,91.57,489.54,91.57,489.55,91.57c-0.35,0-0.62-0.29-0.62-0.63l0.57-46.96
			c0-0.34,0.28-0.61,0.62-0.61c0,0,0,0,0.01,0c0.34,0,0.62,0.29,0.61,0.63l-0.57,46.96C490.16,91.29,489.89,91.57,489.55,91.57z"/>
	</g>
	<g id="LINE_00000170981348774244567350000016376204493198160536_">
		<path class="st1" d="M519.47,44.96C519.47,44.96,519.46,44.96,519.47,44.96l-29.36-0.36c-0.34,0-0.62-0.29-0.61-0.63
			c0-0.34,0.28-0.61,0.62-0.61c0,0,0,0,0.01,0l29.35,0.36c0.34,0,0.62,0.29,0.61,0.63C520.08,44.69,519.81,44.96,519.47,44.96z"/>
	</g>
	<g id="LINE_00000163765590223314166820000002617938194564556196_">
		<path class="st1" d="M518.9,91.92C518.89,91.92,518.89,91.92,518.9,91.92c-0.35,0-0.62-0.29-0.62-0.63l0.57-46.96
			c0-0.34,0.28-0.61,0.62-0.61c0,0,0,0,0.01,0c0.34,0,0.62,0.29,0.61,0.63l-0.57,46.96C519.51,91.65,519.24,91.92,518.9,91.92z"/>
	</g>
	<g id="LINE_00000079475463792059634050000001105447117499556019_">
		<path class="st1" d="M518.9,91.92C518.89,91.92,518.89,91.92,518.9,91.92l-29.36-0.36c-0.34,0-0.62-0.29-0.61-0.63
			c0-0.34,0.28-0.61,0.62-0.61c0,0,0,0,0.01,0l29.35,0.36c0.34,0,0.62,0.29,0.61,0.63C519.51,91.65,519.24,91.92,518.9,91.92z"/>
	</g>
	<g id="SOLID_00000043454233669038609140000007214540640706594487_">
		<path class="st1" d="M518.9,91.92c-0.31,0-0.58-0.23-0.62-0.55l-4.84-41.2l-23.46-5.59c-0.31-0.07-0.51-0.37-0.47-0.68
			c0.04-0.31,0.3-0.54,0.62-0.54c0,0,0,0,0.01,0l29.35,0.36c0.16,0,0.32,0.07,0.44,0.19c0.12,0.12,0.18,0.28,0.18,0.44l-0.57,46.96
			c0,0.33-0.26,0.6-0.59,0.61C518.92,91.92,518.91,91.92,518.9,91.92z M495.7,44.68l18.45,4.39c0.25,0.06,0.44,0.27,0.47,0.53
			l3.77,32.08l0.45-36.73L495.7,44.68z"/>
	</g>
	<g id="ARC_00000137847859979474831990000016359618755444643722_">
		<path class="st1" d="M435.15,955.91c0,0-0.01,0-0.01,0c-76.57-1.35-154.18-3.4-230.69-6.1c-0.34-0.01-0.61-0.3-0.6-0.64
			c0.01-0.34,0.31-0.59,0.64-0.6c76.5,2.7,154.1,4.75,230.66,6.1c0.34,0.01,0.62,0.29,0.61,0.63
			C435.76,955.64,435.48,955.91,435.15,955.91z"/>
	</g>
	<g id="ARC_00000099660788079640323740000002899084172411058594_">
		<path class="st1" d="M204.47,949.81c-0.01,0-0.01,0-0.02,0l-0.42-0.02c-59.88-2.36-106.65-52.97-104.29-112.82
			c0.01-0.34,0.27-0.62,0.65-0.6c0.34,0.01,0.61,0.3,0.6,0.65c-2.33,59.17,43.91,109.2,103.07,111.53l0.45,0.02
			c0.34,0.01,0.61,0.3,0.6,0.64C205.08,949.55,204.8,949.81,204.47,949.81z"/>
	</g>
	<g id="ARC_00000097487436400498595990000010136763917296918683_">
		<path class="st1" d="M204.6,963.31c-0.02,0.33-0.29,0.6-0.62,0.6h-0.03l-0.58-0.03c-0.72-0.03-1.44-0.06-2.15-0.11
			c-0.15,0-0.3-0.01-0.44-0.03h-0.01c-31.75-1.91-61.03-15.79-82.67-39.24c-20.64-22.34-32.05-50.91-32.54-81.09
			c-0.01-0.3-0.01-0.6-0.01-0.91c-0.02-2.03,0.01-4.08,0.09-6.13c0-0.01,0-0.01,0-0.02s0-0.02,0.01-0.03c0-0.11,0.05-0.21,0.11-0.3
			c0.02-0.03,0.05-0.06,0.08-0.09c0.06-0.06,0.12-0.1,0.19-0.12c0.04-0.02,0.08-0.03,0.12-0.04c0.05-0.01,0.09-0.01,0.14-0.01
			c0.33,0.01,0.59,0.28,0.6,0.62v0.03c-0.01,0.21-0.02,0.41-0.02,0.62c-0.07,1.79-0.09,3.57-0.07,5.34c0,0.42,0,0.83,0.01,1.24
			c0.34,19.08,5.1,37.5,13.82,54.07c0.19,0.37,0.39,0.74,0.59,1.1c0.84,1.57,1.72,3.11,2.64,4.64c0.2,0.35,0.41,0.7,0.64,1.05
			c4.14,6.79,8.99,13.21,14.51,19.19c6.89,7.46,14.55,13.94,22.83,19.36c0.35,0.23,0.7,0.46,1.05,0.67c1.5,0.97,3.01,1.9,4.55,2.78
			c0.36,0.22,0.72,0.42,1.08,0.62c15.75,8.92,33.41,14.22,51.93,15.39c0.41,0.03,0.83,0.06,1.25,0.07c0.57,0.04,1.14,0.07,1.72,0.09
			l0.58,0.02C204.34,962.68,204.61,962.96,204.6,963.31z"/>
	</g>
	<g id="ARC_00000176007800887345203900000016794292250122776484_">
		<path class="st1" d="M435.74,969.4c-0.01,0.34-0.29,0.61-0.63,0.61c0,0,0,0-0.01,0c-2.2-0.04-4.4-0.08-6.61-0.12
			c-0.12,0-0.25,0-0.38-0.01c-73.09-1.32-147.1-3.28-220.17-5.83c-0.24-0.01-0.47-0.02-0.71-0.03c-1.08-0.03-2.17-0.07-3.25-0.11
			h-0.03c-0.34-0.02-0.61-0.3-0.6-0.65c0.02-0.34,0.33-0.6,0.65-0.6c1.01,0.04,2.01,0.07,3.02,0.1c0.41,0.02,0.82,0.03,1.24,0.05
			c34.64,1.21,69.48,2.29,104.36,3.22c0.41,0.02,0.83,0.03,1.24,0.04c1.78,0.05,3.55,0.09,5.33,0.14c0.41,0.01,0.83,0.02,1.25,0.03
			c35.83,0.95,71.65,1.75,107.26,2.4c0.42,0.01,0.84,0.01,1.25,0.02c1.78,0.03,3.56,0.06,5.33,0.09c0.2,0.01,0.41,0.01,0.61,0.02
			h0.23c0.16,0,0.3,0.06,0.4,0.15C435.66,969.04,435.74,969.21,435.74,969.4z"/>
	</g>
	<g id="LINE_00000127744441912597521530000013210820009321119678_">
		<path class="st1" d="M101.77,67.27l-0.26,5.88l-10.06,229.3l-0.26,5.99c-0.01,0.33-0.29,0.59-0.62,0.59h-0.01
			c-0.01,0-0.01,0-0.02,0c-0.34-0.01-0.61-0.3-0.59-0.64l10.58-241.18c0.02-0.33,0.27-0.6,0.63-0.59c0.01,0,0.02,0,0.02,0
			C101.52,66.63,101.79,66.92,101.77,67.27z"/>
	</g>
	<g id="LINE_00000160888029638477044590000002031086050255812008_">
		<path class="st1" d="M119.89,310.32c-0.01,0-0.02,0-0.03,0c-0.34-0.02-0.61-0.31-0.59-0.65L129.86,68.5
			c0.02-0.34,0.28-0.6,0.65-0.59c0.34,0.02,0.61,0.31,0.59,0.65l-10.58,241.17C120.5,310.06,120.22,310.32,119.89,310.32z"/>
	</g>
	<g id="LINE_00000009589778037325507950000015351941279203432362_">
		<path class="st1" d="M120.14,304.67c-0.01,0-0.02,0-0.03,0l-10.56-0.46c-0.34-0.02-0.61-0.31-0.59-0.65
			c0.01-0.34,0.27-0.61,0.65-0.59l10.56,0.46c0.34,0.02,0.61,0.31,0.59,0.65C120.75,304.4,120.47,304.67,120.14,304.67z"/>
	</g>
	<g id="LINE_00000102535262344734103820000013414429923849393044_">
		<path class="st1" d="M130.22,75.01c-0.01,0-0.02,0-0.03,0l-10.56-0.46c-0.34-0.02-0.61-0.31-0.59-0.65
			c0.02-0.34,0.27-0.6,0.65-0.59l10.56,0.46c0.34,0.02,0.61,0.31,0.59,0.65C130.83,74.75,130.55,75.01,130.22,75.01z"/>
	</g>
	<g id="LINE_00000060016751937927396660000017987320024484622464_">
		<path class="st1" d="M109.34,309.86c-0.01,0-0.02,0-0.03,0c-0.34-0.02-0.61-0.31-0.59-0.65L119.3,68.04
			c0.02-0.34,0.28-0.61,0.65-0.59c0.34,0.02,0.61,0.31,0.59,0.65l-10.58,241.17C109.94,309.6,109.67,309.86,109.34,309.86z"/>
	</g>
	<g id="LINE_00000130615735184150131460000002581439754116006563_">
		<path class="st1" d="M115.8,297.89c-0.01,0-0.02,0-0.03,0c-0.34-0.02-0.61-0.31-0.59-0.65l9.5-216.51
			c0.02-0.34,0.28-0.62,0.65-0.59c0.34,0.02,0.61,0.31,0.59,0.65l-9.5,216.51C116.41,297.63,116.13,297.89,115.8,297.89z"/>
	</g>
	<g id="LINE_00000163037086626195025290000002993961294971820218_">
		<path class="st1" d="M129.93,81.58c-0.01,0-0.02,0-0.03,0l-10.56-0.46c-0.34-0.02-0.61-0.31-0.59-0.65
			c0.02-0.34,0.28-0.6,0.65-0.59l10.56,0.46c0.34,0.02,0.61,0.31,0.59,0.65C130.54,81.32,130.26,81.58,129.93,81.58z"/>
	</g>
	<g id="LINE_00000060030243315260499490000010655346830069220239_">
		<path class="st1" d="M120.14,304.67c-0.01,0-0.02,0-0.03,0l-10.56-0.46c-0.34-0.02-0.61-0.31-0.59-0.65
			c0.01-0.34,0.27-0.61,0.65-0.59l10.56,0.46c0.34,0.02,0.61,0.31,0.59,0.65C120.75,304.4,120.47,304.67,120.14,304.67z"/>
	</g>
	<g id="LINE_00000108289540442576338690000004213534564130689953_">
		<path class="st1" d="M120.43,298.1c-0.01,0-0.02,0-0.03,0l-10.56-0.46c-0.34-0.02-0.61-0.31-0.59-0.65
			c0.02-0.34,0.28-0.62,0.65-0.59l10.56,0.46c0.34,0.02,0.61,0.31,0.59,0.65C121.04,297.84,120.76,298.1,120.43,298.1z"/>
	</g>
	<g id="LINE_00000072988601090250834400000000761640651098315398_">
		<path class="st1" d="M130.44,310.78c-0.01,0-0.02,0-0.03,0c-0.34-0.02-0.61-0.31-0.59-0.65L140.4,68.96
			c0.01-0.34,0.27-0.61,0.65-0.59c0.34,0.02,0.61,0.31,0.59,0.65l-10.58,241.17C131.04,310.52,130.77,310.78,130.44,310.78z"/>
	</g>
	<g id="LINE_00000051382767228276714580000009754139114146805433_">
		<path class="st1" d="M114.51,297.84c-0.01,0-0.02,0-0.03,0c-0.34-0.02-0.61-0.31-0.59-0.65l9.5-216.51
			c0.01-0.34,0.31-0.61,0.65-0.59c0.34,0.02,0.61,0.31,0.59,0.65l-9.5,216.51C115.11,297.58,114.84,297.84,114.51,297.84z"/>
	</g>
	<g id="LINE_00000049939787927944783900000000145783819914938275_">
		<path class="st1" d="M578.11,942.44c-0.34,0-0.62-0.28-0.62-0.62c0-0.34,0.28-0.62,0.62-0.62l271.32-0.99c0,0,0,0,0,0
			c0.34,0,0.62,0.28,0.62,0.62c0,0.34-0.28,0.62-0.62,0.62L578.11,942.44C578.12,942.44,578.11,942.44,578.11,942.44z"/>
	</g>
	<g id="LINE_00000130622009344615340100000007425411314664138150_">
		<path class="st1" d="M578.22,971.79c-0.34,0-0.62-0.28-0.62-0.62c0-0.34,0.28-0.62,0.62-0.62l271.32-0.99c0,0,0,0,0,0
			c0.34,0,0.62,0.28,0.62,0.62c0,0.34-0.28,0.62-0.62,0.62L578.22,971.79C578.22,971.79,578.22,971.79,578.22,971.79z"/>
	</g>
	<g id="LINE_00000091726537427552809470000003351509275815794340_">
		<path class="st1" d="M583.88,971.77c-0.34,0-0.62-0.28-0.62-0.62l-0.04-10.57c0-0.34,0.28-0.62,0.62-0.62c0,0,0,0,0,0
			c0.34,0,0.62,0.28,0.62,0.62l0.04,10.57C584.5,971.49,584.23,971.77,583.88,971.77C583.88,971.77,583.88,971.77,583.88,971.77z"/>
	</g>
	<g id="LINE_00000103967508640446463680000002762992310421917090_">
		<path class="st1" d="M843.67,970.82c-0.34,0-0.62-0.28-0.62-0.62l-0.04-10.57c0-0.34,0.28-0.62,0.62-0.62c0,0,0,0,0,0
			c0.34,0,0.62,0.28,0.62,0.62l0.04,10.57C844.29,970.54,844.01,970.82,843.67,970.82C843.67,970.82,843.67,970.82,843.67,970.82z"
			/>
	</g>
	<g id="LINE_00000073718737713316867450000013184650553212599485_">
		<path class="st1" d="M578.18,961.22c-0.34,0-0.62-0.28-0.62-0.62c0-0.34,0.28-0.62,0.62-0.62l271.32-0.99c0,0,0,0,0,0
			c0.34,0,0.62,0.28,0.62,0.62c0,0.34-0.28,0.62-0.62,0.62L578.18,961.22C578.18,961.22,578.18,961.22,578.18,961.22z"/>
	</g>
	<g id="LINE_00000085960269730777160970000017495738520527487675_">
		<path class="st1" d="M590.44,967.11c-0.34,0-0.62-0.28-0.62-0.62c0-0.34,0.28-0.62,0.62-0.62l246.64-0.9c0,0,0,0,0,0
			c0.34,0,0.62,0.28,0.62,0.62c0,0.34-0.28,0.62-0.62,0.62L590.44,967.11C590.44,967.11,590.44,967.11,590.44,967.11z"/>
	</g>
	<g id="LINE_00000162329412727379414330000006288971282420727210_">
		<path class="st1" d="M837.09,970.85c-0.34,0-0.62-0.28-0.62-0.62l-0.04-10.57c0-0.34,0.28-0.62,0.62-0.62c0,0,0,0,0,0
			c0.34,0,0.62,0.28,0.62,0.62l0.04,10.57C837.71,970.57,837.44,970.85,837.09,970.85C837.09,970.85,837.09,970.85,837.09,970.85z"
			/>
	</g>
	<g id="LINE_00000088834716452915310840000018216099256305556921_">
		<path class="st1" d="M583.88,971.77c-0.34,0-0.62-0.28-0.62-0.62l-0.04-10.57c0-0.34,0.28-0.62,0.62-0.62c0,0,0,0,0,0
			c0.34,0,0.62,0.28,0.62,0.62l0.04,10.57C584.5,971.49,584.23,971.77,583.88,971.77C583.88,971.77,583.88,971.77,583.88,971.77z"/>
	</g>
	<g id="LINE_00000009558877530868506860000005336294859321117327_">
		<path class="st1" d="M590.46,971.75c-0.34,0-0.62-0.28-0.62-0.62l-0.04-10.57c0-0.34,0.28-0.62,0.62-0.62c0,0,0,0,0,0
			c0.34,0,0.62,0.28,0.62,0.62l0.04,10.57C591.08,971.46,590.8,971.74,590.46,971.75C590.46,971.75,590.46,971.75,590.46,971.75z"/>
	</g>
	<g id="LINE_00000065764633044512209400000002433853065387729589_">
		<path class="st1" d="M850.23,988.92v0.04c0,0.35-0.28,0.63-0.62,0.63l-271.32,0.98c-0.34,0-0.62-0.27-0.62-0.61v-0.06
			c0.03-0.32,0.29-0.57,0.62-0.57l5.98-0.02l259.61-0.95l5.72-0.02h0.01C849.94,988.34,850.21,988.6,850.23,988.92z"/>
	</g>
	<g id="LINE_00000180343192506981922830000012762075011499375532_">
		<path class="st1" d="M590.43,965.82c-0.34,0-0.62-0.28-0.62-0.62c0-0.34,0.28-0.62,0.62-0.62l246.64-0.9c0,0,0,0,0,0
			c0.34,0,0.62,0.28,0.62,0.62c0,0.34-0.28,0.62-0.62,0.62L590.43,965.82C590.44,965.82,590.44,965.82,590.43,965.82z"/>
	</g>
	<g id="LINE_00000055682561808378286860000011464988641911269295_">
		<path class="st1" d="M335.02,816.39c-0.01,0-0.01,0-0.02,0l-117.32-3.97c-0.34-0.01-0.61-0.3-0.6-0.64
			c0.01-0.34,0.29-0.6,0.64-0.6l117.32,3.97c0.34,0.01,0.61,0.3,0.6,0.64C335.62,816.13,335.35,816.39,335.02,816.39z"/>
	</g>
	<g id="LINE_00000131341507493181690760000003309188986214567569_">
		<path class="st1" d="M334.66,826.95c-0.01,0-0.01,0-0.02,0l-117.32-3.97c-0.34-0.01-0.61-0.3-0.6-0.64s0.25-0.59,0.64-0.6
			l117.32,3.97c0.34,0.01,0.61,0.3,0.6,0.64C335.27,826.69,334.99,826.95,334.66,826.95z"/>
	</g>
	<g id="LINE_00000178901266951845806050000015228169624777379214_">
		<path class="st1" d="M322.29,821.84c-0.01,0-0.01,0-0.02,0l-98.22-3.32c-0.34-0.01-0.61-0.3-0.6-0.64c0.01-0.34,0.29-0.6,0.62-0.6
			c0.01,0,0.01,0,0.02,0l98.22,3.32c0.34,0.01,0.61,0.3,0.6,0.64C322.9,821.57,322.63,821.84,322.29,821.84z"/>
	</g>
	<g id="LINE_00000013192466032472440120000017192656415953819547_">
		<path class="st1" d="M328.71,826.75c-0.01,0-0.01,0-0.02,0c-0.34-0.01-0.61-0.3-0.6-0.64l0.36-10.56c0.01-0.34,0.32-0.59,0.64-0.6
			c0.34,0.01,0.61,0.3,0.6,0.64l-0.36,10.56C329.32,826.49,329.04,826.75,328.71,826.75z"/>
	</g>
	<g id="LINE_00000129202611335742704050000010116210978524284574_">
		<path class="st1" d="M223.91,823.21c-0.01,0-0.01,0-0.02,0c-0.34-0.01-0.61-0.3-0.6-0.64l0.36-10.56c0.01-0.34,0.29-0.6,0.62-0.6
			c0.01,0,0.01,0,0.02,0c0.34,0.01,0.61,0.3,0.6,0.64l-0.36,10.56C224.52,822.94,224.25,823.21,223.91,823.21z"/>
	</g>
	<g id="LINE_00000114775307992897658410000008043584859642698640_">
		<path class="st1" d="M335.65,797.6c-0.01,0-0.01,0-0.02,0l-117.32-3.97c-0.34-0.01-0.61-0.3-0.6-0.64c0.01-0.34,0.28-0.6,0.64-0.6
			l117.32,3.97c0.34,0.01,0.61,0.3,0.6,0.64C336.26,797.34,335.99,797.6,335.65,797.6z"/>
	</g>
	<g id="LINE_00000105423148888106492020000017757313669859118759_">
		<path class="st1" d="M334.03,845.71c-0.01,0-0.01,0-0.02,0l-117.32-3.97c-0.34-0.01-0.61-0.3-0.6-0.64
			c0.01-0.34,0.29-0.6,0.62-0.6c0.01,0,0.01,0,0.02,0l117.32,3.97c0.34,0.01,0.61,0.3,0.6,0.64
			C334.64,845.45,334.37,845.71,334.03,845.71z"/>
	</g>
	<g id="LINE_00000165944554713400152840000004877462780140614318_">
		<path class="st1" d="M322.14,826.52c-0.01,0-0.01,0-0.02,0c-0.34-0.01-0.61-0.3-0.6-0.64l0.36-10.56c0.01-0.34,0.27-0.6,0.64-0.6
			c0.34,0.01,0.61,0.3,0.6,0.64l-0.36,10.56C322.75,826.26,322.47,826.52,322.14,826.52z"/>
	</g>
	<g id="LINE_00000137121979541320730370000012237349820331099017_">
		<path class="st1" d="M216.71,841.74c-0.01,0-0.01,0-0.02,0c-0.34-0.01-0.61-0.3-0.6-0.64l1.62-48.11c0.01-0.34,0.33-0.6,0.64-0.6
			c0.34,0.01,0.61,0.3,0.6,0.64l-1.62,48.11C217.32,841.48,217.05,841.74,216.71,841.74z"/>
	</g>
	<g id="LINE_00000003784290776814453470000014198943658351435686_">
		<path class="st1" d="M322.33,820.66c-0.01,0-0.01,0-0.02,0l-98.23-3.32c-0.34-0.01-0.61-0.3-0.6-0.64
			c0.01-0.34,0.25-0.59,0.64-0.6l98.23,3.32c0.34,0.01,0.61,0.3,0.6,0.64C322.94,820.4,322.67,820.66,322.33,820.66z"/>
	</g>
	<g id="ARC_00000132078108195331066200000007659473460144144297_">
		<path class="st1" d="M208.15,953.58L208.15,953.58c-1.51,0-3.05-0.03-4.58-0.1c-61.77-2.56-109.93-54.89-107.38-116.66
			c0.01-0.34,0.25-0.61,0.65-0.59c0.34,0.01,0.61,0.3,0.6,0.65c-2.53,61.08,45.1,112.83,106.18,115.37c1.51,0.06,3.03,0.09,4.53,0.1
			c0.34,0,0.62,0.28,0.62,0.62C208.77,953.3,208.5,953.58,208.15,953.58z"/>
	</g>
	<g id="ARC_00000101816705161644364440000007831286453515164574_">
		<path class="st1" d="M313.41,961.9c-0.01,0-0.01,0-0.02,0c-35.06-0.96-70.56-2.08-105.52-3.31c-0.34-0.01-0.61-0.3-0.6-0.64
			c0.01-0.34,0.34-0.6,0.64-0.6c34.96,1.23,70.46,2.35,105.51,3.31c0.34,0.01,0.61,0.3,0.6,0.64
			C314.03,961.63,313.75,961.9,313.41,961.9z"/>
	</g>
	<g id="ARC_00000142890104237309963360000008318092715254367628_">
		<path class="st1" d="M428.38,964.57c0,0-0.01,0-0.01,0c-35.99-0.69-72.46-1.52-108.4-2.5c-0.34-0.01-0.61-0.29-0.6-0.64
			c0.01-0.34,0.29-0.6,0.62-0.6c0,0,0.01,0,0.02,0c35.93,0.97,72.4,1.81,108.39,2.5c0.34,0.01,0.62,0.29,0.61,0.63
			C429,964.3,428.72,964.57,428.38,964.57z"/>
	</g>
	<g id="LINE_00000024704108046877642150000012458513964162371996_">
		<path class="st1" d="M142.08,944.45c-0.11,0-0.22-0.03-0.32-0.09c-0.29-0.18-0.38-0.56-0.2-0.85l5.53-9
			c0.18-0.29,0.56-0.39,0.85-0.2c0.29,0.18,0.38,0.56,0.2,0.85l-5.53,9C142.49,944.34,142.29,944.45,142.08,944.45z"/>
	</g>
	<g id="LINE_00000086691392994689102410000014803620465591278222_">
		<path class="st1" d="M147.68,947.89c-0.11,0-0.22-0.03-0.32-0.09c-0.29-0.18-0.38-0.56-0.2-0.85l5.53-9
			c0.18-0.29,0.56-0.38,0.85-0.2c0.29,0.18,0.38,0.56,0.2,0.85l-5.53,9C148.09,947.79,147.89,947.89,147.68,947.89z"/>
	</g>
	<g id="LINE_00000157303290783855652620000008855858398887440054_">
		<path class="st1" d="M202.22,952.66l-0.04,0.75l-0.23,4.31v0.05l-0.25,4.78l-0.04,0.66c-0.02,0.27-0.2,0.49-0.44,0.56
			c-0.06,0.02-0.12,0.03-0.18,0.03H201c-0.08,0-0.15-0.02-0.22-0.06h-0.01c-0.22-0.1-0.37-0.33-0.35-0.6l0.03-0.66l0.23-4.18
			l0.06-1.25l0.2-3.71l0.04-0.75c0.01-0.2,0.11-0.37,0.27-0.48c0.11-0.07,0.24-0.11,0.38-0.11c0.14,0.01,0.27,0.07,0.37,0.15
			C202.14,952.28,202.23,952.46,202.22,952.66z"/>
	</g>
	<g id="LINE_00000024710465725980606370000000600715063409932718_">
		<path class="st1" d="M208.78,953.01l-0.03,0.61l-0.2,3.75l-0.07,1.24l-0.22,4.2l-0.04,0.75c-0.01,0.21-0.12,0.39-0.28,0.49
			c-0.1,0.06-0.22,0.1-0.34,0.1h-0.03c-0.13-0.01-0.25-0.05-0.34-0.13c-0.16-0.12-0.26-0.32-0.25-0.53l0.04-0.73l0.49-9.19
			l0.03-0.63c0.02-0.34,0.32-0.6,0.66-0.59c0.03,0,0.05,0.01,0.08,0.01c0.09,0.02,0.18,0.06,0.25,0.11
			c0.03,0.02,0.06,0.05,0.08,0.07c0.05,0.05,0.09,0.11,0.11,0.17c0.02,0.04,0.03,0.08,0.04,0.12
			C208.78,952.89,208.78,952.95,208.78,953.01z"/>
	</g>
	<g id="LINE_00000123418394811145954610000010263951681704357768_">
		<path class="st1" d="M100.5,899.09c-0.22,0-0.43-0.12-0.54-0.32c-0.17-0.3-0.06-0.68,0.24-0.84l9.24-5.13
			c0.3-0.17,0.68-0.06,0.84,0.24c0.17,0.3,0.06,0.68-0.24,0.84l-9.24,5.13C100.71,899.06,100.61,899.09,100.5,899.09z"/>
	</g>
	<g id="LINE_00000121970311141744228620000006851248870453995186_">
		<path class="st1" d="M103.7,904.83c-0.22,0-0.43-0.12-0.54-0.32c-0.17-0.3-0.06-0.68,0.24-0.84l9.24-5.13
			c0.3-0.17,0.68-0.06,0.84,0.24c0.17,0.3,0.06,0.68-0.24,0.84l-9.24,5.13C103.9,904.81,103.8,904.83,103.7,904.83z"/>
	</g>
	<g id="LINE_00000096038527455671840490000001529285490510720406_">
		<path class="st1" d="M97.44,836.84v0.04c-0.01,0.33-0.29,0.59-0.62,0.59h-0.03l-0.61-0.03l-9.31-0.41L86.24,837
			c-0.33-0.01-0.6-0.29-0.6-0.63c0-0.01,0-0.01,0-0.02v-0.03h0.01c0-0.11,0.05-0.21,0.11-0.3c0.02-0.03,0.05-0.06,0.08-0.09
			c0.06-0.06,0.12-0.1,0.19-0.12c0.04-0.02,0.08-0.03,0.12-0.04c0.05-0.01,0.09-0.01,0.14-0.01l10.52,0.47h0.04
			c0.12,0,0.24,0.04,0.33,0.11c0.03,0.02,0.06,0.05,0.09,0.08C97.38,836.53,97.44,836.68,97.44,836.84z"/>
	</g>
	<g id="LINE_00000001657778593719147010000000221582058613293442_">
		<path class="st1" d="M97.15,843.44c-0.01,0.34-0.29,0.6-0.62,0.6H96.5l-0.37-0.02l-4.4-0.19l-1.25-0.06l-3.67-0.16l-0.86-0.04
			c-0.15,0-0.28-0.06-0.39-0.16c-0.13-0.12-0.22-0.29-0.21-0.49c0.01-0.16,0.09-0.31,0.2-0.42c0.12-0.11,0.28-0.18,0.45-0.17
			l0.8,0.04l9.31,0.41l0.45,0.02C96.9,842.81,97.17,843.1,97.15,843.44z"/>
	</g>
	<g id="LINE_00000054252240991912006710000016171810612468813245_">
		<path class="st1" d="M313.22,967.24c-0.01,0-0.01,0-0.02,0c-0.34-0.01-0.61-0.3-0.6-0.64l0.38-10.56c0.01-0.34,0.28-0.59,0.64-0.6
			c0.34,0.01,0.61,0.3,0.6,0.64l-0.38,10.56C313.83,966.98,313.56,967.24,313.22,967.24z"/>
	</g>
	<g id="LINE_00000001639340697450795570000006724227398193173660_">
		<path class="st1" d="M319.79,967.47c-0.01,0-0.01,0-0.02,0c-0.34-0.01-0.61-0.3-0.6-0.64l0.38-10.56c0.01-0.34,0.26-0.6,0.64-0.6
			c0.34,0.01,0.61,0.3,0.6,0.64l-0.38,10.56C320.4,967.21,320.13,967.47,319.79,967.47z"/>
	</g>
	<g id="ARC_00000131325213708119907000000002039466044267283855_">
		<path class="st1" d="M105.15,896.5c-0.22,0-0.44-0.12-0.55-0.33c-8.72-16.2-13.61-34.48-14.14-52.87
			c-0.01-0.34,0.26-0.63,0.6-0.64c0.35,0.02,0.63,0.26,0.64,0.6c0.52,18.2,5.36,36.28,13.99,52.31c0.16,0.3,0.05,0.68-0.25,0.84
			C105.35,896.48,105.25,896.5,105.15,896.5z"/>
	</g>
	<g id="ARC_00000057864714805385381350000015409031018141482651_">
		<path class="st1" d="M145.01,939.68c-0.12,0-0.23-0.03-0.34-0.1c-14.83-9.59-27.55-22.62-36.77-37.68
			c-0.18-0.29-0.09-0.68,0.21-0.85c0.29-0.18,0.67-0.09,0.85,0.21c9.13,14.9,21.71,27.79,36.39,37.28c0.29,0.19,0.37,0.57,0.18,0.86
			C145.41,939.58,145.21,939.68,145.01,939.68z"/>
	</g>
	<g id="ARC_00000065785539262414553980000012974979728838281880_">
		<path class="st1" d="M201.33,958.34c-0.01,0-0.03,0-0.04,0c-17.82-1.18-35.45-6.48-50.96-15.33c-0.3-0.17-0.4-0.55-0.23-0.85
			c0.17-0.3,0.55-0.4,0.85-0.23c15.35,8.75,32.79,14,50.43,15.17c0.34,0.02,0.6,0.32,0.58,0.66
			C201.92,958.09,201.65,958.34,201.33,958.34z"/>
	</g>
	<g id="ARC_00000062901359881898586750000008006795419742539945_">
		<path class="st1" d="M435.08,959.46c0,0-0.01,0-0.01,0c-75.27-1.27-151.58-3.24-226.8-5.86c-0.34-0.01-0.61-0.3-0.6-0.64
			c0.01-0.34,0.3-0.6,0.64-0.6c75.22,2.62,151.52,4.59,226.78,5.86c0.34,0.01,0.62,0.29,0.61,0.63
			C435.7,959.18,435.42,959.46,435.08,959.46z"/>
	</g>
	<g id="LINE_00000075132400533004525840000014189113920206295714_">
		<path class="st1" d="M429.07,958.74l-0.01,0.61l-0.11,9.31l-0.01,0.65c-0.01,0.28-0.19,0.51-0.45,0.58
			c-0.05,0.02-0.12,0.03-0.18,0.03c-0.07,0-0.14-0.01-0.2-0.04c-0.25-0.08-0.42-0.32-0.42-0.59l0.01-0.65l0.05-4.08l0.02-1.24
			l0.05-3.99l0.01-0.6c0-0.35,0.28-0.6,0.63-0.62C428.8,958.12,429.08,958.4,429.07,958.74z"/>
	</g>
	<g id="LINE_00000138574158323816786070000012454618201224074127_">
		<path class="st1" d="M434.89,970c0,0-0.01,0-0.01,0c-0.34-0.01-0.62-0.29-0.61-0.63l0.19-10.55c0.01-0.34,0.29-0.58,0.63-0.61
			c0.34,0.01,0.62,0.29,0.61,0.63l-0.19,10.55C435.5,969.73,435.23,970,434.89,970z"/>
	</g>
	<g id="LWPOLYLINE_00000088821351690027321640000012187423853592974511_">
		<path class="st1" d="M524.56,386.66c-0.12-0.12-0.27-0.19-0.44-0.19l-8.22-0.1c-0.34,0-0.61,0.26-0.62,0.6v0.01l-0.07,5.25
			l-0.01,0.62c0,0.17,0.06,0.33,0.18,0.45c0.11,0.11,0.27,0.18,0.44,0.18l0.61,0.01l7.6,0.09c0.01,0,0.01,0,0.01,0
			c0.34,0,0.62-0.27,0.62-0.61l0.08-5.87v-0.01C524.74,386.93,524.67,386.78,524.56,386.66z M523.43,392.33l-6.98-0.08l0.06-4.63
			l6.98,0.09L523.43,392.33z"/>
	</g>
	<g id="LWPOLYLINE_00000053520296232016337020000003839600552958213270_">
		<path class="st1" d="M522.89,486.26l-8.22-0.1h-0.05c-0.16,0-0.28,0.07-0.39,0.18c-0.12,0.11-0.19,0.27-0.19,0.43l-0.01,0.61
			l-0.06,5.26c0,0.35,0.26,0.62,0.6,0.63h0.01l8.22,0.1h0.01c0.16,0,0.32-0.06,0.43-0.17c0.12-0.12,0.19-0.27,0.19-0.44l0.07-5.87
			C523.51,486.55,523.23,486.27,522.89,486.26z M515.28,487.41l6.97,0.09l-0.05,4.62l-6.98-0.08L515.28,487.41z"/>
	</g>
	<g id="ARC_00000170274543725354683770000014630796558054305444_">
		<path class="st1" d="M514.66,487.4C514.65,487.4,514.65,487.4,514.66,487.4c-24.59-0.32-47.77-10-65.27-27.27
			c-17.5-17.27-27.49-40.31-28.14-64.89c-0.01-0.34,0.26-0.63,0.6-0.64c0.38,0.01,0.63,0.26,0.64,0.6
			c1.32,50.35,41.8,90.3,92.17,90.95c0.34,0,0.62,0.29,0.61,0.63C515.27,487.13,515,487.4,514.66,487.4z"/>
	</g>
	<g id="LWPOLYLINE_00000140719626527832681830000005522669128589890970_">
		<path class="st1" d="M515.83,392.24l-0.62-0.01l-93.29-1.15c-0.33-0.01-0.62,0.27-0.63,0.61l-0.04,3.53c0,0.01,0,0.01,0,0.02
			c0.01,0.15,0.07,0.3,0.18,0.42c0.11,0.12,0.27,0.18,0.43,0.18l0.65,0.01l93.26,1.16c0.01,0,0.01,0,0.01,0
			c0.16,0,0.32-0.07,0.43-0.18c0.12-0.12,0.19-0.27,0.19-0.44l0.03-2.9l0.01-0.62C516.45,392.53,516.17,392.25,515.83,392.24z
			 M515.17,395.76l-92.67-1.15l0.03-2.28l92.66,1.15L515.17,395.76z"/>
	</g>
	<g id="LWPOLYLINE_00000090270389681263550400000007692214450861091717_">
		<path class="st1" d="M525.2,336.26c-0.11-0.12-0.27-0.19-0.43-0.19l-7.6-0.1l-0.62-0.01c-0.37,0.02-0.63,0.27-0.63,0.61
			l-0.01,0.62l-0.07,5.25c0,0.16,0.06,0.32,0.18,0.44c0.11,0.12,0.27,0.19,0.43,0.19h0.02l8.2,0.11h0.01c0.34,0,0.61-0.27,0.62-0.61
			v-0.04l0.08-5.83C525.38,336.53,525.32,336.37,525.2,336.26z M524.13,337.3l-0.06,4.63l-6.98-0.1l0.06-4.62L524.13,337.3z"/>
	</g>
	<g id="LWPOLYLINE_00000140000193750451420110000006960709877333252248_">
		<path class="st1" d="M526.12,236.28l-8.22-0.11c-0.05,0-0.1,0-0.15,0.01c-0.11,0.03-0.21,0.09-0.29,0.16
			c-0.12,0.12-0.19,0.28-0.19,0.44l-0.07,5.26l-0.01,0.61c0,0.34,0.26,0.62,0.61,0.63h0.01l8.21,0.11c0.01,0,0.01,0,0.01,0
			c0.16,0,0.32-0.06,0.44-0.17c0.11-0.12,0.18-0.28,0.18-0.44l0.08-5.86v-0.01C526.74,236.57,526.46,236.28,526.12,236.28z
			 M525.42,242.14l-6.98-0.09l0.07-4.63l6.97,0.09L525.42,242.14z"/>
	</g>
	<g id="ARC_00000016048892080351107350000018425161393644433299_">
		<path class="st1" d="M422.68,332.4c-0.01,0-0.02,0-0.03,0c-0.34-0.02-0.61-0.31-0.59-0.65c1.28-24.55,11.87-47.33,29.81-64.14
			c17.94-16.81,41.4-25.88,65.95-25.57c0.34,0,0.62,0.29,0.61,0.63c0,0.34-0.29,0.61-0.63,0.61c-0.42-0.01-0.84-0.01-1.26-0.01
			c-49.8,0-90.64,38.66-93.24,88.54C423.29,332.15,423.01,332.4,422.68,332.4z"/>
	</g>
	<g id="LWPOLYLINE_00000114042882737734188370000006342237798194857639_">
		<path class="st1" d="M517.03,332.62c-0.11-0.12-0.27-0.18-0.43-0.19l-93.26-1.26l-0.65-0.01c-0.18-0.02-0.32,0.06-0.44,0.18
			c-0.09,0.08-0.15,0.19-0.18,0.31c-0.01,0.04-0.01,0.08-0.01,0.12v0.02l-0.05,3.51c0,0.34,0.27,0.62,0.62,0.62l93.28,1.27
			l0.62,0.01c0.01,0,0.01,0,0.01,0c0.34,0,0.62-0.27,0.62-0.61l0.01-0.62l0.04-2.91C517.21,332.9,517.15,332.74,517.03,332.62z
			 M423.26,334.69l0.03-2.28l92.67,1.26l-0.03,2.28L423.26,334.69z"/>
	</g>
	<g id="LWPOLYLINE_00000152967234048748735930000005428873644175638154_">
		<path class="st1" d="M682.13,231.3c-0.12-0.11-0.28-0.18-0.44-0.18h-0.62l-7.6-0.01c-0.34,0-0.62,0.28-0.62,0.62l-0.01,5.87v0.03
			c0.01,0.16,0.08,0.31,0.19,0.41c0.11,0.12,0.27,0.19,0.43,0.19h8.22c0.05,0,0.11-0.01,0.16-0.02c0.11-0.02,0.21-0.08,0.28-0.16
			c0.12-0.11,0.19-0.27,0.19-0.44v-5.87C682.31,231.58,682.25,231.42,682.13,231.3z M674.09,232.36h6.98l-0.01,4.63l-6.97-0.01
			V232.36z"/>
	</g>
	<g id="LWPOLYLINE_00000075875561002173750270000012627916971223995286_">
		<path class="st1" d="M682.22,119.76c-0.12-0.11-0.28-0.18-0.44-0.18h-8.22c-0.17,0-0.32,0.06-0.44,0.18
			c-0.12,0.11-0.18,0.27-0.18,0.44v0.01l-0.01,5.86c0,0.16,0.07,0.32,0.19,0.44c0.11,0.11,0.27,0.18,0.43,0.18h8.23
			c0.35-0.01,0.61-0.27,0.61-0.62v-0.61l0.01-5.26C682.4,120.04,682.33,119.88,682.22,119.76z M674.18,125.45v-4.63h6.98l-0.01,4.63
			H674.18z"/>
	</g>
	<g id="ARC_00000177481890691852709440000015251411191308626062_">
		<path class="st1" d="M793.87,228.22c0,0.31-0.24,0.59-0.56,0.62h-0.06c-0.32,0-0.59-0.24-0.62-0.56
			c-0.02-0.23-0.04-0.46-0.07-0.68c-5.57-57.36-53.07-100.69-110.78-100.91h-0.01c-0.34-0.01-0.61-0.28-0.61-0.62
			c0-0.34,0.28-0.62,0.62-0.62h0.01c0.2,0,0.4,0,0.6,0.01c27.95,0.25,54.68,10.78,75.3,29.67c20.76,19.03,33.6,44.93,36.17,72.97
			C793.87,228.14,793.87,228.18,793.87,228.22z"/>
	</g>
	<g id="LWPOLYLINE_00000072242584663054060530000007480814928964790667_">
		<path class="st1" d="M793.86,228.1c-0.02-0.12-0.08-0.23-0.17-0.32c-0.12-0.12-0.27-0.18-0.44-0.18H681.69
			c-0.34,0-0.62,0.28-0.62,0.62v3.52c0,0.17,0.06,0.32,0.18,0.44s0.27,0.18,0.44,0.18h111.56c0.34,0,0.62-0.28,0.62-0.62v-3.52
			C793.87,228.18,793.87,228.14,793.86,228.1z M792.63,231.12H682.31v-2.28h110.32V231.12z"/>
	</g>
	<g id="LWPOLYLINE_00000102507967552259455370000013007839865344863129_">
		<path class="st1" d="M668.88,385.38l-8.22-0.01h-0.01c-0.34,0.01-0.61,0.28-0.61,0.62v5.87c0,0.16,0.06,0.32,0.18,0.44
			c0.11,0.12,0.27,0.18,0.44,0.18h0.62l7.6,0.01c0.16,0,0.32-0.07,0.44-0.18c0.11-0.12,0.18-0.28,0.18-0.44V386
			C669.5,385.65,669.22,385.38,668.88,385.38z M668.26,391.25l-6.98-0.01v-4.63l6.98,0.01V391.25z"/>
	</g>
	<g id="LWPOLYLINE_00000127032694281682352270000002312599543810516116_">
		<path class="st1" d="M668.82,461.69l-8.21-0.01h-0.01c-0.17,0-0.32,0.07-0.43,0.19c-0.12,0.11-0.19,0.27-0.19,0.43v5.88
			c0,0.34,0.28,0.62,0.62,0.62h8.22c0.17,0,0.32-0.06,0.44-0.18s0.17-0.26,0.18-0.42c0-0.01,0-0.01,0-0.02l0.01-5.87
			C669.45,461.97,669.17,461.69,668.82,461.69z M668.2,462.93v4.63h-6.98l0.01-4.63H668.2z"/>
	</g>
	<g id="ARC_00000011719446590139039880000014691805484403756987_">
		<path class="st1" d="M660.6,462.93L660.6,462.93c-37.87-0.06-69.06-29.74-71-67.56c-0.02-0.34,0.25-0.63,0.59-0.65
			c0.38-0.02,0.64,0.25,0.65,0.59c1.9,37.16,32.54,66.32,69.76,66.39c0.34,0,0.62,0.28,0.62,0.62
			C661.22,462.65,660.94,462.93,660.6,462.93z"/>
	</g>
	<g id="LWPOLYLINE_00000021832594943810263120000009562865283319796635_">
		<path class="st1" d="M661.1,391.42c-0.12-0.12-0.28-0.18-0.44-0.18h-0.62l-69.81-0.05c-0.35,0-0.63,0.27-0.63,0.62v3.52
			c0,0.04,0,0.08,0.01,0.12c0.03,0.12,0.09,0.23,0.17,0.32c0.12,0.12,0.28,0.18,0.44,0.18h0.66l69.78,0.05
			c0.34,0,0.62-0.27,0.62-0.62v-3.52C661.28,391.7,661.21,391.54,661.1,391.42z M660.03,394.76l-69.19-0.05l0.01-2.28l69.19,0.05
			L660.03,394.76z"/>
	</g>
	<g id="LWPOLYLINE_00000086662268280474821400000016427222697552584621_">
		<path class="st1" d="M545.74,529.09c-0.01-0.35-0.28-0.62-0.63-0.62l-5.87,0.02c-0.16,0-0.32,0.07-0.44,0.18
			c-0.11,0.12-0.18,0.28-0.18,0.44l0.03,8.21v0.01c0,0.34,0.28,0.62,0.62,0.62c0.01,0,0.01,0,0.01,0l5.24-0.02h0.63
			c0.16,0,0.32-0.07,0.44-0.19c0.11-0.11,0.18-0.27,0.18-0.44v-0.61L545.74,529.09z M539.89,536.71l-0.02-6.98l4.63-0.02l0.02,6.98
			L539.89,536.71z"/>
	</g>
	<g id="LWPOLYLINE_00000076586754168979131570000010354498572588422073_">
		<path class="st1" d="M645.53,528.72c0-0.17-0.07-0.32-0.18-0.44c-0.12-0.12-0.27-0.18-0.43-0.18h-0.01l-5.87,0.02
			c-0.35,0-0.62,0.28-0.62,0.62l0.03,8.22v0.01c0.01,0.35,0.28,0.61,0.62,0.61h0.62l5.25-0.02c0.17,0,0.33-0.07,0.44-0.18
			c0.12-0.12,0.18-0.28,0.18-0.44L645.53,528.72z M639.69,536.34l-0.03-6.98l4.63-0.02l0.03,6.98L639.69,536.34z"/>
	</g>
	<g id="ARC_00000067951767777171278010000014722127614050232466_">
		<path class="st1" d="M549.01,631.83c-0.33,0-0.61-0.26-0.62-0.59c-0.01-0.34,0.25-0.63,0.59-0.65
			c50.33-2.13,89.62-43.25,89.46-93.62c0-0.34,0.28-0.62,0.62-0.62c0,0,0,0,0,0c0.34,0,0.62,0.28,0.62,0.62
			c0.08,24.59-9.23,47.92-26.22,65.69s-39.87,28.14-64.43,29.17C549.03,631.83,549.02,631.83,549.01,631.83z"/>
	</g>
	<g id="LWPOLYLINE_00000079462892507061008540000001639173483299674250_">
		<path class="st1" d="M549.29,537.29c0-0.16-0.07-0.32-0.19-0.44c-0.11-0.11-0.27-0.18-0.43-0.18l-2.9,0.02h-0.63
			c-0.34,0-0.62,0.28-0.62,0.62v0.62l0.35,93.29c0,0.35,0.28,0.62,0.62,0.62l3.52-0.01c0.04,0,0.08,0,0.13-0.01
			c0.12-0.03,0.23-0.09,0.31-0.17c0.12-0.12,0.18-0.28,0.18-0.44v-0.66L549.29,537.29z M545.77,537.93l2.28-0.01l0.34,92.67
			l-2.28,0.01L545.77,537.93z"/>
	</g>
	<g id="ARC_00000161603005536156921430000004900759642456106887_">
		<path class="st1" d="M209.48,812.15c-0.01,0-0.02,0-0.03,0c-0.34-0.02-0.61-0.31-0.59-0.65c2-41.74-29.05-77.08-70.7-80.47
			c-0.34-0.03-0.6-0.33-0.57-0.67c0.03-0.34,0.33-0.6,0.67-0.57c20.35,1.66,38.98,11.01,52.46,26.35
			c13.48,15.34,20.36,35.02,19.38,55.41C210.09,811.89,209.81,812.15,209.48,812.15z"/>
	</g>
	<g id="LINE_00000015319672355813521900000004513709781371075225_">
		<path class="st1" d="M217.7,812.42c-0.01,0-0.01,0-0.02,0l-8.21-0.28c-0.34-0.01-0.61-0.3-0.6-0.64c0.01-0.34,0.27-0.58,0.64-0.6
			l8.21,0.28c0.34,0.01,0.61,0.3,0.6,0.64C218.31,812.16,218.03,812.42,217.7,812.42z"/>
	</g>
	<g id="LINE_00000071557591320880104570000013372772472347264430_">
		<path class="st1" d="M209.13,822.71c-0.01,0-0.01,0-0.02,0c-0.34-0.01-0.61-0.3-0.6-0.64l0.36-10.56c0.01-0.34,0.27-0.58,0.64-0.6
			c0.34,0.01,0.61,0.3,0.6,0.64l-0.36,10.56C209.74,822.44,209.46,822.71,209.13,822.71z"/>
	</g>
	<g id="LINE_00000147198677327751809010000008407080735839852692_">
		<path class="st1" d="M217.34,822.98c-0.01,0-0.01,0-0.02,0l-8.21-0.28c-0.34-0.01-0.61-0.3-0.6-0.64c0.01-0.34,0.29-0.6,0.62-0.6
			c0.01,0,0.01,0,0.02,0l8.21,0.28c0.34,0.01,0.61,0.3,0.6,0.64C217.95,822.72,217.67,822.98,217.34,822.98z"/>
	</g>
	<g id="LINE_00000127015986528430371320000000846608449039729027_">
		<path class="st1" d="M131.68,820.09c-0.01,0-0.01,0-0.02,0l-8.21-0.28c-0.34-0.01-0.61-0.3-0.6-0.64s0.25-0.6,0.64-0.6l8.21,0.28
			c0.34,0.01,0.61,0.3,0.6,0.64C132.29,819.82,132.01,820.09,131.68,820.09z"/>
	</g>
	<g id="LINE_00000121276492214391473820000015361309313540667801_">
		<path class="st1" d="M131.68,820.09c-0.01,0-0.01,0-0.02,0c-0.34-0.01-0.61-0.3-0.6-0.64l0.36-10.56c0.01-0.34,0.25-0.59,0.64-0.6
			c0.34,0.01,0.61,0.3,0.6,0.64l-0.36,10.56C132.29,819.82,132.01,820.09,131.68,820.09z"/>
	</g>
	<g id="LINE_00000002355233567121434720000004976826986527696780_">
		<path class="st1" d="M132.04,809.53c-0.01,0-0.01,0-0.02,0l-8.21-0.28c-0.34-0.01-0.61-0.3-0.6-0.64c0.01-0.34,0.26-0.58,0.64-0.6
			l8.21,0.28c0.34,0.01,0.61,0.3,0.6,0.64C132.65,809.26,132.37,809.53,132.04,809.53z"/>
	</g>
	<g id="LINE_00000059307219409559500950000003911127060949702064_">
		<path class="st1" d="M123.47,819.81c-0.01,0-0.01,0-0.02,0c-0.34-0.01-0.61-0.3-0.6-0.64l0.36-10.56c0.01-0.34,0.26-0.58,0.64-0.6
			c0.34,0.01,0.61,0.3,0.6,0.64l-0.36,10.56C124.08,819.54,123.8,819.81,123.47,819.81z"/>
	</g>
	<g id="LWPOLYLINE_00000094593968211822422120000017447038232119128985_">
		<path class="st1" d="M138.24,729.8h-0.14l-3.38-0.11c-0.18-0.01-0.33,0.05-0.45,0.16c-0.12,0.12-0.19,0.27-0.19,0.44l-2.64,77.97
			l-0.02,0.62v0.04c0,0.15,0.06,0.3,0.16,0.41c0.12,0.12,0.27,0.19,0.44,0.2h0.02l0.6,0.02l2.9,0.09c0,0,0.01,0,0.02,0
			c0.33,0,0.61-0.26,0.62-0.6l2.64-77.96l0.02-0.63C138.85,730.1,138.58,729.82,138.24,729.8z M134.96,808.38l-2.28-0.07l2.62-77.36
			l2.28,0.08L134.96,808.38z"/>
	</g>
	<g>
		<g id="POLYLINE_00000005259881962955887290000005355483358145694136_">
			<path class="st1" d="M212.21,106.44c-0.01,0-0.02,0-0.02,0l-70.4-2.66c-0.34-0.01-0.61-0.3-0.6-0.64l2.66-70.4
				c0.01-0.34,0.32-0.61,0.64-0.6l70.4,2.66c0.34,0.01,0.61,0.3,0.6,0.64l-2.66,70.4C212.81,106.17,212.54,106.44,212.21,106.44z
				 M142.45,102.56l69.16,2.61l2.62-69.16l-69.16-2.61L142.45,102.56z"/>
		</g>
		<g id="POLYLINE_00000176765035921806857710000014375810529068621737_">
			<path class="st1" d="M214.2,53.63c-0.01,0-0.02,0-0.02,0l-70.4-2.66c-0.17-0.01-0.32-0.08-0.43-0.2
				c-0.11-0.12-0.17-0.28-0.17-0.45l0.67-17.6c0.01-0.34,0.32-0.61,0.64-0.6l70.4,2.66c0.17,0.01,0.32,0.08,0.43,0.2
				c0.11,0.12,0.17,0.28,0.17,0.45l-0.67,17.6C214.81,53.37,214.54,53.63,214.2,53.63z M144.44,49.75l69.16,2.61l0.62-16.36
				l-69.16-2.61L144.44,49.75z"/>
		</g>
		<g id="SPLINE_00000087384568447573980710000010345594465774110386_">
			<path class="st1" d="M205.74,48.61c-0.06,0-0.12,0-0.18,0c-1.26-0.05-2.43-0.58-3.29-1.51c-0.86-0.93-1.31-2.13-1.26-3.4
				c0.1-2.61,2.33-4.64,4.91-4.55c2.61,0.1,4.65,2.3,4.55,4.91C210.37,46.6,208.26,48.61,205.74,48.61z M205.73,40.39
				c-1.86,0-3.41,1.48-3.48,3.36c-0.04,0.93,0.29,1.82,0.93,2.5c0.63,0.68,1.5,1.08,2.43,1.11c1.93,0.06,3.54-1.43,3.62-3.35
				c0.07-1.92-1.43-3.54-3.35-3.62C205.82,40.39,205.78,40.39,205.73,40.39z"/>
		</g>
		<g id="POLYLINE_00000175292175824359178270000007226280713926571406_">
			<path class="st1" d="M147.41,48.76c-0.01,0-0.02,0-0.02,0c-0.34-0.01-0.61-0.3-0.6-0.64l0.44-11.73c0.01-0.16,0.08-0.32,0.2-0.43
				c0.12-0.11,0.28-0.18,0.45-0.17l53.98,2.04c0.34,0.01,0.61,0.3,0.6,0.64c-0.01,0.34-0.31,0.61-0.64,0.6l-53.35-2.02l-0.42,11.11
				C148.02,48.5,147.74,48.76,147.41,48.76z"/>
		</g>
		<g id="POLYLINE_00000181766900754822693520000004324428726350326431_">
			<path class="st1" d="M199.43,102.43c-0.01,0-0.02,0-0.02,0l-53.97-2.04c-0.34-0.01-0.61-0.3-0.6-0.64l1.77-46.93
				c0.01-0.34,0.3-0.61,0.64-0.6c0.34,0.01,0.61,0.3,0.6,0.64l-1.75,46.31l53.35,2.02c0.34,0.01,0.61,0.3,0.6,0.64
				C200.04,102.16,199.76,102.43,199.43,102.43z"/>
		</g>
		<g id="SPLINE_00000021810382048822086560000014190687705531914167_">
			<path class="st1" d="M205.07,66.21c-0.06,0-0.12,0-0.18,0c-1.26-0.05-2.43-0.58-3.29-1.51c-0.86-0.93-1.31-2.13-1.26-3.4
				s0.58-2.43,1.51-3.29c0.93-0.86,2.14-1.31,3.4-1.26c1.26,0.05,2.43,0.58,3.29,1.51c0.86,0.93,1.31,2.13,1.26,3.4
				s-0.58,2.43-1.51,3.29C207.4,65.77,206.27,66.21,205.07,66.21z M205.07,57.99c-0.88,0-1.72,0.33-2.37,0.93
				c-0.68,0.63-1.08,1.5-1.11,2.43c-0.04,0.93,0.29,1.82,0.93,2.5c0.63,0.68,1.5,1.08,2.43,1.11c0.93,0.03,1.82-0.29,2.5-0.93
				s1.08-1.5,1.11-2.43l0,0c0.04-0.93-0.29-1.82-0.93-2.5c-0.63-0.68-1.5-1.08-2.43-1.11C205.16,57.99,205.11,57.99,205.07,57.99z"
				/>
		</g>
		<g id="POLYLINE_00000128469931798039849410000016147619970853786759_">
			<path class="st1" d="M175.04,94.14c-0.01,0-0.02,0-0.02,0c-0.34-0.01-0.61-0.3-0.6-0.64l1.27-33.68c0.01-0.34,0.32-0.61,0.64-0.6
				c0.34,0.01,0.61,0.3,0.6,0.64l-1.27,33.68C175.65,93.88,175.37,94.14,175.04,94.14z"/>
		</g>
		<g id="POLYLINE_00000087370990975615398790000009830257635760575373_">
			<path class="st1" d="M192.52,77.94c-0.01,0-0.02,0-0.02,0l-33.68-1.27c-0.34-0.01-0.61-0.3-0.6-0.64s0.31-0.62,0.64-0.6
				l33.68,1.27c0.34,0.01,0.61,0.3,0.6,0.64C193.12,77.68,192.85,77.94,192.52,77.94z"/>
		</g>
		<g id="POLYLINE_00000150821843005539783090000004325113567552366240_">
			<path class="st1" d="M185.43,87.83c-0.17,0-0.33-0.07-0.46-0.2l-19.51-21.05c-0.23-0.25-0.22-0.64,0.03-0.88
				c0.25-0.23,0.64-0.22,0.88,0.03l19.51,21.05c0.23,0.25,0.22,0.64-0.03,0.88C185.74,87.77,185.58,87.83,185.43,87.83z"/>
		</g>
		<g id="POLYLINE_00000083773955810662397990000010849150443297374608_">
			<path class="st1" d="M165.15,87.06c-0.17,0-0.33-0.07-0.46-0.2c-0.23-0.25-0.22-0.64,0.03-0.88l21.05-19.52
				c0.25-0.23,0.64-0.22,0.88,0.03c0.23,0.25,0.22,0.64-0.03,0.88l-21.05,19.52C165.45,87.01,165.3,87.06,165.15,87.06z"/>
		</g>
		<g id="POLYLINE_00000152265951342225649100000001140489543815824820_">
			<path class="st1" d="M176.12,65.69c-0.01,0-0.02,0-0.02,0c-0.17-0.01-0.32-0.08-0.43-0.2l-4.82-5.2
				c-0.23-0.25-0.22-0.64,0.03-0.88c0.25-0.23,0.64-0.22,0.88,0.03l4.4,4.74l4.74-4.4c0.25-0.23,0.64-0.22,0.88,0.03
				c0.23,0.25,0.22,0.64-0.03,0.88l-5.2,4.82C176.42,65.63,176.27,65.69,176.12,65.69z"/>
		</g>
		<g id="POLYLINE_00000103984082178918121530000006713489850531254665_">
			<path class="st1" d="M180.06,94.12c-0.17,0-0.33-0.07-0.46-0.2l-4.4-4.74l-4.74,4.4c-0.25,0.23-0.64,0.22-0.88-0.03
				c-0.23-0.25-0.22-0.64,0.03-0.88l5.2-4.82c0.25-0.23,0.64-0.22,0.88,0.03l4.82,5.2c0.23,0.25,0.22,0.64-0.03,0.88
				C180.36,94.06,180.21,94.12,180.06,94.12z"/>
		</g>
		<g id="POLYLINE_00000038392105482111561720000004931496966241522076_">
			<path class="st1" d="M158.86,81.68c-0.17,0-0.33-0.07-0.46-0.2c-0.23-0.25-0.22-0.64,0.03-0.88l4.74-4.4l-4.4-4.74
				c-0.23-0.25-0.22-0.64,0.03-0.88c0.25-0.23,0.64-0.22,0.88,0.03l4.82,5.2c0.23,0.25,0.22,0.64-0.03,0.88l-5.2,4.82
				C159.16,81.63,159.01,81.68,158.86,81.68z"/>
		</g>
		<g id="POLYLINE_00000011716969591281254040000018053322984368174511_">
			<path class="st1" d="M192.11,82.94c-0.17,0-0.33-0.07-0.46-0.2l-4.82-5.2c-0.11-0.12-0.17-0.28-0.17-0.45
				c0.01-0.16,0.08-0.32,0.2-0.43l5.2-4.82c0.25-0.23,0.64-0.22,0.88,0.03c0.23,0.25,0.22,0.64-0.03,0.88l-4.75,4.4l4.4,4.74
				c0.23,0.25,0.22,0.64-0.03,0.88C192.42,82.89,192.26,82.94,192.11,82.94z"/>
		</g>
		<g id="POLYLINE_00000129205553624205801480000004571238945809644478_">
			<path class="st1" d="M188.73,71.34c-0.01,0-0.02,0-0.02,0l-6.37-0.24c-0.34-0.01-0.61-0.3-0.6-0.64l0.24-6.37
				c0.01-0.34,0.31-0.62,0.64-0.6c0.34,0.01,0.61,0.3,0.6,0.64l-0.22,5.74l5.74,0.22c0.34,0.01,0.61,0.3,0.6,0.64
				C189.34,71.08,189.06,71.34,188.73,71.34z"/>
		</g>
		<g id="POLYLINE_00000080907809545574855270000004181825311039059884_">
			<path class="st1" d="M169.47,70.61c-0.01,0-0.02,0-0.02,0l-6.37-0.24c-0.34-0.01-0.61-0.3-0.6-0.64c0.01-0.34,0.31-0.61,0.64-0.6
				l5.74,0.22l0.22-5.74c0.01-0.34,0.31-0.62,0.64-0.6c0.34,0.01,0.61,0.3,0.6,0.64l-0.24,6.37c-0.01,0.16-0.08,0.32-0.2,0.43
				C169.78,70.55,169.63,70.61,169.47,70.61z"/>
		</g>
		<g id="POLYLINE_00000149361672165666639080000005818345153769001635_">
			<path class="st1" d="M181.64,90.36c-0.01,0-0.02,0-0.02,0c-0.34-0.01-0.61-0.3-0.6-0.64l0.24-6.37c0.01-0.34,0.31-0.62,0.64-0.6
				l6.37,0.24c0.34,0.01,0.61,0.3,0.6,0.64s-0.31,0.62-0.64,0.6l-5.74-0.22l-0.22,5.74C182.25,90.09,181.97,90.36,181.64,90.36z"/>
		</g>
		<g id="POLYLINE_00000115501991644852617090000017460085693046802064_">
			<path class="st1" d="M168.75,89.87c-0.01,0-0.02,0-0.02,0c-0.34-0.01-0.61-0.3-0.6-0.64l0.22-5.74l-5.75-0.22
				c-0.34-0.01-0.61-0.3-0.6-0.64c0.01-0.34,0.31-0.62,0.64-0.6l6.37,0.24c0.17,0.01,0.32,0.08,0.43,0.2
				c0.11,0.12,0.17,0.28,0.17,0.45l-0.24,6.37C169.35,89.61,169.08,89.87,168.75,89.87z"/>
		</g>
	</g>
	<g>
		<g id="LWPOLYLINE_00000108290484745159392910000017540947203683436929_">
			<path class="st1" d="M670.04,522.11c-0.16,0-0.32-0.06-0.44-0.18c-0.12-0.12-0.18-0.27-0.18-0.44l-0.11-53.46
				c0-0.34,0.28-0.62,0.62-0.62l70.44-0.15h0c0.34,0,0.62,0.28,0.62,0.62l0.12,53.46c0,0.17-0.06,0.32-0.18,0.44
				s-0.27,0.18-0.44,0.18L670.04,522.11L670.04,522.11z M670.54,468.64l0.11,52.22l69.2-0.15l-0.11-52.22L670.54,468.64z"/>
		</g>
		<g id="LINE_00000103956017150681246400000014395373266716964259_">
			<path class="st1" d="M700.55,513.9c-0.16,0-0.32-0.06-0.44-0.18c-0.24-0.24-0.24-0.64,0-0.88l17.23-17.3
				c0.24-0.24,0.64-0.24,0.88,0c0.24,0.24,0.24,0.64,0,0.88l-17.23,17.3C700.87,513.84,700.71,513.9,700.55,513.9z"/>
		</g>
		<g id="LINE_00000018937571344800765860000015682508710878418310_">
			<path class="st1" d="M696.72,498.32c-0.16,0-0.32-0.06-0.44-0.18c-0.24-0.24-0.24-0.64,0-0.88l9.73-9.77
				c0.24-0.24,0.64-0.24,0.88,0c0.24,0.24,0.24,0.64,0,0.88l-9.73,9.77C697.04,498.26,696.88,498.32,696.72,498.32z"/>
		</g>
		<g id="LINE_00000155120148908734420400000010837649875572917134_">
			<path class="st1" d="M696.73,511.46c-0.16,0-0.32-0.06-0.44-0.18c-0.24-0.24-0.24-0.64,0-0.88l14.02-14.08
				c0.24-0.24,0.64-0.24,0.88,0c0.24,0.24,0.24,0.64,0,0.88l-14.02,14.08C697.05,511.4,696.89,511.46,696.73,511.46z"/>
		</g>
		<g id="LINE_00000054955806998333121050000002625994145311269540_">
			<path class="st1" d="M706.41,514.89c-0.16,0-0.32-0.06-0.44-0.18c-0.24-0.24-0.24-0.64,0-0.88l10.82-10.87
				c0.24-0.24,0.64-0.24,0.88,0c0.24,0.24,0.24,0.64,0,0.88l-10.82,10.87C706.73,514.83,706.57,514.89,706.41,514.89z"/>
		</g>
		<g id="LINE_00000032623608181850176140000000738073645755632056_">
			<path class="st1" d="M696.76,507.9c-0.16,0-0.32-0.06-0.44-0.18c-0.24-0.24-0.24-0.64,0-0.88l16.72-16.79
				c0.24-0.24,0.64-0.24,0.88,0c0.24,0.24,0.24,0.64,0,0.88l-16.72,16.79C697.08,507.84,696.92,507.9,696.76,507.9z"/>
		</g>
		<g id="ELLIPSE_00000041253884830801397860000011877166866900427416_">
			<path class="st1" d="M705.62,514.91c-3.68,0-7.14-1.43-9.75-4.03c-2.62-2.6-4.06-6.07-4.07-9.76c-0.01-3.69,1.42-7.16,4.03-9.78
				c2.6-2.62,6.07-4.06,9.76-4.07c0.01,0,0.02,0,0.03,0c3.68,0,7.14,1.43,9.75,4.03c2.62,2.6,4.06,6.07,4.07,9.76
				c0.01,3.69-1.42,7.16-4.03,9.78c-2.6,2.62-6.07,4.06-9.76,4.07C705.64,514.91,705.63,514.91,705.62,514.91z M705.62,488.52
				c-0.01,0-0.02,0-0.03,0c-3.36,0.01-6.51,1.32-8.88,3.7c-2.37,2.38-3.67,5.54-3.66,8.9c0.01,3.36,1.32,6.51,3.7,8.88
				c2.37,2.36,5.52,3.66,8.87,3.66c0.01,0,0.02,0,0.03,0c3.36-0.01,6.51-1.32,8.88-3.7c2.37-2.38,3.67-5.54,3.66-8.9
				c-0.01-3.36-1.32-6.51-3.7-8.88C712.12,489.82,708.97,488.52,705.62,488.52z"/>
		</g>
		<g id="ELLIPSE_00000005266328149720790490000000600410308612128423_">
			<path class="st1" d="M705.62,519.21c-9.97,0-18.1-8.1-18.12-18.08c-0.02-9.99,8.09-18.13,18.08-18.16l0,0c0.01,0,0.03,0,0.04,0
				c4.82,0,9.36,1.87,12.78,5.28c3.43,3.41,5.32,7.96,5.33,12.8c0.02,9.99-8.09,18.13-18.08,18.16
				C705.65,519.21,705.63,519.21,705.62,519.21z M705.59,484.22L705.59,484.22c-9.3,0.02-16.86,7.61-16.84,16.91
				c0.02,9.29,7.59,16.84,16.87,16.84c0.01,0,0.02,0,0.04,0c9.3-0.02,16.86-7.61,16.84-16.91c-0.01-4.51-1.77-8.74-4.97-11.92
				c-3.18-3.17-7.41-4.92-11.91-4.92C705.61,484.22,705.6,484.22,705.59,484.22z"/>
		</g>
		<g id="ELLIPSE_00000082349089457783847260000015816316728435523221_">
			<path class="st1" d="M715.12,477.42c-0.9,0-1.75-0.35-2.38-0.98c-0.64-0.64-0.99-1.49-1-2.39c0-0.34,0.28-0.62,0.62-0.62h0
				c0.34,0,0.62,0.28,0.62,0.62c0,0.57,0.22,1.11,0.63,1.51c0.4,0.4,0.94,0.62,1.51,0.62c0,0,0,0,0,0c0.57,0,1.11-0.22,1.51-0.63
				c0.4-0.4,0.62-0.94,0.62-1.51c0-0.34,0.28-0.62,0.62-0.62c0,0,0,0,0,0c0.34,0,0.62,0.28,0.62,0.62c0,0.9-0.35,1.75-0.98,2.39
				C716.87,477.06,716.03,477.42,715.12,477.42C715.12,477.42,715.12,477.42,715.12,477.42z"/>
		</g>
		<g id="ELLIPSE_00000053543120466784231170000003075756892639692175_">
			<path class="st1" d="M712.36,474.66c-0.34,0-0.62-0.28-0.62-0.62c0-0.9,0.35-1.75,0.98-2.39c0.64-0.64,1.49-0.99,2.39-1
				c0,0,0,0,0.01,0c0.9,0,1.75,0.35,2.38,0.98c0.64,0.64,0.99,1.49,1,2.39c0,0.34-0.28,0.62-0.62,0.62h0
				c-0.34,0-0.62-0.28-0.62-0.62c0-0.57-0.22-1.11-0.63-1.51c-0.4-0.4-0.94-0.62-1.51-0.62c0,0,0,0,0,0c-0.57,0-1.11,0.23-1.51,0.63
				c-0.4,0.4-0.62,0.94-0.62,1.51C712.98,474.38,712.7,474.66,712.36,474.66C712.36,474.66,712.36,474.66,712.36,474.66z"/>
		</g>
		<g id="ELLIPSE_00000080199101207658929210000014961834145327067820_">
			<path class="st1" d="M723.02,477.4c-0.9,0-1.75-0.35-2.39-0.98c-0.64-0.64-0.99-1.49-1-2.39c0-0.34,0.28-0.62,0.62-0.62h0
				c0.34,0,0.62,0.28,0.62,0.62c0,0.57,0.22,1.11,0.63,1.51c0.4,0.4,0.94,0.62,1.51,0.62c0,0,0,0,0,0c0.57,0,1.11-0.23,1.51-0.63
				c0.4-0.4,0.62-0.94,0.62-1.51c0-0.34,0.28-0.62,0.62-0.62c0,0,0,0,0,0c0.34,0,0.62,0.28,0.62,0.62c0,0.9-0.35,1.75-0.98,2.39
				C724.78,477.05,723.93,477.4,723.02,477.4C723.02,477.4,723.02,477.4,723.02,477.4z"/>
		</g>
		<g id="ELLIPSE_00000028287960990365436860000013003910727274764680_">
			<path class="st1" d="M720.26,474.65c-0.34,0-0.62-0.28-0.62-0.62c0-0.9,0.35-1.75,0.98-2.39c0.64-0.64,1.49-0.99,2.39-1
				c0,0,0,0,0.01,0c0.9,0,1.75,0.35,2.39,0.98c0.64,0.64,0.99,1.49,1,2.39c0,0.34-0.28,0.62-0.62,0.62h0
				c-0.34,0-0.62-0.28-0.62-0.62c0-0.57-0.22-1.11-0.63-1.51c-0.4-0.4-0.94-0.62-1.51-0.62c0,0,0,0,0,0c-0.57,0-1.11,0.23-1.51,0.63
				c-0.4,0.4-0.62,0.94-0.62,1.51C720.88,474.37,720.6,474.65,720.26,474.65C720.26,474.65,720.26,474.65,720.26,474.65z"/>
		</g>
		<g id="ELLIPSE_00000029751054955269258630000001293644829605180335_">
			<path class="st1" d="M730.92,477.38c-0.9,0-1.75-0.35-2.38-0.98c-0.64-0.64-0.99-1.49-1-2.39c0-0.34,0.28-0.62,0.62-0.62h0
				c0.34,0,0.62,0.28,0.62,0.62c0,0.57,0.22,1.11,0.63,1.51c0.4,0.4,0.94,0.62,1.51,0.62c0,0,0,0,0,0c0.57,0,1.11-0.23,1.51-0.63
				c0.4-0.4,0.62-0.94,0.62-1.51c0-0.34,0.28-0.62,0.62-0.62c0,0,0,0,0,0c0.34,0,0.62,0.28,0.62,0.62c0,0.9-0.35,1.75-0.98,2.39
				C732.68,477.03,731.83,477.38,730.92,477.38C730.93,477.38,730.92,477.38,730.92,477.38z"/>
		</g>
		<g id="ELLIPSE_00000007394540598438699670000017586078550968736160_">
			<path class="st1" d="M728.16,474.63c-0.34,0-0.62-0.28-0.62-0.62c0-0.9,0.35-1.75,0.98-2.39c0.64-0.64,1.49-0.99,2.39-0.99
				c0,0,0,0,0.01,0c0.9,0,1.75,0.35,2.38,0.98c0.64,0.64,0.99,1.49,1,2.39c0,0.34-0.28,0.62-0.62,0.62h0
				c-0.34,0-0.62-0.28-0.62-0.62c0-0.57-0.22-1.11-0.63-1.51c-0.4-0.4-0.94-0.62-1.51-0.62c0,0,0,0,0,0c-0.57,0-1.11,0.22-1.51,0.63
				c-0.4,0.4-0.62,0.94-0.62,1.51C728.78,474.35,728.51,474.63,728.16,474.63C728.16,474.63,728.16,474.63,728.16,474.63z"/>
		</g>
		<g id="LINE_00000028302733472951250780000013645798869389232292_">
			<path class="st1" d="M669.95,481.42c-0.34,0-0.62-0.28-0.62-0.62c0-0.34,0.28-0.62,0.62-0.62l70.44-0.15h0
				c0.34,0,0.62,0.28,0.62,0.62c0,0.34-0.28,0.62-0.62,0.62L669.95,481.42L669.95,481.42z"/>
		</g>
		<g id="ELLIPSE_00000167359853823050064000000012292624353128873601_">
			<path class="st1" d="M674.82,476.6c-1.36,0-2.47-1.11-2.47-2.47c0-1.36,1.1-2.48,2.47-2.48c0,0,0,0,0,0c0,0,0,0,0,0
				c0.66,0,1.28,0.26,1.75,0.72c0.47,0.47,0.73,1.09,0.73,1.75c0,0.66-0.25,1.28-0.72,1.75C676.1,476.34,675.48,476.6,674.82,476.6
				C674.82,476.6,674.82,476.6,674.82,476.6z M674.81,472.89L674.81,472.89c-0.68,0-1.23,0.56-1.23,1.23c0,0.68,0.55,1.23,1.23,1.23
				c0,0,0,0,0,0c0.33,0,0.64-0.13,0.87-0.36c0.23-0.23,0.36-0.54,0.36-0.87c0-0.33-0.13-0.64-0.36-0.87
				C675.45,473.02,675.14,472.89,674.81,472.89C674.81,472.89,674.81,472.89,674.81,472.89z"/>
		</g>
	</g>
	<g id="SPLINE_00000162334787893503935000000005934655368845282718_">
		<path class="st1" d="M834.99,515.51c-3.54,0-6.88-1.27-9.44-3.61c-2.65-2.41-4.15-5.66-4.22-9.15l-2.76-127.3
			c-0.41-18.98,14.92-34.6,34.91-35.58c20.23-0.98,37.48,13.82,38.47,32.99l2.78,128.29c0.08,3.49-1.28,6.81-3.83,9.33
			c-2.53,2.51-5.94,3.94-9.6,4.02l-45.99,1C835.2,515.51,835.1,515.51,834.99,515.51z M855.38,341.08c-0.61,0-1.23,0.01-1.84,0.04
			c-19.31,0.94-34.12,16.01-33.73,34.31l2.76,127.3c0.07,3.15,1.42,6.08,3.82,8.26c2.4,2.19,5.58,3.36,8.9,3.28l45.99-1
			c3.33-0.07,6.44-1.37,8.75-3.66c2.3-2.28,3.53-5.27,3.46-8.42l0,0l-2.78-128.27C889.78,355.03,874.11,341.08,855.38,341.08z"/>
	</g>
	<g id="SPLINE_00000066497655179081176570000011119637819603256236_">
		<path class="st1" d="M859.02,506.21c-3.12,0-5.68-2.39-5.75-5.38c-0.03-1.48,0.54-2.88,1.61-3.94c1.06-1.06,2.49-1.66,4.03-1.69
			c3.2-0.05,5.81,2.34,5.88,5.38c0.03,1.48-0.54,2.88-1.61,3.94c-1.06,1.06-2.49,1.66-4.03,1.69
			C859.11,506.21,859.06,506.21,859.02,506.21z M859.04,496.44c-0.04,0-0.07,0-0.11,0c-1.21,0.03-2.34,0.5-3.18,1.33
			c-0.83,0.82-1.27,1.9-1.25,3.03c0.05,2.35,2.15,4.2,4.61,4.17c1.21-0.03,2.34-0.5,3.18-1.33c0.83-0.82,1.27-1.9,1.25-3.03
			C863.5,498.29,861.49,496.44,859.04,496.44z"/>
	</g>
	<g id="LWPOLYLINE_00000024714047535960931240000002206912066813993911_">
		<path class="st1" d="M814.25,521.67c-0.34,0-0.61-0.27-0.62-0.61l-4.28-197.96c-0.01-0.34,0.26-0.63,0.61-0.63l88.04-1.91
			c0.14,0,0.32,0.06,0.44,0.17c0.12,0.11,0.19,0.27,0.19,0.44l4.32,199.55c0,0.17-0.06,0.33-0.18,0.45
			c-0.12,0.12-0.28,0.19-0.44,0.19L814.25,521.67C814.25,521.67,814.25,521.67,814.25,521.67z M810.6,323.7l4.26,196.73l86.83-0.31
			l-4.29-198.29L810.6,323.7z"/>
	</g>
	<g id="POLYLINE_00000036945469877801098730000004523770202683923620_">
		<path class="st1" d="M315.96,110.01c-0.01,0-0.01,0-0.02,0l-70.41-2.27c-0.16-0.01-0.32-0.08-0.43-0.2
			c-0.11-0.12-0.17-0.28-0.17-0.44l2.27-70.41c0.01-0.16,0.08-0.32,0.2-0.43s0.29-0.17,0.45-0.17l70.41,2.27
			c0.34,0.01,0.61,0.3,0.6,0.64l-2.27,70.41c-0.01,0.16-0.08,0.32-0.2,0.43C316.27,109.95,316.12,110.01,315.96,110.01z
			 M246.19,106.51l69.17,2.23l2.23-69.17l-69.17-2.23L246.19,106.51z"/>
	</g>
	<g id="SPLINE_00000110452895206794380810000011227870750404978864_">
		<path class="st1" d="M266.3,100.18c-0.14,0-0.28,0-0.41-0.01c-6.89-0.22-12.32-6.01-12.09-12.9c0.11-3.34,1.51-6.44,3.95-8.72
			c2.44-2.28,5.6-3.49,8.96-3.38c6.89,0.22,12.32,6.01,12.1,12.9c-0.11,3.34-1.51,6.44-3.95,8.72
			C272.51,98.99,269.49,100.18,266.3,100.18z M266.28,76.41c-2.87,0-5.59,1.07-7.69,3.05c-2.19,2.06-3.46,4.85-3.55,7.85
			c-0.2,6.21,4.69,11.42,10.89,11.62c6.21,0.2,11.42-4.69,11.62-10.89c0.2-6.21-4.69-11.42-10.89-11.62
			C266.53,76.41,266.41,76.41,266.28,76.41z"/>
	</g>
	<g id="SPLINE_00000119830989851539836490000015007738944344619710_">
		<path class="st1" d="M266.3,96.65c-0.1,0-0.2,0-0.29,0l0,0c-2.4-0.08-4.62-1.08-6.26-2.83c-1.64-1.75-2.5-4.04-2.42-6.43
			s1.08-4.62,2.83-6.26c1.75-1.64,4.04-2.5,6.43-2.42c4.95,0.16,8.85,4.32,8.69,9.27C275.11,92.81,271.12,96.65,266.3,96.65z
			 M266.04,95.41c4.22,0.14,7.85-3.22,7.99-7.49c0.14-4.27-3.22-7.85-7.49-7.99c-2.06-0.08-4.03,0.68-5.54,2.09
			c-1.51,1.41-2.38,3.33-2.44,5.4c-0.07,2.07,0.67,4.04,2.09,5.54S263.98,95.34,266.04,95.41z"/>
	</g>
	<g id="SPLINE_00000046332943140297503340000003994463650746598064_">
		<path class="st1" d="M297.5,70.93c-0.14,0-0.27,0-0.41-0.01c0,0,0,0,0,0c-6.89-0.22-12.32-6.01-12.09-12.9
			c0.22-6.89,5.97-12.31,12.9-12.1c6.89,0.22,12.32,6.01,12.09,12.9C309.77,65.58,304.21,70.93,297.5,70.93z M297.13,69.68
			c6.19,0.2,11.42-4.69,11.62-10.89s-4.69-11.42-10.89-11.62c-6.23-0.2-11.42,4.69-11.62,10.89S290.92,69.48,297.13,69.68
			L297.13,69.68z"/>
	</g>
	<g id="SPLINE_00000092457994316700011440000007103027754283745426_">
		<path class="st1" d="M297.5,67.41c-0.1,0-0.2,0-0.29,0c-2.4-0.08-4.62-1.08-6.26-2.83c-1.64-1.75-2.5-4.04-2.42-6.43
			c0.16-4.95,4.31-8.82,9.27-8.69c2.4,0.08,4.62,1.08,6.26,2.83c1.64,1.75,2.5,4.04,2.42,6.43
			C306.31,63.57,302.32,67.41,297.5,67.41z M297.49,50.68c-4.15,0-7.6,3.31-7.73,7.49c-0.07,2.07,0.67,4.04,2.09,5.54
			c1.41,1.51,3.33,2.38,5.4,2.44l0,0c0.08,0,0.17,0,0.25,0c4.15,0,7.6-3.31,7.73-7.49c0.07-2.07-0.67-4.04-2.09-5.54
			s-3.33-2.38-5.4-2.44C297.66,50.69,297.57,50.68,297.49,50.68z"/>
	</g>
	<g id="SPLINE_00000142865366697633876570000016114190146202970780_">
		<path class="st1" d="M267.27,65.17c-0.08,0-0.17,0-0.25,0l0,0c-2.06-0.07-3.97-0.93-5.38-2.44c-1.41-1.5-2.15-3.47-2.08-5.53
			c0.14-4.25,3.69-7.57,7.97-7.47c2.06,0.07,3.97,0.93,5.38,2.44c1.41,1.5,2.15,3.47,2.08,5.53
			C274.85,61.87,271.41,65.17,267.27,65.17z M267.06,63.92c3.55,0.11,6.57-2.69,6.68-6.26c0.06-1.73-0.56-3.38-1.75-4.64
			s-2.79-1.99-4.52-2.04c-3.56-0.12-6.57,2.69-6.68,6.26c-0.06,1.73,0.56,3.38,1.75,4.64C263.73,63.14,265.33,63.87,267.06,63.92z"
			/>
	</g>
	<g id="SPLINE_00000093887402753747663540000001653290302664465282_">
		<path class="st1" d="M267.27,61.65c-0.05,0-0.09,0-0.14,0h0c-2.31-0.08-4.13-2.02-4.06-4.33c0.04-1.12,0.51-2.16,1.32-2.93
			s1.89-1.17,3.01-1.13c2.31,0.08,4.13,2.02,4.06,4.33c-0.04,1.12-0.51,2.16-1.32,2.93C269.36,61.25,268.34,61.65,267.27,61.65z
			 M267.17,60.4c0.81,0.02,1.54-0.26,2.12-0.8c0.58-0.54,0.91-1.27,0.93-2.06c0.05-1.63-1.23-3-2.86-3.05
			c-0.79-0.02-1.54,0.26-2.12,0.8c-0.58,0.54-0.91,1.27-0.93,2.06C264.26,58.98,265.54,60.35,267.17,60.4L267.17,60.4z"/>
	</g>
	<g id="SPLINE_00000157989914811507839190000012088740084944296596_">
		<path class="st1" d="M296.52,96.37c-0.08,0-0.17,0-0.25,0c-2.06-0.07-3.97-0.93-5.38-2.44c-1.41-1.5-2.15-3.47-2.08-5.53
			c0.07-2.06,0.93-3.97,2.44-5.38c1.5-1.41,3.46-2.15,5.53-2.08c4.25,0.14,7.6,3.71,7.47,7.96
			C304.1,93.07,300.66,96.37,296.52,96.37z M296.51,82.17c-1.65,0-3.21,0.62-4.42,1.75c-1.26,1.18-1.99,2.79-2.04,4.52
			c-0.06,1.73,0.56,3.38,1.75,4.64s2.79,1.99,4.52,2.04c3.54,0.12,6.57-2.7,6.68-6.26c0.12-3.57-2.7-6.57-6.27-6.68
			C296.65,82.17,296.58,82.17,296.51,82.17z"/>
	</g>
	<g id="SPLINE_00000168819890322202549360000003211974758236702899_">
		<path class="st1" d="M296.52,92.85c-0.05,0-0.09,0-0.14,0c0,0,0,0,0,0c-1.12-0.04-2.16-0.51-2.93-1.32
			c-0.77-0.82-1.17-1.89-1.13-3.01c0.07-2.27,1.94-4.06,4.19-4.06c0.05,0,0.09,0,0.14,0c2.31,0.08,4.13,2.02,4.06,4.33
			c-0.04,1.12-0.51,2.16-1.32,2.93C298.6,92.45,297.59,92.85,296.52,92.85z M296.42,91.6c0.81,0.03,1.54-0.26,2.12-0.8
			c0.58-0.54,0.91-1.27,0.93-2.06c0.05-1.63-1.23-3-2.86-3.05c-0.03,0-0.06,0-0.1,0c-1.59,0-2.9,1.26-2.95,2.86
			c-0.03,0.79,0.26,1.54,0.8,2.12C294.9,91.24,295.63,91.58,296.42,91.6L296.42,91.6z"/>
	</g>
	<g id="SPLINE_00000062162024195163049880000014825566158620966282_">
		<path class="st1" d="M372.31,64.1c-0.03,0-0.05,0-0.08,0c-0.34-0.01-0.62-0.29-0.61-0.64c0.01-0.34,0.26-0.61,0.63-0.61
			c1.21,0.04,2.13-0.9,2.16-2.06c0.01-0.34,0.26-0.61,0.63-0.61c0.34,0.01,0.62,0.29,0.61,0.64
			C375.62,62.64,374.13,64.1,372.31,64.1z"/>
	</g>
	<g id="SPLINE_00000142153082576936100100000001377519907223399097_">
		<path class="st1" d="M372.25,64.09c0,0-0.01,0-0.01,0c-1.85-0.04-3.32-1.58-3.28-3.43c0.02-0.9,0.39-1.73,1.04-2.35
			c0.65-0.62,1.5-0.95,2.39-0.93c0.34,0.01,0.62,0.29,0.61,0.64s-0.29,0.59-0.63,0.61c-0.56-0.02-1.1,0.19-1.51,0.58
			c-0.41,0.39-0.64,0.91-0.65,1.48c-0.03,1.16,0.9,2.13,2.06,2.16c0.34,0.01,0.62,0.29,0.61,0.64
			C372.86,63.83,372.58,64.09,372.25,64.09z"/>
	</g>
	<g id="SPLINE_00000094611034028640864250000003850874690573914302_">
		<path class="st1" d="M375.04,61.42c0,0-0.01,0-0.01,0c-0.34-0.01-0.62-0.29-0.61-0.64c0.01-0.56-0.2-1.1-0.58-1.51
			s-0.91-0.64-1.48-0.65c-0.34-0.01-0.62-0.29-0.61-0.64s0.34-0.61,0.63-0.61c0.9,0.02,1.73,0.39,2.35,1.04
			c0.62,0.65,0.95,1.5,0.93,2.39C375.66,61.16,375.38,61.42,375.04,61.42z"/>
	</g>
	<g id="POLYLINE_00000167388811617398717500000003748137201629432736_">
		<path class="st1" d="M362.43,66.19c0,0-0.01,0-0.01,0c-0.34-0.01-0.62-0.29-0.61-0.64l0.05-2.34c0.01-0.34,0.24-0.61,0.63-0.61
			c0.34,0.01,0.62,0.29,0.61,0.64l-0.05,2.34C363.05,65.92,362.77,66.19,362.43,66.19z"/>
	</g>
	<g id="SPLINE_00000103952498807198828800000000565145328237062038_">
		<path class="st1" d="M402.28,105.22c-0.09,0-0.19,0-0.28,0l-28.89-0.66c-3.25-0.07-6.28-1.41-8.53-3.76s-3.44-5.44-3.37-8.69
			l0.66-28.89c0.15-6.71,5.78-12.04,12.45-11.9l28.89,0.66c3.25,0.07,6.28,1.41,8.53,3.76c2.25,2.35,3.44,5.44,3.37,8.69
			l-0.66,28.89c-0.07,3.25-1.41,6.28-3.76,8.53C408.4,104.03,405.43,105.22,402.28,105.22z M374.04,52.56
			c-5.92,0-10.79,4.74-10.93,10.69l-0.66,28.89c-0.07,2.92,1.01,5.69,3.03,7.8c2.02,2.11,4.74,3.31,7.66,3.38l28.89,0.66
			c2.95,0.06,5.69-1.01,7.8-3.03s3.31-4.74,3.38-7.66l0.66-28.89c0.07-2.92-1.01-5.69-3.03-7.8c-2.02-2.11-4.74-3.31-7.66-3.38
			l-28.89-0.66C374.21,52.56,374.12,52.56,374.04,52.56z"/>
	</g>
	<g id="POLYLINE_00000096760754923539463480000017844971190546413997_">
		<path class="st1" d="M397.55,47.31c0,0-0.01,0-0.01,0l-17.33-0.39c-0.34-0.01-0.62-0.29-0.61-0.64c0.01-0.34,0.28-0.61,0.62-0.61
			c0,0,0.01,0,0.01,0l17.33,0.39c0.34,0.01,0.62,0.29,0.61,0.64C398.16,47.04,397.88,47.31,397.55,47.31z"/>
	</g>
	<g id="POLYLINE_00000026132072292530536400000016780111001853207204_">
		<path class="st1" d="M394.59,50.14c0,0-0.01,0-0.01,0c-0.34-0.01-0.61-0.29-0.61-0.64l0.13-5.78c0.01-0.34,0.27-0.63,0.64-0.61
			c0.34,0.01,0.61,0.29,0.61,0.64l-0.13,5.78C395.2,49.87,394.93,50.14,394.59,50.14z"/>
	</g>
	<g id="POLYLINE_00000003063254008793266320000000514712920549005954_">
		<path class="st1" d="M383.04,49.87c0,0-0.01,0-0.01,0c-0.34-0.01-0.62-0.29-0.61-0.64l0.13-5.78c0.01-0.34,0.27-0.61,0.63-0.61
			c0.34,0.01,0.62,0.29,0.61,0.64l-0.13,5.78C383.65,49.6,383.37,49.87,383.04,49.87z"/>
	</g>
	<g id="POLYLINE_00000111910943589295123200000014189828770938508928_">
		<path class="st1" d="M405.32,69.03c-0.19,0-0.38-0.09-0.5-0.25l-16.44-21.92c-0.21-0.27-0.15-0.66,0.12-0.87
			c0.28-0.21,0.66-0.15,0.87,0.12l16.44,21.92c0.21,0.27,0.15,0.66-0.12,0.87C405.58,68.99,405.45,69.03,405.32,69.03z"/>
	</g>
	<g id="LWPOLYLINE_00000157297935189442658370000015883003658338161577_">
		<path class="st1" d="M422.62,112.56c0,0-0.01,0-0.01,0l-70.43-1.6c-0.34-0.01-0.62-0.29-0.61-0.64l1.6-70.43
			c0-0.16,0.07-0.32,0.19-0.44s0.3-0.18,0.44-0.17l70.43,1.6c0.34,0.01,0.62,0.29,0.61,0.64l-1.6,70.43c0,0.16-0.07,0.32-0.19,0.44
			C422.94,112.5,422.78,112.56,422.62,112.56z M352.83,109.74l69.18,1.57l1.57-69.18l-69.18-1.57L352.83,109.74z"/>
	</g>
	<g id="SPLINE_00000022528925241215425350000004467189965292465058_">
		<path class="st1" d="M775.29,505.35c-0.14,0-0.29-0.05-0.4-0.15c-0.26-0.22-0.29-0.61-0.07-0.88c0.3-0.35,0.71-0.65,1.18-0.87
			c1.65-0.74,3.75-0.37,4.8,0.84c0.22,0.26,0.19,0.65-0.07,0.88c-0.26,0.22-0.65,0.19-0.88-0.07c-0.68-0.79-2.21-1.03-3.35-0.52
			c-0.3,0.14-0.56,0.32-0.74,0.54C775.64,505.28,775.46,505.35,775.29,505.35z"/>
	</g>
	<g id="SPLINE_00000014611490470910184390000007293563486034679731_">
		<path class="st1" d="M777.78,502.8c-0.99,0-1.93-0.28-2.64-0.8c-0.78-0.56-1.21-1.33-1.22-2.16c0-1.67,1.69-2.98,3.86-2.99l0,0
			c0.01,0,0.01,0,0.02,0c2.13,0,3.86,1.32,3.86,2.96c0,0.83-0.42,1.6-1.2,2.17c-0.72,0.52-1.66,0.81-2.66,0.82
			C777.79,502.8,777.79,502.8,777.78,502.8z M777.78,498.1L777.78,498.1c-1.42,0.01-2.62,0.8-2.62,1.74c0,0.42,0.25,0.83,0.7,1.16
			c0.51,0.36,1.19,0.56,1.92,0.56c0,0,0.01,0,0.02,0c0.74,0,1.42-0.21,1.93-0.58c0.45-0.33,0.69-0.74,0.69-1.16
			c0-0.93-1.2-1.72-2.62-1.72C777.79,498.1,777.79,498.1,777.78,498.1z"/>
	</g>
	<g id="SPLINE_00000114757031366306561330000017282546533315447471_">
		<path class="st1" d="M777.67,519.16c-8.45,0-16.41-2.13-22.42-6.01c-6.14-3.96-9.53-9.27-9.55-14.96
			c-0.04-11.63,14.31-21.14,31.99-21.21l0,0c0.06,0,0.12,0,0.18,0c8.45,0,16.41,2.13,22.42,6.01c6.14,3.96,9.53,9.27,9.55,14.96
			c0.02,5.69-3.33,11.02-9.44,15.03c-6.02,3.95-14.04,6.15-22.55,6.18C777.79,519.16,777.73,519.16,777.67,519.16z M777.7,478.22
			L777.7,478.22c-17,0.06-30.79,9.02-30.76,19.96c0.02,5.25,3.21,10.19,8.98,13.92c5.81,3.75,13.53,5.81,21.74,5.81
			c0.06,0,0.12,0,0.18,0c8.28-0.03,16.05-2.15,21.88-5.98c5.74-3.77,8.9-8.74,8.88-13.99c-0.02-5.25-3.21-10.19-8.98-13.92
			C793.77,480.25,785.97,478.2,777.7,478.22z"/>
	</g>
	<g id="SPLINE_00000178893990781536920780000017094955195115988386_">
		<path class="st1" d="M767.17,509.62c-0.06,0-0.12-0.01-0.19-0.03c-4.75-1.49-8.69-3.98-11.08-7.02c-2.48-3.15-3.26-6.8-2.2-10.28
			c1.49-4.88,6.29-8.94,13.17-11.15c12.01-3.86,26.7-0.74,32.75,6.94c2.48,3.15,3.26,6.8,2.2,10.28
			c-1.49,4.88-6.29,8.94-13.17,11.15c-0.06,0.02-0.12,0.03-0.19,0.03l-8.13,0.03c0,0,0,0,0,0c-0.34,0-0.62-0.28-0.62-0.62
			c0-0.34,0.28-0.62,0.62-0.62l8.03-0.03c6.44-2.09,10.91-5.84,12.27-10.3c0.96-3.12,0.27-6.29-1.98-9.15
			c-5.75-7.31-19.83-10.24-31.39-6.53c-6.49,2.08-10.99,5.85-12.36,10.33c-0.96,3.12-0.27,6.29,1.98,9.15
			c2.24,2.84,5.96,5.19,10.48,6.6c0.33,0.1,0.51,0.45,0.41,0.78C767.68,509.45,767.44,509.62,767.17,509.62z"/>
	</g>
	<g id="POLYLINE_00000153697515504093268780000004003424994787588275_">
		<path class="st1" d="M767.17,509.62c-0.34,0-0.62-0.28-0.62-0.62c0-0.34,0.28-0.62,0.62-0.62l8.13-0.03c0,0,0,0,0,0
			c0.34,0,0.62,0.28,0.62,0.62c0,0.34-0.28,0.62-0.62,0.62L767.17,509.62C767.17,509.62,767.17,509.62,767.17,509.62z"/>
	</g>
	<g id="LWPOLYLINE_00000008146724892985643390000015252584863710264976_">
		<path class="st1" d="M770.13,516.1c-0.34,0-0.62-0.28-0.62-0.62l-0.01-3.17c0-0.17,0.06-0.32,0.18-0.44
			c0.12-0.12,0.27-0.18,0.44-0.18l5.19-0.02c0,0,0,0,0,0c0.34,0,0.62,0.28,0.62,0.62c0,0.34-0.28,0.62-0.62,0.62l-4.57,0.02
			l0.01,1.93l14.17-0.05l-0.01-1.93l-4.57,0.02c0,0,0,0,0,0c-0.34,0-0.62-0.28-0.62-0.62c0-0.34,0.28-0.62,0.62-0.62l5.19-0.02
			c0,0,0,0,0,0c0.34,0,0.62,0.28,0.62,0.62l0.01,3.17c0,0.17-0.06,0.32-0.18,0.44c-0.12,0.12-0.27,0.18-0.44,0.18L770.13,516.1
			C770.13,516.1,770.13,516.1,770.13,516.1z"/>
	</g>
	<g id="LWPOLYLINE_00000176751968654180624440000006110681293805840034_">
		<path class="st1" d="M775.32,515.26c-0.34,0-0.62-0.28-0.62-0.62l-0.04-9.91c0-0.34,0.28-0.62,0.62-0.62c0,0,0,0,0,0
			c0.34,0,0.62,0.28,0.62,0.62l0.04,9.29l3.79-0.01l-0.03-9.29c0-0.34,0.28-0.62,0.62-0.62c0,0,0,0,0,0c0.34,0,0.62,0.28,0.62,0.62
			l0.04,9.91c0,0.34-0.28,0.62-0.62,0.62L775.32,515.26C775.32,515.26,775.32,515.26,775.32,515.26z"/>
	</g>
	<g id="LWPOLYLINE_00000166637598537135051180000003542736306704054204_">
		<path class="st1" d="M742.95,521.94c-0.16,0-0.32-0.06-0.44-0.18c-0.12-0.12-0.18-0.27-0.18-0.44l-0.17-46.96
			c0-0.34,0.28-0.62,0.62-0.62l70.44-0.26c0,0,0,0,0,0c0.16,0,0.32,0.06,0.44,0.18c0.12,0.12,0.18,0.27,0.18,0.44l0.17,46.96
			c0,0.34-0.28,0.62-0.62,0.62L742.95,521.94C742.95,521.94,742.95,521.94,742.95,521.94z M743.4,474.98l0.17,45.72l69.2-0.25
			l-0.17-45.72L743.4,474.98z"/>
	</g>
	<g id="SPLINE_00000144321219784529208900000016972710551227988624_">
		<path class="st1" d="M759.03,331.62c-0.58-0.03-1.09-0.11-1.57-0.26c-3.41-1.01-5.36-4.61-4.35-8.03
			c0.27-0.91,0.97-1.64,1.86-1.95c2.54-0.88,5.34-0.9,7.89-0.06c0.9,0.3,1.61,1.02,1.89,1.92l0,0c0.15,0.48,0.25,0.99,0.28,1.5
			C765.28,328.3,762.58,331.38,759.03,331.62z M759.01,321.96c-1.23,0-2.46,0.2-3.62,0.61c-0.52,0.18-0.92,0.6-1.08,1.13
			c-0.82,2.75,0.75,5.66,3.51,6.48c0.39,0.12,0.8,0.19,1.21,0.21c2.79-0.19,4.97-2.68,4.77-5.55c-0.03-0.41-0.1-0.82-0.23-1.21l0,0
			c-0.16-0.52-0.57-0.94-1.1-1.11C761.36,322.14,760.18,321.96,759.01,321.96z"/>
	</g>
	<g id="SPLINE_00000109741335655549108620000013589308666752154038_">
		<path class="st1" d="M759.03,350.64c-4.54,0-9.04-1.94-12.16-5.69c-1.45-1.74-2.4-3.85-2.74-6.09l0,0
			c-0.21-1.35-0.31-2.73-0.32-4.09l-0.09-12.36c-0.04-4.76,3.15-8.97,7.74-10.24c4.82-1.33,9.93-1.36,14.77-0.11
			c4.61,1.2,7.86,5.36,7.89,10.12l0.09,12.36c0.01,1.36-0.08,2.74-0.26,4.1c-0.31,2.25-1.22,4.37-2.64,6.13
			c-0.66,0.81-1.4,1.57-2.2,2.24C766.17,349.45,762.59,350.64,759.03,350.64z M745.37,338.67c0.31,2.02,1.16,3.91,2.46,5.48
			c5.12,6.17,14.31,7.02,20.48,1.89c0.74-0.62,1.43-1.31,2.03-2.06c1.28-1.59,2.1-3.5,2.38-5.52c0.18-1.3,0.26-2.62,0.25-3.92
			l-0.09-12.36c-0.03-4.2-2.89-7.87-6.96-8.93c-4.63-1.2-9.52-1.16-14.13,0.1c-4.05,1.11-6.86,4.83-6.83,9.03l0.09,12.36
			C745.07,336.06,745.17,337.38,745.37,338.67L745.37,338.67z"/>
	</g>
	<g id="SPLINE_00000147192595374975589630000009725731148066678157_">
		<path class="st1" d="M759.02,356.48c-5.71,0-11.09-2.2-15.17-6.22c-4.11-4.05-6.4-9.46-6.44-15.24l-0.24-32.66
			c0-0.07,0.01-0.14,0.03-0.21c0.84-2.45,1.72-4.94,2.62-7.39c0.09-0.25,0.34-0.41,0.61-0.41l8.67,0.28l7.08,0.07l6.99-0.05
			l6.14-0.2l7.69-0.38c0.27-0.02,0.53,0.13,0.63,0.4c0.94,2.45,1.86,4.92,2.73,7.36c0.02,0.07,0.04,0.13,0.04,0.21l0.24,32.66
			c0.04,5.77-2.16,11.22-6.22,15.33c-4.05,4.11-9.46,6.4-15.24,6.44C759.13,356.48,759.07,356.48,759.02,356.48z M738.41,302.46
			l0.24,32.55c0.04,5.44,2.2,10.54,6.07,14.36c3.84,3.78,8.91,5.86,14.29,5.86c0.05,0,0.1,0,0.16,0c5.44-0.04,10.54-2.2,14.36-6.07
			c3.82-3.88,5.9-9.01,5.86-14.45l-0.24-32.55c-0.81-2.25-1.66-4.54-2.52-6.81l-3,0.16l-10.44,0.39l-7.02,0.05l-10.78-0.16
			l-4.58-0.17C739.99,297.89,739.18,300.19,738.41,302.46z M777.04,294.71L777.04,294.71L777.04,294.71z"/>
	</g>
	<g id="SPLINE_00000119076878212876266980000003784545953903279270_">
		<path class="st1" d="M758.66,288.19c-0.58,0-1.13-0.22-1.54-0.63c-0.42-0.41-0.65-0.96-0.65-1.55c0-0.59,0.22-1.14,0.63-1.56
			s0.96-0.65,1.55-0.65l0,0c0.01,0,0.01,0,0.02,0c0.58,0,1.13,0.22,1.54,0.63c0.42,0.41,0.65,0.96,0.65,1.55
			c0,0.59-0.22,1.14-0.63,1.56c-0.41,0.42-0.96,0.65-1.55,0.65C758.67,288.19,758.66,288.19,758.66,288.19z M758.65,285.04
			c-0.25,0-0.49,0.1-0.67,0.28c-0.18,0.18-0.28,0.42-0.27,0.68c0,0.26,0.1,0.49,0.28,0.67c0.18,0.18,0.42,0.27,0.67,0.27
			c0,0,0,0,0.01,0c0.25,0,0.49-0.1,0.67-0.28c0.18-0.18,0.28-0.42,0.27-0.68c0-0.25-0.1-0.49-0.28-0.67
			C759.15,285.14,758.91,285.04,758.65,285.04C758.66,285.04,758.65,285.04,758.65,285.04L758.65,285.04z M758.65,284.42
			L758.65,284.42L758.65,284.42z"/>
	</g>
	<g id="SPLINE_00000075867564500937431240000014108897364829513618_">
		<path class="st1" d="M758.66,288.58c-0.68,0-1.33-0.26-1.81-0.74c-0.49-0.48-0.77-1.13-0.77-1.82c-0.01-0.69,0.26-1.34,0.74-1.83
			c0.48-0.49,1.13-0.77,1.82-0.77l0,0c0.66,0.01,1.34,0.26,1.83,0.74c0.49,0.48,0.77,1.13,0.77,1.82c0.01,1.42-1.14,2.59-2.56,2.6
			C758.67,288.58,758.67,288.58,758.66,288.58z M758.65,284.65L758.65,284.65c-0.36,0-0.69,0.15-0.95,0.4s-0.39,0.59-0.39,0.95
			c0,0.36,0.14,0.69,0.4,0.95c0.25,0.25,0.59,0.39,0.94,0.39c0,0,0.01,0,0.01,0c0.74-0.01,1.34-0.61,1.33-1.35
			c0-0.36-0.14-0.69-0.4-0.95C759.34,284.78,758.96,284.66,758.65,284.65z"/>
	</g>
	<g id="SPLINE_00000093177754088798795240000004001709130869210779_">
		<path class="st1" d="M756.11,295.95c-5.66,0-11.31-0.14-16.94-0.41c-0.88-0.07-1.59-0.43-2.11-1.04c-0.51-0.6-0.76-1.36-0.7-2.15
			l1.22-15.23c0.07-0.93,0.83-1.64,1.77-1.64l38.45-0.29c0,0,0.01,0,0.01,0c0.93,0,1.69,0.69,1.78,1.62l1.44,15.21
			c0,0,0,0.01,0,0.01l0.01,0.07c0.05,0.8-0.21,1.56-0.73,2.15c-0.52,0.59-1.24,0.95-2.03,1
			C770.93,295.72,763.51,295.95,756.11,295.95z M777.82,276.44C777.81,276.44,777.81,276.44,777.82,276.44l-38.45,0.29
			c-0.29,0-0.52,0.22-0.54,0.5l-1.22,15.23c-0.04,0.46,0.11,0.9,0.4,1.25c0.3,0.35,0.71,0.56,1.17,0.6
			c12.99,0.63,26.1,0.53,39.03-0.29c0.46-0.03,0.87-0.23,1.18-0.58c0.3-0.34,0.45-0.78,0.42-1.24l0.61-0.11l-0.62,0.06l-1.44-15.21
			C778.33,276.65,778.1,276.44,777.82,276.44z"/>
	</g>
	<g>
		<path class="st1" d="M681.74,43.89l-0.05-21.13l-8.96,0.02l-7.57,0.02l-49.29-0.12l-86.09-0.65l-9.4-0.13l-46.14-0.62l-91.95-1.81
			l-118.21-3.34l-120.53-4.59L103.63,10l-0.49,11.17l-1.98,45.45l-0.03,0.64l-0.23,5.86l0.61,0.03l17.53,0.74l0.6,0.03l0.03-0.61
			l0.26-5.17l0.61,0.03l9.32,0.42l1.24,0.06l9.3,0.42l0.6,0.03l0.03-0.73l1.57-35.67l0.04-0.01l47.33,1.92l64.11,2.33l64.09,2.01
			L423.8,41.5l72.89,1.22l23.41,0.32l-0.59,48.07l-31.73-0.53l-5.88-0.1l-1.51,93.92l5.88,0.1l32.06,0.48l-0.58,51.2l-0.01,0.62
			l8.99,0.12l0.4,0.01l0.59-51.79l-0.34-0.03l0.07-5.79l1.46-88.05l0.59-48.1l59.77,0.5l71.33,0.28l0.04,73.42v2.85l12.3-0.01h8.84
			v-0.63L681.74,43.89z M487.68,96.46l35.25,0.55l-0.2,11.75l-35.25-0.55L487.68,96.46z M487.38,114.08l35.25,0.56l-0.76,46.95
			l-35.24-0.55L487.38,114.08z M486.32,178.63l0.21-11.71l35.25,0.55l-0.2,11.75L486.32,178.63z"/>
		<polygon class="st1" points="525.87,342.53 525.39,387.1 524.74,387.09 515.91,386.99 515.28,386.97 127.57,376.35 109.44,789.25 
			124.69,789.85 123.93,808.01 123.93,808.02 123.88,809.25 123.49,818.57 123.47,819.17 124.09,819.19 129.58,819.4 129.56,820.02 
			128.86,838.18 122.67,837.92 107.34,837.28 100.97,837 99.74,836.94 97.44,836.84 96.21,836.79 86.89,836.38 85.65,836.32 
			85.64,836.32 67.48,835.52 90.56,309.03 90.6,308.02 90.82,302.42 91.45,302.45 108.98,303.23 109.06,303.24 109.62,303.26 
			109.57,304.2 109.33,309.25 109.96,309.28 119.27,309.68 120.51,309.73 129.82,310.13 130.43,310.16 130.4,310.78 127.94,366.96 
			516,377.6 516.47,343.07 516.48,342.45 525.3,342.53 		"/>
		<polygon class="st1" points="584.39,971.19 584.39,971.77 584.27,989.31 584.27,990 578.1,989.9 577.67,989.9 475.67,988.84 
			475.92,970.05 435.74,969.4 435.51,969.4 435.14,969.39 434.88,969.39 434.89,968.77 435.07,959.46 435.09,958.21 435.14,955.91 
			435.15,955.28 435.77,955.29 476.07,955.96 476.3,940.69 477.4,847.97 334.65,845.03 334.29,845.02 328.54,844.9 328.56,844.28 
			329.02,826.76 329.03,826.66 329.04,826.12 329.33,826.13 334.92,826.26 334.94,825.78 335.26,816.34 335.3,815.22 335.9,797.55 
			335.92,796.85 336.26,796.86 477.98,799.82 510.86,800.22 514.57,493.27 514.58,492.64 523.43,492.76 523.97,492.77 523.54,528 
			539.24,527.95 539.24,528.49 539.27,537.32 538.65,537.32 523.42,537.39 520.26,800.35 518.54,941.26 577.49,941.83 
			578.41,941.84 578.41,942.44 578.3,959.98 578.29,961.22 578.23,970.55 578.23,971.13 583.26,971.18 		"/>
		<path class="st1" d="M931.61,939.22l-2.05-106.2l-3.12-158.16l-2.22-115.06l-1.68-86.28l-2.67-136.34l-1.2-63.37l-0.43-21.12
			l-51.64,0.93l-94.19,1.21l-82.58,0.38h-7.96l-0.03-17v-0.58h-21.1l-0.01,17.59l0.01,21.14l-0.22,103.56l0.13,5.45l0.01,0.64h9.38
			l-0.12-6.22l25.86-0.07l0.02-5.87l0.17-97.61l77.23-0.34l54.81-0.57l50.41-0.75l19.08-0.38l0.51,25.67l1.13,57.52l1,50.35
			l0.95,50.3l1,50.34l0.22,12.36l-232.35,0.84l0.02-53.38h-0.54l-8.84-0.04v0.64l-0.03,58.68l-15.65,0.04v0.58l0.01,8.84h0.63
			l24.39-0.08h0.04l232.64-0.88v1.17l0.59,28.76l3.35,172.57l2.63,136.59l1.29,64.58l-60.44,1.18l-0.64,0.01l0.03,0.46v0.15
			l0.26,17.58l0.02,1.16l0.14,9.46l0.01,0.47l-5.58,0.11l-0.6,0.01l0.01,0.58l0.18,17.54l0.01,0.64l6.23-0.08h0.11l72.95-1.4
			l9.34-0.2L931.61,939.22z M689.94,373.84l-23.49-0.03l0.03-11.72l23.49,0.02L689.94,373.84z M689.99,356.25l-23.5-0.07l0.09-56.32
			l23.49,0.02L689.99,356.25z M666.59,293.96v-11.72l23.49,0.02l0.01,11.76L666.59,293.96z"/>
	</g>
	<g id="TEXT_00000176021118747045029250000005614543542520856767_">
		<g>
			<path class="st1" d="M641.34,736.14c-1.76-1.67-2.63-3.97-2.63-6.88v-15.01c0-2.92,0.88-5.21,2.63-6.88
				c1.76-1.67,4.16-2.51,7.21-2.51c3.25,0,5.69,0.87,7.33,2.61c1.64,1.74,2.46,4.32,2.46,7.73v2.98h-4.57v-2.98
				c0-4.08-1.76-6.11-5.27-6.11c-1.66,0-2.94,0.48-3.85,1.44c-0.91,0.96-1.37,2.32-1.37,4.08v14.36c0,1.76,0.46,3.11,1.37,4.05
				c0.91,0.94,2.19,1.42,3.85,1.42c3.51,0,5.27-1.97,5.27-5.91v-3.08h4.57v3.08c0,3.31-0.83,5.83-2.49,7.55
				c-1.66,1.72-4.09,2.58-7.31,2.58C645.5,738.65,643.1,737.81,641.34,736.14z"/>
			<path class="st1" d="M681.1,713.4v24.65h-4.47v-20.63h-8.6v20.63h-4.47V713.4H681.1z"/>
			<path class="st1" d="M706.2,733.98v4.08h-2.34c-2.19,0-3.76-0.66-4.72-1.99c-1.42,1.72-3.51,2.58-6.26,2.58
				c-2.29,0-4.1-0.63-5.44-1.89c-1.34-1.26-2.01-2.96-2.01-5.12c0-2.05,0.64-3.68,1.91-4.87s3.24-2.02,5.89-2.48l4.92-0.85v-2.39
				c0-1.32-0.34-2.34-1.02-3.06c-0.68-0.71-1.67-1.07-2.96-1.07c-1.39,0-2.44,0.37-3.13,1.12c-0.7,0.75-1.04,1.81-1.04,3.21v0.5
				h-4.42v-0.5c0-2.75,0.73-4.85,2.19-6.29s3.54-2.16,6.26-2.16c2.78,0,4.9,0.72,6.34,2.16s2.16,3.55,2.16,6.34v10.29
				c0,1.59,0.71,2.39,2.14,2.39H706.2z M696.19,734c0.88-0.55,1.53-1.28,1.96-2.21v-4.67l-3.93,0.65c-2.95,0.5-4.42,1.76-4.42,3.78
				c0,1.03,0.31,1.83,0.94,2.41c0.63,0.58,1.49,0.87,2.58,0.87C694.36,734.82,695.31,734.55,696.19,734z"/>
			<path class="st1" d="M726.68,738.05h-4.47v-20.63h-6.91l-0.25,12.97c-0.07,2.68-0.61,4.63-1.64,5.84
				c-1.03,1.21-2.65,1.81-4.87,1.81h-1.44v-4.08h0.89c0.93,0,1.62-0.31,2.09-0.94c0.46-0.63,0.71-1.62,0.75-2.98l0.25-16.65h15.61
				V738.05z"/>
			<path class="st1" d="M747.86,723.59c1.46,1.36,2.19,3.33,2.19,5.91v0.6c0,2.55-0.73,4.52-2.19,5.89
				c-1.46,1.38-3.56,2.06-6.31,2.06h-9.2V713.4h4.47v8.15h4.72C744.29,721.55,746.4,722.23,747.86,723.59z M745.62,729.5
				c0-2.65-1.51-3.98-4.52-3.98h-4.27v8.55h4.27c3.01,0,4.52-1.33,4.52-3.98V729.5z"/>
			<path class="st1" d="M758.69,713.4v10.24h8.6V713.4h4.47v24.65h-4.47v-10.29h-8.6v10.29h-4.47V713.4H758.69z"/>
			<path class="st1" d="M794.03,738.05h-4.47v-8.85h-2.78l-6.21,8.85h-4.72v-0.6l6.11-8.55c-1.86-0.4-3.3-1.21-4.32-2.44
				c-1.03-1.23-1.54-2.77-1.54-4.62v-0.99c0-2.32,0.77-4.14,2.31-5.47c1.54-1.32,3.65-1.99,6.34-1.99h9.29V738.05z M789.56,725.43
				v-8.1h-4.42c-1.42,0-2.55,0.32-3.38,0.97s-1.24,1.5-1.24,2.56v0.94c0,1.13,0.41,2.01,1.24,2.66s1.96,0.97,3.38,0.97H789.56z"/>
			<path class="st1" d="M684.24,797.69h-4.62V772c-1.09,0.43-2.22,0.65-3.38,0.65h-3.03v-4.22h2.98c1.09,0,1.94-0.29,2.54-0.87
				c0.6-0.58,0.89-1.4,0.89-2.46h4.62V797.69z"/>
			<path class="st1" d="M700.04,797.69h-4.62V772c-1.09,0.43-2.22,0.65-3.38,0.65h-3.03v-4.22h2.98c1.09,0,1.94-0.29,2.54-0.87
				c0.6-0.58,0.89-1.4,0.89-2.46h4.62V797.69z"/>
			<path class="st1" d="M714.21,791.63v0.65l-3.58,12.03h-4.08l2.58-12.67H714.21z"/>
			<path class="st1" d="M734.56,780.17c1.38,1.38,2.06,3.19,2.06,5.44v4.22c0,2.52-0.83,4.56-2.49,6.11
				c-1.66,1.56-3.83,2.34-6.51,2.34c-2.78,0-4.98-0.76-6.59-2.29c-1.61-1.52-2.41-3.61-2.41-6.26v-1.39h4.52v1.29
				c0,1.36,0.41,2.44,1.22,3.23c0.81,0.8,1.88,1.19,3.21,1.19c1.36,0,2.44-0.42,3.26-1.27c0.81-0.85,1.22-1.98,1.22-3.4v-3.08
				c0-1.39-0.39-2.47-1.17-3.23c-0.78-0.76-1.98-1.14-3.6-1.14h-4.03v-3.63l7.7-9h-11.68v-4.22h17.15v4.22l-7.46,8.55
				C731.32,778.03,733.18,778.8,734.56,780.17z"/>
			<path class="st1" d="M756.23,780.17c1.38,1.38,2.06,3.19,2.06,5.44v4.22c0,2.52-0.83,4.56-2.49,6.11
				c-1.66,1.56-3.83,2.34-6.51,2.34c-2.78,0-4.98-0.76-6.59-2.29c-1.61-1.52-2.41-3.61-2.41-6.26v-1.39h4.52v1.29
				c0,1.36,0.41,2.44,1.22,3.23c0.81,0.8,1.88,1.19,3.21,1.19c1.36,0,2.44-0.42,3.26-1.27c0.81-0.85,1.22-1.98,1.22-3.4v-3.08
				c0-1.39-0.39-2.47-1.17-3.23c-0.78-0.76-1.98-1.14-3.6-1.14h-4.03v-3.63l7.7-9h-11.68v-4.22h17.15v4.22l-7.46,8.55
				C752.99,778.03,754.85,778.8,756.23,780.17z"/>
		</g>
	</g>
	<g id="TEXT_00000090289240377217951710000008217191323096624791_">
		<g>
			<path class="st1" d="M243.85,591.45c-1.76-1.67-2.63-3.97-2.63-6.88v-15.01c0-2.92,0.88-5.21,2.63-6.88
				c1.76-1.67,4.16-2.51,7.21-2.51c3.25,0,5.69,0.87,7.33,2.61c1.64,1.74,2.46,4.32,2.46,7.73v2.98h-4.57v-2.98
				c0-4.08-1.76-6.11-5.27-6.11c-1.66,0-2.94,0.48-3.85,1.44c-0.91,0.96-1.37,2.32-1.37,4.08v14.36c0,1.76,0.46,3.11,1.37,4.05
				c0.91,0.94,2.19,1.42,3.85,1.42c3.51,0,5.27-1.97,5.27-5.91v-3.08h4.57v3.08c0,3.31-0.83,5.83-2.49,7.55
				c-1.66,1.72-4.09,2.58-7.31,2.58C248.01,593.96,245.6,593.12,243.85,591.45z"/>
			<path class="st1" d="M283.61,568.71v24.65h-4.47v-20.63h-8.6v20.63h-4.47v-24.65H283.61z"/>
			<path class="st1" d="M308.71,589.28v4.08h-2.34c-2.19,0-3.76-0.66-4.72-1.99c-1.42,1.72-3.51,2.58-6.26,2.58
				c-2.29,0-4.1-0.63-5.44-1.89c-1.34-1.26-2.01-2.96-2.01-5.12c0-2.05,0.64-3.68,1.91-4.87s3.24-2.02,5.89-2.48l4.92-0.85v-2.39
				c0-1.32-0.34-2.34-1.02-3.06c-0.68-0.71-1.67-1.07-2.96-1.07c-1.39,0-2.44,0.37-3.13,1.12c-0.7,0.75-1.04,1.81-1.04,3.21v0.5
				h-4.42v-0.5c0-2.75,0.73-4.85,2.19-6.29s3.54-2.16,6.26-2.16c2.78,0,4.9,0.72,6.34,2.16s2.16,3.55,2.16,6.34v10.29
				c0,1.59,0.71,2.39,2.14,2.39H308.71z M298.7,589.31c0.88-0.55,1.53-1.28,1.96-2.21v-4.67l-3.93,0.65
				c-2.95,0.5-4.42,1.76-4.42,3.78c0,1.03,0.31,1.83,0.94,2.41c0.63,0.58,1.49,0.87,2.58,0.87
				C296.86,590.13,297.82,589.86,298.7,589.31z"/>
			<path class="st1" d="M329.19,593.36h-4.47v-20.63h-6.91l-0.25,12.97c-0.07,2.68-0.61,4.63-1.64,5.84
				c-1.03,1.21-2.65,1.81-4.87,1.81h-1.44v-4.08h0.89c0.93,0,1.62-0.31,2.09-0.94c0.46-0.63,0.71-1.62,0.75-2.98l0.25-16.65h15.61
				V593.36z"/>
			<path class="st1" d="M350.36,578.9c1.46,1.36,2.19,3.33,2.19,5.91v0.6c0,2.55-0.73,4.52-2.19,5.89
				c-1.46,1.38-3.56,2.06-6.31,2.06h-9.2v-24.65h4.47v8.15h4.72C346.8,576.86,348.9,577.54,350.36,578.9z M348.12,584.81
				c0-2.65-1.51-3.98-4.52-3.98h-4.27v8.55h4.27c3.01,0,4.52-1.33,4.52-3.98V584.81z"/>
			<path class="st1" d="M361.2,568.71v10.24h8.6v-10.24h4.47v24.65h-4.47v-10.29h-8.6v10.29h-4.47v-24.65H361.2z"/>
			<path class="st1" d="M396.53,593.36h-4.47v-8.85h-2.78l-6.21,8.85h-4.72v-0.6l6.11-8.55c-1.86-0.4-3.3-1.21-4.32-2.44
				c-1.03-1.23-1.54-2.77-1.54-4.62v-0.99c0-2.32,0.77-4.14,2.31-5.47c1.54-1.32,3.65-1.99,6.34-1.99h9.29V593.36z M392.06,580.73
				v-8.1h-4.42c-1.42,0-2.55,0.32-3.38,0.97s-1.24,1.5-1.24,2.56v0.94c0,1.13,0.41,2.01,1.24,2.66s1.96,0.97,3.38,0.97H392.06z"/>
			<path class="st1" d="M288.78,653h-4.62v-25.7c-1.09,0.43-2.22,0.65-3.38,0.65h-3.03v-4.22h2.98c1.09,0,1.94-0.29,2.54-0.87
				c0.6-0.58,0.89-1.4,0.89-2.46h4.62V653z"/>
			<path class="st1" d="M304.58,653h-4.62v-25.7c-1.09,0.43-2.22,0.65-3.38,0.65h-3.03v-4.22h2.98c1.09,0,1.94-0.29,2.54-0.87
				c0.6-0.58,0.89-1.4,0.89-2.46h4.62V653z"/>
			<path class="st1" d="M318.75,646.94v0.65l-3.58,12.03h-4.08l2.58-12.67H318.75z"/>
			<path class="st1" d="M335.6,620.4v4.22c-2.29,4.74-4.1,9.56-5.44,14.46c-1.34,4.9-2.01,9.15-2.01,12.72V653h-4.52v-1.19
				c0-3.61,0.67-7.83,2.01-12.65s3.21-9.67,5.59-14.54h-12.48v-4.22H335.6z"/>
			<path class="st1" d="M342.18,651.24c-1.67-1.57-2.51-3.67-2.51-6.29V628.5c0-2.62,0.84-4.71,2.51-6.29
				c1.67-1.57,3.9-2.36,6.69-2.36c2.82,0,5.05,0.79,6.71,2.36c1.66,1.57,2.49,3.67,2.49,6.29v16.45c0,2.62-0.83,4.71-2.49,6.29
				c-1.66,1.57-3.89,2.36-6.71,2.36C346.09,653.6,343.86,652.81,342.18,651.24z M352.25,648.08c0.83-0.86,1.24-2.02,1.24-3.48V628.9
				c0-1.46-0.42-2.63-1.24-3.5c-0.83-0.88-1.96-1.32-3.38-1.32c-1.39,0-2.51,0.43-3.36,1.29c-0.84,0.86-1.27,2.04-1.27,3.53v15.71
				c0,1.46,0.42,2.62,1.27,3.48c0.84,0.86,1.96,1.29,3.36,1.29C350.29,649.37,351.42,648.94,352.25,648.08z"/>
		</g>
	</g>
	<g id="TEXT_00000141423231973939348760000013021034528409539459_">
		<g>
			<path class="st1" d="M703.71,406.41c1.38,1.38,2.06,3.19,2.06,5.44v4.22c0,2.52-0.83,4.56-2.49,6.11
				c-1.66,1.56-3.83,2.34-6.51,2.34c-2.78,0-4.98-0.76-6.59-2.29c-1.61-1.52-2.41-3.61-2.41-6.26v-1.39h4.52v1.29
				c0,1.36,0.41,2.44,1.22,3.23c0.81,0.8,1.88,1.19,3.21,1.19c1.36,0,2.44-0.42,3.26-1.27c0.81-0.85,1.22-1.98,1.22-3.4v-3.08
				c0-1.39-0.39-2.47-1.17-3.23c-0.78-0.76-1.98-1.14-3.6-1.14h-4.03v-3.63l7.7-9h-11.68v-4.22h17.15v4.22l-7.46,8.55
				C700.47,404.27,702.34,405.04,703.71,406.41z"/>
			<path class="st1" d="M717.16,417.87v0.65l-3.58,12.03h-4.08l2.58-12.67H717.16z"/>
			<path class="st1" d="M736.59,400.03v-0.5c0-1.46-0.4-2.59-1.19-3.4c-0.79-0.81-1.92-1.22-3.38-1.22c-1.49,0-2.65,0.41-3.48,1.22
				c-0.83,0.81-1.24,1.91-1.24,3.31v5.67c1.42-1.03,3.15-1.54,5.17-1.54c2.62,0,4.73,0.73,6.34,2.19c1.61,1.46,2.41,3.43,2.41,5.92
				v4.12c0,2.75-0.81,4.9-2.44,6.44c-1.62,1.54-3.88,2.31-6.76,2.31s-5.15-0.79-6.81-2.39c-1.66-1.59-2.49-3.74-2.49-6.46v-16.1
				c0-2.72,0.83-4.87,2.49-6.46c1.66-1.59,3.93-2.39,6.81-2.39c2.92,0,5.18,0.77,6.79,2.31c1.61,1.54,2.41,3.7,2.41,6.49v0.5H736.59
				z M729.21,408.38c-0.81,0.43-1.45,1.03-1.91,1.79v5.47c0,1.46,0.42,2.61,1.27,3.45c0.84,0.85,2,1.27,3.45,1.27
				c1.42,0,2.54-0.42,3.36-1.27c0.81-0.84,1.22-2,1.22-3.45v-3.48c0-1.32-0.42-2.39-1.27-3.21c-0.84-0.81-1.96-1.22-3.36-1.22
				C730.94,407.73,730.02,407.95,729.21,408.38z"/>
			<path class="st1" d="M761.99,405.47c1.49,1.44,2.24,3.42,2.24,5.94v4.47c0,2.75-0.79,4.88-2.36,6.39
				c-1.57,1.51-3.8,2.26-6.69,2.26c-2.92,0-5.14-0.75-6.68-2.24s-2.31-3.64-2.31-6.46v-0.5h4.47v0.5c0,1.46,0.39,2.57,1.17,3.33
				c0.78,0.76,1.88,1.14,3.3,1.14c1.46,0,2.58-0.4,3.38-1.19c0.8-0.79,1.19-1.92,1.19-3.38v-3.53c0-1.49-0.41-2.66-1.22-3.5
				c-0.81-0.85-1.93-1.27-3.36-1.27c-1.19,0-2.16,0.33-2.91,0.99c-0.75,0.66-1.17,1.57-1.27,2.73h-4.57l0.99-19.83h15.8v4.22h-11.73
				l-0.4,8.85c1.36-0.73,2.93-1.09,4.72-1.09C758.43,403.31,760.5,404.03,761.99,405.47z"/>
		</g>
	</g>
	<g id="TEXT_00000105400590829869571390000003163523311016292783_">
		<g>
			<path class="st1" d="M275.89,912.48v4.22h-17.35v-4.22l6.71-8.45c2.09-2.65,3.52-4.76,4.3-6.34c0.78-1.57,1.17-3.21,1.17-4.9
				v-0.5c0-1.46-0.37-2.58-1.09-3.38c-0.73-0.8-1.74-1.19-3.03-1.19c-1.36,0-2.39,0.4-3.08,1.19c-0.7,0.79-1.04,1.94-1.04,3.43v1.34
				h-4.52v-1.34c0-2.82,0.75-5,2.26-6.54c1.51-1.54,3.65-2.31,6.44-2.31c2.72,0,4.83,0.76,6.34,2.29c1.51,1.52,2.26,3.65,2.26,6.36
				v0.5c0,2.12-0.46,4.17-1.39,6.16s-2.63,4.52-5.12,7.6l-4.87,6.06H275.89z"/>
			<path class="st1" d="M287.97,910.64v0.65l-3.58,12.03h-4.08l2.58-12.67H287.97z"/>
			<path class="st1" d="M310.63,902.64c0.63,1.09,0.94,2.35,0.94,3.78v2.83c0,2.45-0.84,4.41-2.54,5.87
				c-1.69,1.46-3.93,2.19-6.71,2.19c-2.82,0-5.07-0.72-6.76-2.16c-1.69-1.44-2.54-3.4-2.54-5.89v-2.83c0-1.42,0.32-2.68,0.97-3.78
				c0.65-1.09,1.57-1.97,2.76-2.63c-1.09-0.66-1.94-1.53-2.54-2.61c-0.6-1.08-0.89-2.29-0.89-3.65v-2.34c0-2.45,0.81-4.38,2.44-5.79
				c1.62-1.41,3.81-2.11,6.56-2.11s4.93,0.7,6.54,2.11c1.61,1.41,2.41,3.34,2.41,5.79v2.34c0,1.39-0.29,2.62-0.87,3.68
				c-0.58,1.06-1.42,1.92-2.51,2.58C309.09,900.67,310,901.55,310.63,902.64z M307.15,906.42c0-1.32-0.43-2.36-1.29-3.11
				c-0.86-0.75-2.04-1.12-3.53-1.12c-1.49,0-2.68,0.38-3.55,1.14c-0.88,0.76-1.32,1.79-1.32,3.08v2.49c0,1.33,0.45,2.37,1.34,3.13
				s2.07,1.14,3.53,1.14c1.42,0,2.58-0.38,3.48-1.14s1.34-1.81,1.34-3.13V906.42z M297.71,893.84c0,2.82,1.54,4.22,4.62,4.22
				c3.05,0,4.57-1.41,4.57-4.22v-2.09c0-1.36-0.39-2.39-1.17-3.11c-0.78-0.71-1.91-1.07-3.41-1.07c-1.49,0-2.63,0.36-3.43,1.07
				c-0.8,0.71-1.19,1.75-1.19,3.11V893.84z"/>
			<path class="st1" d="M330.81,892.8v-0.5c0-1.46-0.4-2.59-1.19-3.4c-0.79-0.81-1.92-1.22-3.38-1.22c-1.49,0-2.65,0.41-3.48,1.22
				c-0.83,0.81-1.24,1.91-1.24,3.31v5.67c1.42-1.03,3.15-1.54,5.17-1.54c2.62,0,4.73,0.73,6.34,2.19c1.61,1.46,2.41,3.43,2.41,5.92
				v4.12c0,2.75-0.81,4.9-2.44,6.44c-1.62,1.54-3.88,2.31-6.76,2.31s-5.15-0.79-6.81-2.39c-1.66-1.59-2.49-3.74-2.49-6.46v-16.1
				c0-2.72,0.83-4.87,2.49-6.46c1.66-1.59,3.93-2.39,6.81-2.39c2.92,0,5.18,0.77,6.79,2.31c1.61,1.54,2.41,3.7,2.41,6.49v0.5H330.81
				z M323.43,901.15c-0.81,0.43-1.45,1.03-1.91,1.79v5.47c0,1.46,0.42,2.61,1.27,3.45c0.84,0.85,2,1.27,3.45,1.27
				c1.42,0,2.54-0.42,3.36-1.27c0.81-0.84,1.22-2,1.22-3.45v-3.48c0-1.32-0.42-2.39-1.27-3.21c-0.84-0.81-1.96-1.22-3.36-1.22
				C325.16,900.5,324.24,900.72,323.43,901.15z"/>
		</g>
	</g>
	<g id="TEXT_00000108294771833045338280000004333586481775388590_">
		<g>
			<path class="st1" d="M560.61,279.84h-3.48v7.06h-4.57v-7.06h-13.27v-4.23c1.26-3.41,2.28-6.8,3.06-10.16
				c0.78-3.36,1.38-7.08,1.81-11.16h4.47v0.7c-0.79,7.32-2.34,14.2-4.62,20.63h8.55v-15.56h4.57v15.56h3.48V279.84z"/>
			<path class="st1" d="M570.5,280.83v0.65l-3.58,12.03h-4.08l2.58-12.67H570.5z"/>
			<path class="st1" d="M592.72,268.43c1.49,1.44,2.24,3.42,2.24,5.94v4.47c0,2.75-0.79,4.88-2.36,6.39
				c-1.57,1.51-3.8,2.26-6.69,2.26c-2.92,0-5.14-0.75-6.68-2.24s-2.31-3.64-2.31-6.46v-0.5h4.47v0.5c0,1.46,0.39,2.57,1.17,3.33
				c0.78,0.76,1.88,1.14,3.3,1.14c1.46,0,2.58-0.4,3.38-1.19c0.8-0.79,1.19-1.92,1.19-3.38v-3.53c0-1.49-0.41-2.66-1.22-3.5
				c-0.81-0.85-1.93-1.27-3.36-1.27c-1.19,0-2.16,0.33-2.91,0.99c-0.75,0.66-1.17,1.57-1.27,2.73h-4.57l0.99-19.83h15.8v4.22h-11.73
				l-0.4,8.85c1.36-0.73,2.93-1.09,4.72-1.09C589.16,266.27,591.23,266.99,592.72,268.43z"/>
			<path class="st1" d="M608.92,286.9h-4.62v-25.7c-1.09,0.43-2.22,0.65-3.38,0.65h-3.03v-4.22h2.98c1.09,0,1.94-0.29,2.54-0.87
				c0.6-0.58,0.89-1.4,0.89-2.46h4.62V286.9z"/>
		</g>
	</g>
	<g id="TEXT_00000021841039364553537480000005682191262634375095_">
		<g>
			<path class="st1" d="M279.44,207.7v0.7h-4.77l-6.76-14.21h-3.58v14.21h-4.62v-32.6h4.62V190h3.58l6.66-14.21h4.67v0.7
				l-7.41,15.56L279.44,207.7z"/>
			<path class="st1" d="M300.72,183.74v0.65l-8.85,27.14c-0.63,1.95-1.48,3.33-2.56,4.13c-1.08,0.79-2.61,1.19-4.6,1.19h-2.73v-4.08
				h2.34c0.96,0,1.67-0.18,2.14-0.55c0.46-0.37,0.84-1.06,1.14-2.09l0.55-1.89l-8.2-23.86v-0.65h4.67l5.86,18.24l5.57-18.24H300.72z
				"/>
			<path class="st1" d="M322.24,207.75v0.65h-4.62l-4.92-8.65l-4.92,8.65h-4.57v-0.65l6.76-11.78l-6.61-11.58v-0.65h4.62l4.77,8.4
				l4.72-8.4h4.62v0.65l-6.61,11.58L322.24,207.75z"/>
			<path class="st1" d="M330.84,183.74v10.24h8.6v-10.24h4.47v24.65h-4.47v-10.29h-8.6v10.29h-4.47v-24.65H330.84z"/>
			<path class="st1" d="M366.17,208.39h-4.47v-8.85h-2.78l-6.21,8.85h-4.72v-0.6l6.11-8.55c-1.86-0.4-3.3-1.21-4.32-2.44
				c-1.03-1.23-1.54-2.77-1.54-4.62v-0.99c0-2.32,0.77-4.14,2.31-5.47c1.54-1.32,3.65-1.99,6.34-1.99h9.29V208.39z M361.7,195.77
				v-8.1h-4.42c-1.42,0-2.55,0.32-3.38,0.97s-1.24,1.5-1.24,2.56v0.94c0,1.13,0.41,2.01,1.24,2.66s1.96,0.97,3.38,0.97H361.7z"/>
			<path class="st1" d="M288.61,237.22c1.66,1.59,2.49,3.75,2.49,6.46v16.1c0,2.72-0.83,4.87-2.49,6.46
				c-1.66,1.59-3.93,2.39-6.81,2.39c-2.92,0-5.18-0.77-6.78-2.31c-1.61-1.54-2.41-3.7-2.41-6.49v-0.5h4.62v0.5
				c0,1.46,0.4,2.59,1.19,3.4c0.8,0.81,1.92,1.22,3.38,1.22c1.49,0,2.65-0.41,3.48-1.22c0.83-0.81,1.24-1.91,1.24-3.31v-5.67
				c-1.42,1.03-3.15,1.54-5.17,1.54c-2.62,0-4.73-0.73-6.34-2.19c-1.61-1.46-2.41-3.43-2.41-5.91v-4.12c0-2.75,0.81-4.9,2.44-6.44
				c1.62-1.54,3.88-2.31,6.76-2.31S286.96,235.63,288.61,237.22z M284.61,250.99c0.81-0.43,1.45-1.03,1.91-1.79v-5.47
				c0-1.46-0.42-2.61-1.27-3.45c-0.84-0.84-2-1.27-3.45-1.27c-1.42,0-2.54,0.42-3.35,1.27c-0.81,0.85-1.22,2-1.22,3.45v3.48
				c0,1.33,0.42,2.39,1.27,3.21c0.84,0.81,1.96,1.22,3.35,1.22C282.88,251.64,283.8,251.42,284.61,250.99z"/>
			<path class="st1" d="M303.53,261.97v0.65l-3.58,12.03h-4.08l2.58-12.67H303.53z"/>
			<path class="st1" d="M311.6,266.27c-1.67-1.57-2.51-3.67-2.51-6.29v-16.45c0-2.62,0.84-4.71,2.51-6.29
				c1.67-1.57,3.9-2.36,6.69-2.36c2.82,0,5.05,0.79,6.71,2.36c1.66,1.57,2.49,3.67,2.49,6.29v16.45c0,2.62-0.83,4.71-2.49,6.29
				c-1.66,1.57-3.89,2.36-6.71,2.36C315.5,268.63,313.28,267.85,311.6,266.27z M321.67,263.12c0.83-0.86,1.24-2.02,1.24-3.48v-15.71
				c0-1.46-0.42-2.63-1.24-3.5c-0.83-0.88-1.96-1.32-3.38-1.32c-1.39,0-2.51,0.43-3.36,1.29c-0.84,0.86-1.27,2.04-1.27,3.53v15.71
				c0,1.46,0.42,2.62,1.27,3.48c0.84,0.86,1.96,1.29,3.36,1.29C319.71,264.41,320.84,263.98,321.67,263.12z"/>
			<path class="st1" d="M353.87,260.98h-3.48v7.06h-4.57v-7.06h-13.27v-4.23c1.26-3.41,2.28-6.8,3.06-10.16
				c0.78-3.36,1.38-7.08,1.81-11.16h4.47v0.7c-0.79,7.32-2.34,14.2-4.62,20.63h8.55V241.2h4.57v15.56h3.48V260.98z"/>
		</g>
	</g>
	<g>
		<g>
			<rect x="169.98" y="473.89" class="st0" width="269.35" height="70.44"/>
			<path class="st1" d="M169.15,545.16v-72.1l271.01,0v72.1L169.15,545.16z M170.81,474.72v68.79l267.7,0v-68.79L170.81,474.72z"/>
		</g>
		<rect x="169.98" y="473.89" class="st3" width="70.44" height="70.44"/>
		<g>
			<path class="st1" d="M304.51,520.78h-3.98v8.95h-7.69v-8.95h-17.43v-7.02c1.46-4.24,2.64-8.54,3.55-12.89
				c0.9-4.35,1.6-9.22,2.09-14.61h7.49v1.13c-0.88,9.72-2.63,18.51-5.24,26.38h9.54v-19.95h7.69v19.95h3.98V520.78z"/>
			<path class="st1" d="M321.08,529.73h-7.69v-33.14c-1.19,0.4-2.5,0.6-3.91,0.6h-4.04v-7.02h3.91c1.28,0,2.28-0.34,2.98-1.03
				c0.71-0.68,1.06-1.65,1.06-2.88h7.69V529.73z"/>
			<path class="st1" d="M331.35,529.2c-0.88-0.88-1.33-2.01-1.33-3.38c0-1.37,0.44-2.48,1.33-3.35c0.88-0.86,2.01-1.29,3.38-1.29
				c1.41,0,2.55,0.43,3.41,1.29c0.86,0.86,1.29,1.98,1.29,3.35c0,1.37-0.43,2.5-1.29,3.38s-2,1.33-3.41,1.33
				C333.36,530.52,332.23,530.08,331.35,529.2z"/>
			<path class="st1" d="M364.15,498.25v-0.66c0-1.63-0.45-2.9-1.36-3.81c-0.91-0.91-2.18-1.36-3.81-1.36
				c-1.63,0-2.92,0.44-3.84,1.33c-0.93,0.88-1.39,2.1-1.39,3.65v6.43c1.86-1.06,3.89-1.59,6.1-1.59c3.58,0,6.47,0.99,8.68,2.98
				c2.21,1.99,3.31,4.71,3.31,8.15v5.17c0,3.8-1.13,6.75-3.38,8.85c-2.25,2.1-5.41,3.15-9.48,3.15c-3.98,0-7.12-1.09-9.44-3.28
				c-2.32-2.19-3.48-5.16-3.48-8.91v-20.68c0-3.75,1.16-6.73,3.48-8.91s5.47-3.28,9.44-3.28c4.11,0,7.28,1.06,9.51,3.18
				c2.23,2.12,3.35,5.1,3.35,8.95v0.66H364.15z M356,509.88c-0.93,0.46-1.68,1.09-2.25,1.89v6.49c0,1.64,0.46,2.93,1.39,3.88
				c0.93,0.95,2.21,1.42,3.84,1.42c1.59,0,2.85-0.47,3.78-1.42c0.93-0.95,1.39-2.24,1.39-3.88v-4.04c0-1.5-0.47-2.72-1.42-3.65
				s-2.2-1.39-3.74-1.39C357.92,509.18,356.93,509.42,356,509.88z"/>
			<path class="st1" d="M395.63,498.25v-0.66c0-1.63-0.45-2.9-1.36-3.81c-0.91-0.91-2.18-1.36-3.81-1.36
				c-1.63,0-2.92,0.44-3.84,1.33c-0.93,0.88-1.39,2.1-1.39,3.65v6.43c1.86-1.06,3.89-1.59,6.1-1.59c3.58,0,6.47,0.99,8.68,2.98
				c2.21,1.99,3.31,4.71,3.31,8.15v5.17c0,3.8-1.13,6.75-3.38,8.85c-2.25,2.1-5.41,3.15-9.48,3.15c-3.98,0-7.12-1.09-9.44-3.28
				c-2.32-2.19-3.48-5.16-3.48-8.91v-20.68c0-3.75,1.16-6.73,3.48-8.91s5.47-3.28,9.44-3.28c4.11,0,7.28,1.06,9.51,3.18
				c2.23,2.12,3.35,5.1,3.35,8.95v0.66H395.63z M387.48,509.88c-0.93,0.46-1.68,1.09-2.25,1.89v6.49c0,1.64,0.46,2.93,1.39,3.88
				c0.93,0.95,2.21,1.42,3.84,1.42c1.59,0,2.85-0.47,3.78-1.42c0.93-0.95,1.39-2.24,1.39-3.88v-4.04c0-1.5-0.47-2.72-1.42-3.65
				s-2.2-1.39-3.74-1.39C389.4,509.18,388.41,509.42,387.48,509.88z"/>
		</g>
		<g>
			<g>
				<path class="st0" d="M217.52,522.7v7.02h-23.86v-7.09l9.01-11.27c2.47-3.09,4.17-5.58,5.1-7.46c0.93-1.88,1.39-3.81,1.39-5.8
					v-0.66c0-1.59-0.39-2.82-1.16-3.68c-0.77-0.86-1.87-1.29-3.28-1.29c-2.96,0-4.44,1.7-4.44,5.1v1.79h-7.55v-1.79
					c0-3.93,1.05-6.94,3.15-9.01c2.1-2.08,5.09-3.11,8.98-3.11c3.75,0,6.67,1.03,8.75,3.08c2.08,2.05,3.12,4.94,3.12,8.65v0.66
					c0,2.7-0.59,5.29-1.76,7.79c-1.17,2.5-3.35,5.73-6.53,9.71l-5.9,7.36H217.52z"/>
			</g>
		</g>
	</g>
</g>
</svg>
