<?xml version="1.0" encoding="utf-8"?>
<!-- Generator: Adobe Illustrator 27.3.1, SVG Export Plug-In . SVG Version: 6.00 Build 0)  -->
<svg version="1.1" id="_x5F_Плашки" xmlns="http://www.w3.org/2000/svg" xmlns:xlink="http://www.w3.org/1999/xlink" x="0px"
	 y="0px" viewBox="0 0 1000 1000" style="enable-background:new 0 0 1000 1000;" xml:space="preserve">
<style type="text/css">
	.st0{fill:#FFFFFF;}
	.st1{fill:#4B5056;}
	.st2{fill:#CDA69E;}
</style>
<g>
	<path class="st0" d="M81.66,198.94l-0.45-12.1l22.81-0.62l252.37-7.29L355,131.76l128.63-1.51c0-0.18,0.07-0.35,0.2-0.48
		c0.12-0.12,0.29-0.19,0.47-0.19l5.66-0.01V10c0-0.37,0.3-0.67,0.67-0.67h3.79l0.13,0.01c30.22,2.77,58.15,16.62,78.65,38.99
		c20.36,22.23,31.71,51.02,31.98,81.15h5.66c0.18,0,0.35,0.07,0.48,0.19c0.12,0.13,0.19,0.3,0.19,0.48l48.71,0.27l73.12,0.75
		l112.86,1.92l72.59,1.92l-1.34,49.24l-15.98,602.09L895.98,990l-87.15-1.78c-0.12,0.19-0.33,0.31-0.57,0.31c0,0,0,0-0.01,0
		l-228.56-2.39c-0.33,0-0.61-0.26-0.65-0.58l-108.55,0.29l-0.04-20.27l-43.47,0.44c-0.02,0.35-0.31,0.63-0.66,0.64l-227.95,4.78
		c-0.01,0-0.01,0-0.02,0c-0.36,0-0.66-0.29-0.66-0.66l-83.8,3.06l-0.58-15.45l-4.24-116.33l-3.84,0.17L92.06,482.87L84.11,265.9
		l-0.35-9.15L81.66,198.94z"/>
	<path class="st1" d="M880.53,191.18c-0.01,0-0.01,0-0.02,0l-50.6-1.2c-0.37-0.01-0.66-0.32-0.65-0.69l0.75-31.63
		c0.01-0.37,0.31-0.66,0.69-0.65l50.6,1.2c0.37,0.01,0.66,0.32,0.65,0.69l-0.75,31.63c0,0.18-0.08,0.35-0.21,0.47
		C880.87,191.11,880.7,191.18,880.53,191.18z M830.61,188.65l49.27,1.17l0.72-30.29l-49.26-1.17L830.61,188.65z"/>
	<path class="st1" d="M880.53,191.18c-0.01,0-0.01,0-0.02,0l-50.6-1.2c-0.35-0.01-0.64-0.29-0.65-0.64
		c-0.01-0.35,0.25-0.66,0.6-0.69l44.46-4.7l6.31-25.22c0.08-0.33,0.4-0.54,0.74-0.5c0.34,0.05,0.59,0.34,0.58,0.68l-0.75,31.63
		c0,0.18-0.08,0.35-0.21,0.47C880.87,191.11,880.7,191.18,880.53,191.18z M840.3,188.88l39.58,0.94l0.59-24.94l-4.97,19.84
		c-0.07,0.27-0.3,0.47-0.58,0.5L840.3,188.88z"/>
	<path class="st1" d="M105.69,241.23c-0.36,0-0.66-0.29-0.67-0.65l-0.87-31.62c0-0.18,0.06-0.35,0.18-0.48
		c0.12-0.13,0.29-0.2,0.47-0.21l50.6-1.39c0.18,0,0.35,0.06,0.48,0.18c0.13,0.12,0.2,0.29,0.21,0.47l0.87,31.62
		c0.01,0.37-0.28,0.68-0.65,0.69l-50.6,1.39C105.7,241.23,105.7,241.23,105.69,241.23z M105.51,209.59l0.83,30.29l49.26-1.36
		l-0.83-30.29L105.51,209.59z"/>
	<path class="st1" d="M156.29,239.84c-0.3,0-0.57-0.2-0.65-0.5l-6.41-25.2l-44.48-4.53c-0.35-0.04-0.61-0.34-0.6-0.69
		c0.01-0.35,0.3-0.63,0.65-0.64l50.6-1.39c0.18,0,0.35,0.06,0.48,0.18c0.13,0.12,0.2,0.29,0.21,0.47l0.87,31.62
		c0.01,0.34-0.24,0.63-0.58,0.68C156.35,239.84,156.32,239.84,156.29,239.84z M115.2,209.33l34.64,3.53
		c0.28,0.03,0.51,0.23,0.58,0.5l5.04,19.82l-0.69-24.94L115.2,209.33z"/>
	<path class="st1" d="M894.34,197.73c-0.01,0-0.01,0-0.02,0l-133.09-3.54c-0.37-0.01-0.66-0.32-0.65-0.69
		c0.01-0.37,0.34-0.66,0.69-0.65l133.09,3.54c0.37,0.01,0.66,0.32,0.65,0.69C895,197.44,894.7,197.73,894.34,197.73z"/>
	<path class="st1" d="M106.23,248.02c-0.36,0-0.66-0.29-0.67-0.65c-0.01-0.37,0.28-0.68,0.65-0.69l148.21-4.28
		c0.37-0.01,0.68,0.28,0.69,0.65c0.01,0.37-0.28,0.68-0.65,0.69l-148.21,4.28C106.24,248.02,106.24,248.02,106.23,248.02z"/>
	<path class="st1" d="M808.8,936.7C808.8,936.7,808.8,936.7,808.8,936.7l-228.57-2.39c-0.37,0-0.67-0.31-0.66-0.68
		c0-0.37,0.3-0.66,0.67-0.66c0,0,0,0,0.01,0l228.56,2.39c0.37,0,0.67,0.31,0.66,0.68C809.47,936.41,809.17,936.7,808.8,936.7z"/>
	<path class="st1" d="M808.47,968.33C808.47,968.33,808.47,968.33,808.47,968.33l-228.57-2.39c-0.37,0-0.67-0.31-0.66-0.68
		c0-0.37,0.28-0.68,0.68-0.66L808.48,967c0.37,0,0.67,0.31,0.66,0.68C809.14,968.04,808.84,968.33,808.47,968.33z"/>
	<path class="st1" d="M586.01,966.01C586.01,966.01,586,966.01,586.01,966.01c-0.38,0-0.67-0.31-0.67-0.68l0.12-11.39
		c0-0.37,0.3-0.66,0.67-0.66c0,0,0,0,0.01,0c0.37,0,0.67,0.31,0.66,0.68l-0.12,11.39C586.67,965.71,586.38,966.01,586.01,966.01z"/>
	<path class="st1" d="M802.15,968.27C802.14,968.27,802.14,968.27,802.15,968.27c-0.38,0-0.67-0.31-0.67-0.68l0.12-11.39
		c0-0.37,0.29-0.69,0.68-0.66c0.37,0,0.67,0.31,0.66,0.68l-0.12,11.39C802.81,967.97,802.51,968.27,802.15,968.27z"/>
	<path class="st1" d="M808.59,956.95C808.59,956.95,808.59,956.95,808.59,956.95l-228.57-2.39c-0.37,0-0.67-0.31-0.66-0.68
		c0-0.37,0.31-0.66,0.68-0.66l228.56,2.39c0.37,0,0.67,0.31,0.66,0.68C809.26,956.65,808.96,956.95,808.59,956.95z"/>
	<path class="st1" d="M795.11,963.2C795.11,963.2,795.11,963.2,795.11,963.2l-201.97-2.11c-0.37,0-0.67-0.31-0.66-0.68
		c0-0.37,0.3-0.66,0.67-0.66c0,0,0,0,0.01,0l201.96,2.11c0.37,0,0.67,0.31,0.66,0.68C795.78,962.91,795.48,963.2,795.11,963.2z"/>
	<path class="st1" d="M795.06,968.19C795.06,968.19,795.05,968.19,795.06,968.19c-0.38,0-0.67-0.31-0.67-0.68l0.12-11.39
		c0-0.37,0.29-0.69,0.68-0.66c0.37,0,0.67,0.31,0.66,0.68l-0.12,11.39C795.72,967.9,795.43,968.19,795.06,968.19z"/>
	<path class="st1" d="M586.01,966.01C586.01,966.01,586,966.01,586.01,966.01c-0.38,0-0.67-0.31-0.67-0.68l0.12-11.39
		c0-0.37,0.3-0.66,0.67-0.66c0,0,0,0,0.01,0c0.37,0,0.67,0.31,0.66,0.68l-0.12,11.39C586.67,965.71,586.38,966.01,586.01,966.01z"/>
	<path class="st1" d="M593.09,966.08C593.09,966.08,593.09,966.08,593.09,966.08c-0.38,0-0.67-0.31-0.67-0.68l0.12-11.39
		c0-0.37,0.3-0.66,0.67-0.66c0,0,0,0,0.01,0c0.37,0,0.67,0.31,0.66,0.68l-0.12,11.39C593.76,965.79,593.46,966.08,593.09,966.08z"/>
	<path class="st1" d="M808.93,987.87c0,0.13-0.04,0.25-0.1,0.35c-0.12,0.19-0.33,0.31-0.57,0.31c0,0,0,0-0.01,0l-228.56-2.39
		c-0.33,0-0.61-0.26-0.65-0.58c-0.01-0.03-0.01-0.07-0.01-0.1c0-0.36,0.3-0.66,0.67-0.66l6.64,0.07l215.42,2.25l6.51,0.07
		C808.64,987.2,808.93,987.5,808.93,987.87z"/>
	<path class="st1" d="M795.13,961.8C795.12,961.8,795.12,961.8,795.13,961.8l-201.97-2.11c-0.37,0-0.67-0.31-0.66-0.68
		c0-0.37,0.31-0.7,0.68-0.66l201.96,2.11c0.37,0,0.67,0.31,0.66,0.68C795.79,961.51,795.49,961.8,795.13,961.8z"/>
	<path class="st1" d="M277.23,807.03c-0.36,0-0.66-0.29-0.67-0.66c-0.01-0.37,0.29-0.68,0.66-0.68l94.9-2.02
		c0.38-0.01,0.68,0.29,0.68,0.66c0.01,0.37-0.29,0.68-0.66,0.68l-94.9,2.02C277.24,807.03,277.24,807.03,277.23,807.03z"/>
	<path class="st1" d="M277.46,818.42c-0.36,0-0.66-0.29-0.67-0.66c-0.01-0.37,0.29-0.68,0.66-0.68l94.9-2.02
		c0.37,0,0.68,0.29,0.68,0.66c0.01,0.37-0.29,0.68-0.66,0.68l-94.9,2.02C277.47,818.42,277.47,818.42,277.46,818.42z"/>
	<path class="st1" d="M290.86,813.08c-0.36,0-0.66-0.29-0.67-0.65c-0.01-0.37,0.29-0.68,0.65-0.68l74.31-1.61
		c0.39-0.01,0.68,0.29,0.68,0.65c0.01,0.37-0.29,0.68-0.65,0.68l-74.31,1.61C290.87,813.08,290.87,813.08,290.86,813.08z"/>
	<path class="st1" d="M283.88,818.29c-0.36,0-0.66-0.29-0.67-0.66l-0.23-11.39c-0.01-0.37,0.29-0.68,0.66-0.68
		c0.37,0,0.68,0.29,0.68,0.66l0.23,11.39c0.01,0.37-0.29,0.68-0.66,0.68C283.89,818.29,283.89,818.29,283.88,818.29z"/>
	<path class="st1" d="M365.28,816.54c-0.36,0-0.66-0.29-0.67-0.66l-0.23-11.39c-0.01-0.37,0.29-0.68,0.66-0.68
		c0.37,0.02,0.68,0.29,0.68,0.66l0.23,11.39c0.01,0.37-0.29,0.68-0.66,0.68C365.29,816.54,365.28,816.54,365.28,816.54z"/>
	<path class="st1" d="M276.83,786.83c-0.36,0-0.66-0.29-0.67-0.66c-0.01-0.37,0.29-0.68,0.66-0.68l94.9-2.02
		c0.38,0.01,0.68,0.29,0.68,0.66c0.01,0.37-0.29,0.68-0.66,0.68l-94.9,2.02C276.84,786.83,276.83,786.83,276.83,786.83z"/>
	<path class="st1" d="M277.9,838.66c-0.36,0-0.66-0.29-0.67-0.66c-0.01-0.37,0.29-0.68,0.66-0.68l94.9-2.02
		c0.37-0.02,0.68,0.29,0.68,0.66c0.01,0.37-0.29,0.68-0.66,0.68l-94.9,2.02C277.91,838.66,277.91,838.66,277.9,838.66z"/>
	<path class="st1" d="M290.97,818.14c-0.36,0-0.66-0.29-0.67-0.66l-0.23-11.39c-0.01-0.37,0.29-0.68,0.66-0.68
		c0.39,0.01,0.68,0.29,0.68,0.66l0.23,11.39c0.01,0.37-0.29,0.68-0.66,0.68C290.97,818.14,290.97,818.14,290.97,818.14z"/>
	<path class="st1" d="M372.8,836.63c-0.36,0-0.66-0.29-0.67-0.66l-1.08-51.83c-0.01-0.37,0.29-0.68,0.66-0.68
		c0.36,0.01,0.68,0.29,0.68,0.66l1.08,51.83c0.01,0.37-0.29,0.68-0.66,0.68C372.81,836.63,372.81,836.63,372.8,836.63z"/>
	<path class="st1" d="M290.84,811.82c-0.36,0-0.66-0.29-0.67-0.65c-0.01-0.37,0.29-0.68,0.65-0.68l74.31-1.61
		c0.37,0.01,0.68,0.29,0.68,0.65c0.01,0.37-0.29,0.68-0.65,0.68l-74.31,1.61C290.85,811.82,290.84,811.82,290.84,811.82z"/>
	<path class="st1" d="M426.27,964.76c-0.36,0-0.66-0.29-0.67-0.66l-0.24-11.39c-0.01-0.37,0.29-0.68,0.66-0.68
		c0.39,0.03,0.68,0.29,0.68,0.66l0.24,11.39c0.01,0.37-0.29,0.68-0.66,0.68C426.28,964.76,426.27,964.76,426.27,964.76z"/>
	<path class="st1" d="M198.08,958.15c-0.36,0-0.66-0.29-0.67-0.66c-0.01-0.37,0.29-0.68,0.66-0.68l227.96-4.78
		c0.39,0.03,0.68,0.29,0.68,0.66s-0.29,0.68-0.66,0.68l-227.96,4.78C198.08,958.15,198.08,958.15,198.08,958.15z"/>
	<path class="st1" d="M205.28,963.7c-0.36,0-0.66-0.29-0.67-0.66c-0.01-0.37,0.29-0.68,0.66-0.68l213.79-4.48
		c0.4,0,0.68,0.29,0.68,0.66s-0.29,0.68-0.66,0.68l-213.79,4.48C205.29,963.7,205.28,963.7,205.28,963.7z"/>
	<path class="st1" d="M426.27,964.76c-0.36,0-0.66-0.29-0.67-0.66l-0.24-11.39c-0.01-0.37,0.29-0.68,0.66-0.68
		c0.39,0.03,0.68,0.29,0.68,0.66l0.24,11.39c0.01,0.37-0.29,0.68-0.66,0.68C426.28,964.76,426.27,964.76,426.27,964.76z"/>
	<path class="st1" d="M419.18,964.91c-0.36,0-0.66-0.29-0.67-0.66l-0.24-11.39c-0.01-0.37,0.29-0.68,0.66-0.68
		c0.37,0.03,0.68,0.29,0.68,0.66l0.24,11.39c0.01,0.37-0.29,0.68-0.66,0.68C419.19,964.91,419.19,964.91,419.18,964.91z"/>
	<path class="st1" d="M198.31,969.54c-0.36,0-0.66-0.29-0.67-0.66l-0.24-11.39c-0.01-0.37,0.29-0.68,0.66-0.68
		c0.38,0.03,0.68,0.29,0.68,0.66l0.24,11.39c0.01,0.37-0.29,0.68-0.66,0.68C198.32,969.54,198.32,969.54,198.31,969.54z"/>
	<path class="st1" d="M205.4,969.39c-0.36,0-0.66-0.29-0.67-0.66l-0.24-11.39c-0.01-0.37,0.29-0.68,0.66-0.68
		c0.4,0,0.68,0.29,0.68,0.66l0.24,11.39c0.01,0.37-0.29,0.68-0.66,0.68C205.41,969.39,205.4,969.39,205.4,969.39z"/>
	<path class="st1" d="M198.31,969.54c-0.36,0-0.66-0.29-0.67-0.66c-0.01-0.37,0.29-0.68,0.66-0.68l227.96-4.78c0,0,0.01,0,0.01,0
		c0.36,0,0.66,0.29,0.67,0.66c0.01,0.37-0.29,0.68-0.66,0.68l-227.96,4.78C198.32,969.54,198.32,969.54,198.31,969.54z"/>
	<path class="st1" d="M426.98,965.97v0.05c-0.02,0.35-0.31,0.63-0.66,0.64l-227.95,4.78c-0.01,0-0.01,0-0.02,0
		c-0.36,0-0.66-0.29-0.66-0.66c-0.01-0.32,0.21-0.59,0.51-0.66c0.04-0.01,0.09-0.02,0.14-0.02l227.96-4.78h0.01
		c0.02,0,0.05,0,0.07,0.01C426.71,965.36,426.97,965.63,426.98,965.97z"/>
	<path class="st1" d="M198.04,956.25c-0.36,0-0.66-0.29-0.67-0.66c-0.01-0.37,0.29-0.68,0.66-0.68l227.96-4.81
		c0.4,0,0.68,0.29,0.68,0.66s-0.29,0.68-0.66,0.68l-227.96,4.81C198.04,956.25,198.04,956.25,198.04,956.25z"/>
	<path class="st1" d="M515.73,466.03c-0.13-0.13-0.3-0.2-0.48-0.2l-6.32-0.01c0,0,0,0-0.01,0c-0.36,0-0.66,0.3-0.66,0.67l-0.02,8.86
		v0.04c0.01,0.17,0.08,0.32,0.2,0.43c0.12,0.13,0.29,0.2,0.47,0.2l5.66,0.01h0.67c0.18,0,0.35-0.07,0.47-0.2
		c0.13-0.12,0.2-0.29,0.2-0.47v-0.67l0.01-8.19C515.92,466.33,515.85,466.15,515.73,466.03z M509.58,474.68l0.01-7.52l4.99,0.01
		l-0.01,7.52L509.58,474.68z"/>
	<path class="st1" d="M622.82,465.99h-0.01l-6.32-0.01c-0.18,0-0.35,0.07-0.48,0.19c-0.12,0.13-0.19,0.3-0.19,0.48l-0.01,8.86v0.03
		c0,0.16,0.08,0.32,0.19,0.44c0.13,0.13,0.3,0.2,0.47,0.2h0.66l5.67,0.01c0.37,0,0.67-0.3,0.67-0.67v-0.01l0.01-8.85
		C623.48,466.29,623.19,465.99,622.82,465.99z M622.13,474.85l-4.98-0.01l0.01-7.52l4.98,0.01L622.13,474.85z"/>
	<path class="st1" d="M518.89,577.26c-0.36,0-0.66-0.28-0.67-0.64c-0.01-0.37,0.27-0.68,0.64-0.69
		c54.25-2.01,96.83-46.12,96.94-100.41c0-0.37,0.3-0.67,0.67-0.67c0,0,0,0,0,0c0.37,0,0.67,0.3,0.67,0.67
		c-0.05,26.5-10.22,51.59-28.62,70.66c-18.41,19.06-43.13,30.1-69.61,31.09C518.91,577.26,518.9,577.26,518.89,577.26z"/>
	<path class="st1" d="M519.51,474.89c-0.13-0.12-0.3-0.19-0.47-0.19l-3.13-0.01h-0.67c-0.37,0-0.67,0.3-0.67,0.67v0.67l-0.15,100.55
		c0,0.37,0.3,0.67,0.67,0.67l3.8,0.01c0.05,0,0.09,0,0.13-0.01c0.13-0.03,0.25-0.09,0.34-0.19c0.13-0.12,0.2-0.29,0.2-0.47v-0.7
		l0.14-100.52C519.71,475.19,519.63,475.02,519.51,474.89z M515.91,476.03h2.45l-0.14,99.89l-2.46-0.01L515.91,476.03z"/>
	<path class="st1" d="M382.45,326.74c0-0.01,0-0.01,0-0.02c-0.02-0.36-0.33-0.64-0.69-0.64l-8.85,0.2c-0.01,0-0.01,0-0.02,0
		c-0.17,0.02-0.33,0.08-0.45,0.21c-0.13,0.13-0.19,0.3-0.19,0.48l0.13,5.66l0.01,0.66c0.01,0.37,0.31,0.66,0.67,0.66
		c0.01,0,0.01,0,0.02,0l0.67-0.02l8.19-0.18c0.17-0.01,0.34-0.08,0.46-0.21c0.13-0.13,0.19-0.3,0.19-0.48L382.45,326.74z
		 M373.72,332.59l-0.11-4.98l7.51-0.17l0.12,4.98L373.72,332.59z"/>
	<path class="st1" d="M384.87,434.27c-0.01-0.17-0.08-0.34-0.21-0.47c-0.13-0.12-0.3-0.19-0.48-0.18l-8.85,0.2h-0.01
		c-0.37,0.02-0.66,0.31-0.65,0.68l0.01,0.67l0.13,5.66c0.01,0.18,0.08,0.34,0.21,0.47c0.13,0.12,0.29,0.18,0.46,0.18
		c0.01,0,0.01,0,0.02,0h0.07l8.79-0.2c0.17,0,0.34-0.07,0.46-0.2c0.13-0.13,0.19-0.3,0.19-0.48v-0.04L384.87,434.27z M383.54,434.97
		l0.12,4.99l-7.52,0.17l-0.11-4.99L383.54,434.97z"/>
	<path class="st1" d="M373.06,435.18c-25.66,0-50.1-9.52-69.04-26.95c-19.5-17.94-31.13-42.39-32.75-68.84
		c-0.02-0.37,0.26-0.69,0.63-0.71c0.38-0.03,0.69,0.26,0.71,0.63c3.31,54.19,48.39,95.7,102.7,94.51c0,0,0.01,0,0.02,0
		c0.36,0,0.66,0.29,0.67,0.65c0.01,0.37-0.29,0.68-0.65,0.68C374.59,435.17,373.82,435.18,373.06,435.18z"/>
	<path class="st1" d="M373.75,333.93l-0.02-0.67c0-0.37-0.34-0.66-0.68-0.65l-0.67,0.02l-100.53,2.26c-0.37,0-0.66,0.31-0.65,0.68
		l0.08,3.78v0.02c0,0.01,0,0.01,0,0.02c0.02,0.16,0.08,0.32,0.21,0.44c0.12,0.12,0.29,0.19,0.46,0.19c0.01,0,0.01,0,0.02,0l0.7-0.02
		l100.49-2.26c0.18,0,0.35-0.08,0.47-0.2c0.13-0.13,0.19-0.3,0.19-0.48L373.75,333.93z M272.61,338.67l-0.06-2.46l99.86-2.25
		l0.05,2.46L272.61,338.67z"/>
	<path class="st1" d="M659.17,269.47c-0.13-0.13-0.3-0.2-0.47-0.2l-8.86-0.05c0,0,0,0-0.01,0h-0.01c-0.36,0.01-0.65,0.3-0.65,0.67
		l-0.04,5.66v0.66c0,0.18,0.07,0.35,0.19,0.48c0.13,0.12,0.3,0.2,0.47,0.2h0.68l8.18,0.05h0.01c0.36,0,0.66-0.3,0.67-0.67l0.03-6.31
		v-0.02C659.36,269.77,659.29,269.6,659.17,269.47z M657.99,275.59l-7.52-0.04l0.03-4.99l7.52,0.05L657.99,275.59z"/>
	<path class="st1" d="M658.71,351.72c-0.13-0.12-0.3-0.2-0.48-0.2l-8.85-0.05h-0.01c-0.37,0-0.67,0.3-0.67,0.67v0.66l-0.03,5.67
		c0,0.17,0.06,0.34,0.19,0.47c0.12,0.13,0.29,0.2,0.47,0.2h0.22l8.64,0.05c0.37,0,0.67-0.3,0.67-0.67v-0.03l0.04-6.29
		C658.9,352.02,658.83,351.85,658.71,351.72z M657.56,352.86l-0.03,4.99l-7.52-0.05l0.03-4.98L657.56,352.86z"/>
	<path class="st1" d="M649.36,352.81C649.36,352.81,649.36,352.81,649.36,352.81c-40.82-0.27-74.28-32.42-76.17-73.2
		c-0.02-0.37,0.27-0.68,0.64-0.7c0.37-0.02,0.68,0.27,0.7,0.64c1.86,40.06,34.73,71.65,74.83,71.92c0.37,0,0.67,0.3,0.67,0.67
		C650.03,352.52,649.73,352.81,649.36,352.81z"/>
	<path class="st1" d="M650.27,275.75c-0.12-0.13-0.29-0.2-0.47-0.2h-0.67l-75.24-0.43c-0.37,0-0.67,0.3-0.67,0.67l-0.03,3.79
		c0,0.04,0,0.09,0.01,0.13c0,0.01,0.01,0.02,0.01,0.02c0.03,0.12,0.09,0.24,0.18,0.33c0.12,0.12,0.29,0.19,0.47,0.2h0.71l75.2,0.42
		h0.01c0.37,0,0.66-0.29,0.67-0.66l0.02-3.13v-0.67C650.47,276.04,650.4,275.87,650.27,275.75z M649.11,279.34l-74.57-0.42
		l0.01-2.46l74.58,0.42L649.11,279.34z"/>
	<path class="st1" d="M490.63,129.57h-0.67l-5.66,0.01c-0.18,0-0.35,0.07-0.47,0.19c-0.13,0.13-0.2,0.3-0.2,0.48l0.01,8.86
		c0,0.36,0.29,0.66,0.65,0.67c0.01,0,0.01,0,0.02,0l6.32-0.01c0.18,0,0.35-0.07,0.48-0.2c0.12-0.12,0.19-0.29,0.19-0.47v-8.86
		C491.3,129.87,491,129.57,490.63,129.57z M489.96,138.43l-4.98,0.01l-0.01-7.52l4.99-0.01V138.43z"/>
	<path class="st1" d="M611.51,130.15c0-0.18-0.07-0.35-0.19-0.48c-0.13-0.12-0.3-0.19-0.48-0.19h-6.32c-0.37,0-0.66,0.29-0.67,0.66
		v8.87c0,0.18,0.08,0.35,0.2,0.47c0.13,0.13,0.3,0.2,0.47,0.2h6.33c0.37,0,0.67-0.3,0.67-0.67L611.51,130.15z M610.18,138.34h-4.99
		v-7.52h4.99V138.34z"/>
	<path class="st1" d="M605.19,130.14c0,0.37-0.3,0.67-0.67,0.67s-0.66-0.29-0.67-0.66v-0.01c-0.23-62.19-46.93-113.4-108.76-119.39
		c-0.24-0.03-0.49-0.06-0.73-0.08c-0.37-0.04-0.64-0.36-0.6-0.73c0.03-0.35,0.32-0.6,0.66-0.61l0.13,0.01
		c30.22,2.77,58.15,16.62,78.65,38.99c20.36,22.23,31.71,51.02,31.98,81.15C605.19,129.7,605.19,129.92,605.19,130.14z"/>
	<path class="st1" d="M494.9,9.53c-0.1-0.1-0.22-0.16-0.35-0.19l-0.13-0.01h-3.79c-0.37,0-0.67,0.3-0.67,0.67v120.24
		c0,0.18,0.07,0.35,0.19,0.48c0.13,0.12,0.3,0.19,0.48,0.19h3.79c0.37,0,0.67-0.3,0.67-0.67V10C495.09,9.82,495.02,9.65,494.9,9.53z
		 M493.75,129.57h-2.45V10.67h2.45V129.57z"/>
	<path class="st1" d="M380.99,804.83c-0.36,0-0.66-0.28-0.67-0.65c-0.76-21.99,6.95-43.1,21.7-59.44
		c14.75-16.33,34.96-26.15,56.92-27.63c0.37-0.02,0.69,0.25,0.71,0.62c0.02,0.37-0.25,0.69-0.62,0.71
		c-44.93,3.04-78.92,40.68-77.37,85.69c0.01,0.37-0.28,0.68-0.65,0.69C381,804.83,381,804.83,380.99,804.83z"/>
	<path class="st1" d="M372.13,805.01c-0.36,0-0.66-0.29-0.67-0.66c-0.01-0.37,0.29-0.68,0.66-0.68l8.86-0.18
		c0.37,0.02,0.68,0.29,0.68,0.66c0.01,0.37-0.29,0.68-0.66,0.68l-8.86,0.18C372.14,805.01,372.14,805.01,372.13,805.01z"/>
	<path class="st1" d="M381.22,816.21c-0.36,0-0.66-0.29-0.67-0.66l-0.23-11.39c-0.01-0.37,0.29-0.68,0.66-0.68
		c0.37,0.02,0.68,0.29,0.68,0.66l0.23,11.39c0.01,0.37-0.29,0.68-0.66,0.68C381.23,816.21,381.22,816.21,381.22,816.21z"/>
	<path class="st1" d="M372.36,816.39c-0.36,0-0.66-0.29-0.67-0.66c-0.01-0.37,0.29-0.68,0.66-0.68l8.86-0.18
		c0.4,0.01,0.68,0.29,0.68,0.66s-0.29,0.68-0.66,0.68l-8.86,0.18C372.37,816.39,372.37,816.39,372.36,816.39z"/>
	<path class="st1" d="M464.72,814.53c-0.36,0-0.66-0.29-0.67-0.66c-0.01-0.37,0.29-0.68,0.66-0.68l8.86-0.18
		c0.38,0.03,0.68,0.29,0.68,0.66c0.01,0.37-0.29,0.68-0.66,0.68l-8.86,0.18C464.73,814.53,464.73,814.53,464.72,814.53z"/>
	<path class="st1" d="M464.72,814.53c-0.36,0-0.66-0.29-0.67-0.66l-0.23-11.39c-0.01-0.37,0.29-0.68,0.66-0.68
		c0.37,0.01,0.68,0.29,0.68,0.66l0.23,11.39c0.01,0.37-0.29,0.68-0.66,0.68C464.73,814.53,464.73,814.53,464.72,814.53z"/>
	<path class="st1" d="M464.49,803.14c-0.36,0-0.66-0.29-0.67-0.66c-0.01-0.37,0.29-0.68,0.66-0.68l8.86-0.18
		c0.39,0,0.68,0.29,0.68,0.66s-0.29,0.68-0.66,0.68l-8.86,0.18C464.5,803.14,464.5,803.14,464.49,803.14z"/>
	<path class="st1" d="M473.58,814.35c-0.36,0-0.66-0.29-0.67-0.66l-0.23-11.39c-0.01-0.37,0.29-0.68,0.66-0.68
		c0.39,0,0.68,0.29,0.68,0.66l0.23,11.39c0.01,0.37-0.29,0.68-0.66,0.68C473.59,814.35,473.58,814.35,473.58,814.35z"/>
	<path class="st1" d="M465.15,801.79l-1.7-84.08c-0.01-0.37-0.3-0.65-0.68-0.65l-3.64,0.07h-0.16c-0.18,0.01-0.35,0.08-0.47,0.21
		s-0.19,0.3-0.19,0.48l0.01,0.69l1.71,84.05c0,0.37,0.3,0.66,0.67,0.66c0,0,0,0,0.01,0l3.12-0.07l0.66-0.01h0.01
		c0.18,0,0.35-0.08,0.47-0.2c0.13-0.13,0.19-0.3,0.19-0.48L465.15,801.79z M461.35,801.87l-1.68-83.41l2.45-0.05l1.69,83.41
		L461.35,801.87z"/>
	<path class="st1" d="M117.01,541.66c-0.36,0-0.66-0.28-0.67-0.65l-2.79-75.88c-0.01-0.37,0.27-0.68,0.64-0.69l75.88-2.79
		c0.37-0.02,0.68,0.27,0.69,0.64l2.79,75.88c0.01,0.37-0.27,0.68-0.64,0.69l-75.88,2.79C117.03,541.66,117.02,541.66,117.01,541.66z
		 M114.92,465.75l2.74,74.55l74.55-2.74l-2.74-74.55L114.92,465.75z"/>
	<path class="st1" d="M225,320.6c-0.36,0-0.66-0.29-0.67-0.65l-2.41-75.89c-0.01-0.37,0.28-0.68,0.65-0.69l75.89-2.41
		c0.18,0.01,0.35,0.06,0.48,0.18c0.13,0.12,0.21,0.29,0.21,0.47l2.41,75.89c0.01,0.37-0.28,0.68-0.65,0.69l-75.89,2.41
		C225.01,320.6,225,320.6,225,320.6z M223.28,244.69l2.36,74.55l74.55-2.36l-2.36-74.55L223.28,244.69z"/>
	<path class="st1" d="M245.96,311.06c-7.24,0-13.23-5.77-13.47-13.05c-0.11-3.6,1.18-7.03,3.64-9.65c2.46-2.63,5.8-4.13,9.4-4.25
		c3.59-0.1,7.03,1.18,9.65,3.64c2.63,2.46,4.13,5.8,4.25,9.4c0.11,3.6-1.18,7.03-3.64,9.65c-2.46,2.63-5.8,4.13-9.4,4.25l-0.02-0.67
		l0.02,0.67C246.25,311.06,246.1,311.06,245.96,311.06z M245.98,285.45c-0.13,0-0.26,0-0.4,0.01c-3.24,0.1-6.25,1.46-8.47,3.83
		c-2.22,2.36-3.38,5.45-3.28,8.69c0.1,3.24,1.46,6.25,3.83,8.47c2.36,2.22,5.45,3.38,8.69,3.28c3.24-0.1,6.25-1.46,8.47-3.83
		c2.22-2.36,3.38-5.45,3.28-8.69c-0.1-3.24-1.46-6.25-3.83-8.47C252,286.6,249.07,285.45,245.98,285.45z"/>
	<path class="st1" d="M245.96,307.27c-5.2,0-9.51-4.14-9.67-9.38c-0.17-5.34,4.03-9.81,9.37-9.98c5.34-0.15,9.81,4.04,9.98,9.37
		c0.17,5.34-4.03,9.81-9.37,9.98C246.17,307.26,246.06,307.27,245.96,307.27z M245.97,289.24c-0.09,0-0.18,0-0.27,0
		c-4.6,0.15-8.22,4.01-8.07,8.6c0.15,4.6,3.99,8.2,8.6,8.07c2.23-0.07,4.29-1,5.82-2.63c1.52-1.62,2.33-3.75,2.25-5.97
		C254.16,292.81,250.45,289.24,245.97,289.24z"/>
	<path class="st1" d="M277.5,277.45c-3.44,0-6.69-1.29-9.21-3.65c-2.63-2.46-4.13-5.8-4.25-9.4c-0.11-3.6,1.18-7.03,3.64-9.65
		c2.46-2.63,5.8-4.13,9.4-4.25c3.59-0.1,7.03,1.18,9.65,3.64c2.63,2.46,4.13,5.8,4.25,9.4c0.11,3.6-1.18,7.03-3.64,9.65
		c-2.46,2.63-5.8,4.13-9.4,4.25C277.79,277.45,277.64,277.45,277.5,277.45z M277.52,251.84c-0.13,0-0.26,0-0.39,0.01
		c-3.24,0.1-6.25,1.46-8.47,3.83s-3.38,5.45-3.28,8.69c0.1,3.24,1.46,6.25,3.83,8.47c2.36,2.22,5.45,3.38,8.69,3.28
		c3.24-0.1,6.25-1.46,8.47-3.83c2.22-2.36,3.38-5.45,3.28-8.69c-0.1-3.24-1.46-6.25-3.83-8.47
		C283.55,253,280.61,251.84,277.52,251.84z"/>
	<path class="st1" d="M277.5,273.66c-5.2,0-9.51-4.14-9.67-9.38c-0.17-5.34,4.03-9.81,9.37-9.98c5.33-0.16,9.81,4.03,9.98,9.37
		c0.17,5.34-4.03,9.81-9.37,9.98C277.71,273.66,277.61,273.66,277.5,273.66z M277.77,272.31l0.02,0.67L277.77,272.31
		c4.6-0.15,8.22-4,8.07-8.6c-0.07-2.23-1-4.29-2.63-5.82c-1.62-1.52-3.74-2.33-5.97-2.25c-4.6,0.15-8.22,4-8.07,8.6
		C269.32,268.84,273.16,272.45,277.77,272.31z"/>
	<path class="st1" d="M244.93,273.33c-2.12,0-4.13-0.79-5.69-2.25c-1.62-1.52-2.55-3.58-2.62-5.8c-0.07-2.22,0.73-4.34,2.25-5.96
		c1.52-1.62,3.58-2.55,5.8-2.62c4.58-0.12,8.43,3.47,8.58,8.05c0.07,2.22-0.73,4.34-2.25,5.96c-1.52,1.62-3.58,2.55-5.8,2.62
		l-0.02-0.67l0.02,0.67C245.11,273.33,245.02,273.33,244.93,273.33z M244.94,258.03c-0.07,0-0.15,0-0.22,0
		c-1.86,0.06-3.59,0.84-4.87,2.2c-1.28,1.36-1.95,3.14-1.89,5s0.84,3.59,2.2,4.87c1.36,1.28,3.13,1.95,5,1.89l0,0
		c1.86-0.06,3.59-0.84,4.87-2.2c1.28-1.36,1.95-3.13,1.89-5C251.79,261.01,248.68,258.03,244.94,258.03z"/>
	<path class="st1" d="M244.93,269.53c-1.15,0-2.25-0.43-3.09-1.23c-0.88-0.83-1.39-1.95-1.43-3.16c-0.04-1.21,0.4-2.36,1.22-3.24
		c0.83-0.88,1.95-1.39,3.16-1.43c1.2-0.04,2.36,0.4,3.24,1.22c0.88,0.83,1.39,1.95,1.43,3.16c0.04,1.21-0.4,2.36-1.22,3.24
		c-0.83,0.88-1.95,1.39-3.16,1.43l0,0C245.03,269.53,244.98,269.53,244.93,269.53z M244.94,261.82c-0.03,0-0.07,0-0.1,0
		c-0.85,0.03-1.64,0.38-2.22,1c-0.58,0.62-0.89,1.43-0.86,2.28c0.03,0.85,0.38,1.64,1,2.22s1.42,0.89,2.28,0.86l0,0
		c0.85-0.03,1.64-0.38,2.22-1c0.58-0.62,0.89-1.43,0.86-2.28c-0.03-0.85-0.38-1.64-1-2.22
		C246.52,262.13,245.75,261.82,244.94,261.82z"/>
	<path class="st1" d="M278.53,304.87c-2.12,0-4.13-0.79-5.69-2.25c-1.62-1.52-2.55-3.58-2.62-5.8c-0.07-2.22,0.73-4.34,2.25-5.96
		c1.52-1.62,3.58-2.55,5.8-2.62c2.21-0.07,4.34,0.73,5.96,2.25c1.62,1.52,2.55,3.58,2.62,5.8c0.15,4.58-3.47,8.43-8.05,8.58h0
		C278.71,304.87,278.62,304.87,278.53,304.87z M278.78,304.2L278.78,304.2L278.78,304.2z M278.55,289.57c-0.08,0-0.15,0-0.23,0
		c-1.86,0.06-3.59,0.84-4.87,2.2c-1.28,1.36-1.95,3.14-1.89,5s0.84,3.59,2.2,4.87c1.36,1.28,3.15,1.95,5,1.89l0,0
		c3.85-0.12,6.88-3.35,6.76-7.2c-0.06-1.86-0.84-3.59-2.2-4.87C282.01,290.24,280.33,289.57,278.55,289.57z"/>
	<path class="st1" d="M278.54,301.08c-2.43,0-4.44-1.94-4.52-4.38c-0.08-2.49,1.89-4.59,4.38-4.67c1.22-0.03,2.36,0.4,3.24,1.22
		s1.39,1.95,1.43,3.16c0.08,2.49-1.89,4.59-4.38,4.67C278.64,301.08,278.59,301.08,278.54,301.08z M278.54,293.37
		c-0.03,0-0.07,0-0.1,0c-0.85,0.03-1.64,0.38-2.22,1s-0.89,1.43-0.86,2.28c0.06,1.76,1.53,3.13,3.28,3.08
		c0.85-0.03,1.64-0.38,2.22-1c0.58-0.62,0.89-1.43,0.86-2.28c-0.03-0.85-0.38-1.64-1-2.22
		C280.13,293.67,279.36,293.37,278.54,293.37z"/>
	<path class="st1" d="M866.6,454.29c-0.12,0-0.24,0-0.37,0l-137.19-3.65c-20.45-0.54-36.48-17.86-36.49-39.43
		c-0.01-21.82,16.82-39.63,37.52-39.7l138.26,3.67c7.76,0.21,13.89,7,13.67,15.14l-1.32,49.56c-0.1,3.94-1.66,7.6-4.39,10.32
		C873.66,452.85,870.23,454.29,866.6,454.29z M730.06,372.84c-19.94,0.07-36.17,17.28-36.16,38.36
		c0.01,20.84,15.46,37.57,35.18,38.09l137.19,3.65c3.39,0.09,6.62-1.22,9.09-3.68c2.48-2.47,3.9-5.82,3.99-9.41l1.32-49.56
		c0.2-7.41-5.35-13.58-12.37-13.77L730.06,372.84z"/>
	<path class="st1" d="M865.97,419.79c-0.05,0-0.1,0-0.15,0c-3.27-0.09-5.86-2.94-5.77-6.37c0.09-3.42,2.87-6.15,6.1-6.05
		c3.27,0.09,5.86,2.94,5.77,6.37c-0.04,1.65-0.7,3.19-1.84,4.33C868.96,419.18,867.51,419.79,865.97,419.79z M866,408.71
		c-2.48,0-4.54,2.11-4.61,4.75c-0.07,2.68,1.93,4.92,4.46,4.99c1.23,0.04,2.38-0.44,3.27-1.33c0.9-0.9,1.41-2.11,1.45-3.42
		c0,0,0,0,0,0c0.07-2.68-1.93-4.92-4.46-4.99C866.07,408.71,866.04,408.71,866,408.71z"/>
	<path class="st1" d="M887.27,463.56c-0.01,0-0.01,0-0.02,0l-215.05-5.72c-0.37-0.01-0.66-0.32-0.65-0.69l2.52-94.88
		c0-0.18,0.08-0.35,0.21-0.47c0.13-0.12,0.31-0.18,0.48-0.18l215.05,5.72c0.18,0,0.35,0.08,0.47,0.21s0.19,0.3,0.18,0.48
		l-2.52,94.88C887.93,463.27,887.63,463.56,887.27,463.56z M672.91,456.52l213.71,5.68l2.49-93.54l-213.71-5.68L672.91,456.52z"/>
	<path class="st1" d="M131.88,347.25c-0.36,0-0.66-0.28-0.67-0.65c-0.01-0.37,0.27-0.68,0.64-0.69c1.25-0.05,2.24-1.1,2.19-2.36
		c-0.01-0.37,0.27-0.68,0.64-0.69c0.37-0.03,0.68,0.27,0.69,0.64c0.07,1.99-1.49,3.67-3.48,3.75
		C131.89,347.25,131.88,347.25,131.88,347.25z"/>
	<path class="st1" d="M128.82,344.41c-0.36,0-0.66-0.28-0.67-0.65c-0.07-1.99,1.49-3.67,3.48-3.75c1.97-0.08,3.67,1.49,3.75,3.48
		c0.01,0.37-0.27,0.68-0.64,0.69c-0.39,0.01-0.68-0.27-0.69-0.64c-0.05-1.25-1.1-2.23-2.36-2.19c-1.25,0.05-2.24,1.1-2.19,2.36
		c0.01,0.37-0.27,0.68-0.64,0.69C128.84,344.41,128.83,344.41,128.82,344.41z"/>
	<path class="st1" d="M131.77,347.25c-1.93,0-3.54-1.54-3.61-3.48c-0.01-0.37,0.27-0.68,0.64-0.69c0.37-0.03,0.68,0.27,0.69,0.64
		c0.05,1.25,1.09,2.23,2.36,2.19c0.36-0.02,0.68,0.27,0.69,0.64c0.01,0.37-0.27,0.68-0.64,0.69
		C131.86,347.25,131.81,347.25,131.77,347.25z"/>
	<path class="st1" d="M134.31,333.68c-0.36,0-0.66-0.28-0.67-0.65c-0.01-0.37,0.27-0.68,0.64-0.69l2.52-0.09
		c0.37-0.03,0.68,0.27,0.69,0.64s-0.27,0.68-0.64,0.69l-2.52,0.09C134.32,333.68,134.32,333.68,134.31,333.68z"/>
	<path class="st1" d="M135.9,389.71c-3.32,0-6.48-1.24-8.92-3.51c-2.57-2.39-4.05-5.63-4.18-9.14l-1.14-31.12
		c-0.13-3.5,1.11-6.85,3.5-9.42s5.63-4.05,9.14-4.18l31.12-1.14c3.49-0.14,6.85,1.11,9.42,3.5c2.57,2.39,4.05,5.63,4.18,9.14
		l1.14,31.12c0.27,7.23-5.4,13.33-12.64,13.6l-31.12,1.14C136.22,389.71,136.06,389.71,135.9,389.71z M165.9,332.53
		c-0.15,0-0.29,0-0.44,0.01l-31.12,1.14c-3.15,0.12-6.06,1.45-8.2,3.76c-2.14,2.31-3.26,5.31-3.15,8.46l1.14,31.12
		c0.12,3.15,1.45,6.06,3.76,8.2c2.31,2.14,5.3,3.26,8.46,3.14l31.12-1.14c6.5-0.24,11.59-5.72,11.35-12.21l-1.14-31.12l0,0
		c-0.12-3.15-1.45-6.06-3.76-8.2C171.71,333.64,168.88,332.53,165.9,332.53z"/>
	<path class="st1" d="M117,371.71c-0.36,0-0.66-0.28-0.67-0.65l-0.69-18.67c-0.01-0.37,0.27-0.68,0.64-0.69
		c0.36-0.03,0.68,0.27,0.69,0.64l0.69,18.67c0.01,0.37-0.27,0.68-0.64,0.69C117.02,371.71,117.01,371.71,117,371.71z"/>
	<path class="st1" d="M113.78,368.72c-0.36,0-0.66-0.28-0.67-0.65c-0.01-0.37,0.27-0.68,0.64-0.69l6.22-0.23
		c0.37-0.03,0.68,0.27,0.69,0.64s-0.27,0.68-0.64,0.69l-6.22,0.23C113.79,368.72,113.79,368.72,113.78,368.72z"/>
	<path class="st1" d="M113.32,356.27c-0.36,0-0.66-0.28-0.67-0.65c-0.01-0.37,0.27-0.68,0.64-0.69l6.22-0.23
		c0.37-0.03,0.68,0.27,0.69,0.64s-0.27,0.68-0.64,0.69l-6.22,0.23C113.34,356.27,113.33,356.27,113.32,356.27z"/>
	<path class="st1" d="M140.53,379.76c-0.14,0-0.27-0.04-0.39-0.13l-23.87-17.39c-0.3-0.22-0.36-0.64-0.15-0.94
		c0.22-0.3,0.64-0.36,0.94-0.15l23.87,17.39c0.3,0.22,0.36,0.64,0.15,0.94C140.94,379.67,140.74,379.76,140.53,379.76z"/>
	<path class="st1" d="M111.83,400.54c-0.36,0-0.66-0.28-0.67-0.65l-2.79-75.88c-0.01-0.18,0.06-0.35,0.18-0.48
		c0.12-0.13,0.29-0.21,0.47-0.21l75.88-2.79c0.17-0.01,0.35,0.06,0.48,0.18c0.13,0.12,0.21,0.29,0.21,0.47l2.78,75.88
		c0.01,0.37-0.27,0.68-0.64,0.69l-75.88,2.79C111.85,400.54,111.84,400.54,111.83,400.54z M109.74,324.64l2.74,74.54l74.54-2.74
		l-2.74-74.54L109.74,324.64z"/>
	<path class="st1" d="M882.02,255.97c-0.02,0-0.04,0-0.06,0c-0.63-0.02-1.22-0.28-1.65-0.74c-0.44-0.46-0.67-1.06-0.65-1.69
		c0.02-0.63,0.28-1.22,0.74-1.65c0.46-0.43,1.06-0.66,1.69-0.65c0.63,0.02,1.22,0.28,1.65,0.74c0.44,0.46,0.67,1.06,0.65,1.69
		c-0.02,0.63-0.28,1.22-0.74,1.65C883.2,255.74,882.63,255.97,882.02,255.97z M882.02,252.57c-0.26,0-0.51,0.1-0.71,0.28
		c-0.2,0.19-0.31,0.44-0.32,0.72c-0.01,0.27,0.09,0.54,0.28,0.73c0.19,0.2,0.44,0.31,0.72,0.32c0.29,0.02,0.54-0.09,0.73-0.28
		c0.2-0.19,0.31-0.44,0.32-0.72c0.01-0.27-0.09-0.54-0.28-0.73c-0.19-0.2-0.44-0.31-0.72-0.32
		C882.04,252.57,882.03,252.57,882.02,252.57z"/>
	<path class="st1" d="M882.02,256.39c-0.03,0-0.05,0-0.08,0c-1.53-0.04-2.75-1.32-2.71-2.86c0.04-1.54,1.33-2.75,2.86-2.71
		c0.74,0.02,1.44,0.33,1.95,0.87s0.78,1.25,0.76,1.99l0,0c-0.02,0.74-0.33,1.44-0.87,1.95
		C883.41,256.12,882.74,256.39,882.02,256.39z M882.02,252.16c-0.78,0-1.42,0.62-1.45,1.41c-0.02,0.8,0.61,1.46,1.41,1.48
		c0.38,0.01,0.75-0.13,1.03-0.4c0.28-0.27,0.44-0.62,0.45-1.01c0,0,0,0,0,0c0.02-0.8-0.61-1.46-1.41-1.48
		C882.04,252.16,882.03,252.16,882.02,252.16z"/>
	<path class="st1" d="M874.5,277.5c-1.67,0-3.07-1.3-3.18-2.99c-0.41-14.1-0.04-28.28,1.12-42.25c0.14-1.75,1.68-3.05,3.44-2.91
		c0.01,0,0.09,0.01,0.1,0.01l16.36,1.87c1,0.11,1.73,0.96,1.71,1.97l-1.1,41.43c-0.03,1.01-0.8,1.81-1.81,1.87l-16.44,1
		C874.63,277.5,874.57,277.5,874.5,277.5z M875.62,230.68c-0.95,0-1.76,0.73-1.84,1.69c-1.15,13.91-1.52,28.04-1.12,42
		c0.03,0.55,0.25,1,0.62,1.33c0.37,0.33,0.84,0.49,1.33,0.46l16.44-1c0.31-0.02,0.54-0.26,0.55-0.57l1.1-41.43
		c0.01-0.31-0.22-0.56-0.52-0.6l-16.36-1.87l0.08-0.67l-0.13,0.66C875.72,230.68,875.67,230.68,875.62,230.68z"/>
	<path class="st1" d="M839.8,259.06c-3.05,0-5.85-2.02-6.71-5.1c-0.15-0.53-0.23-1.07-0.25-1.62c0.16-1.93,1.04-3.61,2.46-4.8
		c1.42-1.19,3.22-1.77,5.08-1.6c0.55,0.05,1.09,0.16,1.61,0.33l0,0c0.97,0.32,1.73,1.1,2.03,2.08c0.86,2.77,0.78,5.79-0.23,8.5
		c-0.35,0.96-1.15,1.69-2.14,1.97C841.04,258.98,840.42,259.06,839.8,259.06z M839.77,247.24c-1.32,0-2.58,0.46-3.6,1.32
		c-1.15,0.96-1.85,2.32-1.98,3.81c0.02,0.36,0.08,0.8,0.2,1.23c0.83,2.98,3.92,4.74,6.91,3.92c0.57-0.16,1.03-0.58,1.24-1.14
		c0.9-2.44,0.97-5.16,0.2-7.64c-0.18-0.57-0.61-1.02-1.18-1.2l0,0c-0.42-0.14-0.86-0.23-1.3-0.27
		C840.1,247.25,839.94,247.24,839.77,247.24z"/>
	<path class="st1" d="M842.77,268.95c-0.1,0-0.2,0-0.3,0l-13.31-0.35c-1.47-0.04-2.95-0.19-4.4-0.43l0,0
		c-2.41-0.41-4.66-1.48-6.51-3.07c-7.1-6.13-7.89-16.9-1.76-24c0.74-0.85,1.56-1.64,2.46-2.33c1.93-1.5,4.23-2.44,6.66-2.72
		c1.46-0.17,2.95-0.24,4.42-0.2l13.31,0.35c5.13,0.14,9.55,3.72,10.74,8.71c1.25,5.24,1.11,10.75-0.42,15.91
		C852.23,265.64,847.78,268.95,842.77,268.95z M824.97,266.83c1.39,0.24,2.81,0.38,4.21,0.42l13.31,0.35
		c4.54,0.13,8.59-2.83,9.87-7.17c1.46-4.94,1.6-10.21,0.4-15.22c-1.05-4.41-4.95-7.57-9.48-7.69l-13.31-0.35
		c-1.41-0.04-2.83,0.03-4.23,0.19c-2.19,0.26-4.26,1.1-6,2.45c-0.82,0.64-1.58,1.36-2.26,2.15c-5.65,6.54-4.92,16.46,1.62,22.11
		C820.78,265.5,822.81,266.46,824.97,266.83L824.97,266.83z"/>
	<path class="st1" d="M863.95,276.43c-0.01,0-0.01,0-0.02,0l-35.19-0.94c-6.22-0.17-12.01-2.74-16.29-7.26
		c-4.28-4.52-6.55-10.43-6.38-16.65c0.17-6.22,2.74-12.01,7.26-16.29c4.52-4.28,10.44-6.53,16.65-6.38l35.19,0.94
		c0.08,0,0.15,0.02,0.22,0.04c2.62,1,5.27,2.04,7.87,3.09c0.25,0.1,0.42,0.35,0.42,0.62c0,0.02,0,0.04,0,0.06l-0.74,11.74
		l-0.16,3.17l-0.26,12.26l-0.01,2.89l0.13,9.36c0.01,0.29-0.18,0.55-0.45,0.65c-2.66,0.92-5.36,1.82-8.02,2.67
		C864.09,276.42,864.02,276.43,863.95,276.43z M829.35,230.24c-11.84,0-21.63,9.47-21.94,21.38c-0.16,5.86,1.98,11.44,6.02,15.69
		c4.04,4.26,9.49,6.69,15.35,6.84l35.08,0.93c2.47-0.79,4.96-1.62,7.43-2.47l-0.12-8.88l0.07-7.66l0.2-7.55l0.34-6.64l0.53-7.84
		c-2.41-0.98-4.86-1.94-7.28-2.86l-35.08-0.93C829.75,230.24,829.55,230.24,829.35,230.24z"/>
	<path class="st1" d="M872.97,333.3c-0.16,0-0.32-0.06-0.45-0.17c-0.37-0.33-0.68-0.78-0.89-1.3c-0.75-1.8-0.28-4.06,1.07-5.14
		c0.29-0.23,0.71-0.19,0.94,0.1c0.23,0.29,0.19,0.71-0.1,0.94c-0.88,0.71-1.18,2.35-0.67,3.59c0.14,0.33,0.33,0.62,0.55,0.82
		c0.27,0.25,0.3,0.67,0.05,0.95C873.34,333.23,873.16,333.3,872.97,333.3z"/>
	<path class="st1" d="M867.73,333.95c-0.02,0-0.05,0-0.07,0c-0.9-0.02-1.71-0.51-2.3-1.36c-0.54-0.79-0.82-1.82-0.79-2.89l0,0
		c0.03-1.08,0.36-2.09,0.94-2.84c0.63-0.82,1.46-1.26,2.37-1.24c1.77,0.05,3.15,1.96,3.09,4.25c-0.03,1.08-0.36,2.09-0.94,2.84
		C869.42,333.51,868.6,333.95,867.73,333.95z M867.82,326.95c-0.44,0-0.88,0.25-1.24,0.72c-0.41,0.54-0.65,1.27-0.67,2.07v0
		c-0.02,0.79,0.18,1.54,0.56,2.1c0.34,0.49,0.77,0.77,1.23,0.78c0.46,0.02,0.91-0.24,1.27-0.71c0.41-0.54,0.65-1.27,0.67-2.07
		c0.04-1.53-0.78-2.85-1.79-2.88C867.84,326.95,867.83,326.95,867.82,326.95z M865.24,329.71L865.24,329.71L865.24,329.71z"/>
	<path class="st1" d="M865.36,364.29c-0.13,0-0.27,0-0.4-0.01c-6.12-0.16-11.77-3.95-15.88-10.66c-4.06-6.62-6.17-15.32-5.92-24.5
		c0.5-18.85,10.89-33.96,23.24-33.96c0.13,0,0.27,0,0.4,0.01c6.12,0.16,11.77,3.95,15.88,10.66c4.06,6.62,6.17,15.32,5.92,24.5
		C888.1,349.19,877.71,364.29,865.36,364.29z M866.39,296.51c-11.63,0-21.41,14.53-21.9,32.65c-0.24,8.92,1.8,17.36,5.72,23.76
		c3.87,6.31,9.12,9.87,14.78,10.02c11.78,0.3,21.78-14.33,22.27-32.65c0.24-8.92-1.8-17.36-5.72-23.76
		c-3.87-6.31-9.12-9.87-14.78-10.02C866.64,296.51,866.51,296.51,866.39,296.51z"/>
	<path class="st1" d="M862.5,356.08c-1.22,0-2.44-0.2-3.63-0.6c-5.21-1.77-9.43-7.07-11.58-14.56c-3.76-13.07,0.07-28.79,8.55-35.06
		c3.48-2.57,7.43-3.29,11.15-2.03c5.21,1.77,9.43,7.07,11.59,14.56c0.02,0.07,0.03,0.13,0.03,0.2l-0.23,8.76
		c-0.01,0.37-0.35,0.66-0.69,0.65c-0.37-0.01-0.66-0.32-0.65-0.69l0.23-8.66c-2.04-7-5.94-11.94-10.7-13.56
		c-3.33-1.13-6.76-0.5-9.92,1.84c-8.06,5.96-11.67,21.03-8.05,33.61c2.03,7.06,5.94,12.03,10.73,13.66
		c3.33,1.13,6.76,0.49,9.92-1.84c3.14-2.32,5.79-6.25,7.46-11.07c0.12-0.35,0.5-0.53,0.85-0.41c0.35,0.12,0.53,0.5,0.41,0.85
		c-1.76,5.07-4.57,9.23-7.93,11.71C867.66,355.19,865.07,356.08,862.5,356.08z"/>
	<path class="st1" d="M877.31,342.18c-0.01,0-0.01,0-0.02,0c-0.37-0.01-0.66-0.32-0.65-0.69l0.23-8.76
		c0.01-0.37,0.35-0.66,0.69-0.65c0.37,0.01,0.66,0.32,0.65,0.69l-0.23,8.76C877.97,341.9,877.67,342.18,877.31,342.18z"/>
	<path class="st1" d="M884.39,339.21c-0.01,0-0.01,0-0.02,0l-3.42-0.09c-0.18,0-0.35-0.08-0.47-0.21s-0.19-0.3-0.18-0.48l0.15-5.59
		c0.01-0.37,0.3-0.67,0.69-0.65c0.37,0.01,0.66,0.32,0.65,0.69l-0.13,4.93l2.08,0.06l0.41-15.27l-2.08-0.06l-0.13,4.93
		c-0.01,0.37-0.36,0.65-0.69,0.65c-0.37-0.01-0.66-0.32-0.65-0.69l0.15-5.59c0.01-0.37,0.35-0.65,0.69-0.65l3.42,0.09
		c0.37,0.01,0.66,0.32,0.65,0.69l-0.44,16.61c0,0.18-0.08,0.35-0.21,0.47C884.73,339.14,884.56,339.21,884.39,339.21z"/>
	<path class="st1" d="M883.65,333.59c-0.01,0-0.01,0-0.02,0l-10.68-0.28c-0.37-0.01-0.66-0.32-0.65-0.69
		c0.01-0.37,0.33-0.65,0.69-0.65l10.01,0.27l0.11-4.08l-10.01-0.27c-0.37-0.01-0.66-0.32-0.65-0.69c0.01-0.37,0.33-0.66,0.69-0.65
		l10.68,0.28c0.37,0.01,0.66,0.32,0.65,0.69l-0.14,5.42C884.31,333.3,884.01,333.59,883.65,333.59z"/>
	<path class="st1" d="M889.79,368.69c-0.01,0-0.01,0-0.02,0l-50.6-1.35c-0.37-0.01-0.66-0.32-0.65-0.69l2.02-75.9
		c0-0.18,0.08-0.35,0.21-0.47s0.31-0.19,0.48-0.18l50.6,1.35c0.37,0.01,0.66,0.32,0.65,0.69l-2.02,75.9c0,0.18-0.08,0.35-0.21,0.47
		C890.13,368.62,889.96,368.69,889.79,368.69z M839.88,366.02l49.26,1.31l1.98-74.56l-49.26-1.31L839.88,366.02z"/>
	<path class="st1" d="M659.98,249.38c0,0-0.01,0-0.01,0c-0.37-0.01-0.66-0.31-0.66-0.68l1.05-56.94c0.01-0.37,0.3-0.65,0.68-0.66
		c0.37,0.01,0.66,0.31,0.66,0.68l-1.05,56.94C660.64,249.08,660.34,249.38,659.98,249.38z"/>
	<path class="st1" d="M735.89,250.77c0,0-0.01,0-0.01,0c-0.37-0.01-0.66-0.31-0.66-0.68l1.05-56.94c0.01-0.37,0.32-0.66,0.68-0.66
		c0.37,0.01,0.66,0.31,0.66,0.68l-1.05,56.94C736.55,250.48,736.25,250.77,735.89,250.77z"/>
	<path class="st1" d="M735.89,250.77c0,0-0.01,0-0.01,0l-75.91-1.4c-0.37-0.01-0.66-0.31-0.66-0.68c0.01-0.37,0.36-0.65,0.68-0.66
		l75.91,1.4c0.37,0.01,0.66,0.31,0.66,0.68C736.55,250.48,736.25,250.77,735.89,250.77z"/>
	<path class="st1" d="M736.94,193.84c0,0-0.01,0-0.01,0l-75.91-1.4c-0.37-0.01-0.66-0.31-0.66-0.68c0.01-0.37,0.31-0.66,0.67-0.66
		c0,0,0.01,0,0.01,0l75.91,1.4c0.37,0.01,0.66,0.31,0.66,0.68C737.6,193.55,737.3,193.84,736.94,193.84z"/>
	<path class="st1" d="M692.07,240.89c-0.18,0-0.35-0.07-0.48-0.2c-0.26-0.27-0.25-0.69,0.02-0.95l20.81-20.06
		c0.27-0.26,0.69-0.25,0.95,0.02c0.26,0.27,0.25,0.69-0.02,0.95l-20.81,20.06C692.4,240.82,692.24,240.89,692.07,240.89z"/>
	<path class="st1" d="M687.91,222.36c-0.18,0-0.35-0.07-0.48-0.2c-0.26-0.27-0.25-0.69,0.02-0.95l11.75-11.33
		c0.27-0.26,0.69-0.25,0.95,0.02c0.26,0.27,0.25,0.69-0.02,0.95l-11.75,11.33C688.25,222.29,688.08,222.36,687.91,222.36z"/>
	<path class="st1" d="M687.6,237.91c-0.18,0-0.35-0.07-0.48-0.2c-0.26-0.27-0.25-0.69,0.02-0.95l16.93-16.32
		c0.27-0.26,0.69-0.25,0.95,0.02c0.26,0.27,0.25,0.69-0.02,0.95l-16.93,16.32C687.94,237.85,687.77,237.91,687.6,237.91z"/>
	<path class="st1" d="M698.97,242.2c-0.18,0-0.35-0.07-0.48-0.2c-0.26-0.27-0.25-0.69,0.02-0.95l13.07-12.6
		c0.27-0.26,0.69-0.25,0.95,0.02c0.26,0.27,0.25,0.69-0.02,0.95l-13.07,12.6C699.31,242.14,699.14,242.2,698.97,242.2z"/>
	<path class="st1" d="M687.72,233.69c-0.18,0-0.35-0.07-0.48-0.2c-0.26-0.27-0.25-0.69,0.02-0.95l20.19-19.46
		c0.27-0.26,0.69-0.25,0.95,0.02c0.26,0.27,0.25,0.69-0.02,0.95l-20.19,19.46C688.06,233.63,687.89,233.69,687.72,233.69z"/>
	<path class="st1" d="M698.37,242.21c-0.1,0-0.2,0-0.3,0c-8.98-0.17-16.15-7.6-15.98-16.58c0.08-4.35,1.85-8.41,4.98-11.43
		c3.13-3.02,7.26-4.64,11.6-4.56l0,0c8.98,0.17,16.15,7.61,15.99,16.58C714.49,235.1,707.21,242.21,698.37,242.21z M698.36,210.98
		c-3.89,0-7.56,1.48-10.37,4.19c-2.88,2.77-4.5,6.5-4.57,10.49c-0.15,8.24,6.43,15.07,14.67,15.22c8.24,0.14,15.07-6.43,15.22-14.67
		c0.15-8.24-6.43-15.07-14.67-15.22C698.55,210.98,698.45,210.98,698.36,210.98z"/>
	<path class="st1" d="M698.38,247.3c-0.13,0-0.27,0-0.4,0c-5.71-0.1-11.04-2.43-15-6.54c-3.96-4.11-6.09-9.52-5.98-15.23
		c0.1-5.71,2.43-11.04,6.54-15c4.11-3.96,9.51-6.09,15.23-5.98c5.71,0.1,11.04,2.43,15,6.54s6.09,9.52,5.98,15.23
		c-0.1,5.71-2.43,11.04-6.54,15C709.19,245.19,703.94,247.3,698.38,247.3z M698.36,205.88c-5.21,0-10.13,1.98-13.9,5.61
		c-3.85,3.71-6.03,8.71-6.13,14.06s1.89,10.42,5.61,14.28c3.71,3.85,8.71,6.03,14.06,6.13c5.35,0.11,10.42-1.89,14.28-5.61
		c3.85-3.71,6.03-8.71,6.13-14.06c0.1-5.35-1.89-10.42-5.61-14.28c-3.71-3.85-8.71-6.03-14.06-6.13
		C698.61,205.89,698.48,205.88,698.36,205.88z"/>
	<path class="st1" d="M709.62,201.69c-0.02,0-0.05,0-0.07,0c-2.01-0.04-3.61-1.7-3.58-3.71c0.01-0.37,0.33-0.66,0.68-0.66
		c0.37,0.01,0.66,0.31,0.66,0.68c-0.02,1.27,0.99,2.32,2.26,2.35c1.27,0.01,2.32-0.99,2.35-2.26c0.01-0.37,0.35-0.65,0.68-0.66
		c0.37,0.01,0.66,0.31,0.66,0.68C713.22,200.1,711.59,201.69,709.62,201.69z"/>
	<path class="st1" d="M712.59,198.77c0,0-0.01,0-0.01,0c-0.37-0.01-0.66-0.31-0.66-0.68c0.01-0.62-0.22-1.2-0.65-1.64
		c-0.43-0.44-1-0.69-1.62-0.7c-1.28,0-2.32,0.99-2.35,2.26c-0.01,0.37-0.36,0.67-0.68,0.66c-0.37-0.01-0.66-0.31-0.66-0.68
		c0.04-2.01,1.67-3.63,3.71-3.58c0.97,0.02,1.88,0.41,2.56,1.11c0.68,0.7,1.04,1.62,1.02,2.6
		C713.25,198.48,712.95,198.77,712.59,198.77z"/>
	<path class="st1" d="M718.13,201.85c-0.02,0-0.05,0-0.07,0c-2.01-0.04-3.61-1.7-3.58-3.71c0.01-0.37,0.36-0.65,0.68-0.66
		c0.37,0.01,0.66,0.31,0.66,0.68c-0.02,1.27,0.99,2.32,2.26,2.35c0.01,0,0.03,0,0.04,0c1.25,0,2.28-1.01,2.3-2.26
		c0.01-0.37,0.31-0.66,0.67-0.66c0,0,0.01,0,0.01,0c0.37,0.01,0.66,0.31,0.66,0.68c-0.02,0.97-0.41,1.88-1.11,2.56
		C719.98,201.49,719.08,201.85,718.13,201.85z"/>
	<path class="st1" d="M721.11,198.93c0,0-0.01,0-0.01,0c-0.37-0.01-0.66-0.31-0.66-0.68c0.02-1.27-0.99-2.32-2.26-2.35
		c-1.32-0.01-2.32,0.99-2.35,2.26c-0.01,0.37-0.33,0.67-0.68,0.66c-0.37-0.01-0.66-0.31-0.66-0.68c0.02-0.97,0.41-1.88,1.11-2.56
		s1.63-1.04,2.6-1.02c2.01,0.04,3.61,1.7,3.58,3.71C721.77,198.64,721.47,198.93,721.11,198.93z"/>
	<path class="st1" d="M726.65,202.01c-0.02,0-0.05,0-0.07,0c-2.01-0.04-3.61-1.7-3.58-3.71c0.01-0.37,0.35-0.65,0.68-0.66
		c0.37,0.01,0.66,0.31,0.66,0.68c-0.01,0.62,0.22,1.2,0.65,1.64c0.43,0.44,1,0.69,1.62,0.71c1.29-0.01,2.32-0.99,2.35-2.26
		c0.01-0.37,0.31-0.66,0.67-0.66c0,0,0.01,0,0.01,0c0.37,0.01,0.66,0.31,0.66,0.68C730.25,200.42,728.63,202.01,726.65,202.01z"/>
	<path class="st1" d="M729.62,199.09c0,0-0.01,0-0.01,0c-0.37-0.01-0.66-0.31-0.66-0.68c0.02-1.27-0.99-2.32-2.26-2.35
		c-1.25,0-2.32,0.99-2.35,2.26c-0.01,0.37-0.33,0.68-0.68,0.66c-0.37-0.01-0.66-0.31-0.66-0.68c0.04-2.01,1.69-3.64,3.71-3.58
		c2.01,0.04,3.61,1.7,3.58,3.71C730.28,198.8,729.99,199.09,729.62,199.09z"/>
	<path class="st1" d="M736.74,204.74c0,0-0.01,0-0.01,0l-75.91-1.4c-0.37-0.01-0.66-0.31-0.66-0.68c0.01-0.37,0.31-0.66,0.67-0.66
		c0,0,0.01,0,0.01,0l75.91,1.4c0.37,0.01,0.66,0.31,0.66,0.68C737.4,204.44,737.1,204.74,736.74,204.74z"/>
	<path class="st1" d="M666.19,199.92c-0.02,0-0.03,0-0.05,0c-1.47-0.03-2.64-1.25-2.62-2.71c0.03-1.47,1.21-2.67,2.71-2.62l0,0
		c1.47,0.03,2.64,1.25,2.62,2.71C668.82,198.75,667.63,199.92,666.19,199.92z M666.19,195.92c-0.72,0-1.31,0.58-1.33,1.3
		c-0.01,0.73,0.57,1.34,1.3,1.35c0.76-0.01,1.34-0.57,1.35-1.3c0.01-0.73-0.57-1.34-1.3-1.35l0,0
		C666.2,195.92,666.19,195.92,666.19,195.92z"/>
	<path class="st1" d="M117.01,541.66c-0.36,0-0.66-0.28-0.67-0.65l-2.79-75.88c-0.01-0.37,0.27-0.68,0.64-0.69l75.88-2.79
		c0.37-0.02,0.68,0.27,0.69,0.64l2.79,75.88c0.01,0.37-0.27,0.68-0.64,0.69l-75.88,2.79C117.03,541.66,117.02,541.66,117.01,541.66z
		 M114.92,465.75l2.74,74.55l74.55-2.74l-2.74-74.55L114.92,465.75z"/>
	<path class="st1" d="M117.01,541.66c-0.36,0-0.66-0.28-0.67-0.65l-2.79-75.88c-0.01-0.18,0.06-0.35,0.18-0.48
		c0.12-0.13,0.29-0.21,0.47-0.21l18.97-0.7c0.36-0.03,0.68,0.27,0.69,0.64l2.79,75.88c0.01,0.18-0.06,0.35-0.18,0.48
		c-0.12,0.13-0.29,0.21-0.47,0.21l-18.97,0.7C117.03,541.66,117.02,541.66,117.01,541.66z M114.92,465.75l2.74,74.55l17.63-0.65
		l-2.74-74.55L114.92,465.75z"/>
	<path class="st1" d="M124.05,479.35c-1.29,0-2.52-0.48-3.47-1.36c-1-0.93-1.57-2.19-1.62-3.55c-0.05-1.36,0.43-2.66,1.36-3.66
		s2.19-1.57,3.55-1.62l0,0c1.35-0.05,2.66,0.43,3.66,1.36c1,0.93,1.57,2.19,1.62,3.55c0.05,1.36-0.43,2.66-1.36,3.66
		c-0.93,1-2.19,1.57-3.55,1.62C124.18,479.34,124.12,479.35,124.05,479.35z M123.92,470.49c-2.07,0.08-3.7,1.82-3.62,3.9
		c0.08,2.07,1.82,3.69,3.9,3.62c1-0.04,1.93-0.46,2.62-1.2c0.68-0.74,1.04-1.69,1-2.7c-0.04-1-0.46-1.93-1.2-2.62
		C125.88,470.81,124.93,470.46,123.92,470.49L123.92,470.49z M123.9,469.82L123.9,469.82L123.9,469.82z"/>
	<path class="st1" d="M120.66,537.73c-0.36,0-0.66-0.28-0.67-0.65l-2.14-58.18c-0.01-0.37,0.27-0.68,0.64-0.69
		c0.36-0.03,0.68,0.27,0.69,0.64l2.11,57.51l11.98-0.44c0.37-0.02,0.68,0.27,0.69,0.64s-0.27,0.68-0.64,0.69l-12.65,0.46
		C120.68,537.73,120.67,537.73,120.66,537.73z"/>
	<path class="st1" d="M138.37,537.08c-0.36,0-0.66-0.28-0.67-0.65c-0.01-0.37,0.27-0.68,0.64-0.69l49.92-1.83l-2.11-57.51
		c-0.01-0.37,0.27-0.68,0.64-0.69c0.35-0.03,0.68,0.27,0.69,0.64l2.14,58.18c0.01,0.18-0.06,0.35-0.18,0.48
		c-0.12,0.13-0.29,0.21-0.47,0.21l-50.59,1.86C138.39,537.08,138.38,537.08,138.37,537.08z"/>
	<path class="st1" d="M143.02,478.65c-1.29,0-2.52-0.48-3.47-1.36c-1-0.93-1.57-2.19-1.62-3.55c-0.05-1.36,0.43-2.66,1.36-3.66
		s2.19-1.57,3.55-1.62c1.36-0.05,2.66,0.43,3.66,1.36c1,0.93,1.57,2.19,1.62,3.55c0.1,2.81-2.1,5.18-4.91,5.28
		C143.15,478.65,143.09,478.65,143.02,478.65z M143.03,469.79c-0.05,0-0.09,0-0.14,0c-2.07,0.08-3.7,1.82-3.62,3.9
		c0.08,2.07,1.84,3.69,3.9,3.62c1-0.04,1.93-0.46,2.62-1.2s1.04-1.69,1-2.7c-0.04-1-0.46-1.93-1.2-2.62
		C144.89,470.14,143.98,469.79,143.03,469.79z"/>
	<path class="st1" d="M143.57,505.26c-0.36,0-0.66-0.28-0.67-0.65c-0.01-0.37,0.27-0.68,0.64-0.69l36.31-1.33
		c0.35-0.03,0.68,0.27,0.69,0.64s-0.27,0.68-0.64,0.69l-36.31,1.33C143.59,505.26,143.58,505.26,143.57,505.26z"/>
	<path class="st1" d="M162.39,522.75c-0.36,0-0.66-0.28-0.67-0.65l-1.33-36.31c-0.01-0.37,0.27-0.68,0.64-0.69
		c0.36-0.02,0.68,0.27,0.69,0.64l1.33,36.31c0.01,0.37-0.27,0.68-0.64,0.69C162.41,522.75,162.4,522.75,162.39,522.75z"/>
	<path class="st1" d="M151.2,515.93c-0.16,0-0.33-0.06-0.46-0.18c-0.27-0.25-0.29-0.68-0.03-0.95l21.06-22.66
		c0.25-0.27,0.67-0.29,0.95-0.04c0.27,0.25,0.29,0.68,0.03,0.95l-21.06,22.66C151.55,515.85,151.38,515.93,151.2,515.93z"/>
	<path class="st1" d="M173.06,515.12c-0.16,0-0.33-0.06-0.46-0.18l-22.66-21.06c-0.27-0.25-0.29-0.68-0.03-0.95
		c0.25-0.27,0.68-0.29,0.95-0.03l22.66,21.06c0.27,0.25,0.29,0.68,0.04,0.95C173.42,515.05,173.24,515.12,173.06,515.12z"/>
	<path class="st1" d="M144,510.65c-0.16,0-0.33-0.06-0.46-0.18c-0.27-0.25-0.29-0.68-0.04-0.95l4.75-5.11l-5.11-4.75
		c-0.27-0.25-0.29-0.68-0.03-0.95c0.25-0.27,0.67-0.29,0.95-0.04l5.6,5.2c0.27,0.25,0.29,0.68,0.03,0.95l-5.2,5.6
		C144.36,510.58,144.18,510.65,144,510.65z"/>
	<path class="st1" d="M179.84,509.34c-0.16,0-0.33-0.06-0.46-0.18l-5.6-5.2c-0.27-0.25-0.29-0.68-0.03-0.95l5.2-5.6
		c0.25-0.27,0.67-0.29,0.95-0.04c0.27,0.25,0.29,0.68,0.04,0.95l-4.75,5.11l5.11,4.75c0.27,0.25,0.29,0.68,0.03,0.95
		C180.2,509.26,180.02,509.34,179.84,509.34z"/>
	<path class="st1" d="M156.98,522.71c-0.16,0-0.33-0.06-0.46-0.18c-0.27-0.25-0.29-0.68-0.04-0.95l5.2-5.6
		c0.25-0.27,0.67-0.29,0.95-0.03l5.6,5.2c0.27,0.25,0.29,0.68,0.04,0.95c-0.25,0.27-0.68,0.29-0.95,0.04l-5.11-4.75l-4.75,5.11
		C157.34,522.64,157.16,522.71,156.98,522.71z"/>
	<path class="st1" d="M161.27,492.07c-0.16,0-0.33-0.06-0.46-0.18l-5.6-5.2c-0.27-0.25-0.29-0.68-0.04-0.95
		c0.25-0.27,0.67-0.29,0.95-0.04l5.11,4.75l4.75-5.11c0.25-0.27,0.67-0.29,0.95-0.03c0.27,0.25,0.29,0.68,0.04,0.95l-5.2,5.6
		C161.62,492,161.45,492.07,161.27,492.07z"/>
	<path class="st1" d="M147.66,498.15c-0.36,0-0.66-0.28-0.67-0.65c-0.01-0.37,0.27-0.68,0.64-0.69l6.19-0.23l-0.23-6.19
		c-0.01-0.37,0.27-0.68,0.64-0.69c0.36-0.02,0.68,0.27,0.69,0.64l0.25,6.86c0.01,0.18-0.06,0.35-0.18,0.48
		c-0.12,0.13-0.29,0.21-0.47,0.21l-6.86,0.25C147.68,498.15,147.67,498.15,147.66,498.15z"/>
	<path class="st1" d="M155.28,518.66c-0.36,0-0.66-0.28-0.67-0.65l-0.23-6.19l-6.19,0.23c-0.37,0.02-0.68-0.27-0.69-0.64
		c-0.01-0.37,0.27-0.68,0.64-0.69l6.86-0.25c0.17-0.01,0.35,0.06,0.48,0.18c0.13,0.12,0.21,0.29,0.21,0.47l0.25,6.86
		c0.01,0.37-0.27,0.68-0.64,0.69C155.3,518.66,155.29,518.66,155.28,518.66z"/>
	<path class="st1" d="M168.42,497.39c-0.17,0-0.33-0.06-0.46-0.18c-0.13-0.12-0.21-0.29-0.21-0.47l-0.25-6.86
		c-0.01-0.37,0.27-0.68,0.64-0.69c0.37-0.03,0.68,0.27,0.69,0.64l0.23,6.19l6.19-0.23c0.36-0.02,0.68,0.27,0.69,0.64
		c0.01,0.37-0.27,0.68-0.64,0.69l-6.86,0.25C168.43,497.39,168.43,497.39,168.42,497.39z"/>
	<path class="st1" d="M169.18,518.15c-0.36,0-0.66-0.28-0.67-0.65l-0.25-6.86c-0.01-0.37,0.27-0.68,0.64-0.69l6.86-0.25
		c0.37-0.02,0.68,0.27,0.69,0.64s-0.27,0.68-0.64,0.69l-6.19,0.23l0.23,6.19c0.01,0.37-0.27,0.68-0.64,0.69
		C169.2,518.15,169.19,518.15,169.18,518.15z"/>
	<g>
		<path class="st1" d="M483.63,130.25L355,131.76l1.39,47.17l-252.37,7.29l-22.81,0.62l0.45,12.1l2.1,57.81l0.35,9.15l7.95,216.97
			l13.17,359.36l3.84-0.17l4.24,116.33l0.58,15.45l83.8-3.06l0.53-0.02l-0.02-0.64l-0.02-0.59l-0.04-1.3l-0.3-10.12l-0.03-1.24
			l-0.02-0.67l-0.02-0.57l-0.4,0.01l-68.84,2.26l-4.24-114.95l152.96-4.83l6.99-0.22l-0.01-0.71l-0.38-18.9v-0.01l-0.01-0.69
			l-0.63,0.02l-5.71,0.16l-0.02-0.69l-0.22-10.05l-0.03-1.34l-0.42-18.86l-0.02-0.67l-0.63,0.01l-150.04,3.34l-9.1-248.52
			l-2.77-75.85l-5-141.16l-4.42-115.04l148.39-4.24l1.02,32.01l0.18,6.34l116.48-3.71l1.99,86.94l0.01,0.65l9.55-0.21l0.59-0.01
			l-2.01-87.59l-1.21-38.04h-0.17l-0.5-22.81l-0.49-24.1l105.63-1.21v-22.72L483.63,130.25z M260.58,236.49l-0.8-25.27l12.63-0.4
			l0.81,25.26L260.58,236.49z M279.56,235.91l-0.81-25.32l75.89-2.41l0.76,25.31L279.56,235.91z M361.74,233.32l-0.8-25.32
			l12.68-0.4l0.76,25.31L361.74,233.32z"/>
		<path class="st1" d="M846.2,133.09l-112.86-1.92l-73.12-0.75l-48.71-0.27h-0.71l-0.04,9.53l-0.05,13.24l39.87,0.58L650,185.24
			l-0.09,6.34l-0.09,77.64v0.66l9.54,0.08l0.59,0.01l0.09-78.22l101.21,1.75l0.67-38.4l133.48,1.97l-8.13,305.84l-227.67-3.35
			l0.08-101.07h-10.13v0.65l0.05,106.63l-26.79-0.4v10.13l0.66,0.01l263.35,3.83l-12.18,458.21l-65.17-1.46l-0.68-0.02l-0.01,0.63
			l-0.38,18.91l-0.03,1.34l-0.2,10.05l-0.01,0.68l-5.35-0.12l-0.67-0.02l-0.01,0.72v0.01l-0.37,18.85l-0.02,0.96l7.09,0.14
			l87.15,1.78l5.49-203.66l15.98-602.09l1.34-49.24L846.2,133.09z M668.97,185.59l-12.63-0.22l0.44-25.31l12.64,0.22L668.97,185.59z
			 M736.07,186.75l-60.76-1.07l0.45-25.31l60.71,1.07L736.07,186.75z M755.04,187.07l-12.68-0.23l0.45-25.31l12.68,0.22
			L755.04,187.07z"/>
		<polygon class="st1" points="586.38,965.36 586.38,966.01 586.34,984.87 586.34,985.54 579.04,985.56 470.49,985.85 
			470.45,965.58 426.98,966.02 426.39,966.03 426.38,965.33 426.36,964.75 426.34,963.43 426.12,953.36 426.1,952.04 426.08,951.44 
			426.07,950.85 426.66,950.84 470.31,950.4 469.73,833.98 467.81,833.98 467.6,814.47 467.59,813.8 472.91,813.68 473.62,813.66 
			473.61,813.02 473.39,802.96 473.36,801.62 472.95,782.06 489.73,781.95 488.17,475.86 377.06,478.58 375.57,441.48 
			375.54,440.81 385.01,440.56 385.63,440.54 386.74,468.22 508.93,465.23 508.93,475.37 508.24,475.39 498.3,475.63 499.82,781.83 
			499.77,781.89 515.04,781.79 515.8,933.71 579.57,933.62 580.13,933.62 580.13,934.29 579.99,953.22 579.98,954.55 579.91,964.6 
			579.91,965.27 585.34,965.35 		"/>
	</g>
	<g>
		<path class="st1" d="M284.93,605.12v0.75h-5.11l-7.24-15.23h-3.83v15.23h-4.95v-34.93h4.95v15.23h3.83l7.13-15.23h5.01v0.75
			l-7.93,16.67L284.93,605.12z"/>
		<path class="st1" d="M307.71,579.46v0.69l-9.48,29.07c-0.67,2.09-1.59,3.56-2.74,4.41c-1.15,0.86-2.8,1.28-4.93,1.28h-2.93v-4.37
			h2.5c1.03,0,1.79-0.19,2.29-0.58s0.91-1.14,1.22-2.24l0.59-2.02l-8.79-25.55v-0.69h5.01l6.28,19.54l5.96-19.54H307.71z"/>
		<path class="st1" d="M330.77,605.17v0.69h-4.95l-5.27-9.26l-5.27,9.26h-4.89v-0.69l7.24-12.62l-7.08-12.4v-0.69h4.95l5.11,8.99
			l5.06-8.99h4.95v0.69l-7.08,12.4L330.77,605.17z"/>
		<path class="st1" d="M339.97,579.46v10.96h9.21v-10.96h4.8v26.4h-4.8v-11.02h-9.21v11.02h-4.79v-26.4H339.97z"/>
		<path class="st1" d="M377.83,605.86h-4.79v-9.48h-2.98l-6.66,9.48h-5.06v-0.64l6.55-9.16c-1.99-0.42-3.53-1.29-4.63-2.61
			c-1.1-1.31-1.65-2.96-1.65-4.95v-1.06c0-2.49,0.82-4.44,2.48-5.86c1.65-1.41,3.91-2.12,6.79-2.12h9.95V605.86z M373.04,592.35
			v-8.68h-4.74c-1.53,0-2.74,0.35-3.62,1.03c-0.89,0.69-1.33,1.61-1.33,2.75v1.01c0,1.21,0.44,2.16,1.33,2.85
			c0.88,0.69,2.09,1.04,3.62,1.04H373.04z"/>
		<path class="st1" d="M285.79,669.75h-4.95v-27.52c-1.17,0.46-2.38,0.69-3.62,0.69h-3.25v-4.53h3.2c1.17,0,2.08-0.31,2.71-0.94
			c0.64-0.62,0.96-1.5,0.96-2.64h4.95V669.75z"/>
		<path class="st1" d="M302.73,669.75h-4.95v-27.52c-1.17,0.46-2.38,0.69-3.62,0.69h-3.25v-4.53h3.2c1.17,0,2.08-0.31,2.71-0.94
			c0.64-0.62,0.96-1.5,0.96-2.64h4.95V669.75z"/>
		<path class="st1" d="M317.9,663.26v0.69l-3.83,12.89h-4.37l2.77-13.58H317.9z"/>
		<path class="st1" d="M339.7,650.99c1.47,1.47,2.21,3.42,2.21,5.83v4.53c0,2.7-0.88,4.88-2.66,6.55c-1.77,1.67-4.1,2.51-6.97,2.51
			c-2.98,0-5.33-0.82-7.05-2.45c-1.73-1.63-2.58-3.87-2.58-6.7v-1.49h4.85v1.38c0,1.46,0.43,2.61,1.3,3.46
			c0.87,0.86,2.02,1.28,3.43,1.28c1.46,0,2.62-0.45,3.49-1.36c0.87-0.9,1.31-2.12,1.31-3.64v-3.3c0-1.49-0.42-2.64-1.25-3.46
			c-0.83-0.82-2.12-1.22-3.86-1.22h-4.31V649l8.25-9.64h-12.51v-4.53h18.37v4.53l-7.99,9.16
			C336.23,648.69,338.23,649.52,339.7,650.99z"/>
	</g>
	<path class="st1" d="M350.16,667.83c-1.79-1.68-2.69-3.93-2.69-6.74v-17.62c0-2.8,0.9-5.05,2.69-6.74
		c1.79-1.68,4.18-2.52,7.16-2.52c3.02,0,5.41,0.84,7.19,2.52c1.77,1.69,2.66,3.94,2.66,6.74v17.62c0,2.81-0.89,5.06-2.66,6.74
		c-1.78,1.68-4.17,2.53-7.19,2.53C354.34,670.37,351.95,669.52,350.16,667.83z M360.94,664.45c0.89-0.92,1.33-2.16,1.33-3.73V643.9
		c0-1.56-0.44-2.81-1.33-3.75c-0.89-0.94-2.09-1.4-3.62-1.4c-1.49,0-2.69,0.46-3.59,1.38c-0.9,0.93-1.36,2.19-1.36,3.78v16.82
		c0,1.57,0.46,2.81,1.36,3.73c0.91,0.93,2.1,1.39,3.59,1.39C358.84,665.84,360.05,665.38,360.94,664.45z"/>
	<g>
		<path class="st1" d="M264.99,911.17v4.55h-18.7v-4.55l7.23-9.11c2.25-2.86,3.79-5.13,4.63-6.83c0.84-1.7,1.26-3.46,1.26-5.28
			v-0.54c0-1.57-0.39-2.79-1.18-3.64c-0.79-0.86-1.88-1.29-3.27-1.29c-1.46,0-2.57,0.43-3.32,1.29c-0.75,0.86-1.12,2.09-1.12,3.7
			v1.45h-4.88v-1.45c0-3.04,0.81-5.38,2.44-7.04c1.62-1.66,3.94-2.49,6.94-2.49c2.93,0,5.2,0.82,6.83,2.46
			c1.62,1.64,2.44,3.93,2.44,6.86v0.54c0,2.29-0.5,4.5-1.5,6.64c-1,2.14-2.84,4.87-5.52,8.2l-5.25,6.54H264.99z"/>
		<path class="st1" d="M278.01,909.18v0.7l-3.86,12.96h-4.39l2.79-13.66H278.01z"/>
		<path class="st1" d="M298.96,889.95v-0.54c0-1.57-0.43-2.79-1.29-3.67c-0.86-0.88-2.07-1.31-3.64-1.31
			c-1.61,0-2.86,0.44-3.75,1.31c-0.89,0.88-1.34,2.06-1.34,3.56v6.11c1.54-1.11,3.39-1.66,5.57-1.66c2.82,0,5.1,0.79,6.83,2.36
			c1.73,1.57,2.6,3.7,2.6,6.38v4.45c0,2.96-0.88,5.28-2.62,6.94c-1.75,1.66-4.18,2.49-7.29,2.49c-3.11,0-5.55-0.86-7.34-2.57
			c-1.79-1.71-2.68-4.04-2.68-6.96v-17.36c0-2.93,0.89-5.25,2.68-6.96c1.79-1.71,4.23-2.57,7.34-2.57c3.14,0,5.58,0.83,7.31,2.49
			c1.73,1.66,2.6,3.99,2.6,6.99v0.54H298.96z M291,898.95c-0.88,0.46-1.56,1.11-2.06,1.93v5.89c0,1.57,0.46,2.81,1.37,3.72
			s2.15,1.37,3.72,1.37c1.54,0,2.74-0.46,3.62-1.37c0.87-0.91,1.31-2.15,1.31-3.72v-3.75c0-1.43-0.46-2.58-1.37-3.46
			c-0.91-0.88-2.12-1.31-3.62-1.31C292.87,898.25,291.88,898.49,291,898.95z"/>
		<path class="st1" d="M331.58,908.11h-3.75v7.61h-4.93v-7.61h-14.3v-4.55c1.36-3.68,2.46-7.33,3.29-10.96
			c0.84-3.62,1.49-7.63,1.96-12.03h4.82v0.75c-0.86,7.89-2.52,15.3-4.98,22.23h9.21v-16.77h4.93v16.77h3.75V908.11z"/>
	</g>
	<g>
		<path class="st1" d="M475.04,326.34c1.61,1.55,2.41,3.69,2.41,6.4v4.82c0,2.96-0.85,5.26-2.54,6.88c-1.7,1.63-4.1,2.44-7.21,2.44
			c-3.14,0-5.54-0.8-7.21-2.41c-1.66-1.61-2.49-3.93-2.49-6.96v-0.54h4.82v0.54c0,1.57,0.42,2.77,1.26,3.59
			c0.84,0.82,2.03,1.23,3.56,1.23c1.57,0,2.79-0.43,3.64-1.29c0.86-0.86,1.29-2.07,1.29-3.64v-3.8c0-1.61-0.44-2.87-1.31-3.78
			c-0.88-0.91-2.08-1.37-3.62-1.37c-1.29,0-2.33,0.36-3.13,1.07c-0.8,0.71-1.26,1.7-1.37,2.95h-4.93l1.07-21.37h17.04v4.55h-12.64
			l-0.43,9.54c1.46-0.79,3.16-1.18,5.09-1.18C471.2,324.01,473.44,324.78,475.04,326.34z"/>
		<path class="st1" d="M489.29,339.7v0.7l-3.86,12.96h-4.39l2.79-13.66H489.29z"/>
		<path class="st1" d="M514.42,341.68v4.55h-18.7v-4.55l7.23-9.11c2.25-2.86,3.79-5.13,4.63-6.83c0.84-1.7,1.26-3.46,1.26-5.28
			v-0.54c0-1.57-0.39-2.79-1.18-3.64c-0.79-0.86-1.88-1.29-3.27-1.29c-1.46,0-2.57,0.43-3.32,1.29c-0.75,0.86-1.12,2.09-1.12,3.7
			v1.45h-4.88v-1.45c0-3.04,0.81-5.38,2.44-7.04c1.62-1.66,3.94-2.49,6.94-2.49c2.93,0,5.2,0.82,6.83,2.46
			c1.62,1.64,2.44,3.93,2.44,6.86v0.54c0,2.29-0.5,4.5-1.5,6.64c-1,2.14-2.84,4.87-5.52,8.2l-5.25,6.54H514.42z"/>
		<path class="st1" d="M536.17,326.34c1.61,1.55,2.41,3.69,2.41,6.4v4.82c0,2.96-0.85,5.26-2.54,6.88c-1.7,1.63-4.1,2.44-7.21,2.44
			c-3.14,0-5.54-0.8-7.21-2.41c-1.66-1.61-2.49-3.93-2.49-6.96v-0.54h4.82v0.54c0,1.57,0.42,2.77,1.26,3.59
			c0.84,0.82,2.03,1.23,3.56,1.23c1.57,0,2.79-0.43,3.64-1.29c0.86-0.86,1.29-2.07,1.29-3.64v-3.8c0-1.61-0.44-2.87-1.31-3.78
			c-0.88-0.91-2.08-1.37-3.62-1.37c-1.29,0-2.33,0.36-3.13,1.07c-0.8,0.71-1.26,1.7-1.37,2.95h-4.93l1.07-21.37h17.04v4.55h-12.64
			l-0.43,9.54c1.46-0.79,3.16-1.18,5.09-1.18C532.33,324.01,534.56,324.78,536.17,326.34z"/>
	</g>
	<g>
		<path class="st1" d="M607.9,754.79c-1.89-1.8-2.84-4.28-2.84-7.42v-16.18c0-3.14,0.95-5.62,2.84-7.42
			c1.89-1.8,4.48-2.71,7.77-2.71c3.5,0,6.13,0.94,7.9,2.81c1.77,1.88,2.65,4.65,2.65,8.33v3.21h-4.93v-3.21
			c0-4.39-1.89-6.59-5.68-6.59c-1.79,0-3.17,0.52-4.15,1.55c-0.98,1.04-1.47,2.5-1.47,4.39v15.48c0,1.89,0.49,3.35,1.47,4.37
			c0.98,1.02,2.37,1.53,4.15,1.53c3.79,0,5.68-2.12,5.68-6.38v-3.32h4.93v3.32c0,3.57-0.89,6.29-2.68,8.14
			c-1.79,1.86-4.41,2.79-7.88,2.79C612.38,757.49,609.79,756.59,607.9,754.79z"/>
		<path class="st1" d="M650.76,730.28v26.57h-4.82v-22.23h-9.27v22.23h-4.82v-26.57H650.76z"/>
		<path class="st1" d="M677.81,752.46v4.39h-2.52c-2.36,0-4.05-0.71-5.09-2.14c-1.54,1.86-3.79,2.79-6.75,2.79
			c-2.46,0-4.42-0.68-5.87-2.04c-1.45-1.36-2.17-3.2-2.17-5.52c0-2.21,0.69-3.96,2.06-5.25c1.37-1.29,3.49-2.18,6.35-2.68l5.3-0.91
			v-2.57c0-1.43-0.37-2.53-1.1-3.29c-0.73-0.77-1.79-1.15-3.19-1.15c-1.5,0-2.62,0.4-3.38,1.21c-0.75,0.8-1.12,1.96-1.12,3.46v0.54
			h-4.77v-0.54c0-2.96,0.79-5.22,2.36-6.78c1.57-1.55,3.82-2.33,6.75-2.33c3,0,5.28,0.78,6.83,2.33c1.55,1.55,2.33,3.83,2.33,6.83
			v11.09c0,1.71,0.77,2.57,2.3,2.57H677.81z M667.02,752.48c0.95-0.59,1.65-1.38,2.12-2.38v-5.04l-4.23,0.7
			c-3.18,0.54-4.77,1.89-4.77,4.07c0,1.11,0.34,1.97,1.02,2.6c0.68,0.62,1.61,0.94,2.79,0.94
			C665.04,753.37,666.07,753.07,667.02,752.48z"/>
		<path class="st1" d="M699.88,756.85h-4.82v-22.23h-7.45l-0.27,13.98c-0.07,2.89-0.66,4.99-1.77,6.29
			c-1.11,1.3-2.86,1.96-5.25,1.96h-1.55v-4.39h0.96c1,0,1.75-0.34,2.25-1.02c0.5-0.68,0.77-1.75,0.8-3.21l0.27-17.95h16.82V756.85z"
			/>
		<path class="st1" d="M722.7,741.26c1.57,1.46,2.36,3.59,2.36,6.37v0.64c0,2.75-0.79,4.87-2.36,6.35c-1.57,1.48-3.84,2.22-6.8,2.22
			h-9.91v-26.57h4.82v8.79h5.09C718.86,739.06,721.13,739.79,722.7,741.26z M720.29,747.63c0-2.86-1.63-4.29-4.88-4.29h-4.61v9.21
			h4.61c3.25,0,4.88-1.43,4.88-4.29V747.63z"/>
		<path class="st1" d="M734.38,730.28v11.04h9.27v-11.04h4.82v26.57h-4.82v-11.09h-9.27v11.09h-4.82v-26.57H734.38z"/>
		<path class="st1" d="M772.47,756.85h-4.82v-9.54h-3l-6.7,9.54h-5.09v-0.64l6.59-9.21c-2-0.43-3.55-1.3-4.66-2.62
			c-1.11-1.32-1.66-2.98-1.66-4.98v-1.07c0-2.5,0.83-4.46,2.49-5.89c1.66-1.43,3.94-2.14,6.83-2.14h10.02V756.85z M767.65,743.24
			v-8.73h-4.77c-1.54,0-2.75,0.35-3.64,1.04c-0.89,0.7-1.34,1.62-1.34,2.76v1.02c0,1.21,0.45,2.17,1.34,2.87
			c0.89,0.7,2.11,1.04,3.64,1.04H767.65z"/>
		<path class="st1" d="M649.36,821.13h-4.98v-27.7c-1.18,0.46-2.39,0.7-3.64,0.7h-3.27v-4.55h3.21c1.18,0,2.09-0.31,2.73-0.94
			c0.64-0.62,0.96-1.51,0.96-2.65h4.98V821.13z"/>
		<path class="st1" d="M659.19,819.23c-1.8-1.7-2.71-3.96-2.71-6.78v-17.73c0-2.82,0.9-5.08,2.71-6.78c1.8-1.7,4.21-2.54,7.21-2.54
			c3.04,0,5.45,0.85,7.23,2.54c1.79,1.7,2.68,3.96,2.68,6.78v17.73c0,2.82-0.89,5.08-2.68,6.78c-1.79,1.7-4.2,2.54-7.23,2.54
			C663.4,821.78,661,820.93,659.19,819.23z M670.04,815.83c0.89-0.93,1.34-2.18,1.34-3.75v-16.93c0-1.57-0.45-2.83-1.34-3.78
			c-0.89-0.95-2.11-1.42-3.64-1.42c-1.5,0-2.71,0.46-3.62,1.39c-0.91,0.93-1.37,2.2-1.37,3.8v16.93c0,1.57,0.46,2.82,1.37,3.75
			c0.91,0.93,2.12,1.39,3.62,1.39C667.93,817.22,669.15,816.76,670.04,815.83z"/>
		<path class="st1" d="M689.7,814.6v0.7l-3.86,12.96h-4.39l2.79-13.66H689.7z"/>
		<path class="st1" d="M714.13,805.97c0.68,1.18,1.02,2.54,1.02,4.07v3.05c0,2.64-0.91,4.75-2.73,6.32
			c-1.82,1.57-4.23,2.36-7.23,2.36c-3.04,0-5.46-0.78-7.29-2.33s-2.73-3.67-2.73-6.35v-3.05c0-1.54,0.35-2.89,1.04-4.07
			c0.7-1.18,1.69-2.12,2.97-2.84c-1.18-0.71-2.09-1.65-2.73-2.81c-0.64-1.16-0.96-2.47-0.96-3.94v-2.52c0-2.64,0.88-4.72,2.62-6.24
			c1.75-1.52,4.11-2.28,7.07-2.28c2.96,0,5.31,0.76,7.04,2.28c1.73,1.52,2.6,3.6,2.6,6.24v2.52c0,1.5-0.31,2.82-0.94,3.96
			c-0.62,1.14-1.53,2.07-2.71,2.79C712.47,803.85,713.45,804.79,714.13,805.97z M710.38,810.04c0-1.43-0.46-2.54-1.39-3.35
			c-0.93-0.8-2.2-1.21-3.8-1.21c-1.61,0-2.88,0.41-3.83,1.23c-0.95,0.82-1.42,1.93-1.42,3.32v2.68c0,1.43,0.48,2.55,1.45,3.38
			c0.96,0.82,2.23,1.23,3.8,1.23c1.54,0,2.79-0.41,3.75-1.23c0.96-0.82,1.45-1.95,1.45-3.38V810.04z M700.2,796.49
			c0,3.04,1.66,4.55,4.98,4.55c3.29,0,4.93-1.52,4.93-4.55v-2.25c0-1.46-0.42-2.58-1.26-3.35c-0.84-0.77-2.06-1.15-3.67-1.15
			c-1.61,0-2.84,0.38-3.7,1.15c-0.86,0.77-1.29,1.88-1.29,3.35V796.49z"/>
		<path class="st1" d="M736.5,802.25c1.48,1.48,2.22,3.44,2.22,5.87v4.55c0,2.71-0.89,4.91-2.68,6.59
			c-1.79,1.68-4.12,2.52-7.02,2.52c-3,0-5.37-0.82-7.1-2.46c-1.73-1.64-2.6-3.89-2.6-6.75v-1.5h4.87v1.39
			c0,1.46,0.44,2.62,1.31,3.48c0.88,0.86,2.03,1.29,3.46,1.29c1.46,0,2.63-0.46,3.51-1.37c0.87-0.91,1.31-2.13,1.31-3.67v-3.32
			c0-1.5-0.42-2.66-1.26-3.48c-0.84-0.82-2.13-1.23-3.88-1.23h-4.34v-3.91l8.3-9.7h-12.59v-4.55h18.48v4.55l-8.04,9.21
			C733,799.94,735.01,800.77,736.5,802.25z"/>
	</g>
	<g>
		<path class="st1" d="M733.08,302.21c1.48,1.48,2.22,3.44,2.22,5.87v4.55c0,2.71-0.89,4.91-2.68,6.59
			c-1.79,1.68-4.12,2.52-7.02,2.52c-3,0-5.37-0.82-7.1-2.46c-1.73-1.64-2.6-3.89-2.6-6.75v-1.5h4.87v1.39
			c0,1.46,0.44,2.62,1.31,3.48c0.88,0.86,2.03,1.29,3.46,1.29c1.46,0,2.63-0.46,3.51-1.37c0.87-0.91,1.31-2.13,1.31-3.67v-3.32
			c0-1.5-0.42-2.66-1.26-3.48c-0.84-0.82-2.13-1.23-3.88-1.23h-4.34v-3.91l8.3-9.7h-12.59v-4.55h18.48v4.55l-8.04,9.21
			C729.59,299.9,731.6,300.73,733.08,302.21z"/>
		<path class="st1" d="M747.57,314.56v0.7l-3.86,12.96h-4.39l2.79-13.66H747.57z"/>
		<path class="st1" d="M770.02,287.88c1.79,1.71,2.68,4.04,2.68,6.96v17.36c0,2.93-0.89,5.25-2.68,6.96
			c-1.79,1.71-4.23,2.57-7.34,2.57c-3.14,0-5.58-0.83-7.31-2.49c-1.73-1.66-2.6-3.99-2.6-6.99v-0.54h4.98v0.54
			c0,1.57,0.43,2.79,1.29,3.67c0.86,0.88,2.07,1.31,3.64,1.31c1.61,0,2.86-0.44,3.75-1.31c0.89-0.88,1.34-2.06,1.34-3.56v-6.11
			c-1.54,1.11-3.39,1.66-5.57,1.66c-2.82,0-5.1-0.79-6.83-2.36c-1.73-1.57-2.6-3.7-2.6-6.37v-4.45c0-2.96,0.88-5.28,2.62-6.94
			c1.75-1.66,4.18-2.49,7.29-2.49S768.23,286.17,770.02,287.88z M765.71,302.72c0.87-0.46,1.56-1.11,2.06-1.93v-5.89
			c0-1.57-0.46-2.81-1.37-3.72c-0.91-0.91-2.15-1.37-3.72-1.37c-1.54,0-2.74,0.46-3.62,1.37c-0.88,0.91-1.31,2.15-1.31,3.72v3.75
			c0,1.43,0.46,2.58,1.37,3.46c0.91,0.88,2.12,1.31,3.62,1.31C763.84,303.42,764.83,303.18,765.71,302.72z"/>
		<path class="st1" d="M781.72,319.19c-1.8-1.7-2.71-3.96-2.71-6.78v-17.73c0-2.82,0.9-5.08,2.71-6.78c1.8-1.7,4.21-2.54,7.21-2.54
			c3.04,0,5.45,0.85,7.23,2.54c1.79,1.7,2.68,3.96,2.68,6.78v17.73c0,2.82-0.89,5.08-2.68,6.78c-1.79,1.7-4.2,2.54-7.23,2.54
			C785.93,321.74,783.53,320.89,781.72,319.19z M792.57,315.79c0.89-0.93,1.34-2.18,1.34-3.75v-16.93c0-1.57-0.45-2.83-1.34-3.78
			c-0.89-0.95-2.11-1.42-3.64-1.42c-1.5,0-2.71,0.46-3.62,1.39c-0.91,0.93-1.37,2.2-1.37,3.8v16.93c0,1.57,0.46,2.82,1.37,3.75
			c0.91,0.93,2.12,1.39,3.62,1.39C790.46,317.18,791.68,316.72,792.57,315.79z"/>
	</g>
	<g>
		<g>
			<rect x="552.42" y="631.67" class="st0" width="290.31" height="75.93"/>
			<path class="st1" d="M551.53,708.49v-77.71l292.1,0v77.71L551.53,708.49z M553.31,632.56v74.14l288.53,0v-74.14L553.31,632.56z"
				/>
		</g>
		<rect x="552.42" y="631.67" class="st2" width="75.93" height="75.93"/>
		<g>
			<path class="st1" d="M686.34,666.53c1.79,1.98,2.68,4.51,2.68,7.61v5.93c0,3.76-1.24,6.79-3.71,9.07
				c-2.48,2.29-5.74,3.43-9.79,3.43c-4.24,0-7.55-1.13-9.93-3.39c-2.38-2.26-3.57-5.39-3.57-9.39v-2.14h8.14v2
				c0,1.67,0.48,2.98,1.43,3.93c0.95,0.95,2.24,1.43,3.86,1.43c1.67,0,2.98-0.51,3.93-1.54c0.95-1.02,1.43-2.44,1.43-4.25v-3.79
				c0-3.48-1.95-5.21-5.86-5.21h-6.29v-6.5l9.79-11.29h-15.36v-7.57h25.21v7.57l-9.36,10.57
				C682.09,663.38,684.56,664.55,686.34,666.53z"/>
			<path class="st1" d="M720.3,684.14v7.57h-25.71v-7.64l9.71-12.14c2.67-3.33,4.5-6.01,5.5-8.04c1-2.02,1.5-4.11,1.5-6.25v-0.71
				c0-1.71-0.42-3.04-1.25-3.96c-0.83-0.93-2.01-1.39-3.54-1.39c-3.19,0-4.79,1.83-4.79,5.5v1.93h-8.14v-1.93
				c0-4.24,1.13-7.48,3.39-9.71c2.26-2.24,5.49-3.36,9.68-3.36c4.05,0,7.19,1.11,9.43,3.32c2.24,2.21,3.36,5.32,3.36,9.32v0.71
				c0,2.9-0.63,5.7-1.89,8.39c-1.26,2.69-3.61,6.18-7.04,10.46l-6.36,7.93H720.3z"/>
			<path class="st1" d="M728.66,691.14c-0.95-0.95-1.43-2.17-1.43-3.64c0-1.48,0.48-2.68,1.43-3.61c0.95-0.93,2.17-1.39,3.64-1.39
				c1.52,0,2.75,0.46,3.68,1.39s1.39,2.13,1.39,3.61c0,1.48-0.46,2.69-1.39,3.64c-0.93,0.95-2.16,1.43-3.68,1.43
				C730.83,692.56,729.61,692.09,728.66,691.14z"/>
			<path class="st1" d="M764.02,657.78v-0.71c0-1.76-0.49-3.13-1.46-4.11c-0.98-0.98-2.35-1.46-4.11-1.46
				c-1.76,0-3.14,0.48-4.14,1.43c-1,0.95-1.5,2.26-1.5,3.93v6.93c2-1.14,4.19-1.71,6.57-1.71c3.86,0,6.98,1.07,9.36,3.21
				c2.38,2.14,3.57,5.07,3.57,8.79v5.57c0,4.1-1.21,7.27-3.64,9.54c-2.43,2.26-5.83,3.39-10.21,3.39c-4.29,0-7.68-1.18-10.18-3.54
				c-2.5-2.36-3.75-5.56-3.75-9.61v-22.29c0-4.05,1.25-7.25,3.75-9.61c2.5-2.36,5.89-3.54,10.18-3.54c4.43,0,7.84,1.14,10.25,3.43
				c2.4,2.29,3.61,5.5,3.61,9.64v0.71H764.02z M755.23,670.32c-1,0.5-1.81,1.18-2.43,2.04v7c0,1.76,0.5,3.16,1.5,4.18
				c1,1.02,2.38,1.54,4.14,1.54c1.71,0,3.07-0.51,4.07-1.54c1-1.02,1.5-2.42,1.5-4.18v-4.36c0-1.62-0.51-2.93-1.54-3.93
				c-1.02-1-2.37-1.5-4.04-1.5C757.3,669.57,756.23,669.82,755.23,670.32z"/>
			<path class="st1" d="M782.27,689.07c-2.55-2.33-3.82-5.4-3.82-9.21v-23.07c0-3.86,1.26-6.94,3.79-9.25
				c2.52-2.31,5.9-3.46,10.14-3.46c4.24,0,7.62,1.16,10.14,3.46c2.52,2.31,3.79,5.39,3.79,9.25v23.07c0,3.86-1.26,6.94-3.79,9.25
				c-2.52,2.31-5.9,3.46-10.14,3.46C788.18,692.56,784.81,691.4,782.27,689.07z M796.55,683.42c1.02-1.05,1.54-2.45,1.54-4.21
				v-21.71c0-1.81-0.51-3.24-1.54-4.29c-1.02-1.05-2.42-1.57-4.18-1.57c-1.71,0-3.08,0.52-4.11,1.57c-1.02,1.05-1.54,2.48-1.54,4.29
				v21.71c0,1.76,0.51,3.17,1.54,4.21c1.02,1.05,2.39,1.57,4.11,1.57C794.13,684.99,795.53,684.47,796.55,683.42z"/>
		</g>
		<g>
			<g>
				<path class="st0" d="M597.12,691.71h-8.29v-35.71c-1.29,0.43-2.69,0.64-4.21,0.64h-4.36v-7.57h4.21c1.38,0,2.45-0.37,3.21-1.11
					c0.76-0.74,1.14-1.77,1.14-3.11h8.29V691.71z"/>
			</g>
		</g>
	</g>
</g>
</svg>
