<?xml version="1.0" encoding="utf-8"?>
<!-- Generator: Adobe Illustrator 28.0.0, SVG Export Plug-In . SVG Version: 6.00 Build 0)  -->
<svg version="1.1" id="плашки" xmlns="http://www.w3.org/2000/svg" xmlns:xlink="http://www.w3.org/1999/xlink" x="0px"
	 y="0px" width="1000px" height="1000px" viewBox="0 0 1000 1000" style="enable-background:new 0 0 1000 1000;"
	 xml:space="preserve">
<style type="text/css">
	.st0{fill:#FFFFFF;}
	.st1{fill:#1D1D1B;}
	.st2{fill:#706F6F;}
	.st3{fill:#4770B5;}
</style>
<g>
	<path class="st0" d="M1000.43,414.06v208.28c0,0.24-0.19,0.44-0.43,0.44v106.17H884.2v17.92H0V359.44h99.97
		c0.02-0.01,0.04-0.01,0.06-0.01h5.17c0.18-26.65,10.18-52.15,28.18-71.81c18.09-19.78,42.76-32.03,69.46-34.49h3.39
		c0.24,0,0.44,0.19,0.44,0.43l0.08,105.87h5.16c0.02,0,0.04,0,0.06,0.01H884.2v7.26H1000v46.93
		C1000.24,413.64,1000.43,413.82,1000.43,414.06z"/>
	<path d="M137.79,573.86c1.31,1.31,1.97,3.04,1.97,5.19v4.03c0,2.4-0.79,4.34-2.37,5.83c-1.58,1.49-3.65,2.23-6.2,2.23
		c-2.65,0-4.74-0.73-6.28-2.18c-1.53-1.45-2.3-3.44-2.3-5.97v-1.33h4.31v1.23c0,1.29,0.39,2.32,1.16,3.08
		c0.77,0.76,1.79,1.14,3.05,1.14c1.29,0,2.33-0.4,3.1-1.21c0.77-0.81,1.16-1.89,1.16-3.25v-2.94c0-1.33-0.37-2.35-1.11-3.08
		c-0.74-0.73-1.89-1.09-3.43-1.09h-3.84v-3.46l7.34-8.57h-11.13v-4.03h16.34v4.03l-7.1,8.15
		C134.7,571.81,136.47,572.55,137.79,573.86z"/>
	<path d="M145.34,590.32c-0.54-0.54-0.8-1.2-0.8-1.99c0-0.82,0.26-1.49,0.78-2.01c0.52-0.52,1.19-0.78,2.01-0.78
		c0.82,0,1.49,0.26,2.01,0.78c0.52,0.52,0.78,1.19,0.78,2.01c0,0.82-0.26,1.49-0.78,2.01c-0.52,0.52-1.19,0.78-2.01,0.78
		C146.54,591.12,145.88,590.85,145.34,590.32z"/>
	<path d="M169.99,573.86c1.31,1.31,1.97,3.04,1.97,5.19v4.03c0,2.4-0.79,4.34-2.37,5.83c-1.58,1.49-3.65,2.23-6.2,2.23
		c-2.65,0-4.74-0.73-6.28-2.18c-1.53-1.45-2.3-3.44-2.3-5.97v-1.33h4.31v1.23c0,1.29,0.39,2.32,1.16,3.08
		c0.77,0.76,1.79,1.14,3.05,1.14c1.29,0,2.33-0.4,3.1-1.21c0.77-0.81,1.16-1.89,1.16-3.25v-2.94c0-1.33-0.37-2.35-1.11-3.08
		c-0.74-0.73-1.89-1.09-3.43-1.09h-3.84v-3.46l7.34-8.57h-11.13v-4.03h16.34v4.03l-7.1,8.15
		C166.91,571.81,168.68,572.55,169.99,573.86z"/>
	<path d="M192.85,586.53v4.03h-16.53v-4.03l6.39-8.05c1.99-2.53,3.35-4.54,4.1-6.04c0.74-1.5,1.11-3.05,1.11-4.67v-0.47
		c0-1.39-0.35-2.46-1.04-3.22c-0.69-0.76-1.66-1.14-2.89-1.14c-1.29,0-2.27,0.38-2.94,1.14c-0.66,0.76-1,1.85-1,3.27v1.28h-4.31
		v-1.28c0-2.68,0.72-4.76,2.16-6.23c1.44-1.47,3.48-2.2,6.13-2.2c2.59,0,4.6,0.73,6.04,2.18c1.44,1.45,2.16,3.47,2.16,6.06v0.47
		c0,2.02-0.44,3.98-1.33,5.87c-0.88,1.89-2.51,4.31-4.88,7.25l-4.64,5.78H192.85z"/>
	<path d="M520.59,532.22v0.66h-4.09l-5.8-13.55h-3.07v13.55h-3.96v-31.07h3.96v13.55h3.07l5.71-13.55h4.01v0.66l-6.35,14.83
		L520.59,532.22z"/>
	<path d="M538.84,509.39v0.62l-7.59,25.86c-0.54,1.86-1.27,3.17-2.2,3.93c-0.92,0.76-2.24,1.14-3.94,1.14h-2.34v-3.88h2
		c0.82,0,1.44-0.17,1.83-0.52c0.4-0.35,0.72-1.01,0.98-1.99l0.47-1.8l-7.03-22.73v-0.62h4.01l5.03,17.38l4.77-17.38H538.84z"/>
	<path d="M557.29,532.27v0.62h-3.96l-4.22-8.24l-4.22,8.24h-3.92v-0.62l5.8-11.23l-5.67-11.04v-0.62h3.96l4.09,8l4.05-8h3.96v0.62
		l-5.67,11.04L557.29,532.27z"/>
	<path d="M564.67,509.39v9.76h7.37v-9.76h3.84v23.49h-3.84v-9.8h-7.37v9.8h-3.84v-23.49H564.67z"/>
	<path d="M594.98,532.88h-3.84v-8.43h-2.39l-5.33,8.43h-4.05v-0.57l5.24-8.15c-1.59-0.38-2.83-1.15-3.71-2.32
		c-0.88-1.17-1.32-2.64-1.32-4.41v-0.95c0-2.21,0.66-3.95,1.98-5.21c1.32-1.26,3.13-1.89,5.44-1.89h7.97V532.88z M591.14,520.85
		v-7.72h-3.79c-1.22,0-2.19,0.31-2.9,0.92c-0.71,0.62-1.07,1.43-1.07,2.44v0.9c0,1.07,0.36,1.92,1.07,2.53
		c0.71,0.62,1.68,0.92,2.9,0.92H591.14z"/>
	<path d="M609.09,517.82v3.88h-9.16v-3.88H609.09z"/>
	<path d="M625.28,509.39v3.84h-7.37v19.66h-3.84v-23.49H625.28z"/>
	<path d="M629.1,531.42c-1.35-1.36-2.02-3.3-2.02-5.83v-8.86c0-2.56,0.68-4.51,2.02-5.87c1.35-1.36,3.16-2.04,5.43-2.04
		c2.27,0,4.09,0.68,5.44,2.04c1.35,1.36,2.02,3.32,2.02,5.87v8.86c0,2.53-0.68,4.47-2.02,5.83c-1.35,1.36-3.16,2.04-5.44,2.04
		C632.26,533.45,630.45,532.77,629.1,531.42z M637.16,528.36c0.67-0.71,1-1.7,1-2.96v-8.52c0-1.29-0.33-2.3-1-3.01
		c-0.67-0.71-1.54-1.07-2.62-1.07c-1.08,0-1.95,0.36-2.62,1.07c-0.67,0.71-1,1.71-1,3.01v8.52c0,1.26,0.33,2.25,1,2.96
		c0.67,0.71,1.54,1.07,2.62,1.07C635.61,529.43,636.49,529.07,637.16,528.36z"/>
	<path d="M648.07,531.37c-1.32-1.39-1.98-3.32-1.98-5.78v-8.86c0-2.49,0.65-4.44,1.96-5.83c1.31-1.39,3.14-2.08,5.5-2.08
		c2.33,0,4.15,0.69,5.46,2.08c1.31,1.39,1.96,3.33,1.96,5.83v1.99h-3.84v-1.85c0-1.23-0.32-2.22-0.96-2.96
		c-0.64-0.74-1.51-1.11-2.62-1.11c-1.11,0-1.99,0.37-2.64,1.11c-0.65,0.74-0.98,1.73-0.98,2.96v8.52c0,1.2,0.33,2.17,0.98,2.91
		c0.65,0.74,1.53,1.11,2.64,1.11c1.11,0,1.98-0.36,2.62-1.09c0.64-0.73,0.96-1.71,0.96-2.94v-1.7h3.84v1.89
		c0,2.46-0.65,4.39-1.96,5.78c-1.31,1.39-3.13,2.08-5.46,2.08C651.22,533.45,649.39,532.76,648.07,531.37z"/>
	<path d="M662.75,513.23v-3.84h15.64v3.84h-5.88v19.66h-3.84v-19.66H662.75z"/>
	<path d="M684.92,509.39v15.82l7.55-15.82h3.58v23.49h-3.67v-15.87l-7.59,15.87h-3.54v-23.49H684.92z"/>
	<path d="M704.74,509.39v9.76h7.37v-9.76h3.84v23.49h-3.84v-9.8h-7.37v9.8h-3.84v-23.49H704.74z"/>
	<path d="M737.48,529v3.88h-2c-1.88,0-3.23-0.63-4.05-1.89c-1.22,1.64-3.01,2.46-5.37,2.46c-1.96,0-3.52-0.6-4.67-1.8
		c-1.15-1.2-1.73-2.83-1.73-4.88c0-1.96,0.55-3.5,1.64-4.64c1.09-1.14,2.78-1.93,5.05-2.37l4.22-0.8v-2.27
		c0-1.26-0.29-2.23-0.87-2.91c-0.58-0.68-1.43-1.02-2.54-1.02c-1.19,0-2.09,0.36-2.69,1.07c-0.6,0.71-0.9,1.73-0.9,3.05v0.47h-3.79
		v-0.47c0-2.62,0.62-4.62,1.88-5.99c1.25-1.37,3.04-2.06,5.37-2.06c2.39,0,4.2,0.69,5.43,2.06c1.24,1.37,1.85,3.39,1.85,6.04v9.8
		c0,1.52,0.61,2.27,1.83,2.27H737.48z M728.89,529.02c0.75-0.52,1.31-1.22,1.68-2.11v-4.45l-3.37,0.62
		c-2.53,0.47-3.79,1.67-3.79,3.6c0,0.98,0.27,1.74,0.81,2.3c0.54,0.55,1.28,0.83,2.22,0.83
		C727.32,529.81,728.13,529.54,728.89,529.02z"/>
	<path d="M754.74,532.88h-3.84v-8.43h-2.39l-5.33,8.43h-4.05v-0.57l5.24-8.15c-1.59-0.38-2.83-1.15-3.71-2.32
		c-0.88-1.17-1.32-2.64-1.32-4.41v-0.95c0-2.21,0.66-3.95,1.98-5.21c1.32-1.26,3.13-1.89,5.44-1.89h7.97V532.88z M750.9,520.85
		v-7.72h-3.79c-1.22,0-2.19,0.31-2.9,0.92c-0.71,0.62-1.07,1.43-1.07,2.44v0.9c0,1.07,0.36,1.92,1.07,2.53
		c0.71,0.62,1.68,0.92,2.9,0.92H750.9z"/>
	<path d="M594.64,589.72h-4.4v-24.49c-1.04,0.41-2.12,0.62-3.22,0.62h-2.89v-4.03h2.84c1.04,0,1.85-0.28,2.42-0.83
		c0.57-0.55,0.85-1.33,0.85-2.34h4.4V589.72z"/>
	<path d="M620.5,582.99h-3.32v6.73h-4.36v-6.73h-12.65v-4.03c1.2-3.25,2.17-6.48,2.91-9.69c0.74-3.2,1.32-6.75,1.73-10.63h4.26v0.66
		c-0.76,6.98-2.23,13.53-4.4,19.66h8.15v-14.82h4.36v14.82h3.32V582.99z"/>
	<path d="M624.67,589.48c-0.54-0.54-0.8-1.2-0.8-1.99c0-0.82,0.26-1.49,0.78-2.01c0.52-0.52,1.19-0.78,2.01-0.78
		c0.82,0,1.49,0.26,2.01,0.78c0.52,0.52,0.78,1.19,0.78,2.01c0,0.82-0.26,1.49-0.78,2.01c-0.52,0.52-1.19,0.78-2.01,0.78
		C625.87,590.29,625.2,590.02,624.67,589.48z"/>
	<path d="M648.44,566.94v-0.47c0-1.39-0.38-2.47-1.14-3.24c-0.76-0.77-1.83-1.16-3.22-1.16c-1.42,0-2.53,0.39-3.32,1.16
		c-0.79,0.77-1.18,1.82-1.18,3.15v5.4c1.36-0.98,3-1.47,4.93-1.47c2.49,0,4.51,0.69,6.04,2.08s2.3,3.27,2.3,5.64v3.93
		c0,2.62-0.77,4.66-2.32,6.13c-1.55,1.47-3.69,2.2-6.44,2.2c-2.75,0-4.91-0.76-6.49-2.27c-1.58-1.52-2.37-3.57-2.37-6.16v-15.35
		c0-2.59,0.79-4.64,2.37-6.16c1.58-1.52,3.74-2.27,6.49-2.27c2.78,0,4.93,0.73,6.47,2.2c1.53,1.47,2.3,3.53,2.3,6.18v0.47H648.44z
		 M641.41,574.89c-0.77,0.41-1.38,0.98-1.82,1.71v5.21c0,1.39,0.4,2.49,1.21,3.29c0.8,0.8,1.9,1.21,3.29,1.21
		c1.36,0,2.42-0.4,3.2-1.21c0.77-0.8,1.16-1.9,1.16-3.29v-3.32c0-1.26-0.4-2.28-1.21-3.05c-0.8-0.77-1.87-1.16-3.2-1.16
		C643.06,574.28,642.18,574.49,641.41,574.89z"/>
	<path d="M673.69,585.69v4.03h-16.53v-4.03l6.39-8.05c1.99-2.53,3.35-4.54,4.1-6.04c0.74-1.5,1.11-3.05,1.11-4.67v-0.47
		c0-1.39-0.35-2.46-1.04-3.22c-0.69-0.76-1.66-1.14-2.89-1.14c-1.29,0-2.27,0.38-2.94,1.14c-0.66,0.76-1,1.85-1,3.27v1.28h-4.31
		v-1.28c0-2.68,0.72-4.76,2.16-6.23c1.44-1.47,3.48-2.2,6.13-2.2c2.59,0,4.6,0.73,6.04,2.18c1.44,1.45,2.16,3.47,2.16,6.06v0.47
		c0,2.02-0.44,3.98-1.33,5.87c-0.88,1.89-2.51,4.31-4.88,7.25l-4.64,5.78H673.69z"/>
	<path d="M141.36,444.25v4.03h-16.53v-4.03l6.39-8.05c1.99-2.53,3.35-4.54,4.1-6.04c0.74-1.5,1.11-3.05,1.11-4.67v-0.47
		c0-1.39-0.35-2.46-1.04-3.22c-0.69-0.76-1.66-1.14-2.89-1.14c-1.29,0-2.27,0.38-2.94,1.14c-0.66,0.76-1,1.85-1,3.27v1.28h-4.31
		v-1.28c0-2.68,0.72-4.76,2.16-6.23c1.44-1.47,3.48-2.2,6.13-2.2c2.59,0,4.6,0.73,6.04,2.18c1.44,1.45,2.16,3.47,2.16,6.06v0.47
		c0,2.02-0.44,3.98-1.33,5.87c-0.88,1.89-2.51,4.31-4.88,7.25l-4.64,5.78H141.36z"/>
	<path d="M147.61,448.04c-0.54-0.54-0.8-1.2-0.8-1.99c0-0.82,0.26-1.49,0.78-2.01c0.52-0.52,1.19-0.78,2.01-0.78
		c0.82,0,1.49,0.26,2.01,0.78c0.52,0.52,0.78,1.19,0.78,2.01c0,0.82-0.26,1.49-0.78,2.01s-1.19,0.78-2.01,0.78
		C148.81,448.84,148.15,448.57,147.61,448.04z"/>
	<path d="M174.04,430.68c1.42,1.37,2.13,3.26,2.13,5.66v4.26c0,2.62-0.75,4.65-2.25,6.09c-1.5,1.44-3.62,2.16-6.37,2.16
		c-2.78,0-4.9-0.71-6.37-2.13c-1.47-1.42-2.2-3.47-2.2-6.16v-0.47h4.26v0.47c0,1.39,0.37,2.45,1.11,3.17
		c0.74,0.73,1.79,1.09,3.15,1.09c1.39,0,2.46-0.38,3.22-1.14c0.76-0.76,1.14-1.83,1.14-3.22v-3.36c0-1.42-0.39-2.53-1.16-3.34
		c-0.77-0.8-1.84-1.21-3.2-1.21c-1.14,0-2.06,0.32-2.77,0.95c-0.71,0.63-1.11,1.5-1.21,2.61h-4.36l0.95-18.9h15.06v4.03H164
		l-0.38,8.43c1.29-0.69,2.79-1.04,4.5-1.04C170.65,428.62,172.62,429.3,174.04,430.68z"/>
	<path d="M193.93,425.49v-0.47c0-1.39-0.38-2.47-1.14-3.24c-0.76-0.77-1.83-1.16-3.22-1.16c-1.42,0-2.53,0.39-3.32,1.16
		s-1.18,1.82-1.18,3.15v5.4c1.36-0.98,3-1.47,4.93-1.47c2.49,0,4.51,0.69,6.04,2.08c1.53,1.39,2.3,3.27,2.3,5.64v3.93
		c0,2.62-0.77,4.66-2.32,6.13c-1.55,1.47-3.69,2.2-6.44,2.2c-2.75,0-4.91-0.76-6.49-2.27c-1.58-1.52-2.37-3.57-2.37-6.16v-15.35
		c0-2.59,0.79-4.64,2.37-6.16c1.58-1.52,3.74-2.27,6.49-2.27c2.78,0,4.93,0.73,6.47,2.2c1.53,1.47,2.3,3.53,2.3,6.18v0.47H193.93z
		 M186.9,433.45c-0.77,0.41-1.38,0.98-1.82,1.71v5.21c0,1.39,0.4,2.49,1.21,3.29c0.8,0.8,1.9,1.21,3.29,1.21
		c1.36,0,2.42-0.4,3.2-1.21s1.16-1.9,1.16-3.29v-3.32c0-1.26-0.4-2.28-1.21-3.05c-0.8-0.77-1.87-1.16-3.2-1.16
		C188.55,432.83,187.67,433.04,186.9,433.45z"/>
	<path d="M920.57,544.07v4.03h-16.53v-4.03l6.39-8.05c1.99-2.53,3.35-4.54,4.1-6.04c0.74-1.5,1.11-3.05,1.11-4.67v-0.47
		c0-1.39-0.35-2.46-1.04-3.22s-1.66-1.14-2.89-1.14c-1.29,0-2.27,0.38-2.94,1.14c-0.66,0.76-1,1.85-1,3.27v1.28h-4.31v-1.28
		c0-2.68,0.72-4.76,2.16-6.23c1.44-1.47,3.48-2.2,6.13-2.2c2.59,0,4.6,0.73,6.04,2.18c1.44,1.45,2.16,3.47,2.16,6.06v0.47
		c0,2.02-0.44,3.98-1.33,5.87c-0.89,1.89-2.51,4.31-4.88,7.25l-4.64,5.78H920.57z"/>
	<path d="M926.82,547.86c-0.54-0.54-0.8-1.2-0.8-1.99c0-0.82,0.26-1.49,0.78-2.01c0.52-0.52,1.19-0.78,2.01-0.78
		c0.82,0,1.49,0.26,2.01,0.78c0.52,0.52,0.78,1.19,0.78,2.01c0,0.82-0.26,1.49-0.78,2.01c-0.52,0.52-1.19,0.78-2.01,0.78
		C928.02,548.67,927.35,548.4,926.82,547.86z"/>
	<path d="M953.67,534.69c0.6,1.04,0.9,2.24,0.9,3.6v2.7c0,2.34-0.8,4.2-2.42,5.59c-1.61,1.39-3.74,2.08-6.39,2.08
		c-2.68,0-4.83-0.69-6.44-2.06c-1.61-1.37-2.41-3.24-2.41-5.61v-2.7c0-1.36,0.31-2.56,0.92-3.6c0.62-1.04,1.49-1.88,2.63-2.51
		c-1.04-0.63-1.85-1.46-2.41-2.49c-0.57-1.03-0.85-2.19-0.85-3.48v-2.23c0-2.34,0.77-4.18,2.32-5.52c1.55-1.34,3.63-2.01,6.25-2.01
		c2.62,0,4.7,0.67,6.23,2.01c1.53,1.34,2.3,3.18,2.3,5.52v2.23c0,1.33-0.28,2.49-0.83,3.51c-0.55,1.01-1.35,1.83-2.39,2.46
		C952.2,532.82,953.07,533.65,953.67,534.69z M950.36,538.29c0-1.26-0.41-2.25-1.23-2.96c-0.82-0.71-1.94-1.07-3.36-1.07
		c-1.42,0-2.55,0.36-3.39,1.09c-0.84,0.73-1.25,1.71-1.25,2.94v2.37c0,1.26,0.43,2.26,1.28,2.98c0.85,0.73,1.97,1.09,3.36,1.09
		c1.36,0,2.46-0.36,3.32-1.09c0.85-0.73,1.28-1.72,1.28-2.98V538.29z M941.36,526.31c0,2.68,1.47,4.03,4.4,4.03
		c2.9,0,4.36-1.34,4.36-4.03v-1.99c0-1.29-0.37-2.28-1.11-2.96c-0.74-0.68-1.82-1.02-3.24-1.02c-1.42,0-2.51,0.34-3.27,1.02
		c-0.76,0.68-1.14,1.67-1.14,2.96V526.31z"/>
	<path d="M979.25,541.37h-3.32v6.73h-4.36v-6.73h-12.65v-4.03c1.2-3.25,2.17-6.48,2.91-9.69c0.74-3.2,1.32-6.75,1.73-10.63h4.26
		v0.66c-0.76,6.98-2.23,13.53-4.4,19.66h8.15v-14.83h4.36v14.83h3.32V541.37z"/>
	<path d="M105.62,523.34h-5.59c-0.03,0-0.06,0-0.08,0.02c-0.2,0.03-0.35,0.21-0.35,0.42v7.83c0,0.24,0.18,0.42,0.42,0.43h5.6
		c0.24,0,0.44-0.19,0.44-0.43v-7.83C106.06,523.54,105.86,523.34,105.62,523.34z M105.19,531.17h-4.73v-6.96h4.73V531.17z"/>
	<path d="M178.44,523.36c-0.03-0.02-0.06-0.02-0.09-0.02h-5.6c-0.24,0-0.42,0.19-0.43,0.43v7.84c0,0.24,0.19,0.43,0.43,0.43h5.61
		c0.24-0.01,0.42-0.19,0.42-0.43v-7.83C178.78,523.57,178.64,523.39,178.44,523.36z M177.91,531.17h-4.72v-6.96h4.72V531.17z"/>
	<path d="M172.75,524.2c-0.24,0-0.43-0.19-0.43-0.43c-0.03-35.54-27.87-64.83-63.36-66.68c-0.24-0.01-0.42-0.22-0.41-0.46
		c0.01-0.24,0.18-0.39,0.46-0.41c35.96,1.87,64.15,31.54,64.18,67.55C173.19,524.01,172.99,524.2,172.75,524.2L172.75,524.2z"/>
	<path d="M109.29,456.35c-0.08-0.08-0.18-0.12-0.29-0.13c-0.01,0-0.01,0-0.02,0h-3.36c-0.24,0-0.43,0.2-0.43,0.44v67.12
		c0,0.24,0.19,0.43,0.43,0.43h3.36c0.24,0,0.43-0.19,0.43-0.43v-67.12C109.41,456.54,109.37,456.43,109.29,456.35z M108.55,523.34
		h-2.49v-66.25h2.49V523.34z"/>
	<path d="M266.73,400.27h-7.83c-0.23,0-0.42,0.19-0.43,0.42c0,0.01,0,0.01,0,0.02v5.59c0,0.24,0.19,0.43,0.43,0.43h7.83
		c0.24,0,0.44-0.19,0.44-0.43v-5.59C267.17,400.47,266.97,400.27,266.73,400.27z M259.34,405.87v-4.73h6.96v4.73H259.34z"/>
	<path d="M266.74,495.37h-7.84c-0.24,0-0.43,0.2-0.43,0.44v5.6c0.01,0.24,0.19,0.42,0.43,0.42h7.83c0.24,0,0.44-0.19,0.44-0.43
		v-5.59C267.17,495.57,266.98,495.38,266.74,495.37z M259.34,496.24h6.96v4.73h-6.96V496.24z"/>
	<path d="M266.74,496.24c-0.24,0-0.43-0.19-0.43-0.43c0-0.24,0.19-0.43,0.43-0.43c48.08-0.03,87.2-37.69,89.05-85.73
		c0.01-0.24,0.21-0.43,0.45-0.42c0.24,0.01,0.43,0.21,0.42,0.45c-0.9,23.37-10.68,45.17-27.52,61.39
		C312.29,487.29,290.13,496.23,266.74,496.24L266.74,496.24z"/>
	<path d="M356.23,405.87h-89.5c-0.24,0-0.43,0.19-0.43,0.43v3.36c0,0.24,0.19,0.43,0.43,0.43h89.5c0.11,0,0.22-0.05,0.31-0.13
		c0.08-0.08,0.12-0.18,0.12-0.29v-3.37C356.66,406.06,356.47,405.87,356.23,405.87z M267.17,409.22v-2.49h88.62v2.49H267.17z"/>
	<path d="M211.97,359.44c-0.02-0.01-0.04-0.01-0.06-0.01h-5.59c-0.24,0-0.44,0.2-0.44,0.44v7.83c0,0.24,0.2,0.44,0.44,0.44h5.59
		c0.24,0,0.44-0.2,0.44-0.44v-7.83C212.35,359.65,212.18,359.47,211.97,359.44z M211.48,367.27h-4.73v-6.97h4.73V367.27z"/>
	<path d="M105.62,359.43h-5.59c-0.02,0-0.04,0-0.06,0.01c-0.21,0.03-0.37,0.21-0.37,0.43v7.83c0,0.24,0.18,0.43,0.42,0.44h5.6
		c0.24,0,0.44-0.2,0.44-0.44v-7.84C106.05,359.62,105.86,359.43,105.62,359.43z M105.19,367.27h-4.73v-6.97h4.73V367.27z"/>
	<path d="M203.31,253.52c0.02,0.24-0.15,0.45-0.39,0.47c-0.16,0.01-0.32,0.03-0.48,0.05c-54.81,5.3-96.21,50.7-96.38,105.82v0.01
		c-0.01,0.24-0.2,0.42-0.44,0.42c-0.24,0-0.43-0.19-0.43-0.43c0-0.14,0-0.29,0.01-0.43c0.18-26.65,10.18-52.15,28.18-71.81
		c18.09-19.78,42.76-32.03,69.46-34.49h0.04C203.08,253.13,203.29,253.29,203.31,253.52z"/>
	<path d="M206.67,253.56c0-0.24-0.2-0.43-0.44-0.43h-3.35c-0.12,0-0.23,0.04-0.31,0.12c-0.08,0.09-0.13,0.2-0.13,0.31v0.48
		l0.09,105.83c0,0.24,0.19,0.43,0.43,0.43h3.36c0.11,0,0.22-0.04,0.31-0.12c0.08-0.09,0.12-0.2,0.12-0.31v-0.44L206.67,253.56z
		 M203.4,359.43L203.31,254h2.49l0.08,105.43H203.4z"/>
	<path d="M777.66,626.02c-0.01,0-0.01,0-0.02,0c-0.24-0.01-0.43-0.21-0.41-0.45c0.92-19.39,9.21-37.4,23.36-50.7
		c13.88-13.05,31.95-20.21,50.96-20.21c0.36,0,0.72,0,1.08,0.01c0.24,0,0.43,0.2,0.43,0.44c0,0.24-0.2,0.43-0.43,0.43
		c0,0,0,0-0.01,0c-39.91-0.56-72.63,30.21-74.52,70.07C778.08,625.84,777.89,626.02,777.66,626.02z"/>
	<path d="M852.62,555.54c-0.24,0-0.43-0.19-0.43-0.43v-7.83c0-0.24,0.19-0.43,0.43-0.43c0.24,0,0.43,0.19,0.43,0.43v7.83
		C853.05,555.34,852.86,555.54,852.62,555.54z"/>
	<path d="M862.69,555.54h-10.07c-0.24,0-0.43-0.19-0.43-0.43c0-0.24,0.19-0.43,0.43-0.43h10.07c0.24,0,0.43,0.19,0.43,0.43
		C863.12,555.34,862.93,555.54,862.69,555.54z"/>
	<path d="M862.69,555.54c-0.24,0-0.43-0.19-0.43-0.43v-7.83c0-0.24,0.19-0.43,0.43-0.43c0.24,0,0.43,0.19,0.43,0.43v7.83
		C863.12,555.34,862.93,555.54,862.69,555.54z"/>
	<path d="M862.69,637.21c-0.24,0-0.43-0.19-0.43-0.43v-7.83c0-0.24,0.19-0.43,0.43-0.43c0.24,0,0.43,0.19,0.43,0.43v7.83
		C863.12,637.02,862.93,637.21,862.69,637.21z"/>
	<path d="M862.69,629.38h-10.07c-0.24,0-0.43-0.19-0.43-0.43c0-0.24,0.19-0.43,0.43-0.43h10.07c0.24,0,0.43,0.19,0.43,0.43
		C863.12,629.19,862.93,629.38,862.69,629.38z"/>
	<path d="M852.62,637.21c-0.24,0-0.43-0.19-0.43-0.43v-7.83c0-0.24,0.19-0.43,0.43-0.43c0.24,0,0.43,0.19,0.43,0.43v7.83
		C853.05,637.02,852.86,637.21,852.62,637.21z"/>
	<path d="M862.69,637.21h-10.07c-0.24,0-0.43-0.19-0.43-0.43c0-0.24,0.19-0.43,0.43-0.43h10.07c0.24,0,0.43,0.19,0.43,0.43
		C863.12,637.02,862.93,637.21,862.69,637.21z"/>
	<path d="M852.62,625.15h-74.94c-0.24,0-0.44,0.2-0.44,0.44v3.36c0,0.24,0.2,0.43,0.44,0.43h74.94c0.11,0,0.22-0.05,0.3-0.13
		c0.09-0.08,0.13-0.19,0.13-0.3v-3.36C853.05,625.35,852.86,625.15,852.62,625.15z M778.11,628.51v-2.49h74.07v2.49H778.11z"/>
	<path class="st1" d="M355.31,690.3c-0.24,0-0.43-0.19-0.43-0.43c0-1.13-0.92-2.05-2.05-2.05c-0.24,0-0.43-0.19-0.43-0.43
		c0-0.24,0.19-0.43,0.43-0.43c1.61,0,2.91,1.31,2.91,2.91C355.75,690.11,355.55,690.3,355.31,690.3z"/>
	<path class="st1" d="M352.83,692.78c-1.61,0-2.91-1.31-2.91-2.91s1.31-2.91,2.91-2.91c0.24,0,0.43,0.19,0.43,0.43
		c0,0.24-0.19,0.43-0.43,0.43c-1.13,0-2.05,0.92-2.05,2.05s0.92,2.05,2.05,2.05c0.24,0,0.43,0.19,0.43,0.43
		S353.07,692.78,352.83,692.78z"/>
	<path class="st1" d="M352.83,692.78c-0.24,0-0.43-0.19-0.43-0.43s0.19-0.43,0.43-0.43c1.13,0,2.05-0.92,2.05-2.05
		c0-0.24,0.19-0.43,0.43-0.43s0.43,0.19,0.43,0.43C355.75,691.48,354.44,692.78,352.83,692.78z"/>
	<path class="st1" d="M343.97,687.84c-0.24,0-0.43-0.19-0.43-0.43v-2.12c0-0.24,0.19-0.43,0.43-0.43s0.43,0.19,0.43,0.43v2.12
		C344.4,687.64,344.21,687.84,343.97,687.84z"/>
	<path class="st1" d="M380.68,698.33h-26.22c-6.02,0-10.92-4.9-10.92-10.92v-26.22c0-6.02,4.9-10.92,10.92-10.92h26.22
		c6.02,0,10.92,4.9,10.92,10.92v26.22C391.61,693.43,386.71,698.33,380.68,698.33z M354.46,651.12c-5.54,0-10.06,4.51-10.06,10.06
		v26.22c0,5.54,4.51,10.06,10.06,10.06h26.22c5.54,0,10.06-4.51,10.06-10.06v-26.22c0-5.54-4.51-10.06-10.06-10.06H354.46z"/>
	<path class="st1" d="M375.44,703.57H359.7c-0.24,0-0.43-0.19-0.43-0.43c0-0.24,0.19-0.43,0.43-0.43h15.73
		c0.24,0,0.43,0.19,0.43,0.43C375.87,703.38,375.68,703.57,375.44,703.57z"/>
	<path class="st1" d="M372.81,706.19c-0.24,0-0.43-0.19-0.43-0.43v-5.25c0-0.24,0.19-0.43,0.43-0.43s0.43,0.19,0.43,0.43v5.25
		C373.25,706,373.05,706.19,372.81,706.19z"/>
	<path class="st1" d="M362.32,706.19c-0.24,0-0.43-0.19-0.43-0.43v-5.25c0-0.24,0.19-0.43,0.43-0.43s0.43,0.19,0.43,0.43v5.25
		C362.76,706,362.56,706.19,362.32,706.19z"/>
	<path class="st1" d="M367.57,703.57c-0.09,0-0.19-0.03-0.27-0.09c-0.19-0.15-0.22-0.42-0.07-0.61l15.37-19.55
		c0.15-0.19,0.42-0.22,0.61-0.07c0.19,0.15,0.22,0.42,0.07,0.61l-15.37,19.55C367.83,703.51,367.7,703.57,367.57,703.57z"/>
	<path class="st1" d="M399.04,708.82H336.1c-0.24,0-0.43-0.19-0.43-0.43v-62.94c0-0.24,0.19-0.43,0.43-0.43h62.94
		c0.24,0,0.43,0.19,0.43,0.43v62.94C399.47,708.62,399.28,708.82,399.04,708.82z M336.53,707.95h62.07v-62.07h-62.07V707.95z"/>
	<path class="st1" d="M499.82,708.82h-62.95c-0.24,0-0.43-0.19-0.43-0.43v-62.95c0-0.24,0.19-0.43,0.43-0.43h62.95
		c0.24,0,0.43,0.19,0.43,0.43v62.95C500.25,708.62,500.06,708.82,499.82,708.82z M437.31,707.95h62.08v-62.08h-62.08V707.95z"/>
	<path class="st1" d="M481.86,701.47c-6.1,0-11.05-4.96-11.05-11.05c0-6.1,4.96-11.05,11.05-11.05c6.1,0,11.05,4.96,11.05,11.05
		C492.91,696.51,487.95,701.47,481.86,701.47z M481.86,680.23c-5.62,0-10.18,4.57-10.18,10.19c0,5.62,4.57,10.18,10.18,10.18
		c5.62,0,10.19-4.57,10.19-10.18C492.04,684.8,487.47,680.23,481.86,680.23z"/>
	<path class="st1" d="M481.86,698.32c-4.36,0-7.91-3.55-7.91-7.91c0-4.36,3.55-7.91,7.91-7.91s7.91,3.55,7.91,7.91
		C489.76,694.78,486.22,698.32,481.86,698.32z M481.86,683.38c-3.88,0-7.04,3.16-7.04,7.04c0,3.88,3.16,7.04,7.04,7.04
		c3.88,0,7.04-3.16,7.04-7.04C488.89,686.54,485.74,683.38,481.86,683.38z"/>
	<path class="st1" d="M454.84,674.45c-6.1,0-11.05-4.96-11.05-11.05s4.96-11.05,11.05-11.05c6.1,0,11.05,4.96,11.05,11.05
		S460.93,674.45,454.84,674.45z M454.84,653.21c-5.62,0-10.18,4.57-10.18,10.18c0,5.62,4.57,10.19,10.18,10.19
		s10.18-4.57,10.18-10.19C465.02,657.78,460.45,653.21,454.84,653.21z"/>
	<path class="st1" d="M454.84,671.3c-4.36,0-7.91-3.55-7.91-7.91s3.55-7.91,7.91-7.91s7.91,3.55,7.91,7.91
		S459.19,671.3,454.84,671.3z M454.84,656.36c-3.88,0-7.04,3.16-7.04,7.04c0,3.88,3.16,7.04,7.04,7.04c3.88,0,7.04-3.16,7.04-7.04
		C461.87,659.52,458.72,656.36,454.84,656.36z"/>
	<path class="st1" d="M454.84,697.2c-3.74,0-6.78-3.04-6.78-6.78c0-3.74,3.04-6.78,6.78-6.78c3.74,0,6.78,3.04,6.78,6.78
		C461.61,694.16,458.57,697.2,454.84,697.2z M454.84,684.51c-3.26,0-5.91,2.65-5.91,5.91c0,3.26,2.65,5.91,5.91,5.91
		c3.26,0,5.91-2.65,5.91-5.91C460.74,687.16,458.09,684.51,454.84,684.51z"/>
	<path class="st1" d="M454.84,694.05c-2,0-3.63-1.63-3.63-3.63c0-2,1.63-3.63,3.63-3.63s3.63,1.63,3.63,3.63
		C458.46,692.42,456.84,694.05,454.84,694.05z M454.84,687.66c-1.52,0-2.76,1.24-2.76,2.76c0,1.52,1.24,2.76,2.76,2.76
		c1.52,0,2.76-1.24,2.76-2.76C457.6,688.9,456.36,687.66,454.84,687.66z"/>
	<path class="st1" d="M481.86,670.18c-3.74,0-6.78-3.04-6.78-6.78s3.04-6.78,6.78-6.78c3.74,0,6.78,3.04,6.78,6.78
		S485.59,670.18,481.86,670.18z M481.86,657.49c-3.26,0-5.91,2.65-5.91,5.91c0,3.26,2.65,5.91,5.91,5.91s5.91-2.65,5.91-5.91
		C487.76,660.14,485.11,657.49,481.86,657.49z"/>
	<path class="st1" d="M481.86,667.03c-2,0-3.63-1.63-3.63-3.63c0-2,1.63-3.63,3.63-3.63s3.63,1.63,3.63,3.63
		C485.49,665.4,483.86,667.03,481.86,667.03z M481.86,660.64c-1.52,0-2.76,1.24-2.76,2.76c0,1.52,1.24,2.76,2.76,2.76
		c1.52,0,2.76-1.24,2.76-2.76C484.62,661.88,483.38,660.64,481.86,660.64z"/>
	<path class="st1" d="M266.73,574.56c-0.24,0-0.43-0.19-0.43-0.43l-0.22-62.95c0-0.24,0.19-0.44,0.43-0.44l62.95-0.22c0,0,0,0,0,0
		c0.24,0,0.43,0.19,0.43,0.43l0.22,62.95c0,0.24-0.19,0.44-0.43,0.44L266.73,574.56C266.73,574.56,266.73,574.56,266.73,574.56z
		 M266.95,511.61l0.22,62.08l62.08-0.22l-0.22-62.08L266.95,511.61z"/>
	<path class="st1" d="M266.73,574.56c-0.24,0-0.43-0.19-0.43-0.43l-0.22-62.95c0-0.24,0.19-0.44,0.43-0.44l15.74-0.06c0,0,0,0,0,0
		c0.24,0,0.43,0.19,0.43,0.43l0.22,62.95c0,0.24-0.19,0.44-0.43,0.44L266.73,574.56C266.73,574.56,266.73,574.56,266.73,574.56z
		 M266.95,511.61l0.22,62.08l14.87-0.05l-0.22-62.08L266.95,511.61z"/>
	<path class="st1" d="M274.41,523.12c-1.09,0-2.12-0.42-2.89-1.19c-0.78-0.77-1.21-1.8-1.21-2.9c-0.01-2.26,1.83-4.11,4.09-4.12
		c0,0,0.01,0,0.01,0c2.26,0,4.1,1.83,4.11,4.09c0,1.1-0.42,2.13-1.19,2.91c-0.77,0.78-1.8,1.21-2.9,1.21
		C274.42,523.12,274.41,523.12,274.41,523.12z M274.41,515.78c0,0-0.01,0-0.01,0c-1.79,0.01-3.23,1.46-3.23,3.25
		c0,0.87,0.34,1.68,0.96,2.29c0.61,0.61,1.42,0.94,2.28,0.94c0,0,0.01,0,0.01,0c0.86,0,1.68-0.34,2.29-0.96
		c0.61-0.61,0.94-1.43,0.94-2.29C277.64,517.23,276.19,515.78,274.41,515.78z"/>
	<path class="st1" d="M269.87,571.4c-0.24,0-0.43-0.19-0.43-0.43l-0.17-48.26c0-0.24,0.19-0.44,0.43-0.44c0,0,0,0,0,0
		c0.24,0,0.43,0.19,0.43,0.43l0.17,47.82l10.06-0.04c0,0,0,0,0,0c0.24,0,0.43,0.19,0.43,0.43c0,0.24-0.19,0.44-0.43,0.44
		L269.87,571.4C269.87,571.4,269.87,571.4,269.87,571.4z"/>
	<path class="st1" d="M284.56,571.35c-0.24,0-0.43-0.19-0.43-0.43c0-0.24,0.19-0.44,0.43-0.44l41.53-0.15l-0.17-47.82
		c0-0.24,0.19-0.44,0.43-0.44c0,0,0,0,0,0c0.24,0,0.43,0.19,0.43,0.43l0.17,48.26c0,0.24-0.19,0.44-0.43,0.44L284.56,571.35
		C284.56,571.35,284.56,571.35,284.56,571.35z"/>
	<path class="st1" d="M290.14,523.07c-2.26,0-4.1-1.83-4.1-4.09c-0.01-2.27,1.83-4.11,4.09-4.12c0,0,0.01,0,0.01,0
		c2.26,0,4.1,1.83,4.11,4.09c0,1.1-0.42,2.13-1.19,2.91c-0.77,0.78-1.8,1.21-2.9,1.21C290.15,523.07,290.15,523.07,290.14,523.07z
		 M290.13,515.29l0,0.43c-1.79,0.01-3.23,1.46-3.23,3.25c0.01,1.78,1.46,3.22,3.24,3.22c0,0,0.01,0,0.01,0
		c1.79-0.01,3.23-1.46,3.23-3.25c-0.01-1.78-1.46-3.23-3.24-3.23c0,0-0.01,0-0.01,0L290.13,515.29z"/>
	<path class="st1" d="M289.74,545.13c-0.24,0-0.43-0.19-0.43-0.43c0-0.24,0.19-0.44,0.43-0.44l30.12-0.11c0,0,0,0,0,0
		c0.24,0,0.43,0.19,0.43,0.43c0,0.24-0.19,0.44-0.43,0.44L289.74,545.13C289.74,545.13,289.74,545.13,289.74,545.13z"/>
	<path class="st1" d="M304.85,560.13c-0.24,0-0.43-0.19-0.43-0.43l-0.11-30.12c0-0.24,0.19-0.44,0.43-0.44c0,0,0,0,0,0
		c0.24,0,0.43,0.19,0.43,0.43l0.11,30.12C305.29,559.94,305.09,560.13,304.85,560.13C304.85,560.13,304.85,560.13,304.85,560.13z"/>
	<path class="st1" d="M295.76,554.17c-0.11,0-0.22-0.04-0.31-0.13c-0.17-0.17-0.17-0.44,0-0.61l18.07-18.2
		c0.17-0.17,0.44-0.17,0.61,0c0.17,0.17,0.17,0.44,0,0.61l-18.07,18.2C295.99,554.13,295.88,554.17,295.76,554.17z"/>
	<path class="st1" d="M313.9,554.11c-0.11,0-0.22-0.04-0.31-0.13l-18.2-18.07c-0.17-0.17-0.17-0.44,0-0.61
		c0.17-0.17,0.44-0.17,0.61,0l18.2,18.07c0.17,0.17,0.17,0.44,0,0.61C314.12,554.07,314.01,554.11,313.9,554.11z"/>
	<path class="st1" d="M289.95,549.61c-0.11,0-0.22-0.04-0.31-0.13c-0.17-0.17-0.17-0.44,0-0.61l4.16-4.19l-4.19-4.16
		c-0.17-0.17-0.17-0.44,0-0.61c0.17-0.17,0.44-0.17,0.61,0l4.5,4.46c0.17,0.17,0.17,0.44,0,0.61l-4.46,4.5
		C290.17,549.57,290.06,549.61,289.95,549.61z"/>
	<path class="st1" d="M319.68,549.5c-0.11,0-0.22-0.04-0.31-0.13l-4.5-4.46c-0.08-0.08-0.13-0.19-0.13-0.31
		c0-0.12,0.04-0.23,0.13-0.31l4.46-4.5c0.17-0.17,0.44-0.17,0.61,0c0.17,0.17,0.17,0.44,0,0.61l-4.16,4.19l4.19,4.16
		c0.17,0.17,0.17,0.44,0,0.61C319.9,549.46,319.79,549.5,319.68,549.5z"/>
	<path class="st1" d="M300.37,559.96c-0.11,0-0.22-0.04-0.31-0.13c-0.17-0.17-0.17-0.44,0-0.61l4.46-4.5c0.17-0.17,0.44-0.17,0.61,0
		l4.5,4.46c0.17,0.17,0.17,0.44,0,0.61c-0.17,0.17-0.44,0.17-0.61,0l-4.19-4.16l-4.16,4.19
		C300.6,559.91,300.48,559.96,300.37,559.96z"/>
	<path class="st1" d="M304.76,534.69c-0.11,0-0.22-0.04-0.31-0.13l-4.5-4.46c-0.17-0.17-0.17-0.44,0-0.61
		c0.17-0.17,0.44-0.17,0.61,0l4.19,4.16l4.16-4.19c0.17-0.17,0.44-0.17,0.61,0c0.17,0.17,0.17,0.44,0,0.61l-4.46,4.5
		C304.99,534.65,304.87,534.69,304.76,534.69z"/>
	<path class="st1" d="M293.32,539.35c-0.24,0-0.43-0.19-0.43-0.43c0-0.24,0.19-0.44,0.43-0.44l5.26-0.02l-0.02-5.26
		c0-0.24,0.19-0.44,0.43-0.44c0,0,0,0,0,0c0.24,0,0.43,0.19,0.43,0.43l0.02,5.69c0,0.24-0.19,0.44-0.43,0.44L293.32,539.35
		C293.33,539.35,293.33,539.35,293.32,539.35z"/>
	<path class="st1" d="M299.08,556.55c-0.24,0-0.43-0.19-0.43-0.43l-0.02-5.26l-5.26,0.02c0,0,0,0,0,0c-0.24,0-0.43-0.19-0.43-0.43
		c0-0.24,0.19-0.44,0.43-0.44l5.69-0.02c0,0,0,0,0,0c0.12,0,0.22,0.04,0.31,0.13c0.08,0.08,0.13,0.19,0.13,0.31l0.02,5.69
		C299.51,556.35,299.32,556.55,299.08,556.55C299.08,556.55,299.08,556.55,299.08,556.55z"/>
	<path class="st1" d="M310.54,539.29c-0.24,0-0.43-0.19-0.43-0.43l-0.02-5.69c0-0.24,0.19-0.44,0.43-0.44c0,0,0,0,0,0
		c0.24,0,0.43,0.19,0.43,0.43l0.02,5.26l5.26-0.02c0,0,0,0,0,0c0.24,0,0.43,0.19,0.43,0.43c0,0.24-0.19,0.44-0.43,0.44
		L310.54,539.29C310.54,539.29,310.54,539.29,310.54,539.29z"/>
	<path class="st1" d="M310.6,556.51c-0.24,0-0.43-0.19-0.43-0.43l-0.02-5.69c0-0.24,0.19-0.44,0.43-0.44l5.69-0.02c0,0,0,0,0,0
		c0.24,0,0.43,0.19,0.43,0.43c0,0.24-0.19,0.44-0.43,0.44l-5.26,0.02l0.02,5.26C311.04,556.31,310.84,556.51,310.6,556.51
		C310.6,556.51,310.6,556.51,310.6,556.51z"/>
	<g id="LINE_00000022548262005253414690000013957652194510360470_">
		<path d="M330.27,639.09c0,0.22-0.18,0.4-0.4,0.4l-63.06,0c-0.22,0-0.4-0.18-0.4-0.4c0-0.22,0.18-0.4,0.4-0.4h63.06
			C330.09,638.68,330.27,638.86,330.27,639.09z"/>
	</g>
	<g id="LINE_00000067939835825829894510000000662442088121729709_">
		<path d="M267.21,576.03l0,63.06c0,0.22-0.18,0.4-0.4,0.4s-0.4-0.18-0.4-0.4l0-63.06c0-0.22,0.18-0.4,0.4-0.4
			C267.03,575.62,267.21,575.8,267.21,576.03z"/>
	</g>
	<g id="LINE_00000082355352211600124470000001326422917548073113_">
		<path d="M330.27,576.03c0,0.22-0.18,0.4-0.4,0.4l-63.06,0c-0.22,0-0.4-0.18-0.4-0.4c0-0.22,0.18-0.4,0.4-0.4l63.06,0
			C330.09,575.62,330.27,575.8,330.27,576.03z"/>
	</g>
	<g id="LINE_00000144322883238368668870000000405127018995745408_">
		<path d="M330.27,576.03l0,63.06c0,0.22-0.18,0.4-0.4,0.4c-0.22,0-0.4-0.18-0.4-0.4v-63.06c0-0.22,0.18-0.4,0.4-0.4
			S330.27,575.8,330.27,576.03z"/>
	</g>
	<g id="LINE_00000018227428906753537840000008069013058919987896_">
		<path d="M317.85,613.36c0,0.1-0.04,0.21-0.12,0.29c-0.16,0.16-0.41,0.16-0.57,0l-19.66-19.66c-0.16-0.16-0.16-0.41,0-0.57
			c0.16-0.16,0.41-0.16,0.57,0l19.66,19.66C317.81,613.15,317.85,613.26,317.85,613.36z"/>
	</g>
	<g id="LINE_00000139287531691257369730000009665442098815558573_">
		<path d="M300.1,617.68c0,0.1-0.04,0.21-0.12,0.29c-0.16,0.16-0.41,0.16-0.57,0l-11.1-11.1c-0.16-0.16-0.16-0.41,0-0.57
			c0.16-0.16,0.41-0.16,0.57,0l11.1,11.1C300.06,617.48,300.1,617.58,300.1,617.68z"/>
	</g>
	<g id="LINE_00000134223361445243442730000005763116966369684379_">
		<path d="M315.07,617.71c0,0.1-0.04,0.21-0.12,0.29c-0.16,0.16-0.41,0.16-0.57,0L298.39,602c-0.16-0.16-0.16-0.41,0-0.57
			s0.41-0.16,0.57,0l15.99,15.99C315.03,617.5,315.07,617.61,315.07,617.71z"/>
	</g>
	<g id="LINE_00000044174418444276817690000005932691579582085811_">
		<path d="M318.99,606.7c0,0.1-0.04,0.21-0.12,0.29c-0.16,0.16-0.41,0.16-0.57,0l-12.34-12.34c-0.16-0.16-0.16-0.41,0-0.57
			c0.16-0.16,0.41-0.16,0.57,0l12.34,12.34C318.95,606.49,318.99,606.59,318.99,606.7z"/>
	</g>
	<g id="LINE_00000101073929527698005810000002790893711980363708_">
		<path d="M311.01,617.67c0,0.1-0.04,0.21-0.12,0.29c-0.16,0.16-0.41,0.16-0.57,0l-19.07-19.07c-0.16-0.16-0.16-0.41,0-0.57
			c0.16-0.16,0.41-0.16,0.57,0l19.07,19.07C310.97,617.46,311.01,617.56,311.01,617.67z"/>
	</g>
	<g id="ELLIPSE_00000114058871835253160080000011018235927885571749_">
		<path d="M319.02,607.56c0,8.51-6.92,15.43-15.43,15.43s-15.43-6.92-15.43-15.43c0-8.51,6.92-15.43,15.43-15.43
			S319.02,599.05,319.02,607.56z M288.97,607.56c0,8.06,6.56,14.62,14.62,14.62c8.06,0,14.62-6.56,14.62-14.62
			s-6.56-14.62-14.62-14.62S288.97,599.5,288.97,607.56z"/>
	</g>
	<g id="ELLIPSE_00000122695215973105080870000005991598955484335802_">
		<path d="M323.91,607.56c0,11.21-9.12,20.32-20.32,20.32c-11.21,0-20.32-9.12-20.32-20.32c0-11.21,9.12-20.32,20.32-20.32
			S323.91,596.35,323.91,607.56z M284.07,607.56c0,10.76,8.76,19.52,19.52,19.52c10.76,0,19.52-8.76,19.52-19.52
			s-8.76-19.52-19.52-19.52C292.83,588.04,284.07,596.8,284.07,607.56z"/>
	</g>
	<g id="ELLIPSE_00000051354560465900498020000016169186013658532027_">
		<path d="M275.15,598.64c0,1.58-1.29,2.87-2.87,2.87c-0.22,0-0.4-0.18-0.4-0.4s0.18-0.4,0.4-0.4c1.14,0,2.07-0.93,2.07-2.07
			c0-1.14-0.93-2.07-2.07-2.07c-0.22,0-0.4-0.18-0.4-0.4c0-0.22,0.18-0.4,0.4-0.4C273.87,595.77,275.15,597.06,275.15,598.64z"/>
	</g>
	<g id="ELLIPSE_00000068676210103945219000000016918642243709637526_">
		<path d="M272.68,596.17c0,0.22-0.18,0.4-0.4,0.4c-1.14,0-2.07,0.93-2.07,2.07c0,1.14,0.93,2.07,2.07,2.07c0.22,0,0.4,0.18,0.4,0.4
			s-0.18,0.4-0.4,0.4c-1.58,0-2.87-1.29-2.87-2.87c0-1.58,1.29-2.87,2.87-2.87C272.5,595.77,272.68,595.95,272.68,596.17z"/>
	</g>
	<g id="ELLIPSE_00000162333534303337860030000013549107034027804034_">
		<path d="M275.15,591.57c0,1.58-1.29,2.87-2.87,2.87c-0.22,0-0.4-0.18-0.4-0.4s0.18-0.4,0.4-0.4c1.14,0,2.07-0.93,2.07-2.07
			s-0.93-2.07-2.07-2.07c-0.22,0-0.4-0.18-0.4-0.4s0.18-0.4,0.4-0.4C273.87,588.69,275.15,589.98,275.15,591.57z"/>
	</g>
	<g id="ELLIPSE_00000173858898219309699650000002725148843867042469_">
		<path d="M272.68,589.1c0,0.22-0.18,0.4-0.4,0.4c-1.14,0-2.07,0.93-2.07,2.07s0.93,2.07,2.07,2.07c0.22,0,0.4,0.18,0.4,0.4
			s-0.18,0.4-0.4,0.4c-1.58,0-2.87-1.29-2.87-2.87s1.29-2.87,2.87-2.87C272.5,588.69,272.68,588.87,272.68,589.1z"/>
	</g>
	<g id="ELLIPSE_00000060723584638476854740000017786914518167577757_">
		<path d="M275.15,584.49c0,1.58-1.29,2.87-2.87,2.87c-0.22,0-0.4-0.18-0.4-0.4c0-0.22,0.18-0.4,0.4-0.4c1.14,0,2.07-0.93,2.07-2.07
			c0-1.14-0.93-2.07-2.07-2.07c-0.22,0-0.4-0.18-0.4-0.4c0-0.22,0.18-0.4,0.4-0.4C273.87,581.62,275.15,582.91,275.15,584.49z"/>
	</g>
	<g id="ELLIPSE_00000107560116368247358410000006629076564306593683_">
		<path d="M272.68,582.02c0,0.22-0.18,0.4-0.4,0.4c-1.14,0-2.07,0.93-2.07,2.07c0,1.14,0.93,2.07,2.07,2.07c0.22,0,0.4,0.18,0.4,0.4
			c0,0.22-0.18,0.4-0.4,0.4c-1.58,0-2.87-1.29-2.87-2.87c0-1.58,1.29-2.87,2.87-2.87C272.5,581.62,272.68,581.8,272.68,582.02z"/>
	</g>
	<g id="LINE_00000000921992821457866860000014346375270476285360_">
		<path d="M278.65,576.03v63.06c0,0.22-0.18,0.4-0.4,0.4s-0.4-0.18-0.4-0.4l0-63.06c0-0.22,0.18-0.4,0.4-0.4
			C278.47,575.62,278.65,575.8,278.65,576.03z"/>
	</g>
	<g id="ELLIPSE_00000052085259863418643000000006675566885047108499_">
		<path d="M274.34,634.72c0,1.14-0.92,2.06-2.06,2.06c-1.14,0-2.06-0.92-2.06-2.06c0-1.14,0.92-2.06,2.06-2.06
			C273.42,632.66,274.34,633.58,274.34,634.72z M271.03,634.72c0,0.69,0.56,1.25,1.25,1.25c0.69,0,1.25-0.56,1.25-1.25
			c0-0.69-0.56-1.25-1.25-1.25C271.59,633.46,271.03,634.03,271.03,634.72z"/>
	</g>
	<path class="st2" d="M70.64,612.97H22.83c-0.24,0-0.43-0.19-0.43-0.43v-71.71c0-0.24,0.19-0.43,0.43-0.43h47.81
		c0.24,0,0.43,0.19,0.43,0.43v71.71C71.07,612.77,70.88,612.97,70.64,612.97z M23.26,612.1H70.2v-70.84H23.26V612.1z"/>
	<path class="st2" d="M39.86,579.4c-0.12,0-0.24-0.05-0.33-0.15c-0.16-0.18-0.13-0.46,0.05-0.61c0.89-0.76,1.16-2.45,0.6-3.7
		c-0.15-0.35-0.36-0.64-0.6-0.84c-0.18-0.16-0.2-0.43-0.05-0.61c0.16-0.18,0.43-0.2,0.61-0.05c0.34,0.29,0.63,0.69,0.84,1.15
		c0.72,1.62,0.36,3.7-0.84,4.71C40.06,579.36,39.96,579.4,39.86,579.4z"/>
	<path class="st2" d="M44.91,580.16c-1.58,0-2.86-1.7-2.86-3.79c0-2.09,1.28-3.79,2.86-3.79c1.58,0,2.86,1.7,2.86,3.79
		C47.77,578.46,46.49,580.16,44.91,580.16z M44.91,573.44c-1.1,0-1.99,1.31-1.99,2.92c0,1.61,0.89,2.92,1.99,2.92
		c1.1,0,1.99-1.31,1.99-2.92C46.91,574.75,46.01,573.44,44.91,573.44z"/>
	<path class="st2" d="M46.73,609.3c-11.91,0-21.59-14.78-21.59-32.94c0-18.16,9.68-32.94,21.59-32.94s21.59,14.78,21.59,32.94
		C68.32,594.53,58.64,609.3,46.73,609.3z M46.73,544.29c-11.43,0-20.72,14.39-20.72,32.07c0,17.68,9.3,32.07,20.72,32.07
		c11.43,0,20.72-14.39,20.72-32.07C67.46,558.68,58.16,544.29,46.73,544.29z"/>
	<path class="st2" d="M49.6,601.51c-1.06,0-2.13-0.16-3.2-0.49c-4.97-1.54-9.11-6.47-11.34-13.52c-0.01-0.04-0.02-0.09-0.02-0.13
		v-8.4c0-0.24,0.19-0.43,0.43-0.43c0.24,0,0.43,0.19,0.43,0.43v8.34c2.15,6.74,6.07,11.44,10.75,12.89
		c3.29,1.02,6.63,0.31,9.65-2.05c7.64-5.97,10.75-20.61,6.94-32.65c-2.15-6.78-6.07-11.5-10.77-12.95
		c-3.29-1.02-6.63-0.31-9.65,2.05c-2.98,2.33-5.44,6.2-6.94,10.9c-0.07,0.23-0.31,0.36-0.55,0.28c-0.23-0.07-0.36-0.32-0.28-0.55
		c1.54-4.87,4.11-8.89,7.23-11.33c3.26-2.54,6.87-3.3,10.44-2.2c4.97,1.54,9.11,6.47,11.34,13.52c3.92,12.36,0.67,27.43-7.23,33.6
		C54.56,600.61,52.1,601.51,49.6,601.51z"/>
	<path class="st2" d="M35.48,574.19c-0.24,0-0.43-0.19-0.43-0.43v-8.4c0-0.24,0.19-0.43,0.43-0.43c0.24,0,0.43,0.19,0.43,0.43v8.4
		C35.91,574,35.72,574.19,35.48,574.19z"/>
	<path class="st2" d="M32.04,584.76h-3.28c-0.24,0-0.43-0.19-0.43-0.43v-15.93c0-0.24,0.19-0.43,0.43-0.43h3.28
		c0.24,0,0.43,0.19,0.43,0.43v5.37c0,0.24-0.19,0.43-0.43,0.43s-0.43-0.19-0.43-0.43v-4.93H29.2v15.07h2.41v-4.93
		c0-0.24,0.19-0.43,0.43-0.43s0.43,0.19,0.43,0.43v5.37C32.47,584.57,32.28,584.76,32.04,584.76z"/>
	<path class="st2" d="M39.86,579.4H29.61c-0.24,0-0.43-0.19-0.43-0.43v-5.2c0-0.24,0.19-0.43,0.43-0.43h10.25
		c0.24,0,0.43,0.19,0.43,0.43c0,0.24-0.19,0.43-0.43,0.43h-9.81v4.33h9.81c0.24,0,0.43,0.19,0.43,0.43
		C40.29,579.2,40.1,579.4,39.86,579.4z"/>
	<path class="st2" d="M167.16,665.57c-1.26,0-2.51-0.2-3.71-0.61c-0.81-0.27-1.44-0.92-1.69-1.74c0,0,0,0,0,0
		c-0.14-0.45-0.22-0.92-0.25-1.39c-0.1-1.6,0.44-3.14,1.5-4.34c1.06-1.2,2.53-1.91,4.12-2.01c0.52,0.03,0.99,0.11,1.44,0.25
		c3.16,0.96,4.95,4.32,3.98,7.48c-0.25,0.82-0.88,1.47-1.69,1.74C169.67,665.37,168.42,665.57,167.16,665.57z M162.59,662.97
		c0.17,0.55,0.59,0.99,1.14,1.17c2.21,0.75,4.65,0.75,6.86,0c0.54-0.18,0.97-0.62,1.14-1.17c0.4-1.31,0.27-2.69-0.38-3.9
		s-1.72-2.09-3.03-2.49c-0.39-0.12-0.79-0.19-1.19-0.21c-2.77,0.17-4.92,2.6-4.75,5.42C162.4,662.18,162.47,662.58,162.59,662.97
		L162.59,662.97z"/>
	<path class="st2" d="M167.16,674.69c-2.35,0-4.71-0.31-7-0.92c-4.32-1.15-7.33-5.08-7.33-9.55v-11.77c0-1.3,0.09-2.6,0.28-3.88
		c0.31-2.11,1.18-4.1,2.53-5.75c0.63-0.76,1.33-1.47,2.09-2.09c6.35-5.2,15.75-4.26,20.95,2.09c1.35,1.65,2.22,3.64,2.53,5.75l0,0
		c0.18,1.28,0.28,2.59,0.28,3.88v11.77c0,4.47-3.01,8.39-7.33,9.55C171.87,674.39,169.51,674.69,167.16,674.69z M167.15,638.24
		c-3.12,0-6.26,1.04-8.86,3.16c-0.72,0.59-1.38,1.25-1.97,1.97c-1.25,1.53-2.06,3.37-2.34,5.32c-0.18,1.24-0.27,2.5-0.27,3.76v11.77
		c0,4.07,2.75,7.66,6.69,8.71c4.43,1.18,9.11,1.18,13.54,0c3.94-1.05,6.69-4.63,6.69-8.71v-11.77c0-1.25-0.09-2.52-0.27-3.76
		c-0.28-1.95-1.09-3.79-2.34-5.32C175.24,639.99,171.21,638.24,167.15,638.24z"/>
	<path class="st2" d="M184.62,690.82c-0.01,0-0.01,0-0.02,0l-8.27-0.33l-6.75-0.12l-12.52,0.14l-7.35,0.3
		c-0.18-0.02-0.37-0.1-0.43-0.28c-0.87-2.32-1.73-4.68-2.55-7.03c-0.02-0.05-0.02-0.09-0.02-0.14v-31.12
		c0-11.27,9.17-20.44,20.44-20.44c11.27,0,20.44,9.17,20.44,20.44v31.12c0,0.05-0.01,0.1-0.02,0.14c-0.83,2.36-1.68,4.72-2.55,7.03
		C184.97,690.71,184.8,690.82,184.62,690.82z M167.16,689.51l6.63,0.06l6.07,0.18l4.47,0.2c0.82-2.18,1.62-4.41,2.41-6.64v-31.05
		c0-10.79-8.78-19.57-19.57-19.57c-10.79,0-19.57,8.78-19.57,19.57v31.05c0.78,2.22,1.58,4.45,2.41,6.64l2.97-0.14l9.95-0.29H167.16
		z"/>
	<path class="st2" d="M167.16,700.76c-1.07,0-1.93-0.87-1.93-1.93s0.87-1.93,1.93-1.93c1.07,0,1.93,0.87,1.93,1.93
		S168.23,700.76,167.16,700.76z M167.16,697.76c-0.59,0-1.07,0.48-1.07,1.07c0,0.59,0.48,1.07,1.07,1.07c0.59,0,1.07-0.48,1.07-1.07
		C168.22,698.23,167.75,697.76,167.16,697.76z"/>
	<path class="st2" d="M167.16,701.13c-1.27,0-2.3-1.03-2.3-2.31s1.03-2.3,2.3-2.3c1.27,0,2.31,1.03,2.31,2.3
		S168.43,701.13,167.16,701.13z M167.16,697.39c-0.79,0-1.44,0.64-1.44,1.44c0,0.79,0.64,1.44,1.44,1.44c0.79,0,1.44-0.64,1.44-1.44
		C168.6,698.03,167.95,697.39,167.16,697.39z"/>
	<path class="st2" d="M185.48,708.82h-36.64c-0.81,0-1.47-0.61-1.54-1.41l-1.27-14.5c0,0,0,0,0,0c0,0,0-0.04,0-0.04
		c-0.08-1.5,1.04-2.76,2.5-2.84c12.36-0.69,24.9-0.69,37.26,0c0.79,0.07,1.43,0.4,1.89,0.95c0.46,0.54,0.67,1.23,0.61,1.94
		l-1.27,14.5C186.95,708.21,186.29,708.82,185.48,708.82z M146.9,692.83l1.27,14.5c0.03,0.35,0.32,0.62,0.67,0.62h36.64
		c0.35,0,0.64-0.27,0.67-0.62l1.27-14.5c0.04-0.48-0.1-0.94-0.41-1.31c-0.31-0.37-0.74-0.59-1.21-0.63
		c-12.38-0.69-24.89-0.69-37.22,0c-0.48,0.03-0.92,0.24-1.23,0.59c-0.32,0.36-0.48,0.82-0.45,1.29l-0.43,0.09L146.9,692.83z"/>
	<path class="st2" d="M50.8,703.22c-12.58,0-22.81-10.23-22.81-22.81c0-0.24,0.19-0.43,0.43-0.43c0.24,0,0.43,0.19,0.43,0.43
		c0,12.1,9.84,21.94,21.94,21.94c0.24,0,0.43,0.19,0.43,0.43C51.24,703.03,51.04,703.22,50.8,703.22z"/>
	<path class="st2" d="M28.42,647.28c-0.24,0-0.43-0.19-0.43-0.43c0-12.58,10.23-22.81,22.81-22.81c0.24,0,0.43,0.19,0.43,0.43
		c0,0.24-0.19,0.43-0.43,0.43c-12.1,0-21.94,9.84-21.94,21.94C28.86,647.09,28.66,647.28,28.42,647.28z"/>
	<path class="st2" d="M78.77,703.22c-0.24,0-0.43-0.19-0.43-0.43c0-0.24,0.19-0.43,0.43-0.43c12.1,0,21.94-9.84,21.94-21.94
		c0-0.24,0.19-0.43,0.43-0.43c0.24,0,0.43,0.19,0.43,0.43C101.58,692.99,91.35,703.22,78.77,703.22z"/>
	<path class="st2" d="M101.15,647.28c-0.24,0-0.43-0.19-0.43-0.43c0-12.1-9.84-21.94-21.94-21.94c-0.24,0-0.43-0.19-0.43-0.43
		c0-0.24,0.19-0.43,0.43-0.43c12.58,0,22.81,10.23,22.81,22.81C101.58,647.09,101.39,647.28,101.15,647.28z"/>
	<path class="st2" d="M101.15,680.85c-0.24,0-0.43-0.19-0.43-0.43v-33.56c0-0.24,0.19-0.43,0.43-0.43c0.24,0,0.43,0.19,0.43,0.43
		v33.56C101.58,680.65,101.39,680.85,101.15,680.85z"/>
	<path class="st2" d="M78.77,703.22H50.8c-0.24,0-0.43-0.19-0.43-0.43c0-0.24,0.19-0.43,0.43-0.43h27.97c0.24,0,0.43,0.19,0.43,0.43
		C79.21,703.03,79.01,703.22,78.77,703.22z"/>
	<path class="st2" d="M28.42,680.85c-0.24,0-0.43-0.19-0.43-0.43v-33.56c0-0.24,0.19-0.43,0.43-0.43c0.24,0,0.43,0.19,0.43,0.43
		v33.56C28.86,680.65,28.66,680.85,28.42,680.85z"/>
	<path class="st2" d="M78.77,624.9H50.8c-0.24,0-0.43-0.19-0.43-0.43c0-0.24,0.19-0.43,0.43-0.43h27.97c0.24,0,0.43,0.19,0.43,0.43
		C79.21,624.71,79.01,624.9,78.77,624.9z"/>
	<path class="st2" d="M48.9,667.42c-2.09,0-3.79-1.7-3.79-3.79s1.7-3.79,3.79-3.79s3.79,1.7,3.79,3.79S50.98,667.42,48.9,667.42z
		 M48.9,660.71c-1.61,0-2.92,1.31-2.92,2.92s1.31,2.92,2.92,2.92s2.92-1.31,2.92-2.92S50.51,660.71,48.9,660.71z"/>
	<path class="st2" d="M112.34,708.82c-0.24,0-0.43-0.19-0.43-0.43v-89.51c0-0.24,0.19-0.43,0.43-0.43c0.24,0,0.43,0.19,0.43,0.43
		v89.51C112.77,708.62,112.58,708.82,112.34,708.82z"/>
	<path class="st2" d="M112.34,619.31H22.83c-0.24,0-0.43-0.19-0.43-0.43c0-0.24,0.19-0.43,0.43-0.43h89.51
		c0.24,0,0.43,0.19,0.43,0.43C112.77,619.12,112.58,619.31,112.34,619.31z"/>
	<path class="st2" d="M22.83,708.82c-0.24,0-0.43-0.19-0.43-0.43v-89.51c0-0.24,0.19-0.43,0.43-0.43c0.24,0,0.43,0.19,0.43,0.43
		v89.51C23.26,708.62,23.07,708.82,22.83,708.82z"/>
	<path class="st2" d="M112.34,708.82H22.83c-0.24,0-0.43-0.19-0.43-0.43c0-0.24,0.19-0.43,0.43-0.43h89.51
		c0.24,0,0.43,0.19,0.43,0.43C112.77,708.62,112.58,708.82,112.34,708.82z"/>
	<g>
		<polygon class="st3" points="883.76,367.14 883.76,359.87 211.91,359.87 211.91,387.86 257.78,387.86 257.78,400.69 
			266.73,400.69 266.73,387.86 837.35,387.86 837.35,413 883.76,413 883.76,380.56 986.15,380.56 986.15,414.15 999.57,414.15 
			999.57,367.14 		"/>
		<path d="M986.58,413.71v-33.59H883.33v32.45h-45.55v-25.15H266.3v12.83h-8.09v-12.83h-45.86V367.7c0,0.24-0.2,0.44-0.44,0.44
			v19.72h45.87v12.83h8.95v-0.42c0.24,0,0.44,0.2,0.44,0.44v-12.42h569.74v25.14h47.29v-32.44h101.51v33.59h1.67v-0.43
			c0-0.01,0-0.01,0-0.02c0-0.2,0.13-0.37,0.32-0.42H986.58z M884.2,366.7v-7.26H211.48v28.85h45.86v12.83h9.83v-12.83h569.74v25.14
			h47.29v-32.44h101.51v33.59H1000V366.7H884.2z M999.13,413.71h-12.55v-33.59H883.33v32.45h-45.55v-25.15H266.3v12.83h-8.09v-12.83
			h-45.86v-27.11h670.98v7.26h115.8V413.71z"/>
	</g>
	<g>
		<polygon class="st3" points="986.15,715.1 883.76,715.1 883.76,636.79 837.35,636.79 837.35,708.39 266.73,708.39 266.73,501.41 
			257.78,501.41 257.78,523.79 178.36,523.79 178.36,532.71 257.78,532.71 257.78,708.39 22.81,708.39 22.81,532.71 100.02,532.71 
			100.02,523.79 22.81,523.79 22.81,387.82 100.02,387.82 100.02,359.87 0.43,359.87 0.43,708.35 0.49,708.39 0.43,708.39 
			0.43,746.44 883.76,746.44 883.76,728.52 999.57,728.52 999.57,622.23 986.15,622.23 		"/>
		<path d="M985.71,621.79v92.88H884.2v-78.31h-47.29v71.6H267.17V500.98h-9.83v22.38h-79.41v9.79h79.41v174.81H23.25V533.15h77.2
			v-9.79h-77.2V388.25h77.2v-28.81H0v387.43h884.2v-17.92H1000V621.79H985.71z M883.33,746H0.87v-37.19l0.97-0.02l-0.97-0.67V360.31
			h98.71v27.08h-77.2v136.84h77.2v8.05h-77.2v176.55h235.83V532.28H178.8v-8.05h79.41v-22.38h8.09v206.98h571.48v-71.6h45.55v78.3
			h103.25v-92.87h12.55v105.43h-115.8V746z"/>
	</g>
	<path d="M852.62,547.71L852.62,547.71c-0.24,0-0.44-0.19-0.43-0.43l0.04-134.47c0-0.24,0.19-0.43,0.43-0.43l0,0
		c0.24,0,0.44,0.19,0.43,0.43l-0.04,134.47C853.05,547.51,852.86,547.71,852.62,547.71z"/>
	<path d="M862.69,547.71L862.69,547.71c-0.24,0-0.44-0.19-0.43-0.43l0.04-134.47c0-0.24,0.19-0.43,0.43-0.43l0,0
		c0.24,0,0.44,0.19,0.43,0.43l-0.04,134.47C863.12,547.51,862.93,547.71,862.69,547.71z"/>
	<path d="M858.21,541.44L858.21,541.44c-0.24,0-0.44-0.19-0.43-0.43l0.04-116.27c0-0.24,0.19-0.43,0.43-0.43l0,0
		c0.24,0,0.44,0.19,0.43,0.43l-0.04,116.27C858.65,541.25,858.45,541.44,858.21,541.44z"/>
	<path d="M862.72,418.91h-10.07c-0.24,0-0.43-0.19-0.43-0.43s0.19-0.43,0.43-0.43h10.07c0.24,0,0.43,0.19,0.43,0.43
		S862.96,418.91,862.72,418.91z"/>
	<path d="M862.69,541.44h-10.07c-0.24,0-0.43-0.19-0.43-0.43s0.19-0.43,0.43-0.43h10.07c0.24,0,0.43,0.19,0.43,0.43
		S862.93,541.44,862.69,541.44z"/>
	<path d="M837.33,547.71L837.33,547.71c-0.24,0-0.44-0.19-0.43-0.43l0.04-134.47c0-0.24,0.19-0.43,0.43-0.43l0,0
		c0.24,0,0.44,0.19,0.43,0.43l-0.04,134.47C837.77,547.51,837.57,547.71,837.33,547.71z"/>
	<path d="M883.76,547.92L883.76,547.92c-0.24,0-0.44-0.19-0.43-0.43l0.04-134.47c0-0.24,0.19-0.43,0.43-0.43l0,0
		c0.24,0,0.44,0.19,0.43,0.43l-0.04,134.47C884.2,547.72,884,547.92,883.76,547.92z"/>
	<path d="M862.72,425.17h-10.07c-0.24,0-0.43-0.19-0.43-0.43c0-0.24,0.19-0.43,0.43-0.43h10.07c0.24,0,0.43,0.19,0.43,0.43
		C863.15,424.98,862.96,425.17,862.72,425.17z"/>
	<path d="M883.76,547.92C883.76,547.92,883.76,547.92,883.76,547.92l-46.43-0.21c-0.24,0-0.43-0.2-0.43-0.44
		c0-0.24,0.16-0.41,0.44-0.43l46.43,0.21c0.24,0,0.43,0.2,0.43,0.44C884.2,547.73,884,547.92,883.76,547.92z"/>
	<path d="M857.09,541.44L857.09,541.44c-0.24,0-0.44-0.19-0.43-0.43l0.04-116.27c0-0.24,0.19-0.43,0.43-0.43l0,0
		c0.24,0,0.44,0.19,0.43,0.43l-0.04,116.27C857.53,541.25,857.33,541.44,857.09,541.44z"/>
	<path d="M997.88,367.58L997.88,367.58l-10.07-0.01c-0.24,0-0.44-0.19-0.43-0.43c0-0.24,0.19-0.43,0.43-0.43l0,0l10.07,0.01
		c0.24,0,0.44,0.19,0.43,0.43C998.32,367.38,998.12,367.58,997.88,367.58z"/>
	<path d="M997.88,414.57L997.88,414.57l-10.07-0.01c-0.24,0-0.44-0.19-0.43-0.43c0-0.24,0.19-0.43,0.43-0.43l0,0l10.07,0.01
		c0.24,0,0.44,0.19,0.43,0.43C998.31,414.38,998.12,414.57,997.88,414.57z"/>
	<path d="M987.81,622.66c-0.24,0-0.43-0.19-0.43-0.43l0-208.1c0-0.24,0.19-0.43,0.43-0.43c0.24,0,0.43,0.19,0.43,0.43l0,208.1
		C988.25,622.46,988.05,622.66,987.81,622.66z"/>
	<path d="M992.85,616.4c-0.24,0-0.43-0.19-0.43-0.43l-0.01-195.57c0-0.24,0.19-0.43,0.43-0.43s0.43,0.19,0.43,0.43l0.01,195.57
		C993.29,616.2,993.09,616.4,992.85,616.4z"/>
	<path d="M997.88,414.57L997.88,414.57l-10.07-0.01c-0.24,0-0.44-0.19-0.43-0.43c0-0.24,0.19-0.43,0.43-0.43l0,0l10.07,0.01
		c0.24,0,0.44,0.19,0.43,0.43C998.31,414.38,998.12,414.57,997.88,414.57z"/>
	<path d="M997.88,420.84L997.88,420.84l-10.07-0.01c-0.24,0-0.44-0.19-0.43-0.43c0-0.24,0.19-0.43,0.43-0.43l0,0l10.07,0.01
		c0.24,0,0.44,0.19,0.43,0.43C998.31,420.64,998.12,420.84,997.88,420.84z"/>
	<path d="M997.88,622.67L997.88,622.67l-10.07-0.01c-0.24,0-0.44-0.19-0.43-0.43c0-0.24,0.19-0.43,0.43-0.43l0,0l10.07,0.01
		c0.24,0,0.44,0.19,0.43,0.43C998.32,622.47,998.12,622.67,997.88,622.67z"/>
	<path d="M997.89,616.4L997.89,616.4l-10.07-0.01c-0.24,0-0.44-0.19-0.43-0.43c0-0.24,0.19-0.43,0.43-0.43l0,0l10.07,0.01
		c0.24,0,0.44,0.19,0.43,0.43C998.32,616.21,998.13,616.4,997.89,616.4z"/>
	<path d="M997.88,622.67c-0.24,0-0.43-0.19-0.43-0.43l0-208.1c0-0.24,0.19-0.43,0.43-0.43c0.24,0,0.43,0.19,0.43,0.43l0,208.1
		C998.32,622.47,998.12,622.67,997.88,622.67z"/>
	<path d="M1000.43,414.06v208.28c0,0.24-0.19,0.44-0.43,0.44c-0.23,0-0.41-0.17-0.43-0.38c-0.01-0.02-0.01-0.04-0.01-0.06V414.06
		c0-0.02,0-0.04,0.01-0.06c0.02-0.21,0.2-0.37,0.42-0.37h0.01C1000.24,413.64,1000.43,413.82,1000.43,414.06z"/>
	<path d="M986.14,622.66c-0.24,0-0.43-0.19-0.43-0.43l-0.03-208.1c0-0.24,0.19-0.43,0.43-0.43c0.24,0,0.43,0.19,0.43,0.43
		l0.03,208.1C986.57,622.46,986.38,622.66,986.14,622.66z"/>
	<g>
		<rect x="500.8" y="423.09" class="st0" width="256.68" height="67.13"/>
		<path d="M757.91,490.66H500.37v-68h257.54V490.66z M501.24,489.79h255.81v-66.26H501.24V489.79z"/>
	</g>
	<g>
		<rect x="500.81" y="423.09" class="st0" width="67.13" height="67.13"/>
		<path d="M568.37,490.66h-68v-68h68V490.66z M501.24,489.79h66.26v-66.26h-66.26V489.79z"/>
	</g>
	<g>
		<path d="M627.36,469.42v6.69h-22.74v-6.76l8.59-10.74c2.36-2.95,3.98-5.31,4.86-7.11c0.88-1.79,1.33-3.63,1.33-5.53v-0.63
			c0-1.52-0.37-2.68-1.11-3.5c-0.74-0.82-1.78-1.23-3.13-1.23c-2.82,0-4.23,1.62-4.23,4.86v1.71h-7.2v-1.71c0-3.75,1-6.61,3-8.59
			c2-1.98,4.85-2.97,8.56-2.97c3.58,0,6.36,0.98,8.34,2.94c1.98,1.96,2.97,4.7,2.97,8.24v0.63c0,2.57-0.56,5.04-1.67,7.42
			c-1.12,2.38-3.19,5.46-6.22,9.25l-5.62,7.01H627.36z"/>
		<path d="M645.04,476.11h-7.33v-31.58c-1.14,0.38-2.38,0.57-3.73,0.57h-3.85v-6.69h3.73c1.22,0,2.17-0.32,2.84-0.98
			c0.67-0.65,1.01-1.57,1.01-2.75h7.33V476.11z"/>
		<path d="M654.83,475.61c-0.84-0.84-1.26-1.92-1.26-3.22c0-1.3,0.42-2.37,1.26-3.19c0.84-0.82,1.92-1.23,3.22-1.23
			c1.35,0,2.43,0.41,3.25,1.23c0.82,0.82,1.23,1.88,1.23,3.19c0,1.31-0.41,2.38-1.23,3.22c-0.82,0.84-1.91,1.26-3.25,1.26
			C656.75,476.87,655.67,476.45,654.83,475.61z"/>
		<path d="M689.35,437.05c2.21,2.08,3.32,4.92,3.32,8.49v19.7c0,3.58-1.11,6.41-3.32,8.49c-2.21,2.08-5.21,3.13-9,3.13
			c-3.92,0-6.94-1.01-9.06-3.03c-2.13-2.02-3.19-4.86-3.19-8.53v-0.63h7.33v0.63c0,1.56,0.43,2.77,1.29,3.63
			c0.86,0.86,2.07,1.29,3.63,1.29c1.56,0,2.78-0.42,3.66-1.26c0.88-0.84,1.33-2,1.33-3.47v-6.13c-1.77,1.01-3.7,1.52-5.81,1.52
			c-3.41,0-6.17-0.95-8.27-2.84c-2.11-1.89-3.16-4.48-3.16-7.77v-4.93c0-3.62,1.07-6.43,3.22-8.43c2.15-2,5.16-3,9.03-3
			C684.13,433.93,687.14,434.97,689.35,437.05z M683.22,453.6c0.86-0.44,1.57-1.04,2.12-1.8v-6.19c0-1.56-0.44-2.79-1.33-3.7
			c-0.88-0.9-2.11-1.36-3.66-1.36c-1.52,0-2.72,0.45-3.6,1.36c-0.88,0.91-1.33,2.14-1.33,3.7v3.85c0,1.43,0.45,2.59,1.36,3.47
			c0.91,0.88,2.09,1.33,3.57,1.33C681.4,454.26,682.36,454.04,683.22,453.6z"/>
		<path d="M721.14,469.42v6.69h-22.74v-6.76l8.59-10.74c2.36-2.95,3.98-5.31,4.86-7.11c0.88-1.79,1.33-3.63,1.33-5.53v-0.63
			c0-1.52-0.37-2.68-1.11-3.5c-0.74-0.82-1.78-1.23-3.13-1.23c-2.82,0-4.23,1.62-4.23,4.86v1.71h-7.2v-1.71c0-3.75,1-6.61,3-8.59
			c2-1.98,4.85-2.97,8.56-2.97c3.58,0,6.36,0.98,8.34,2.94c1.98,1.96,2.97,4.7,2.97,8.24v0.63c0,2.57-0.56,5.04-1.67,7.42
			c-1.12,2.38-3.19,5.46-6.22,9.25l-5.62,7.01H721.14z"/>
	</g>
	<g>
		<g>
			<path d="M525.15,473.62c-2.36-2.17-3.54-5.12-3.54-8.87v-18.69c0-3.75,1.18-6.7,3.54-8.87c2.36-2.17,5.56-3.25,9.6-3.25
				c8.67,0,13.01,4.55,13.01,13.64v3.85h-7.33v-3.85c0-2.36-0.46-4.1-1.39-5.24c-0.93-1.14-2.38-1.7-4.36-1.7
				c-1.85,0-3.27,0.52-4.26,1.55c-0.99,1.03-1.48,2.52-1.48,4.45v17.62c0,1.94,0.49,3.41,1.48,4.42c0.99,1.01,2.41,1.52,4.26,1.52
				c3.83,0,5.75-2.21,5.75-6.63v-3.85h7.33v3.85c0,4.42-1.1,7.75-3.28,9.98c-2.19,2.23-5.43,3.35-9.72,3.35
				C530.7,476.87,527.5,475.79,525.15,473.62z"/>
		</g>
	</g>
</g>
</svg>
