<svg width="194" height="52" viewBox="0 0 194 52" fill="none" xmlns="http://www.w3.org/2000/svg">
<g clip-path="url(#clip0_4751_125886)">
<mask id="mask0_4751_125886" style="mask-type:luminance" maskUnits="userSpaceOnUse" x="0" y="0" width="194" height="52">
<path d="M193.764 0H0V51.8466H193.764V0Z" fill="white"/>
</mask>
<g mask="url(#mask0_4751_125886)">
<path d="M94.9623 37.9752L91.057 21.7443L83.879 38.3161H82.7572L75.3768 21.7443L71.5643 37.9752H67.3047L73.4536 12.7168H75.4949L83.3223 31.147L90.5424 12.7168H92.5583L99.2218 37.9752H94.9623Z" fill="white"/>
<path d="M121.196 37.9751L119.053 32.6472H107.489L105.195 37.9751H100.438L113.064 12.3672H114.186L125.902 37.9751H121.196ZM113.427 18.9908L108.611 30.1154H117.838L113.427 18.9908Z" fill="white"/>
<path d="M136.459 37.9763H128.328V12.735C131.567 12.5645 134.064 12.4707 135.835 12.4707C138.593 12.4707 140.753 12.9992 142.33 14.0648C143.899 15.1304 144.692 16.6819 144.692 18.7278C144.692 19.8615 144.202 20.9186 143.216 21.8989C142.237 22.8792 141.141 23.493 139.934 23.7487C144.278 24.6012 146.446 26.9028 146.446 30.6622C146.446 32.8956 145.527 34.6687 143.696 35.99C141.866 37.3114 139.454 37.9763 136.459 37.9763ZM132.225 15.4714V22.7087C133.035 22.7769 134.047 22.811 135.27 22.811C138.973 22.811 140.828 21.4812 140.828 18.83C140.828 16.4943 139.116 15.3264 135.7 15.3264C134.739 15.3264 133.583 15.3691 132.225 15.4628V15.4714ZM132.225 25.4025V35.0438C133.684 35.1546 134.705 35.2143 135.304 35.2143C137.665 35.2143 139.428 34.8222 140.584 34.0294C141.739 33.2451 142.321 31.9409 142.321 30.1251C142.321 28.4202 141.765 27.1927 140.651 26.4425C139.538 25.6923 137.944 25.3087 135.869 25.3087C135.751 25.3087 134.536 25.3428 132.225 25.394V25.4025Z" fill="white"/>
<path d="M170.133 37.9763H166.32V19.853L150.699 38.3173H149.695V12.735H153.491V30.8412L169.129 12.377H170.133V37.9848V37.9763Z" fill="white"/>
<path d="M192.453 13.6459L191.18 16.6125C189.973 15.7856 188.076 15.3679 185.469 15.3679C182.863 15.3679 180.94 16.3567 179.523 18.3259C178.097 20.2951 177.389 22.7246 177.389 25.6144C177.389 28.3508 178.114 30.6439 179.548 32.5023C180.99 34.3607 182.973 35.2898 185.511 35.2898C188.05 35.2898 190.083 34.4544 191.492 32.7921L193.6 35.4433C191.382 37.421 188.548 38.4098 185.081 38.4098C181.412 38.4098 178.544 37.2079 176.486 34.8039C174.42 32.4 173.391 29.28 173.391 25.4439C173.391 21.6079 174.479 18.6498 176.663 16.101C178.848 13.5436 181.75 12.2734 185.368 12.2734C188.346 12.2734 190.707 12.7338 192.47 13.6544L192.453 13.6459Z" fill="white"/>
<path d="M6.07031 42.5723L6.07821 42.5802V42.5723H6.07031Z" fill="white"/>
<path d="M51.8823 25.9062C51.8823 11.5934 40.2761 0 25.9285 0C11.581 0 0 11.5934 0 25.9062C0 29.5718 0.767565 33.0584 2.134 36.221C2.94374 34.6098 11.4544 17.5948 11.4544 17.5948L3.76191 39.3239C3.8547 39.4774 3.93904 39.6479 4.04026 39.8013C4.90061 38.1049 14.415 19.2059 14.415 19.2059L6.08148 42.5633C6.17426 42.6826 6.26704 42.802 6.36826 42.9128C7.1527 41.3443 17.0214 21.3541 17.0214 21.3541L8.73843 45.2826C8.83965 45.3764 8.94087 45.4787 9.04209 45.5639C9.77591 43.9443 19.2313 23.059 19.2313 23.059L11.6737 47.5587C15.7646 50.2525 20.6568 51.8295 25.9285 51.8295C31.2003 51.8295 35.831 50.3377 39.8543 47.7803L32.9463 23.3233C32.9463 23.3233 41.7943 44.2341 42.486 45.8623C42.6041 45.7685 42.7306 45.6748 42.8403 45.5725L35.2068 21.678C35.2068 21.678 44.4344 41.6 45.2104 43.2708C45.3201 43.1515 45.4297 43.0236 45.5394 42.8957L37.8722 19.581L47.6734 40.0741C47.7662 39.9377 47.8421 39.7928 47.9264 39.6564L40.8665 18.0466C40.8665 18.0466 48.8121 34.8826 49.605 36.562C51.0726 33.3056 51.8992 29.6997 51.8992 25.8977L51.8823 25.9062ZM26.1563 36.2039L26.7467 37.8236C26.7467 37.8236 26.5021 37.2866 26.0803 36.3744C25.6502 37.2951 25.3971 37.8407 25.3971 37.8407L26.0044 36.1954C23.1703 30.0577 13.1498 8.41377 11.9183 5.8223L14.4488 4.25377L26.0803 35.9738L37.7035 4.33902L37.7457 4.30492L40.3773 5.90754C39.1458 8.49049 29.0241 30.0748 26.1478 36.2039H26.1563Z" fill="white"/>
</g>
</g>
<defs>
<clipPath id="clip0_4751_125886">
<rect width="194" height="52" fill="white"/>
</clipPath>
</defs>
</svg>
