<svg viewBox="0 0 251 70" fill="none" xmlns="http://www.w3.org/2000/svg"><path d="M122.178 51.892l-5.093-21.794-9.462 22.27h-1.467L96.6 30.098l-4.983 21.794H86.05l8.027-33.946h2.665l10.219 24.78 9.461-24.78h2.634l8.705 33.946h-5.583zm34.269 0l-2.806-7.15h-15.139l-2.98 7.15h-6.182l16.494-34.437h1.468l15.295 34.438h-6.15zm-10.06-25.5l-6.309 14.94h11.986l-5.677-14.94zm29.956 25.5h-10.612V17.98c4.204-.24 7.469-.36 9.791-.36a14.638 14.638 0 018.485 2.148 6.982 6.982 0 012.381 2.693c.555 1.1.82 2.331.773 3.571a6.132 6.132 0 01-.538 2.34 5.895 5.895 0 01-1.387 1.924 8.43 8.43 0 01-4.289 2.492c5.655 1.094 8.489 4.188 8.5 9.282a8.647 8.647 0 01-.93 4.073 8.27 8.27 0 01-2.713 3.094 15.483 15.483 0 01-9.461 2.656zm-5.519-30.24v9.741a51.75 51.75 0 003.973.132c4.826 0 7.255-1.788 7.255-5.346 0-3.127-2.235-4.696-6.703-4.707-1.23 0-2.727.066-4.493.18h-.032zm0 13.35v12.954c1.892.164 3.153.23 4.02.23a12.118 12.118 0 006.892-1.64 5.86 5.86 0 001.794-2.316 6.09 6.09 0 00.477-2.931 5.722 5.722 0 00-.467-2.758 5.479 5.479 0 00-1.709-2.162 10.81 10.81 0 00-6.309-1.525l-4.698.147zm49.518 16.89h-4.983V27.54L194.97 52.368h-1.277V17.93h4.967V42.3l20.42-24.812h1.31l-.048 34.404zm29.175-32.682l-1.656 3.984a13.095 13.095 0 00-7.458-1.64 8.802 8.802 0 00-4.36.932 9.197 9.197 0 00-3.414 2.971 16.644 16.644 0 00-2.791 9.84c-.105 3.333.891 6.603 2.822 9.265a9.443 9.443 0 003.459 2.852c1.356.65 2.84.954 4.332.887a9.318 9.318 0 004.275-.745 9.68 9.68 0 003.53-2.617L251 48.514c-3.093 2.734-7.061 4.157-11.117 3.985a13.574 13.574 0 01-6.154-1.128 14.076 14.076 0 01-5.073-3.791c-2.804-3.526-4.249-8.008-4.053-12.578-.116-4.593 1.407-9.067 4.273-12.562a14.328 14.328 0 015.121-3.915 13.81 13.81 0 016.249-1.218 19.546 19.546 0 019.271 1.902zM68.315 34.975a36.295 36.295 0 00-2.664-13.468 35.262 35.262 0 00-7.44-11.38 33.843 33.843 0 00-11.077-7.553A32.863 32.863 0 0034.11.001a32.866 32.866 0 00-12.995 2.602 33.846 33.846 0 00-11.046 7.56A35.265 35.265 0 002.655 21.53 36.293 36.293 0 000 34.975 35.586 35.586 0 002.812 48.91l12.265-25.155-10.12 29.356c.111.198.222.428.35.626 1.143-2.29 13.662-27.79 13.662-27.79L7.944 57.477l.365.477c1.033-2.125 14.013-29.108 14.013-29.108L11.502 61.15c.125.135.258.262.397.38l13.41-30.378-9.946 33.096c5.51 3.705 11.926 5.7 18.493 5.75 6.567.05 13.01-1.848 18.572-5.47L43.324 31.58l12.551 30.427.477-.395-10.04-32.322 13.17 29.142.429-.51-10.089-31.465 12.885 27.676c.127-.198.222-.38.333-.577l-9.278-29.175 11.487 25.04a35.669 35.669 0 003.066-14.447zM34.412 48.879l.778 2.19s-.318-.724-.874-1.943l-.953 1.944.794-2.224c-3.733-8.237-16.92-37.51-18.54-41.003l3.448-2.092 15.299 42.831L49.616 5.849l3.447 2.158-18.651 40.871z" fill="#1B3764"/></svg>